<?xml version="1.0" encoding="utf-8" standalone="no"?>
<!DOCTYPE svg PUBLIC "-//W3C//DTD SVG 1.1//EN"
  "http://www.w3.org/Graphics/SVG/1.1/DTD/svg11.dtd">
<!-- Created with matplotlib (https://matplotlib.org/) -->
<svg height="720pt" version="1.1" viewBox="0 0 864 720" width="864pt" xmlns="http://www.w3.org/2000/svg" xmlns:xlink="http://www.w3.org/1999/xlink">
 <defs>
  <style type="text/css">
*{stroke-linecap:butt;stroke-linejoin:round;}
  </style>
 </defs>
 <g id="figure_1">
  <g id="patch_1">
   <path d="M 0 720 
L 864 720 
L 864 0 
L 0 0 
z
" style="fill:#ffffff;"/>
  </g>
  <g id="axes_1">
   <g id="patch_2">
    <path d="M 108 640.8 
L 777.6 640.8 
L 777.6 86.4 
L 108 86.4 
z
" style="fill:#ffffff;"/>
   </g>
   <g id="matplotlib.axis_1">
    <g id="xtick_1">
     <g id="line2d_1"/>
     <g id="text_1">
      <text style="fill:#262626;font-family:Liberation Sans;font-size:20px;font-style:normal;font-weight:normal;text-anchor:middle;" transform="rotate(-0, 108, 658.79375)" x="108" y="658.79375">0</text>
     </g>
    </g>
    <g id="xtick_2">
     <g id="line2d_2"/>
     <g id="text_2">
      <text style="fill:#262626;font-family:Liberation Sans;font-size:20px;font-style:normal;font-weight:normal;text-anchor:middle;" transform="rotate(-0, 241.92, 658.79375)" x="241.92" y="658.79375">20</text>
     </g>
    </g>
    <g id="xtick_3">
     <g id="line2d_3"/>
     <g id="text_3">
      <text style="fill:#262626;font-family:Liberation Sans;font-size:20px;font-style:normal;font-weight:normal;text-anchor:middle;" transform="rotate(-0, 375.84, 658.79375)" x="375.84" y="658.79375">40</text>
     </g>
    </g>
    <g id="xtick_4">
     <g id="line2d_4"/>
     <g id="text_4">
      <text style="fill:#262626;font-family:Liberation Sans;font-size:20px;font-style:normal;font-weight:normal;text-anchor:middle;" transform="rotate(-0, 509.76, 658.79375)" x="509.76" y="658.79375">60</text>
     </g>
    </g>
    <g id="xtick_5">
     <g id="line2d_5"/>
     <g id="text_5">
      <text style="fill:#262626;font-family:Liberation Sans;font-size:20px;font-style:normal;font-weight:normal;text-anchor:middle;" transform="rotate(-0, 643.68, 658.79375)" x="643.68" y="658.79375">80</text>
     </g>
    </g>
    <g id="xtick_6">
     <g id="line2d_6"/>
     <g id="text_6">
      <text style="fill:#262626;font-family:Liberation Sans;font-size:20px;font-style:normal;font-weight:normal;text-anchor:middle;" transform="rotate(-0, 777.6, 658.79375)" x="777.6" y="658.79375">100</text>
     </g>
    </g>
    <g id="text_7">
     <text style="fill:#262626;font-family:Liberation Sans;font-size:32px;font-style:normal;font-weight:normal;text-anchor:middle;" transform="rotate(-0, 442.8, 690.13375)" x="442.8" y="690.13375">Generation</text>
    </g>
   </g>
   <g id="matplotlib.axis_2">
    <g id="ytick_1">
     <g id="line2d_7"/>
     <g id="text_8">
      <text style="fill:#262626;font-family:Liberation Sans;font-size:20px;font-style:normal;font-weight:normal;text-anchor:end;" transform="rotate(-0, 104.5, 648.046875)" x="104.5" y="648.046875">0.0</text>
     </g>
    </g>
    <g id="ytick_2">
     <g id="line2d_8"/>
     <g id="text_9">
      <text style="fill:#262626;font-family:Liberation Sans;font-size:20px;font-style:normal;font-weight:normal;text-anchor:end;" transform="rotate(-0, 104.5, 542.446875)" x="104.5" y="542.446875">0.2</text>
     </g>
    </g>
    <g id="ytick_3">
     <g id="line2d_9"/>
     <g id="text_10">
      <text style="fill:#262626;font-family:Liberation Sans;font-size:20px;font-style:normal;font-weight:normal;text-anchor:end;" transform="rotate(-0, 104.5, 436.846875)" x="104.5" y="436.846875">0.4</text>
     </g>
    </g>
    <g id="ytick_4">
     <g id="line2d_10"/>
     <g id="text_11">
      <text style="fill:#262626;font-family:Liberation Sans;font-size:20px;font-style:normal;font-weight:normal;text-anchor:end;" transform="rotate(-0, 104.5, 331.246875)" x="104.5" y="331.246875">0.6</text>
     </g>
    </g>
    <g id="ytick_5">
     <g id="line2d_11"/>
     <g id="text_12">
      <text style="fill:#262626;font-family:Liberation Sans;font-size:20px;font-style:normal;font-weight:normal;text-anchor:end;" transform="rotate(-0, 104.5, 225.646875)" x="104.5" y="225.646875">0.8</text>
     </g>
    </g>
    <g id="ytick_6">
     <g id="line2d_12"/>
     <g id="text_13">
      <text style="fill:#262626;font-family:Liberation Sans;font-size:20px;font-style:normal;font-weight:normal;text-anchor:end;" transform="rotate(-0, 104.5, 120.046875)" x="104.5" y="120.046875">1.0</text>
     </g>
    </g>
    <g id="text_14">
     <text style="fill:#262626;font-family:Liberation Sans;font-size:32px;font-style:normal;font-weight:normal;text-anchor:middle;" transform="rotate(-90, 66.06, 363.6)" x="66.06" y="363.6">Frequency</text>
    </g>
   </g>
   <g id="PolyCollection_1">
    <path clip-path="url(#pac4f33aa88)" d="M 108 640.8 
L 108 640.8 
L 114.696 640.8 
L 121.392 640.8 
L 128.088 640.8 
L 134.784 640.8 
L 141.48 640.8 
L 148.176 640.8 
L 154.872 640.8 
L 161.568 640.8 
L 168.264 640.8 
L 174.96 640.8 
L 181.656 640.8 
L 185.004 640.8 
L 188.352 640.8 
L 195.048 640.8 
L 201.744 640.8 
L 205.092 640.8 
L 208.44 640.8 
L 215.136 640.8 
L 221.832 640.8 
L 228.528 640.8 
L 235.224 640.8 
L 241.92 640.8 
L 248.616 640.8 
L 255.312 640.8 
L 262.008 640.8 
L 268.704 640.8 
L 275.4 640.8 
L 282.096 640.8 
L 288.792 640.8 
L 295.488 640.8 
L 302.184 640.8 
L 308.88 640.8 
L 312.228 640.8 
L 315.576 640.8 
L 322.272 640.8 
L 328.968 640.8 
L 335.664 640.8 
L 342.36 640.8 
L 349.056 640.8 
L 355.752 640.8 
L 362.448 640.8 
L 369.144 640.8 
L 375.84 640.8 
L 382.536 640.8 
L 389.232 640.8 
L 395.928 640.8 
L 402.624 640.8 
L 409.32 640.8 
L 416.016 640.8 
L 422.712 640.8 
L 429.408 640.8 
L 436.104 640.8 
L 442.8 640.8 
L 449.496 640.8 
L 452.844 640.8 
L 456.192 640.8 
L 462.888 640.8 
L 469.584 640.8 
L 476.28 640.8 
L 482.976 640.8 
L 489.672 640.8 
L 496.368 640.8 
L 499.716 640.8 
L 503.064 640.8 
L 509.76 640.8 
L 516.456 640.8 
L 523.152 640.8 
L 529.848 640.8 
L 536.544 640.8 
L 543.24 640.8 
L 549.936 640.8 
L 556.632 640.8 
L 563.328 640.8 
L 570.024 640.8 
L 576.72 640.8 
L 583.416 640.8 
L 590.112 640.8 
L 596.808 640.8 
L 603.504 640.8 
L 610.2 640.8 
L 616.896 640.8 
L 623.592 640.8 
L 630.288 640.8 
L 636.984 640.8 
L 643.68 640.8 
L 650.376 640.8 
L 653.724 640.8 
L 657.072 640.8 
L 663.768 640.8 
L 670.464 640.8 
L 677.16 640.8 
L 683.856 640.8 
L 690.552 640.8 
L 697.248 640.8 
L 703.944 640.8 
L 710.64 640.8 
L 717.336 640.8 
L 724.032 640.8 
L 730.728 640.8 
L 737.424 640.8 
L 744.12 640.8 
L 750.816 640.8 
L 757.512 640.8 
L 764.208 640.8 
L 770.904 640.8 
L 777.6 640.8 
L 777.6 640.8 
L 777.6 640.8 
L 770.904 640.8 
L 764.208 640.8 
L 757.512 640.8 
L 750.816 640.8 
L 744.12 640.8 
L 737.424 640.8 
L 730.728 640.8 
L 724.032 640.8 
L 717.336 640.8 
L 710.64 640.8 
L 703.944 640.8 
L 697.248 640.8 
L 690.552 640.8 
L 683.856 640.8 
L 677.16 640.8 
L 670.464 640.8 
L 663.768 640.8 
L 657.072 640.8 
L 653.724 640.8 
L 650.376 640.8 
L 643.68 640.8 
L 636.984 640.8 
L 630.288 640.8 
L 623.592 640.8 
L 616.896 640.8 
L 610.2 640.8 
L 603.504 640.8 
L 596.808 640.8 
L 590.112 640.8 
L 583.416 640.8 
L 576.72 640.8 
L 570.024 640.8 
L 563.328 640.8 
L 556.632 640.8 
L 549.936 640.8 
L 543.24 640.8 
L 536.544 640.8 
L 529.848 640.8 
L 523.152 640.8 
L 516.456 640.8 
L 509.76 640.8 
L 503.064 638.717892 
L 499.716 639.271639 
L 496.368 639.84067 
L 489.672 640.8 
L 482.976 640.8 
L 476.28 640.8 
L 469.584 640.8 
L 462.888 640.8 
L 456.192 640.8 
L 452.844 640.8 
L 449.496 640.8 
L 442.8 640.8 
L 436.104 640.8 
L 429.408 640.8 
L 422.712 640.8 
L 416.016 640.8 
L 409.32 640.8 
L 402.624 640.8 
L 395.928 640.8 
L 389.232 640.8 
L 382.536 640.8 
L 375.84 640.8 
L 369.144 640.8 
L 362.448 640.8 
L 355.752 640.8 
L 349.056 640.8 
L 342.36 640.8 
L 335.664 640.8 
L 328.968 640.8 
L 322.272 640.8 
L 315.576 640.8 
L 312.228 640.8 
L 308.88 640.8 
L 302.184 640.8 
L 295.488 640.8 
L 288.792 640.783509 
L 282.096 640.696032 
L 275.4 640.314805 
L 268.704 638.949736 
L 262.008 634.933284 
L 255.312 625.222055 
L 248.616 605.925786 
L 241.92 574.415018 
L 235.224 532.124327 
L 228.528 485.475673 
L 221.832 443.184982 
L 215.136 411.674214 
L 208.44 392.377945 
L 205.092 377.040472 
L 201.744 376.897039 
L 195.048 376.820794 
L 188.352 376.803298 
L 185.004 376.8 
L 181.656 376.8 
L 174.96 376.8 
L 168.264 376.8 
L 161.568 376.8 
L 154.872 376.8 
L 148.176 376.8 
L 141.48 376.8 
L 134.784 376.8 
L 128.088 376.8 
L 121.392 376.8 
L 114.696 376.8 
L 108 376.8 
z
" style="fill:#ffffff;"/>
   </g>
   <g id="PolyCollection_2">
    <path clip-path="url(#pac4f33aa88)" d="M 108 376.8 
L 108 376.8 
L 114.696 376.8 
L 121.392 376.8 
L 128.088 376.8 
L 134.784 376.8 
L 141.48 376.8 
L 148.176 376.8 
L 154.872 376.8 
L 161.568 376.8 
L 168.264 376.8 
L 174.96 376.8 
L 181.656 376.8 
L 185.004 376.8 
L 188.352 376.803298 
L 195.048 376.820794 
L 201.744 376.897039 
L 205.092 377.040472 
L 208.44 392.377945 
L 215.136 411.674214 
L 221.832 443.184982 
L 228.528 485.475673 
L 235.224 532.124327 
L 241.92 574.415018 
L 248.616 605.925786 
L 255.312 625.222055 
L 262.008 634.933284 
L 268.704 638.949736 
L 275.4 640.314805 
L 282.096 640.696032 
L 288.792 640.783509 
L 295.488 640.8 
L 302.184 640.8 
L 308.88 640.8 
L 312.228 640.8 
L 315.576 640.8 
L 322.272 640.8 
L 328.968 640.8 
L 335.664 640.8 
L 342.36 640.8 
L 349.056 640.8 
L 355.752 640.8 
L 362.448 640.8 
L 369.144 640.8 
L 375.84 640.8 
L 382.536 640.8 
L 389.232 640.8 
L 395.928 640.8 
L 402.624 640.8 
L 409.32 640.8 
L 416.016 640.8 
L 422.712 640.8 
L 429.408 640.8 
L 436.104 640.8 
L 442.8 640.8 
L 449.496 640.8 
L 452.844 640.8 
L 456.192 640.8 
L 462.888 640.8 
L 469.584 640.8 
L 476.28 640.8 
L 482.976 640.8 
L 489.672 640.8 
L 496.368 639.84067 
L 499.716 639.271639 
L 503.064 638.717892 
L 509.76 640.8 
L 516.456 640.8 
L 523.152 640.8 
L 529.848 640.8 
L 536.544 640.8 
L 543.24 640.8 
L 549.936 640.8 
L 556.632 640.8 
L 563.328 640.8 
L 570.024 640.8 
L 576.72 640.8 
L 583.416 640.8 
L 590.112 640.8 
L 596.808 640.8 
L 603.504 640.8 
L 610.2 640.8 
L 616.896 640.8 
L 623.592 640.8 
L 630.288 640.8 
L 636.984 640.8 
L 643.68 640.8 
L 650.376 640.8 
L 653.724 640.8 
L 657.072 640.8 
L 663.768 640.8 
L 670.464 640.8 
L 677.16 640.8 
L 683.856 640.8 
L 690.552 640.8 
L 697.248 640.8 
L 703.944 640.8 
L 710.64 640.8 
L 717.336 640.8 
L 724.032 640.8 
L 730.728 640.8 
L 737.424 640.8 
L 744.12 640.8 
L 750.816 640.8 
L 757.512 640.8 
L 764.208 640.8 
L 770.904 640.8 
L 777.6 640.8 
L 777.6 640.8 
L 777.6 638.236893 
L 770.904 638.236893 
L 764.208 638.236893 
L 757.512 638.236893 
L 750.816 638.236893 
L 744.12 638.236893 
L 737.424 638.236893 
L 730.728 638.236893 
L 724.032 638.236893 
L 717.336 638.236893 
L 710.64 638.236893 
L 703.944 638.236893 
L 697.248 638.236893 
L 690.552 638.236893 
L 683.856 638.236893 
L 677.16 638.236893 
L 670.464 638.194042 
L 663.768 638.211765 
L 657.072 638.211765 
L 653.724 638.190096 
L 650.376 638.211765 
L 643.68 638.186139 
L 636.984 638.186139 
L 630.288 638.186139 
L 623.592 638.186139 
L 616.896 638.186139 
L 610.2 638.186139 
L 603.504 638.186139 
L 596.808 638.186139 
L 590.112 638.186139 
L 583.416 638.186139 
L 576.72 638.186139 
L 570.024 638.186139 
L 563.328 638.186139 
L 556.632 638.186139 
L 549.936 638.186139 
L 543.24 638.186139 
L 536.544 638.186139 
L 529.848 638.186139 
L 523.152 638.186139 
L 516.456 638.186139 
L 509.76 638.186139 
L 503.064 636.077892 
L 499.716 636.618373 
L 496.368 637.20067 
L 489.672 638.170788 
L 482.976 638.180322 
L 476.28 638.184213 
L 469.584 638.185591 
L 462.888 638.18601 
L 456.192 638.186117 
L 452.844 638.186113 
L 449.496 638.186139 
L 442.8 638.186139 
L 436.104 638.186139 
L 429.408 638.186139 
L 422.712 638.186139 
L 416.016 638.186139 
L 409.32 638.186139 
L 402.624 638.186139 
L 395.928 638.186139 
L 389.232 638.186139 
L 382.536 638.186139 
L 375.84 638.186139 
L 369.144 638.186139 
L 362.448 638.186139 
L 355.752 638.186139 
L 349.056 638.184915 
L 342.36 638.16211 
L 335.664 620.038962 
L 328.968 556.670608 
L 322.272 460.929392 
L 315.576 397.561038 
L 312.228 404.280539 
L 308.88 429.6 
L 302.184 429.596702 
L 295.488 429.579206 
L 288.792 429.502961 
L 282.096 429.229947 
L 275.4 428.426657 
L 268.704 426.484411 
L 262.008 422.625157 
L 255.312 416.323004 
L 248.616 407.864865 
L 241.92 398.535135 
L 235.224 390.076996 
L 228.528 383.774843 
L 221.832 379.915589 
L 215.136 377.973343 
L 208.44 377.170053 
L 205.092 377.040472 
L 201.744 376.897039 
L 195.048 376.820794 
L 188.352 376.803298 
L 185.004 376.8 
L 181.656 376.8 
L 174.96 376.8 
L 168.264 376.8 
L 161.568 376.8 
L 154.872 376.8 
L 148.176 376.8 
L 141.48 376.8 
L 134.784 376.8 
L 128.088 376.8 
L 121.392 376.8 
L 114.696 376.8 
L 108 376.8 
z
" style="fill:#fca082;"/>
   </g>
   <g id="PolyCollection_3">
    <path clip-path="url(#pac4f33aa88)" d="M 108 376.8 
L 108 376.8 
L 114.696 376.8 
L 121.392 376.8 
L 128.088 376.8 
L 134.784 376.8 
L 141.48 376.8 
L 148.176 376.8 
L 154.872 376.8 
L 161.568 376.8 
L 168.264 376.8 
L 174.96 376.8 
L 181.656 376.8 
L 185.004 376.8 
L 188.352 376.803298 
L 195.048 376.820794 
L 201.744 376.897039 
L 205.092 377.040472 
L 208.44 377.170053 
L 215.136 377.973343 
L 221.832 379.915589 
L 228.528 383.774843 
L 235.224 390.076996 
L 241.92 398.535135 
L 248.616 407.864865 
L 255.312 416.323004 
L 262.008 422.625157 
L 268.704 426.484411 
L 275.4 428.426657 
L 282.096 429.229947 
L 288.792 429.502961 
L 295.488 429.579206 
L 302.184 429.596702 
L 308.88 429.6 
L 312.228 404.280539 
L 315.576 397.561038 
L 322.272 460.929392 
L 328.968 556.670608 
L 335.664 620.038962 
L 342.36 638.16211 
L 349.056 638.184915 
L 355.752 638.186139 
L 362.448 638.186139 
L 369.144 638.186139 
L 375.84 638.186139 
L 382.536 638.186139 
L 389.232 638.186139 
L 395.928 638.186139 
L 402.624 638.186139 
L 409.32 638.186139 
L 416.016 638.186139 
L 422.712 638.186139 
L 429.408 638.186139 
L 436.104 638.186139 
L 442.8 638.186139 
L 449.496 638.186139 
L 452.844 638.186113 
L 456.192 638.186117 
L 462.888 638.18601 
L 469.584 638.185591 
L 476.28 638.184213 
L 482.976 638.180322 
L 489.672 638.170788 
L 496.368 637.20067 
L 499.716 636.618373 
L 503.064 636.077892 
L 509.76 638.186139 
L 516.456 638.186139 
L 523.152 638.186139 
L 529.848 638.186139 
L 536.544 638.186139 
L 543.24 638.186139 
L 549.936 638.186139 
L 556.632 638.186139 
L 563.328 638.186139 
L 570.024 638.186139 
L 576.72 638.186139 
L 583.416 638.186139 
L 590.112 638.186139 
L 596.808 638.186139 
L 603.504 638.186139 
L 610.2 638.186139 
L 616.896 638.186139 
L 623.592 638.186139 
L 630.288 638.186139 
L 636.984 638.186139 
L 643.68 638.186139 
L 650.376 638.211765 
L 653.724 638.190096 
L 657.072 638.211765 
L 663.768 638.211765 
L 670.464 638.194042 
L 677.16 638.236893 
L 683.856 638.236893 
L 690.552 638.236893 
L 697.248 638.236893 
L 703.944 638.236893 
L 710.64 638.236893 
L 717.336 638.236893 
L 724.032 638.236893 
L 730.728 638.236893 
L 737.424 638.236893 
L 744.12 638.236893 
L 750.816 638.236893 
L 757.512 638.236893 
L 764.208 638.236893 
L 770.904 638.236893 
L 777.6 638.236893 
L 777.6 638.236893 
L 777.6 635.673786 
L 770.904 635.673786 
L 764.208 635.673786 
L 757.512 635.673786 
L 750.816 635.673786 
L 744.12 635.673786 
L 737.424 635.673786 
L 730.728 635.673786 
L 724.032 635.673786 
L 717.336 635.673786 
L 710.64 635.673786 
L 703.944 635.673786 
L 697.248 635.673786 
L 690.552 635.673786 
L 683.856 635.673786 
L 677.16 635.673786 
L 670.464 635.588085 
L 663.768 635.623529 
L 657.072 635.623529 
L 653.724 635.580193 
L 650.376 635.623529 
L 643.68 507.493069 
L 636.984 507.493069 
L 630.288 507.493069 
L 623.592 507.493069 
L 616.896 507.493069 
L 610.2 507.493069 
L 603.504 507.487937 
L 596.808 507.467919 
L 590.112 507.398927 
L 583.416 507.188832 
L 576.72 506.623534 
L 570.024 505.279553 
L 563.328 502.456192 
L 556.632 497.215328 
L 549.936 488.619118 
L 543.24 476.160149 
L 536.544 460.203906 
L 529.848 442.146535 
L 523.152 424.089164 
L 516.456 408.13292 
L 509.76 395.673952 
L 503.064 382.458411 
L 499.716 379.064486 
L 496.368 378.287916 
L 489.672 377.476148 
L 482.976 377.083952 
L 476.28 376.90999 
L 469.584 376.83889 
L 462.888 376.812163 
L 456.192 376.80293 
L 452.844 376.8 
L 449.496 376.8 
L 442.8 376.8 
L 436.104 376.8 
L 429.408 376.8 
L 422.712 376.8 
L 416.016 376.8 
L 409.32 376.8 
L 402.624 376.8 
L 395.928 376.8 
L 389.232 376.8 
L 382.536 376.8 
L 375.84 376.8 
L 369.144 376.8 
L 362.448 376.8 
L 355.752 376.8 
L 349.056 376.8 
L 342.36 376.8 
L 335.664 376.8 
L 328.968 376.8 
L 322.272 376.8 
L 315.576 376.8 
L 312.228 404.280539 
L 308.88 429.6 
L 302.184 429.596702 
L 295.488 429.579206 
L 288.792 429.502961 
L 282.096 429.229947 
L 275.4 428.426657 
L 268.704 426.484411 
L 262.008 422.625157 
L 255.312 416.323004 
L 248.616 407.864865 
L 241.92 398.535135 
L 235.224 390.076996 
L 228.528 383.774843 
L 221.832 379.915589 
L 215.136 377.973343 
L 208.44 377.170053 
L 205.092 377.040472 
L 201.744 376.897039 
L 195.048 376.820794 
L 188.352 376.803298 
L 185.004 376.8 
L 181.656 376.8 
L 174.96 376.8 
L 168.264 376.8 
L 161.568 376.8 
L 154.872 376.8 
L 148.176 376.8 
L 141.48 376.8 
L 134.784 376.8 
L 128.088 376.8 
L 121.392 376.8 
L 114.696 376.8 
L 108 376.8 
z
" style="fill:#6aaed6;"/>
   </g>
   <g id="PolyCollection_4">
    <path clip-path="url(#pac4f33aa88)" d="M 108 376.8 
L 108 376.8 
L 114.696 376.8 
L 121.392 376.8 
L 128.088 376.8 
L 134.784 376.8 
L 141.48 376.8 
L 148.176 376.8 
L 154.872 376.8 
L 161.568 376.8 
L 168.264 376.8 
L 174.96 376.8 
L 181.656 376.8 
L 185.004 376.8 
L 188.352 376.803298 
L 195.048 376.820794 
L 201.744 376.897039 
L 205.092 377.040472 
L 208.44 377.170053 
L 215.136 377.973343 
L 221.832 379.915589 
L 228.528 383.774843 
L 235.224 390.076996 
L 241.92 398.535135 
L 248.616 407.864865 
L 255.312 416.323004 
L 262.008 422.625157 
L 268.704 426.484411 
L 275.4 428.426657 
L 282.096 429.229947 
L 288.792 429.502961 
L 295.488 429.579206 
L 302.184 429.596702 
L 308.88 429.6 
L 312.228 404.280539 
L 315.576 376.8 
L 322.272 376.8 
L 328.968 376.8 
L 335.664 376.8 
L 342.36 376.8 
L 349.056 376.8 
L 355.752 376.8 
L 362.448 376.8 
L 369.144 376.8 
L 375.84 376.8 
L 382.536 376.8 
L 389.232 376.8 
L 395.928 376.8 
L 402.624 376.8 
L 409.32 376.8 
L 416.016 376.8 
L 422.712 376.8 
L 429.408 376.8 
L 436.104 376.8 
L 442.8 376.8 
L 449.496 376.8 
L 452.844 376.8 
L 456.192 376.80293 
L 462.888 376.812163 
L 469.584 376.83889 
L 476.28 376.90999 
L 482.976 377.083952 
L 489.672 377.476148 
L 496.368 378.287916 
L 499.716 379.064486 
L 503.064 382.458411 
L 509.76 395.673952 
L 516.456 408.13292 
L 523.152 424.089164 
L 529.848 442.146535 
L 536.544 460.203906 
L 543.24 476.160149 
L 549.936 488.619118 
L 556.632 497.215328 
L 563.328 502.456192 
L 570.024 505.279553 
L 576.72 506.623534 
L 583.416 507.188832 
L 590.112 507.398927 
L 596.808 507.467919 
L 603.504 507.487937 
L 610.2 507.493069 
L 616.896 507.493069 
L 623.592 507.493069 
L 630.288 507.493069 
L 636.984 507.493069 
L 643.68 507.493069 
L 650.376 635.623529 
L 653.724 635.580193 
L 657.072 635.623529 
L 663.768 635.623529 
L 670.464 635.588085 
L 677.16 635.673786 
L 683.856 635.673786 
L 690.552 635.673786 
L 697.248 635.673786 
L 703.944 635.673786 
L 710.64 635.673786 
L 717.336 635.673786 
L 724.032 635.673786 
L 730.728 635.673786 
L 737.424 635.673786 
L 744.12 635.673786 
L 750.816 635.673786 
L 757.512 635.673786 
L 764.208 635.673786 
L 770.904 635.673786 
L 777.6 635.673786 
L 777.6 635.673786 
L 777.6 633.11068 
L 770.904 633.11068 
L 764.208 633.11068 
L 757.512 633.11068 
L 750.816 633.11068 
L 744.12 633.11068 
L 737.424 633.11068 
L 730.728 633.11068 
L 724.032 633.11068 
L 717.336 633.11068 
L 710.64 633.11068 
L 703.944 633.11068 
L 697.248 633.11068 
L 690.552 633.11068 
L 683.856 633.11068 
L 677.16 633.11068 
L 670.464 632.982127 
L 663.768 506.211765 
L 657.072 381.183631 
L 653.724 376.8 
L 650.376 376.8 
L 643.68 481.354455 
L 636.984 481.351525 
L 630.288 481.342293 
L 623.592 481.315573 
L 616.896 481.244547 
L 610.2 481.071134 
L 603.504 480.682255 
L 596.808 479.881272 
L 590.112 478.36593 
L 583.416 475.732774 
L 576.72 471.53013 
L 570.024 465.369152 
L 563.328 457.073345 
L 556.632 446.813273 
L 549.936 435.157926 
L 543.24 422.996529 
L 536.544 411.341182 
L 529.848 401.081111 
L 523.152 392.785303 
L 516.456 386.624325 
L 509.76 382.421682 
L 503.064 379.818411 
L 499.716 379.064486 
L 496.368 378.287916 
L 489.672 377.476148 
L 482.976 377.083952 
L 476.28 376.90999 
L 469.584 376.83889 
L 462.888 376.812163 
L 456.192 376.80293 
L 452.844 376.8 
L 449.496 376.8 
L 442.8 376.8 
L 436.104 376.8 
L 429.408 376.8 
L 422.712 376.8 
L 416.016 376.8 
L 409.32 376.8 
L 402.624 376.8 
L 395.928 376.8 
L 389.232 376.8 
L 382.536 376.8 
L 375.84 376.8 
L 369.144 376.8 
L 362.448 376.8 
L 355.752 376.8 
L 349.056 376.8 
L 342.36 376.8 
L 335.664 376.8 
L 328.968 376.8 
L 322.272 376.8 
L 315.576 376.8 
L 312.228 404.280539 
L 308.88 429.6 
L 302.184 429.596702 
L 295.488 429.579206 
L 288.792 429.502961 
L 282.096 429.229947 
L 275.4 428.426657 
L 268.704 426.484411 
L 262.008 422.625157 
L 255.312 416.323004 
L 248.616 407.864865 
L 241.92 398.535135 
L 235.224 390.076996 
L 228.528 383.774843 
L 221.832 379.915589 
L 215.136 377.973343 
L 208.44 377.170053 
L 205.092 377.040472 
L 201.744 376.897039 
L 195.048 376.820794 
L 188.352 376.803298 
L 185.004 376.8 
L 181.656 376.8 
L 174.96 376.8 
L 168.264 376.8 
L 161.568 376.8 
L 154.872 376.8 
L 148.176 376.8 
L 141.48 376.8 
L 134.784 376.8 
L 128.088 376.8 
L 121.392 376.8 
L 114.696 376.8 
L 108 376.8 
z
" style="fill:#c7e9c0;"/>
   </g>
   <g id="PolyCollection_5">
    <path clip-path="url(#pac4f33aa88)" d="M 108 376.8 
L 108 376.8 
L 114.696 376.8 
L 121.392 376.8 
L 128.088 376.8 
L 134.784 376.8 
L 141.48 376.8 
L 148.176 376.8 
L 154.872 376.8 
L 161.568 376.8 
L 168.264 376.8 
L 174.96 376.8 
L 181.656 376.8 
L 185.004 376.8 
L 188.352 376.803298 
L 195.048 376.820794 
L 201.744 376.897039 
L 205.092 377.040472 
L 208.44 377.170053 
L 215.136 377.973343 
L 221.832 379.915589 
L 228.528 383.774843 
L 235.224 390.076996 
L 241.92 398.535135 
L 248.616 407.864865 
L 255.312 416.323004 
L 262.008 422.625157 
L 268.704 426.484411 
L 275.4 428.426657 
L 282.096 429.229947 
L 288.792 429.502961 
L 295.488 429.579206 
L 302.184 429.596702 
L 308.88 429.6 
L 312.228 404.280539 
L 315.576 376.8 
L 322.272 376.8 
L 328.968 376.8 
L 335.664 376.8 
L 342.36 376.8 
L 349.056 376.8 
L 355.752 376.8 
L 362.448 376.8 
L 369.144 376.8 
L 375.84 376.8 
L 382.536 376.8 
L 389.232 376.8 
L 395.928 376.8 
L 402.624 376.8 
L 409.32 376.8 
L 416.016 376.8 
L 422.712 376.8 
L 429.408 376.8 
L 436.104 376.8 
L 442.8 376.8 
L 449.496 376.8 
L 452.844 376.8 
L 456.192 376.80293 
L 462.888 376.812163 
L 469.584 376.83889 
L 476.28 376.90999 
L 482.976 377.083952 
L 489.672 377.476148 
L 496.368 378.287916 
L 499.716 379.064486 
L 503.064 379.818411 
L 509.76 382.421682 
L 516.456 386.624325 
L 523.152 392.785303 
L 529.848 401.081111 
L 536.544 411.341182 
L 543.24 422.996529 
L 549.936 435.157926 
L 556.632 446.813273 
L 563.328 457.073345 
L 570.024 465.369152 
L 576.72 471.53013 
L 583.416 475.732774 
L 590.112 478.36593 
L 596.808 479.881272 
L 603.504 480.682255 
L 610.2 481.071134 
L 616.896 481.244547 
L 623.592 481.315573 
L 630.288 481.342293 
L 636.984 481.351525 
L 643.68 481.354455 
L 650.376 376.8 
L 653.724 376.8 
L 657.072 381.183631 
L 663.768 506.211765 
L 670.464 632.982127 
L 677.16 633.11068 
L 683.856 633.11068 
L 690.552 633.11068 
L 697.248 633.11068 
L 703.944 633.11068 
L 710.64 633.11068 
L 717.336 633.11068 
L 724.032 633.11068 
L 730.728 633.11068 
L 737.424 633.11068 
L 744.12 633.11068 
L 750.816 633.11068 
L 757.512 633.11068 
L 764.208 633.11068 
L 770.904 633.11068 
L 777.6 633.11068 
L 777.6 633.11068 
L 777.6 120.48932 
L 770.904 120.48932 
L 764.208 120.48932 
L 757.512 120.48932 
L 750.816 120.48932 
L 744.12 120.48932 
L 737.424 120.48932 
L 730.728 120.48932 
L 724.032 120.48932 
L 717.336 120.48932 
L 710.64 120.48932 
L 703.944 120.48932 
L 697.248 120.48932 
L 690.552 120.48932 
L 683.856 120.48932 
L 677.16 120.48932 
L 670.464 120.617873 
L 663.768 247.388235 
L 657.072 372.416369 
L 653.724 376.8 
L 650.376 376.8 
L 643.68 481.354455 
L 636.984 481.351525 
L 630.288 481.342293 
L 623.592 481.315573 
L 616.896 481.244547 
L 610.2 481.071134 
L 603.504 480.682255 
L 596.808 479.881272 
L 590.112 478.36593 
L 583.416 475.732774 
L 576.72 471.53013 
L 570.024 465.369152 
L 563.328 457.073345 
L 556.632 446.813273 
L 549.936 435.157926 
L 543.24 422.996529 
L 536.544 411.341182 
L 529.848 401.081111 
L 523.152 392.785303 
L 516.456 386.624325 
L 509.76 382.421682 
L 503.064 379.818411 
L 499.716 379.064486 
L 496.368 378.287916 
L 489.672 377.476148 
L 482.976 377.083952 
L 476.28 376.90999 
L 469.584 376.83889 
L 462.888 376.812163 
L 456.192 376.80293 
L 452.844 376.8 
L 449.496 376.8 
L 442.8 376.8 
L 436.104 376.8 
L 429.408 376.8 
L 422.712 376.8 
L 416.016 376.8 
L 409.32 376.8 
L 402.624 376.8 
L 395.928 376.8 
L 389.232 376.8 
L 382.536 376.8 
L 375.84 376.8 
L 369.144 376.8 
L 362.448 376.8 
L 355.752 376.8 
L 349.056 376.8 
L 342.36 376.8 
L 335.664 376.8 
L 328.968 376.8 
L 322.272 376.8 
L 315.576 376.8 
L 312.228 404.280539 
L 308.88 429.6 
L 302.184 429.596702 
L 295.488 429.579206 
L 288.792 429.502961 
L 282.096 429.229947 
L 275.4 428.426657 
L 268.704 426.484411 
L 262.008 422.625157 
L 255.312 416.323004 
L 248.616 407.864865 
L 241.92 398.535135 
L 235.224 390.076996 
L 228.528 383.774843 
L 221.832 379.915589 
L 215.136 377.973343 
L 208.44 377.170053 
L 205.092 377.040472 
L 201.744 376.897039 
L 195.048 376.820794 
L 188.352 376.803298 
L 185.004 376.8 
L 181.656 376.8 
L 174.96 376.8 
L 168.264 376.8 
L 161.568 376.8 
L 154.872 376.8 
L 148.176 376.8 
L 141.48 376.8 
L 134.784 376.8 
L 128.088 376.8 
L 121.392 376.8 
L 114.696 376.8 
L 108 376.8 
z
" style="fill:#73c476;"/>
   </g>
   <g id="PolyCollection_6">
    <path clip-path="url(#pac4f33aa88)" d="M 108 376.8 
L 108 376.8 
L 114.696 376.8 
L 121.392 376.8 
L 128.088 376.8 
L 134.784 376.8 
L 141.48 376.8 
L 148.176 376.8 
L 154.872 376.8 
L 161.568 376.8 
L 168.264 376.8 
L 174.96 376.8 
L 181.656 376.8 
L 185.004 376.8 
L 188.352 376.803298 
L 195.048 376.820794 
L 201.744 376.897039 
L 205.092 377.040472 
L 208.44 377.170053 
L 215.136 377.973343 
L 221.832 379.915589 
L 228.528 383.774843 
L 235.224 390.076996 
L 241.92 398.535135 
L 248.616 407.864865 
L 255.312 416.323004 
L 262.008 422.625157 
L 268.704 426.484411 
L 275.4 428.426657 
L 282.096 429.229947 
L 288.792 429.502961 
L 295.488 429.579206 
L 302.184 429.596702 
L 308.88 429.6 
L 312.228 404.280539 
L 315.576 376.8 
L 322.272 376.8 
L 328.968 376.8 
L 335.664 376.8 
L 342.36 376.8 
L 349.056 376.8 
L 355.752 376.8 
L 362.448 376.8 
L 369.144 376.8 
L 375.84 376.8 
L 382.536 376.8 
L 389.232 376.8 
L 395.928 376.8 
L 402.624 376.8 
L 409.32 376.8 
L 416.016 376.8 
L 422.712 376.8 
L 429.408 376.8 
L 436.104 376.8 
L 442.8 376.8 
L 449.496 376.8 
L 452.844 376.8 
L 456.192 376.80293 
L 462.888 376.812163 
L 469.584 376.83889 
L 476.28 376.90999 
L 482.976 377.083952 
L 489.672 377.476148 
L 496.368 378.287916 
L 499.716 379.064486 
L 503.064 379.818411 
L 509.76 382.421682 
L 516.456 386.624325 
L 523.152 392.785303 
L 529.848 401.081111 
L 536.544 411.341182 
L 543.24 422.996529 
L 549.936 435.157926 
L 556.632 446.813273 
L 563.328 457.073345 
L 570.024 465.369152 
L 576.72 471.53013 
L 583.416 475.732774 
L 590.112 478.36593 
L 596.808 479.881272 
L 603.504 480.682255 
L 610.2 481.071134 
L 616.896 481.244547 
L 623.592 481.315573 
L 630.288 481.342293 
L 636.984 481.351525 
L 643.68 481.354455 
L 650.376 376.8 
L 653.724 376.8 
L 657.072 372.416369 
L 663.768 247.388235 
L 670.464 120.617873 
L 677.16 120.48932 
L 683.856 120.48932 
L 690.552 120.48932 
L 697.248 120.48932 
L 703.944 120.48932 
L 710.64 120.48932 
L 717.336 120.48932 
L 724.032 120.48932 
L 730.728 120.48932 
L 737.424 120.48932 
L 744.12 120.48932 
L 750.816 120.48932 
L 757.512 120.48932 
L 764.208 120.48932 
L 770.904 120.48932 
L 777.6 120.48932 
L 777.6 120.48932 
L 777.6 120.48932 
L 770.904 120.48932 
L 764.208 120.48932 
L 757.512 120.48932 
L 750.816 120.48932 
L 744.12 120.48932 
L 737.424 120.48932 
L 730.728 120.48932 
L 724.032 120.48932 
L 717.336 120.48932 
L 710.64 120.48932 
L 703.944 120.48932 
L 697.248 120.48932 
L 690.552 120.48932 
L 683.856 120.48932 
L 677.16 120.48932 
L 670.464 120.617873 
L 663.768 247.388235 
L 657.072 372.416369 
L 653.724 376.8 
L 650.376 376.8 
L 643.68 272.245545 
L 636.984 272.248475 
L 630.288 272.257707 
L 623.592 272.284427 
L 616.896 272.355453 
L 610.2 272.528866 
L 603.504 272.917745 
L 596.808 273.718728 
L 590.112 275.23407 
L 583.416 277.867226 
L 576.72 282.06987 
L 570.024 288.230848 
L 563.328 296.526655 
L 556.632 306.786727 
L 549.936 318.442074 
L 543.24 330.603471 
L 536.544 342.258818 
L 529.848 352.518889 
L 523.152 360.814697 
L 516.456 366.975675 
L 509.76 371.178318 
L 503.064 373.781589 
L 499.716 374.535514 
L 496.368 375.312084 
L 489.672 376.123852 
L 482.976 376.516048 
L 476.28 376.69001 
L 469.584 376.76111 
L 462.888 376.787837 
L 456.192 376.79707 
L 452.844 376.8 
L 449.496 376.8 
L 442.8 376.8 
L 436.104 376.8 
L 429.408 376.8 
L 422.712 376.8 
L 416.016 376.8 
L 409.32 376.8 
L 402.624 376.8 
L 395.928 376.8 
L 389.232 376.8 
L 382.536 376.8 
L 375.84 376.8 
L 369.144 376.8 
L 362.448 376.8 
L 355.752 376.8 
L 349.056 376.8 
L 342.36 376.8 
L 335.664 376.8 
L 328.968 376.8 
L 322.272 376.8 
L 315.576 376.8 
L 312.228 404.280539 
L 308.88 429.6 
L 302.184 429.596702 
L 295.488 429.579206 
L 288.792 429.502961 
L 282.096 429.229947 
L 275.4 428.426657 
L 268.704 426.484411 
L 262.008 422.625157 
L 255.312 416.323004 
L 248.616 407.864865 
L 241.92 398.535135 
L 235.224 390.076996 
L 228.528 383.774843 
L 221.832 379.915589 
L 215.136 377.973343 
L 208.44 377.170053 
L 205.092 377.040472 
L 201.744 376.897039 
L 195.048 376.820794 
L 188.352 376.803298 
L 185.004 376.8 
L 181.656 376.8 
L 174.96 376.8 
L 168.264 376.8 
L 161.568 376.8 
L 154.872 376.8 
L 148.176 376.8 
L 141.48 376.8 
L 134.784 376.8 
L 128.088 376.8 
L 121.392 376.8 
L 114.696 376.8 
L 108 376.8 
z
" style="fill:#228a44;"/>
   </g>
   <g id="PolyCollection_7">
    <path clip-path="url(#pac4f33aa88)" d="M 108 376.8 
L 108 376.8 
L 114.696 376.8 
L 121.392 376.8 
L 128.088 376.8 
L 134.784 376.8 
L 141.48 376.8 
L 148.176 376.8 
L 154.872 376.8 
L 161.568 376.8 
L 168.264 376.8 
L 174.96 376.8 
L 181.656 376.8 
L 185.004 376.8 
L 188.352 376.803298 
L 195.048 376.820794 
L 201.744 376.897039 
L 205.092 377.040472 
L 208.44 377.170053 
L 215.136 377.973343 
L 221.832 379.915589 
L 228.528 383.774843 
L 235.224 390.076996 
L 241.92 398.535135 
L 248.616 407.864865 
L 255.312 416.323004 
L 262.008 422.625157 
L 268.704 426.484411 
L 275.4 428.426657 
L 282.096 429.229947 
L 288.792 429.502961 
L 295.488 429.579206 
L 302.184 429.596702 
L 308.88 429.6 
L 312.228 404.280539 
L 315.576 376.8 
L 322.272 376.8 
L 328.968 376.8 
L 335.664 376.8 
L 342.36 376.8 
L 349.056 376.8 
L 355.752 376.8 
L 362.448 376.8 
L 369.144 376.8 
L 375.84 376.8 
L 382.536 376.8 
L 389.232 376.8 
L 395.928 376.8 
L 402.624 376.8 
L 409.32 376.8 
L 416.016 376.8 
L 422.712 376.8 
L 429.408 376.8 
L 436.104 376.8 
L 442.8 376.8 
L 449.496 376.8 
L 452.844 376.8 
L 456.192 376.79707 
L 462.888 376.787837 
L 469.584 376.76111 
L 476.28 376.69001 
L 482.976 376.516048 
L 489.672 376.123852 
L 496.368 375.312084 
L 499.716 374.535514 
L 503.064 373.781589 
L 509.76 371.178318 
L 516.456 366.975675 
L 523.152 360.814697 
L 529.848 352.518889 
L 536.544 342.258818 
L 543.24 330.603471 
L 549.936 318.442074 
L 556.632 306.786727 
L 563.328 296.526655 
L 570.024 288.230848 
L 576.72 282.06987 
L 583.416 277.867226 
L 590.112 275.23407 
L 596.808 273.718728 
L 603.504 272.917745 
L 610.2 272.528866 
L 616.896 272.355453 
L 623.592 272.284427 
L 630.288 272.257707 
L 636.984 272.248475 
L 643.68 272.245545 
L 650.376 376.8 
L 653.724 376.8 
L 657.072 372.416369 
L 663.768 247.388235 
L 670.464 120.617873 
L 677.16 120.48932 
L 683.856 120.48932 
L 690.552 120.48932 
L 697.248 120.48932 
L 703.944 120.48932 
L 710.64 120.48932 
L 717.336 120.48932 
L 724.032 120.48932 
L 730.728 120.48932 
L 737.424 120.48932 
L 744.12 120.48932 
L 750.816 120.48932 
L 757.512 120.48932 
L 764.208 120.48932 
L 770.904 120.48932 
L 777.6 120.48932 
L 777.6 120.48932 
L 777.6 117.926214 
L 770.904 117.926214 
L 764.208 117.926214 
L 757.512 117.926214 
L 750.816 117.926214 
L 744.12 117.926214 
L 737.424 117.926214 
L 730.728 117.926214 
L 724.032 117.926214 
L 717.336 117.926214 
L 710.64 117.926214 
L 703.944 117.926214 
L 697.248 117.926214 
L 690.552 117.926214 
L 683.856 117.926214 
L 677.16 117.926214 
L 670.464 118.011915 
L 663.768 117.976471 
L 657.072 117.976471 
L 653.724 118.019807 
L 650.376 117.976471 
L 643.68 246.106931 
L 636.984 246.106931 
L 630.288 246.106931 
L 623.592 246.106931 
L 616.896 246.106931 
L 610.2 246.106931 
L 603.504 246.112063 
L 596.808 246.132081 
L 590.112 246.201073 
L 583.416 246.411168 
L 576.72 246.976466 
L 570.024 248.320447 
L 563.328 251.143808 
L 556.632 256.384672 
L 549.936 264.980882 
L 543.24 277.439851 
L 536.544 293.396094 
L 529.848 311.453465 
L 523.152 329.510836 
L 516.456 345.46708 
L 509.76 357.926048 
L 503.064 371.141589 
L 499.716 374.535514 
L 496.368 375.312084 
L 489.672 376.123852 
L 482.976 376.516048 
L 476.28 376.69001 
L 469.584 376.76111 
L 462.888 376.787837 
L 456.192 376.79707 
L 452.844 376.8 
L 449.496 376.8 
L 442.8 376.8 
L 436.104 376.8 
L 429.408 376.8 
L 422.712 376.8 
L 416.016 376.8 
L 409.32 376.8 
L 402.624 376.8 
L 395.928 376.8 
L 389.232 376.8 
L 382.536 376.8 
L 375.84 376.8 
L 369.144 376.8 
L 362.448 376.8 
L 355.752 376.8 
L 349.056 376.8 
L 342.36 376.8 
L 335.664 376.8 
L 328.968 376.8 
L 322.272 376.8 
L 315.576 376.8 
L 312.228 404.280539 
L 308.88 429.6 
L 302.184 429.596702 
L 295.488 429.579206 
L 288.792 429.502961 
L 282.096 429.229947 
L 275.4 428.426657 
L 268.704 426.484411 
L 262.008 422.625157 
L 255.312 416.323004 
L 248.616 407.864865 
L 241.92 398.535135 
L 235.224 390.076996 
L 228.528 383.774843 
L 221.832 379.915589 
L 215.136 377.973343 
L 208.44 377.170053 
L 205.092 377.040472 
L 201.744 376.897039 
L 195.048 376.820794 
L 188.352 376.803298 
L 185.004 376.8 
L 181.656 376.8 
L 174.96 376.8 
L 168.264 376.8 
L 161.568 376.8 
L 154.872 376.8 
L 148.176 376.8 
L 141.48 376.8 
L 134.784 376.8 
L 128.088 376.8 
L 121.392 376.8 
L 114.696 376.8 
L 108 376.8 
z
" style="fill:#c7e9c0;"/>
   </g>
   <g id="PolyCollection_8">
    <path clip-path="url(#pac4f33aa88)" d="M 108 376.8 
L 108 376.8 
L 114.696 376.8 
L 121.392 376.8 
L 128.088 376.8 
L 134.784 376.8 
L 141.48 376.8 
L 148.176 376.8 
L 154.872 376.8 
L 161.568 376.8 
L 168.264 376.8 
L 174.96 376.8 
L 181.656 376.8 
L 185.004 376.8 
L 188.352 376.803298 
L 195.048 376.820794 
L 201.744 376.897039 
L 205.092 377.040472 
L 208.44 377.170053 
L 215.136 377.973343 
L 221.832 379.915589 
L 228.528 383.774843 
L 235.224 390.076996 
L 241.92 398.535135 
L 248.616 407.864865 
L 255.312 416.323004 
L 262.008 422.625157 
L 268.704 426.484411 
L 275.4 428.426657 
L 282.096 429.229947 
L 288.792 429.502961 
L 295.488 429.579206 
L 302.184 429.596702 
L 308.88 429.6 
L 312.228 404.280539 
L 315.576 376.8 
L 322.272 376.8 
L 328.968 376.8 
L 335.664 376.8 
L 342.36 376.8 
L 349.056 376.8 
L 355.752 376.8 
L 362.448 376.8 
L 369.144 376.8 
L 375.84 376.8 
L 382.536 376.8 
L 389.232 376.8 
L 395.928 376.8 
L 402.624 376.8 
L 409.32 376.8 
L 416.016 376.8 
L 422.712 376.8 
L 429.408 376.8 
L 436.104 376.8 
L 442.8 376.8 
L 449.496 376.8 
L 452.844 376.8 
L 456.192 376.79707 
L 462.888 376.787837 
L 469.584 376.76111 
L 476.28 376.69001 
L 482.976 376.516048 
L 489.672 376.123852 
L 496.368 375.312084 
L 499.716 374.535514 
L 503.064 371.141589 
L 509.76 357.926048 
L 516.456 345.46708 
L 523.152 329.510836 
L 529.848 311.453465 
L 536.544 293.396094 
L 543.24 277.439851 
L 549.936 264.980882 
L 556.632 256.384672 
L 563.328 251.143808 
L 570.024 248.320447 
L 576.72 246.976466 
L 583.416 246.411168 
L 590.112 246.201073 
L 596.808 246.132081 
L 603.504 246.112063 
L 610.2 246.106931 
L 616.896 246.106931 
L 623.592 246.106931 
L 630.288 246.106931 
L 636.984 246.106931 
L 643.68 246.106931 
L 650.376 117.976471 
L 653.724 118.019807 
L 657.072 117.976471 
L 663.768 117.976471 
L 670.464 118.011915 
L 677.16 117.926214 
L 683.856 117.926214 
L 690.552 117.926214 
L 697.248 117.926214 
L 703.944 117.926214 
L 710.64 117.926214 
L 717.336 117.926214 
L 724.032 117.926214 
L 730.728 117.926214 
L 737.424 117.926214 
L 744.12 117.926214 
L 750.816 117.926214 
L 757.512 117.926214 
L 764.208 117.926214 
L 770.904 117.926214 
L 777.6 117.926214 
L 777.6 117.926214 
L 777.6 115.363107 
L 770.904 115.363107 
L 764.208 115.363107 
L 757.512 115.363107 
L 750.816 115.363107 
L 744.12 115.363107 
L 737.424 115.363107 
L 730.728 115.363107 
L 724.032 115.363107 
L 717.336 115.363107 
L 710.64 115.363107 
L 703.944 115.363107 
L 697.248 115.363107 
L 690.552 115.363107 
L 683.856 115.363107 
L 677.16 115.363107 
L 670.464 115.405958 
L 663.768 115.388235 
L 657.072 115.388235 
L 653.724 115.409904 
L 650.376 115.388235 
L 643.68 115.413861 
L 636.984 115.413861 
L 630.288 115.413861 
L 623.592 115.413861 
L 616.896 115.413861 
L 610.2 115.413861 
L 603.504 115.413861 
L 596.808 115.413861 
L 590.112 115.413861 
L 583.416 115.413861 
L 576.72 115.413861 
L 570.024 115.413861 
L 563.328 115.413861 
L 556.632 115.413861 
L 549.936 115.413861 
L 543.24 115.413861 
L 536.544 115.413861 
L 529.848 115.413861 
L 523.152 115.413861 
L 516.456 115.413861 
L 509.76 115.413861 
L 503.064 117.522108 
L 499.716 116.981627 
L 496.368 116.39933 
L 489.672 115.429212 
L 482.976 115.419678 
L 476.28 115.415787 
L 469.584 115.414409 
L 462.888 115.41399 
L 456.192 115.413883 
L 452.844 115.413887 
L 449.496 115.413861 
L 442.8 115.413861 
L 436.104 115.413861 
L 429.408 115.413861 
L 422.712 115.413861 
L 416.016 115.413861 
L 409.32 115.413861 
L 402.624 115.413861 
L 395.928 115.413861 
L 389.232 115.413861 
L 382.536 115.413861 
L 375.84 115.413861 
L 369.144 115.413861 
L 362.448 115.413861 
L 355.752 115.413861 
L 349.056 115.415085 
L 342.36 115.43789 
L 335.664 133.561038 
L 328.968 196.929392 
L 322.272 292.670608 
L 315.576 356.038962 
L 312.228 404.280539 
L 308.88 429.6 
L 302.184 429.596702 
L 295.488 429.579206 
L 288.792 429.502961 
L 282.096 429.229947 
L 275.4 428.426657 
L 268.704 426.484411 
L 262.008 422.625157 
L 255.312 416.323004 
L 248.616 407.864865 
L 241.92 398.535135 
L 235.224 390.076996 
L 228.528 383.774843 
L 221.832 379.915589 
L 215.136 377.973343 
L 208.44 377.170053 
L 205.092 377.040472 
L 201.744 376.897039 
L 195.048 376.820794 
L 188.352 376.803298 
L 185.004 376.8 
L 181.656 376.8 
L 174.96 376.8 
L 168.264 376.8 
L 161.568 376.8 
L 154.872 376.8 
L 148.176 376.8 
L 141.48 376.8 
L 134.784 376.8 
L 128.088 376.8 
L 121.392 376.8 
L 114.696 376.8 
L 108 376.8 
z
" style="fill:#6aaed6;"/>
   </g>
   <g id="PolyCollection_9">
    <path clip-path="url(#pac4f33aa88)" d="M 108 376.8 
L 108 376.8 
L 114.696 376.8 
L 121.392 376.8 
L 128.088 376.8 
L 134.784 376.8 
L 141.48 376.8 
L 148.176 376.8 
L 154.872 376.8 
L 161.568 376.8 
L 168.264 376.8 
L 174.96 376.8 
L 181.656 376.8 
L 185.004 376.8 
L 188.352 376.803298 
L 195.048 376.820794 
L 201.744 376.897039 
L 205.092 377.040472 
L 208.44 377.170053 
L 215.136 377.973343 
L 221.832 379.915589 
L 228.528 383.774843 
L 235.224 390.076996 
L 241.92 398.535135 
L 248.616 407.864865 
L 255.312 416.323004 
L 262.008 422.625157 
L 268.704 426.484411 
L 275.4 428.426657 
L 282.096 429.229947 
L 288.792 429.502961 
L 295.488 429.579206 
L 302.184 429.596702 
L 308.88 429.6 
L 312.228 404.280539 
L 315.576 356.038962 
L 322.272 292.670608 
L 328.968 196.929392 
L 335.664 133.561038 
L 342.36 115.43789 
L 349.056 115.415085 
L 355.752 115.413861 
L 362.448 115.413861 
L 369.144 115.413861 
L 375.84 115.413861 
L 382.536 115.413861 
L 389.232 115.413861 
L 395.928 115.413861 
L 402.624 115.413861 
L 409.32 115.413861 
L 416.016 115.413861 
L 422.712 115.413861 
L 429.408 115.413861 
L 436.104 115.413861 
L 442.8 115.413861 
L 449.496 115.413861 
L 452.844 115.413887 
L 456.192 115.413883 
L 462.888 115.41399 
L 469.584 115.414409 
L 476.28 115.415787 
L 482.976 115.419678 
L 489.672 115.429212 
L 496.368 116.39933 
L 499.716 116.981627 
L 503.064 117.522108 
L 509.76 115.413861 
L 516.456 115.413861 
L 523.152 115.413861 
L 529.848 115.413861 
L 536.544 115.413861 
L 543.24 115.413861 
L 549.936 115.413861 
L 556.632 115.413861 
L 563.328 115.413861 
L 570.024 115.413861 
L 576.72 115.413861 
L 583.416 115.413861 
L 590.112 115.413861 
L 596.808 115.413861 
L 603.504 115.413861 
L 610.2 115.413861 
L 616.896 115.413861 
L 623.592 115.413861 
L 630.288 115.413861 
L 636.984 115.413861 
L 643.68 115.413861 
L 650.376 115.388235 
L 653.724 115.409904 
L 657.072 115.388235 
L 663.768 115.388235 
L 670.464 115.405958 
L 677.16 115.363107 
L 683.856 115.363107 
L 690.552 115.363107 
L 697.248 115.363107 
L 703.944 115.363107 
L 710.64 115.363107 
L 717.336 115.363107 
L 724.032 115.363107 
L 730.728 115.363107 
L 737.424 115.363107 
L 744.12 115.363107 
L 750.816 115.363107 
L 757.512 115.363107 
L 764.208 115.363107 
L 770.904 115.363107 
L 777.6 115.363107 
L 777.6 115.363107 
L 777.6 115.363107 
L 770.904 115.363107 
L 764.208 115.363107 
L 757.512 115.363107 
L 750.816 115.363107 
L 744.12 115.363107 
L 737.424 115.363107 
L 730.728 115.363107 
L 724.032 115.363107 
L 717.336 115.363107 
L 710.64 115.363107 
L 703.944 115.363107 
L 697.248 115.363107 
L 690.552 115.363107 
L 683.856 115.363107 
L 677.16 115.363107 
L 670.464 115.405958 
L 663.768 115.388235 
L 657.072 115.388235 
L 653.724 115.409904 
L 650.376 115.388235 
L 643.68 115.413861 
L 636.984 115.413861 
L 630.288 115.413861 
L 623.592 115.413861 
L 616.896 115.413861 
L 610.2 115.413861 
L 603.504 115.413861 
L 596.808 115.413861 
L 590.112 115.413861 
L 583.416 115.413861 
L 576.72 115.413861 
L 570.024 115.413861 
L 563.328 115.413861 
L 556.632 115.413861 
L 549.936 115.413861 
L 543.24 115.413861 
L 536.544 115.413861 
L 529.848 115.413861 
L 523.152 115.413861 
L 516.456 115.413861 
L 509.76 115.413861 
L 503.064 117.522108 
L 499.716 116.981627 
L 496.368 116.39933 
L 489.672 115.429212 
L 482.976 115.419678 
L 476.28 115.415787 
L 469.584 115.414409 
L 462.888 115.41399 
L 456.192 115.413883 
L 452.844 115.413887 
L 449.496 115.413861 
L 442.8 115.413861 
L 436.104 115.413861 
L 429.408 115.413861 
L 422.712 115.413861 
L 416.016 115.413861 
L 409.32 115.413861 
L 402.624 115.413861 
L 395.928 115.413861 
L 389.232 115.413861 
L 382.536 115.413861 
L 375.84 115.413861 
L 369.144 115.413861 
L 362.448 115.413861 
L 355.752 115.413861 
L 349.056 115.415085 
L 342.36 115.43789 
L 335.664 133.561038 
L 328.968 196.929392 
L 322.272 292.670608 
L 315.576 356.038962 
L 312.228 349.319461 
L 308.88 324 
L 302.184 324.003298 
L 295.488 324.020794 
L 288.792 324.097039 
L 282.096 324.370053 
L 275.4 325.173343 
L 268.704 327.115589 
L 262.008 330.974843 
L 255.312 337.276996 
L 248.616 345.735135 
L 241.92 355.064865 
L 235.224 363.523004 
L 228.528 369.825157 
L 221.832 373.684411 
L 215.136 375.626657 
L 208.44 376.429947 
L 205.092 376.559528 
L 201.744 376.702961 
L 195.048 376.779206 
L 188.352 376.796702 
L 185.004 376.8 
L 181.656 376.8 
L 174.96 376.8 
L 168.264 376.8 
L 161.568 376.8 
L 154.872 376.8 
L 148.176 376.8 
L 141.48 376.8 
L 134.784 376.8 
L 128.088 376.8 
L 121.392 376.8 
L 114.696 376.8 
L 108 376.8 
z
" style="fill:#e32f27;"/>
   </g>
   <g id="PolyCollection_10">
    <path clip-path="url(#pac4f33aa88)" d="M 108 376.8 
L 108 376.8 
L 114.696 376.8 
L 121.392 376.8 
L 128.088 376.8 
L 134.784 376.8 
L 141.48 376.8 
L 148.176 376.8 
L 154.872 376.8 
L 161.568 376.8 
L 168.264 376.8 
L 174.96 376.8 
L 181.656 376.8 
L 185.004 376.8 
L 188.352 376.796702 
L 195.048 376.779206 
L 201.744 376.702961 
L 205.092 376.559528 
L 208.44 376.429947 
L 215.136 375.626657 
L 221.832 373.684411 
L 228.528 369.825157 
L 235.224 363.523004 
L 241.92 355.064865 
L 248.616 345.735135 
L 255.312 337.276996 
L 262.008 330.974843 
L 268.704 327.115589 
L 275.4 325.173343 
L 282.096 324.370053 
L 288.792 324.097039 
L 295.488 324.020794 
L 302.184 324.003298 
L 308.88 324 
L 312.228 349.319461 
L 315.576 356.038962 
L 322.272 292.670608 
L 328.968 196.929392 
L 335.664 133.561038 
L 342.36 115.43789 
L 349.056 115.415085 
L 355.752 115.413861 
L 362.448 115.413861 
L 369.144 115.413861 
L 375.84 115.413861 
L 382.536 115.413861 
L 389.232 115.413861 
L 395.928 115.413861 
L 402.624 115.413861 
L 409.32 115.413861 
L 416.016 115.413861 
L 422.712 115.413861 
L 429.408 115.413861 
L 436.104 115.413861 
L 442.8 115.413861 
L 449.496 115.413861 
L 452.844 115.413887 
L 456.192 115.413883 
L 462.888 115.41399 
L 469.584 115.414409 
L 476.28 115.415787 
L 482.976 115.419678 
L 489.672 115.429212 
L 496.368 116.39933 
L 499.716 116.981627 
L 503.064 117.522108 
L 509.76 115.413861 
L 516.456 115.413861 
L 523.152 115.413861 
L 529.848 115.413861 
L 536.544 115.413861 
L 543.24 115.413861 
L 549.936 115.413861 
L 556.632 115.413861 
L 563.328 115.413861 
L 570.024 115.413861 
L 576.72 115.413861 
L 583.416 115.413861 
L 590.112 115.413861 
L 596.808 115.413861 
L 603.504 115.413861 
L 610.2 115.413861 
L 616.896 115.413861 
L 623.592 115.413861 
L 630.288 115.413861 
L 636.984 115.413861 
L 643.68 115.413861 
L 650.376 115.388235 
L 653.724 115.409904 
L 657.072 115.388235 
L 663.768 115.388235 
L 670.464 115.405958 
L 677.16 115.363107 
L 683.856 115.363107 
L 690.552 115.363107 
L 697.248 115.363107 
L 703.944 115.363107 
L 710.64 115.363107 
L 717.336 115.363107 
L 724.032 115.363107 
L 730.728 115.363107 
L 737.424 115.363107 
L 744.12 115.363107 
L 750.816 115.363107 
L 757.512 115.363107 
L 764.208 115.363107 
L 770.904 115.363107 
L 777.6 115.363107 
L 777.6 115.363107 
L 777.6 112.8 
L 770.904 112.8 
L 764.208 112.8 
L 757.512 112.8 
L 750.816 112.8 
L 744.12 112.8 
L 737.424 112.8 
L 730.728 112.8 
L 724.032 112.8 
L 717.336 112.8 
L 710.64 112.8 
L 703.944 112.8 
L 697.248 112.8 
L 690.552 112.8 
L 683.856 112.8 
L 677.16 112.8 
L 670.464 112.8 
L 663.768 112.8 
L 657.072 112.8 
L 653.724 112.8 
L 650.376 112.8 
L 643.68 112.8 
L 636.984 112.8 
L 630.288 112.8 
L 623.592 112.8 
L 616.896 112.8 
L 610.2 112.8 
L 603.504 112.8 
L 596.808 112.8 
L 590.112 112.8 
L 583.416 112.8 
L 576.72 112.8 
L 570.024 112.8 
L 563.328 112.8 
L 556.632 112.8 
L 549.936 112.8 
L 543.24 112.8 
L 536.544 112.8 
L 529.848 112.8 
L 523.152 112.8 
L 516.456 112.8 
L 509.76 112.8 
L 503.064 114.882108 
L 499.716 114.328361 
L 496.368 113.75933 
L 489.672 112.8 
L 482.976 112.8 
L 476.28 112.8 
L 469.584 112.8 
L 462.888 112.8 
L 456.192 112.8 
L 452.844 112.8 
L 449.496 112.8 
L 442.8 112.8 
L 436.104 112.8 
L 429.408 112.8 
L 422.712 112.8 
L 416.016 112.8 
L 409.32 112.8 
L 402.624 112.8 
L 395.928 112.8 
L 389.232 112.8 
L 382.536 112.8 
L 375.84 112.8 
L 369.144 112.8 
L 362.448 112.8 
L 355.752 112.8 
L 349.056 112.8 
L 342.36 112.8 
L 335.664 112.8 
L 328.968 112.8 
L 322.272 112.8 
L 315.576 112.8 
L 312.228 112.8 
L 308.88 112.8 
L 302.184 112.8 
L 295.488 112.8 
L 288.792 112.816491 
L 282.096 112.903968 
L 275.4 113.285195 
L 268.704 114.650264 
L 262.008 118.666716 
L 255.312 128.377945 
L 248.616 147.674214 
L 241.92 179.184982 
L 235.224 221.475673 
L 228.528 268.124327 
L 221.832 310.415018 
L 215.136 341.925786 
L 208.44 361.222055 
L 205.092 376.559528 
L 201.744 376.702961 
L 195.048 376.779206 
L 188.352 376.796702 
L 185.004 376.8 
L 181.656 376.8 
L 174.96 376.8 
L 168.264 376.8 
L 161.568 376.8 
L 154.872 376.8 
L 148.176 376.8 
L 141.48 376.8 
L 134.784 376.8 
L 128.088 376.8 
L 121.392 376.8 
L 114.696 376.8 
L 108 376.8 
z
" style="fill:#fca082;"/>
   </g>
   <g id="PolyCollection_11">
    <path clip-path="url(#pac4f33aa88)" d="M 108 376.8 
L 108 376.8 
L 114.696 376.8 
L 121.392 376.8 
L 128.088 376.8 
L 134.784 376.8 
L 141.48 376.8 
L 148.176 376.8 
L 154.872 376.8 
L 161.568 376.8 
L 168.264 376.8 
L 174.96 376.8 
L 181.656 376.8 
L 185.004 376.8 
L 188.352 376.796702 
L 195.048 376.779206 
L 201.744 376.702961 
L 205.092 376.559528 
L 208.44 361.222055 
L 215.136 341.925786 
L 221.832 310.415018 
L 228.528 268.124327 
L 235.224 221.475673 
L 241.92 179.184982 
L 248.616 147.674214 
L 255.312 128.377945 
L 262.008 118.666716 
L 268.704 114.650264 
L 275.4 113.285195 
L 282.096 112.903968 
L 288.792 112.816491 
L 295.488 112.8 
L 302.184 112.8 
L 308.88 112.8 
L 312.228 112.8 
L 315.576 112.8 
L 322.272 112.8 
L 328.968 112.8 
L 335.664 112.8 
L 342.36 112.8 
L 349.056 112.8 
L 355.752 112.8 
L 362.448 112.8 
L 369.144 112.8 
L 375.84 112.8 
L 382.536 112.8 
L 389.232 112.8 
L 395.928 112.8 
L 402.624 112.8 
L 409.32 112.8 
L 416.016 112.8 
L 422.712 112.8 
L 429.408 112.8 
L 436.104 112.8 
L 442.8 112.8 
L 449.496 112.8 
L 452.844 112.8 
L 456.192 112.8 
L 462.888 112.8 
L 469.584 112.8 
L 476.28 112.8 
L 482.976 112.8 
L 489.672 112.8 
L 496.368 113.75933 
L 499.716 114.328361 
L 503.064 114.882108 
L 509.76 112.8 
L 516.456 112.8 
L 523.152 112.8 
L 529.848 112.8 
L 536.544 112.8 
L 543.24 112.8 
L 549.936 112.8 
L 556.632 112.8 
L 563.328 112.8 
L 570.024 112.8 
L 576.72 112.8 
L 583.416 112.8 
L 590.112 112.8 
L 596.808 112.8 
L 603.504 112.8 
L 610.2 112.8 
L 616.896 112.8 
L 623.592 112.8 
L 630.288 112.8 
L 636.984 112.8 
L 643.68 112.8 
L 650.376 112.8 
L 653.724 112.8 
L 657.072 112.8 
L 663.768 112.8 
L 670.464 112.8 
L 677.16 112.8 
L 683.856 112.8 
L 690.552 112.8 
L 697.248 112.8 
L 703.944 112.8 
L 710.64 112.8 
L 717.336 112.8 
L 724.032 112.8 
L 730.728 112.8 
L 737.424 112.8 
L 744.12 112.8 
L 750.816 112.8 
L 757.512 112.8 
L 764.208 112.8 
L 770.904 112.8 
L 777.6 112.8 
L 777.6 112.8 
L 777.6 112.8 
L 770.904 112.8 
L 764.208 112.8 
L 757.512 112.8 
L 750.816 112.8 
L 744.12 112.8 
L 737.424 112.8 
L 730.728 112.8 
L 724.032 112.8 
L 717.336 112.8 
L 710.64 112.8 
L 703.944 112.8 
L 697.248 112.8 
L 690.552 112.8 
L 683.856 112.8 
L 677.16 112.8 
L 670.464 112.8 
L 663.768 112.8 
L 657.072 112.8 
L 653.724 112.8 
L 650.376 112.8 
L 643.68 112.8 
L 636.984 112.8 
L 630.288 112.8 
L 623.592 112.8 
L 616.896 112.8 
L 610.2 112.8 
L 603.504 112.8 
L 596.808 112.8 
L 590.112 112.8 
L 583.416 112.8 
L 576.72 112.8 
L 570.024 112.8 
L 563.328 112.8 
L 556.632 112.8 
L 549.936 112.8 
L 543.24 112.8 
L 536.544 112.8 
L 529.848 112.8 
L 523.152 112.8 
L 516.456 112.8 
L 509.76 112.8 
L 503.064 112.8 
L 499.716 112.8 
L 496.368 112.8 
L 489.672 112.8 
L 482.976 112.8 
L 476.28 112.8 
L 469.584 112.8 
L 462.888 112.8 
L 456.192 112.8 
L 452.844 112.8 
L 449.496 112.8 
L 442.8 112.8 
L 436.104 112.8 
L 429.408 112.8 
L 422.712 112.8 
L 416.016 112.8 
L 409.32 112.8 
L 402.624 112.8 
L 395.928 112.8 
L 389.232 112.8 
L 382.536 112.8 
L 375.84 112.8 
L 369.144 112.8 
L 362.448 112.8 
L 355.752 112.8 
L 349.056 112.8 
L 342.36 112.8 
L 335.664 112.8 
L 328.968 112.8 
L 322.272 112.8 
L 315.576 112.8 
L 312.228 112.8 
L 308.88 112.8 
L 302.184 112.8 
L 295.488 112.8 
L 288.792 112.8 
L 282.096 112.8 
L 275.4 112.8 
L 268.704 112.8 
L 262.008 112.8 
L 255.312 112.8 
L 248.616 112.8 
L 241.92 112.8 
L 235.224 112.8 
L 228.528 112.8 
L 221.832 112.8 
L 215.136 112.8 
L 208.44 112.8 
L 205.092 112.8 
L 201.744 112.8 
L 195.048 112.8 
L 188.352 112.8 
L 185.004 112.8 
L 181.656 112.8 
L 174.96 112.8 
L 168.264 112.8 
L 161.568 112.8 
L 154.872 112.8 
L 148.176 112.8 
L 141.48 112.8 
L 134.784 112.8 
L 128.088 112.8 
L 121.392 112.8 
L 114.696 112.8 
L 108 112.8 
z
" style="fill:#ffffff;"/>
   </g>
   <g id="patch_3">
    <path d="M 108 640.8 
L 108 86.4 
" style="fill:none;stroke:#262626;stroke-linecap:square;stroke-linejoin:miter;stroke-width:1.25;"/>
   </g>
   <g id="patch_4">
    <path d="M 108 640.8 
L 777.6 640.8 
" style="fill:none;stroke:#262626;stroke-linecap:square;stroke-linejoin:miter;stroke-width:1.25;"/>
   </g>
   <g id="text_15">
    <text style="fill:#262626;font-family:Liberation Sans;font-size:40px;font-style:normal;font-weight:normal;text-anchor:middle;" transform="rotate(-0, 442.8, 80.4)" x="442.8" y="80.4">Genotype Frequency</text>
   </g>
  </g>
 </g>
 <defs>
  <clipPath id="pac4f33aa88">
   <rect height="554.4" width="669.6" x="108" y="86.4"/>
  </clipPath>
 </defs>
</svg>
