<?xml version="1.0" encoding="utf-8" standalone="no"?>
<!DOCTYPE svg PUBLIC "-//W3C//DTD SVG 1.1//EN"
  "http://www.w3.org/Graphics/SVG/1.1/DTD/svg11.dtd">
<!-- Created with matplotlib (https://matplotlib.org/) -->
<svg height="345.6pt" version="1.1" viewBox="0 0 460.8 345.6" width="460.8pt" xmlns="http://www.w3.org/2000/svg" xmlns:xlink="http://www.w3.org/1999/xlink">
 <defs>
  <style type="text/css">
*{stroke-linecap:butt;stroke-linejoin:round;}
  </style>
 </defs>
 <g id="figure_1">
  <g id="patch_1">
   <path d="M 0 345.6 
L 460.8 345.6 
L 460.8 0 
L 0 0 
z
" style="fill:#ffffff;"/>
  </g>
  <g id="axes_1">
   <g id="patch_2">
    <path d="M 57.6 307.584 
L 414.72 307.584 
L 414.72 41.472 
L 57.6 41.472 
z
" style="fill:#ffffff;"/>
   </g>
   <g id="matplotlib.axis_1">
    <g id="xtick_1">
     <g id="line2d_1"/>
     <g id="text_1">
      <text style="fill:#262626;font-family:Liberation Sans;font-size:10px;font-style:normal;font-weight:normal;text-anchor:middle;" transform="rotate(-0, 73.832727, 318.330875)" x="73.832727" y="318.330875">0</text>
     </g>
    </g>
    <g id="xtick_2">
     <g id="line2d_2"/>
     <g id="text_2">
      <text style="fill:#262626;font-family:Liberation Sans;font-size:10px;font-style:normal;font-weight:normal;text-anchor:middle;" transform="rotate(-0, 138.763636, 318.330875)" x="138.763636" y="318.330875">20</text>
     </g>
    </g>
    <g id="xtick_3">
     <g id="line2d_3"/>
     <g id="text_3">
      <text style="fill:#262626;font-family:Liberation Sans;font-size:10px;font-style:normal;font-weight:normal;text-anchor:middle;" transform="rotate(-0, 203.694545, 318.330875)" x="203.694545" y="318.330875">40</text>
     </g>
    </g>
    <g id="xtick_4">
     <g id="line2d_4"/>
     <g id="text_4">
      <text style="fill:#262626;font-family:Liberation Sans;font-size:10px;font-style:normal;font-weight:normal;text-anchor:middle;" transform="rotate(-0, 268.625455, 318.330875)" x="268.625455" y="318.330875">60</text>
     </g>
    </g>
    <g id="xtick_5">
     <g id="line2d_5"/>
     <g id="text_5">
      <text style="fill:#262626;font-family:Liberation Sans;font-size:10px;font-style:normal;font-weight:normal;text-anchor:middle;" transform="rotate(-0, 333.556364, 318.330875)" x="333.556364" y="318.330875">80</text>
     </g>
    </g>
    <g id="xtick_6">
     <g id="line2d_6"/>
     <g id="text_6">
      <text style="fill:#262626;font-family:Liberation Sans;font-size:10px;font-style:normal;font-weight:normal;text-anchor:middle;" transform="rotate(-0, 398.487273, 318.330875)" x="398.487273" y="318.330875">100</text>
     </g>
    </g>
   </g>
   <g id="matplotlib.axis_2">
    <g id="ytick_1">
     <g id="line2d_7"/>
     <g id="text_7">
      <text style="fill:#262626;font-family:Liberation Sans;font-size:10px;font-style:normal;font-weight:normal;text-anchor:end;" transform="rotate(-0, 54.1, 311.207437)" x="54.1" y="311.207437">0.0</text>
     </g>
    </g>
    <g id="ytick_2">
     <g id="line2d_8"/>
     <g id="text_8">
      <text style="fill:#262626;font-family:Liberation Sans;font-size:10px;font-style:normal;font-weight:normal;text-anchor:end;" transform="rotate(-0, 54.1, 258.511992)" x="54.1" y="258.511992">0.2</text>
     </g>
    </g>
    <g id="ytick_3">
     <g id="line2d_9"/>
     <g id="text_9">
      <text style="fill:#262626;font-family:Liberation Sans;font-size:10px;font-style:normal;font-weight:normal;text-anchor:end;" transform="rotate(-0, 54.1, 205.816546)" x="54.1" y="205.816546">0.4</text>
     </g>
    </g>
    <g id="ytick_4">
     <g id="line2d_10"/>
     <g id="text_10">
      <text style="fill:#262626;font-family:Liberation Sans;font-size:10px;font-style:normal;font-weight:normal;text-anchor:end;" transform="rotate(-0, 54.1, 153.121101)" x="54.1" y="153.121101">0.6</text>
     </g>
    </g>
    <g id="ytick_5">
     <g id="line2d_11"/>
     <g id="text_11">
      <text style="fill:#262626;font-family:Liberation Sans;font-size:10px;font-style:normal;font-weight:normal;text-anchor:end;" transform="rotate(-0, 54.1, 100.425655)" x="54.1" y="100.425655">0.8</text>
     </g>
    </g>
    <g id="ytick_6">
     <g id="line2d_12"/>
     <g id="text_12">
      <text style="fill:#262626;font-family:Liberation Sans;font-size:10px;font-style:normal;font-weight:normal;text-anchor:end;" transform="rotate(-0, 54.1, 47.73021)" x="54.1" y="47.73021">1.0</text>
     </g>
    </g>
    <g id="text_13">
     <text style="fill:#262626;font-family:Liberation Sans;font-size:10px;font-style:normal;font-weight:normal;text-anchor:middle;" transform="rotate(-90, 34.125, 174.528)" x="34.125" y="174.528">Frequency</text>
    </g>
   </g>
   <g id="line2d_13">
    <path clip-path="url(#pfea49e19a9)" d="M 73.832727 307.584 
L 77.079273 307.584 
L 80.325818 307.584 
L 83.572364 307.584 
L 86.818909 307.584 
L 90.065455 307.584 
L 93.312 307.584 
L 96.558545 307.584 
L 99.805091 307.584 
L 103.051636 307.584 
L 106.298182 307.567541 
L 109.544727 307.480237 
L 112.791273 307.099766 
L 116.037818 305.7374 
L 119.284364 301.728901 
L 122.530909 292.036903 
L 125.777455 272.778844 
L 129.024 241.330474 
L 132.270545 199.123526 
L 135.517091 152.567246 
L 138.763636 110.360299 
L 142.010182 78.911929 
L 145.256727 59.653869 
L 148.503273 49.961871 
L 151.749818 45.953372 
L 154.996364 44.591006 
L 158.242909 44.210535 
L 161.489455 44.123231 
L 164.736 44.106772 
L 167.982545 44.106772 
L 171.229091 44.106772 
L 174.475636 44.106772 
L 177.722182 44.106772 
L 180.968727 44.106772 
L 184.215273 44.106772 
L 187.461818 44.106772 
L 190.708364 44.106772 
L 193.954909 44.106772 
L 197.201455 44.106772 
L 200.448 44.106772 
L 203.694545 44.106772 
L 206.941091 44.106772 
L 210.187636 44.106772 
L 213.434182 44.106772 
L 216.680727 44.106772 
L 219.927273 44.106772 
L 223.173818 44.106772 
L 226.420364 44.106772 
L 229.666909 44.106772 
L 232.913455 44.106772 
L 236.16 44.106772 
L 239.406545 44.106772 
L 242.653091 44.106772 
L 245.899636 44.106772 
L 249.146182 44.106772 
L 252.392727 44.106772 
L 255.639273 44.106772 
L 258.885818 44.106772 
L 262.132364 44.106772 
L 265.378909 44.106772 
L 268.625455 44.106772 
L 271.872 44.106772 
L 275.118545 44.106772 
L 278.365091 44.106772 
L 281.611636 44.106772 
L 284.858182 44.106772 
L 288.104727 44.106772 
L 291.351273 44.106772 
L 294.597818 44.106772 
L 297.844364 44.106772 
L 301.090909 44.106772 
L 304.337455 44.106772 
L 307.584 44.106772 
L 310.830545 44.106772 
L 314.077091 44.106772 
L 317.323636 44.106772 
L 320.570182 44.106772 
L 323.816727 44.106772 
L 327.063273 44.106772 
L 330.309818 44.106772 
L 333.556364 44.106772 
L 336.802909 44.106772 
L 340.049455 44.106772 
L 343.296 44.106772 
L 346.542545 44.106772 
L 349.789091 44.106772 
L 353.035636 44.106772 
L 356.282182 44.106772 
L 359.528727 44.106772 
L 362.775273 44.106772 
L 366.021818 44.106772 
L 369.268364 44.106772 
L 372.514909 44.106772 
L 375.761455 44.106772 
L 379.008 44.106772 
L 382.254545 44.106772 
L 385.501091 44.106772 
L 388.747636 44.106772 
L 391.994182 44.106772 
L 395.240727 44.106772 
L 398.487273 44.106772 
" style="fill:none;stroke:#fca082;stroke-linecap:round;stroke-width:12;"/>
   </g>
   <g id="line2d_14">
    <path clip-path="url(#pfea49e19a9)" d="M 73.832727 307.584 
L 77.079273 307.584 
L 80.325818 307.584 
L 83.572364 307.584 
L 86.818909 307.584 
L 90.065455 307.584 
L 93.312 307.584 
L 96.558545 307.584 
L 99.805091 307.584 
L 103.051636 307.584 
L 106.298182 307.584 
L 109.544727 307.584 
L 112.791273 307.584 
L 116.037818 307.584 
L 119.284364 307.584 
L 122.530909 307.584 
L 125.777455 307.584 
L 129.024 307.584 
L 132.270545 307.584 
L 135.517091 307.584 
L 138.763636 307.584 
L 142.010182 307.584 
L 145.256727 307.584 
L 148.503273 307.584 
L 151.749818 307.584 
L 154.996364 307.584 
L 158.242909 307.584 
L 161.489455 307.584 
L 164.736 307.584 
L 167.982545 307.45946 
L 171.229091 305.159951 
L 174.475636 286.864073 
L 177.722182 223.621201 
L 180.968727 128.069571 
L 184.215273 64.826699 
L 187.461818 46.530821 
L 190.708364 44.231313 
L 193.954909 44.106772 
L 197.201455 44.106772 
L 200.448 44.106772 
L 203.694545 44.106772 
L 206.941091 44.106772 
L 210.187636 44.106772 
L 213.434182 44.106772 
L 216.680727 44.106772 
L 219.927273 44.106772 
L 223.173818 44.106772 
L 226.420364 44.106772 
L 229.666909 44.106772 
L 232.913455 44.106772 
L 236.16 44.106772 
L 239.406545 44.106772 
L 242.653091 44.106772 
L 245.899636 44.106772 
L 249.146182 44.106772 
L 252.392727 44.106772 
L 255.639273 44.106772 
L 258.885818 44.106772 
L 262.132364 44.106772 
L 265.378909 44.106772 
L 268.625455 44.106772 
L 271.872 44.106772 
L 275.118545 44.106772 
L 278.365091 44.106772 
L 281.611636 44.106772 
L 284.858182 44.106772 
L 288.104727 44.106772 
L 291.351273 44.106772 
L 294.597818 44.106772 
L 297.844364 44.106772 
L 301.090909 44.106772 
L 304.337455 44.106772 
L 307.584 44.106772 
L 310.830545 44.106772 
L 314.077091 44.106772 
L 317.323636 44.106772 
L 320.570182 44.106772 
L 323.816727 44.106772 
L 327.063273 44.106772 
L 330.309818 44.106772 
L 333.556364 44.106772 
L 336.802909 44.106772 
L 340.049455 44.106772 
L 343.296 44.106772 
L 346.542545 44.106772 
L 349.789091 44.106772 
L 353.035636 44.106772 
L 356.282182 44.106772 
L 359.528727 44.106772 
L 362.775273 44.106772 
L 366.021818 44.106772 
L 369.268364 44.106772 
L 372.514909 44.106772 
L 375.761455 44.106772 
L 379.008 44.106772 
L 382.254545 44.106772 
L 385.501091 44.106772 
L 388.747636 44.106772 
L 391.994182 44.106772 
L 395.240727 44.106772 
L 398.487273 44.106772 
" style="fill:none;stroke:#6aaed6;stroke-linecap:round;stroke-width:12;"/>
   </g>
   <g id="line2d_15">
    <path clip-path="url(#pfea49e19a9)" d="M 73.832727 307.584 
L 77.079273 307.584 
L 80.325818 307.584 
L 83.572364 307.584 
L 86.818909 307.584 
L 90.065455 307.584 
L 93.312 307.584 
L 96.558545 307.584 
L 99.805091 307.584 
L 103.051636 307.584 
L 106.298182 307.584 
L 109.544727 307.584 
L 112.791273 307.584 
L 116.037818 307.584 
L 119.284364 307.584 
L 122.530909 307.584 
L 125.777455 307.584 
L 129.024 307.584 
L 132.270545 307.584 
L 135.517091 307.584 
L 138.763636 307.584 
L 142.010182 307.584 
L 145.256727 307.584 
L 148.503273 307.584 
L 151.749818 307.584 
L 154.996364 307.584 
L 158.242909 307.584 
L 161.489455 307.584 
L 164.736 307.584 
L 167.982545 307.584 
L 171.229091 307.584 
L 174.475636 307.584 
L 177.722182 307.584 
L 180.968727 307.584 
L 184.215273 307.584 
L 187.461818 307.584 
L 190.708364 307.584 
L 193.954909 307.584 
L 197.201455 307.584 
L 200.448 307.584 
L 203.694545 307.584 
L 206.941091 307.584 
L 210.187636 307.584 
L 213.434182 307.584 
L 216.680727 307.584 
L 219.927273 307.584 
L 223.173818 307.584 
L 226.420364 307.584 
L 229.666909 307.584 
L 232.913455 307.584 
L 236.16 307.584 
L 239.406545 307.584 
L 242.653091 307.578827 
L 245.899636 307.558649 
L 249.146182 307.489105 
L 252.392727 307.277329 
L 255.639273 306.707508 
L 258.885818 305.352775 
L 262.132364 302.506828 
L 265.378909 297.224036 
L 268.625455 288.559057 
L 271.872 276.000417 
L 275.118545 259.916523 
L 278.365091 241.714693 
L 281.611636 223.512863 
L 284.858182 207.428969 
L 288.104727 194.87033 
L 291.351273 186.20535 
L 294.597818 180.922558 
L 297.844364 178.076611 
L 301.090909 176.721878 
L 304.337455 176.152057 
L 307.584 175.940281 
L 310.830545 175.870737 
L 314.077091 175.850559 
L 317.323636 175.845386 
L 320.570182 175.845386 
L 323.816727 175.845386 
L 327.063273 175.845386 
L 330.309818 175.845386 
L 333.556364 175.845386 
L 336.802909 44.106772 
L 340.049455 44.106772 
L 343.296 44.106772 
L 346.542545 44.106772 
L 349.789091 44.106772 
L 353.035636 44.106772 
L 356.282182 44.106772 
L 359.528727 44.106772 
L 362.775273 44.106772 
L 366.021818 44.106772 
L 369.268364 44.106772 
L 372.514909 44.106772 
L 375.761455 44.106772 
L 379.008 44.106772 
L 382.254545 44.106772 
L 385.501091 44.106772 
L 388.747636 44.106772 
L 391.994182 44.106772 
L 395.240727 44.106772 
L 398.487273 44.106772 
" style="fill:none;stroke:#c7e9c0;stroke-linecap:round;stroke-width:12;"/>
   </g>
   <g id="line2d_16">
    <path clip-path="url(#pfea49e19a9)" d="M 73.832727 307.584 
L 77.079273 307.584 
L 80.325818 307.584 
L 83.572364 307.584 
L 86.818909 307.584 
L 90.065455 307.584 
L 93.312 307.584 
L 96.558545 307.584 
L 99.805091 307.584 
L 103.051636 307.584 
L 106.298182 307.584 
L 109.544727 307.584 
L 112.791273 307.584 
L 116.037818 307.584 
L 119.284364 307.584 
L 122.530909 307.584 
L 125.777455 307.584 
L 129.024 307.584 
L 132.270545 307.584 
L 135.517091 307.584 
L 138.763636 307.584 
L 142.010182 307.584 
L 145.256727 307.584 
L 148.503273 307.584 
L 151.749818 307.584 
L 154.996364 307.584 
L 158.242909 307.584 
L 161.489455 307.584 
L 164.736 307.584 
L 167.982545 307.584 
L 171.229091 307.584 
L 174.475636 307.584 
L 177.722182 307.584 
L 180.968727 307.584 
L 184.215273 307.584 
L 187.461818 307.584 
L 190.708364 307.584 
L 193.954909 307.584 
L 197.201455 307.584 
L 200.448 307.584 
L 203.694545 307.584 
L 206.941091 307.584 
L 210.187636 307.584 
L 213.434182 307.584 
L 216.680727 307.584 
L 219.927273 307.584 
L 223.173818 307.584 
L 226.420364 307.584 
L 229.666909 307.584 
L 232.913455 307.584 
L 236.16 307.584 
L 239.406545 307.584 
L 242.653091 307.584 
L 245.899636 307.584 
L 249.146182 307.584 
L 252.392727 307.584 
L 255.639273 307.584 
L 258.885818 307.584 
L 262.132364 307.584 
L 265.378909 307.584 
L 268.625455 307.584 
L 271.872 307.584 
L 275.118545 307.584 
L 278.365091 307.584 
L 281.611636 307.584 
L 284.858182 307.584 
L 288.104727 307.584 
L 291.351273 307.584 
L 294.597818 307.584 
L 297.844364 307.584 
L 301.090909 307.584 
L 304.337455 307.584 
L 307.584 307.584 
L 310.830545 307.584 
L 314.077091 307.584 
L 317.323636 307.584 
L 320.570182 307.584 
L 323.816727 307.584 
L 327.063273 307.584 
L 330.309818 307.584 
L 333.556364 307.584 
L 336.802909 307.584 
L 340.049455 303.121551 
L 343.296 175.845386 
L 346.542545 48.569222 
L 349.789091 44.106772 
L 353.035636 44.106772 
L 356.282182 44.106772 
L 359.528727 44.106772 
L 362.775273 44.106772 
L 366.021818 44.106772 
L 369.268364 44.106772 
L 372.514909 44.106772 
L 375.761455 44.106772 
L 379.008 44.106772 
L 382.254545 44.106772 
L 385.501091 44.106772 
L 388.747636 44.106772 
L 391.994182 44.106772 
L 395.240727 44.106772 
L 398.487273 44.106772 
" style="fill:none;stroke:#73c476;stroke-linecap:round;stroke-width:12;"/>
   </g>
   <g id="line2d_17">
    <path clip-path="url(#pfea49e19a9)" d="M 73.832727 307.584 
L 77.079273 307.584 
L 80.325818 307.584 
L 83.572364 307.584 
L 86.818909 307.584 
L 90.065455 307.584 
L 93.312 307.584 
L 96.558545 307.584 
L 99.805091 307.584 
L 103.051636 307.584 
L 106.298182 307.584 
L 109.544727 307.584 
L 112.791273 307.584 
L 116.037818 307.584 
L 119.284364 307.584 
L 122.530909 307.584 
L 125.777455 307.584 
L 129.024 307.584 
L 132.270545 307.584 
L 135.517091 307.584 
L 138.763636 307.584 
L 142.010182 307.584 
L 145.256727 307.584 
L 148.503273 307.584 
L 151.749818 307.584 
L 154.996364 307.584 
L 158.242909 307.584 
L 161.489455 307.584 
L 164.736 307.584 
L 167.982545 307.584 
L 171.229091 307.584 
L 174.475636 307.584 
L 177.722182 307.584 
L 180.968727 307.584 
L 184.215273 307.584 
L 187.461818 307.584 
L 190.708364 307.584 
L 193.954909 307.584 
L 197.201455 307.584 
L 200.448 307.584 
L 203.694545 307.584 
L 206.941091 307.584 
L 210.187636 307.584 
L 213.434182 307.584 
L 216.680727 307.584 
L 219.927273 307.584 
L 223.173818 307.584 
L 226.420364 307.584 
L 229.666909 307.584 
L 232.913455 307.584 
L 236.16 307.584 
L 239.406545 307.584 
L 242.653091 307.581047 
L 245.899636 307.57174 
L 249.146182 307.544807 
L 252.392727 307.473212 
L 255.639273 307.298412 
L 258.885818 306.906422 
L 262.132364 306.099031 
L 265.378909 304.571566 
L 268.625455 301.917345 
L 271.872 297.68108 
L 275.118545 291.470815 
L 278.365091 283.10864 
L 281.611636 272.766488 
L 284.858182 261.017898 
L 288.104727 248.759211 
L 291.351273 237.010621 
L 294.597818 226.668469 
L 297.844364 218.306294 
L 301.090909 212.096029 
L 304.337455 207.859764 
L 307.584 205.205543 
L 310.830545 203.678078 
L 314.077091 202.870687 
L 317.323636 202.478697 
L 320.570182 202.303897 
L 323.816727 202.232302 
L 327.063273 202.205369 
L 330.309818 202.196062 
L 333.556364 202.193109 
L 336.802909 307.584 
L 340.049455 307.584 
L 343.296 307.584 
L 346.542545 307.584 
L 349.789091 307.584 
L 353.035636 307.584 
L 356.282182 307.584 
L 359.528727 307.584 
L 362.775273 307.584 
L 366.021818 307.584 
L 369.268364 307.584 
L 372.514909 307.584 
L 375.761455 307.584 
L 379.008 307.584 
L 382.254545 307.584 
L 385.501091 307.584 
L 388.747636 307.584 
L 391.994182 307.584 
L 395.240727 307.584 
L 398.487273 307.584 
" style="fill:none;stroke:#228a44;stroke-linecap:round;stroke-width:12;"/>
   </g>
   <g id="line2d_18">
    <path clip-path="url(#pfea49e19a9)" d="M 73.832727 307.584 
L 77.079273 307.584 
L 80.325818 307.584 
L 83.572364 307.584 
L 86.818909 307.584 
L 90.065455 307.584 
L 93.312 307.584 
L 96.558545 307.584 
L 99.805091 307.584 
L 103.051636 307.584 
L 106.298182 307.584 
L 109.544727 307.584 
L 112.791273 307.580708 
L 116.037818 307.563247 
L 119.284364 307.487153 
L 122.530909 307.21468 
L 125.777455 306.41298 
L 129.024 304.474581 
L 132.270545 300.622969 
L 135.517091 294.333295 
L 138.763636 285.891905 
L 142.010182 276.580649 
L 145.256727 268.13926 
L 148.503273 261.849586 
L 151.749818 257.997974 
L 154.996364 256.059574 
L 158.242909 255.257874 
L 161.489455 254.985401 
L 164.736 254.909307 
L 167.982545 254.891846 
L 171.229091 254.888554 
L 174.475636 307.584 
L 177.722182 307.584 
L 180.968727 307.584 
L 184.215273 307.584 
L 187.461818 307.584 
L 190.708364 307.584 
L 193.954909 307.584 
L 197.201455 307.584 
L 200.448 307.584 
L 203.694545 307.584 
L 206.941091 307.584 
L 210.187636 307.584 
L 213.434182 307.584 
L 216.680727 307.584 
L 219.927273 307.584 
L 223.173818 307.584 
L 226.420364 307.584 
L 229.666909 307.584 
L 232.913455 307.584 
L 236.16 307.584 
L 239.406545 307.584 
L 242.653091 307.584 
L 245.899636 307.584 
L 249.146182 307.584 
L 252.392727 307.584 
L 255.639273 307.584 
L 258.885818 307.584 
L 262.132364 307.584 
L 265.378909 307.584 
L 268.625455 307.584 
L 271.872 307.584 
L 275.118545 307.584 
L 278.365091 307.584 
L 281.611636 307.584 
L 284.858182 307.584 
L 288.104727 307.584 
L 291.351273 307.584 
L 294.597818 307.584 
L 297.844364 307.584 
L 301.090909 307.584 
L 304.337455 307.584 
L 307.584 307.584 
L 310.830545 307.584 
L 314.077091 307.584 
L 317.323636 307.584 
L 320.570182 307.584 
L 323.816727 307.584 
L 327.063273 307.584 
L 330.309818 307.584 
L 333.556364 307.584 
L 336.802909 307.584 
L 340.049455 307.584 
L 343.296 307.584 
L 346.542545 307.584 
L 349.789091 307.584 
L 353.035636 307.584 
L 356.282182 307.584 
L 359.528727 307.584 
L 362.775273 307.584 
L 366.021818 307.584 
L 369.268364 307.584 
L 372.514909 307.584 
L 375.761455 307.584 
L 379.008 307.584 
L 382.254545 307.584 
L 385.501091 307.584 
L 388.747636 307.584 
L 391.994182 307.584 
L 395.240727 307.584 
L 398.487273 307.584 
" style="fill:none;stroke:#e32f27;stroke-linecap:round;stroke-width:12;"/>
   </g>
   <g id="patch_3">
    <path d="M 57.6 307.584 
L 57.6 41.472 
" style="fill:none;stroke:#262626;stroke-linecap:square;stroke-linejoin:miter;stroke-width:1.25;"/>
   </g>
   <g id="patch_4">
    <path d="M 414.72 307.584 
L 414.72 41.472 
" style="fill:none;stroke:#262626;stroke-linecap:square;stroke-linejoin:miter;stroke-width:1.25;"/>
   </g>
   <g id="patch_5">
    <path d="M 57.6 307.584 
L 414.72 307.584 
" style="fill:none;stroke:#262626;stroke-linecap:square;stroke-linejoin:miter;stroke-width:1.25;"/>
   </g>
   <g id="patch_6">
    <path d="M 57.6 41.472 
L 414.72 41.472 
" style="fill:none;stroke:#262626;stroke-linecap:square;stroke-linejoin:miter;stroke-width:1.25;"/>
   </g>
   <g id="text_14">
    <text style="fill:#262626;font-family:Liberation Sans;font-size:12px;font-style:normal;font-weight:normal;text-anchor:middle;" transform="rotate(-0, 236.16, 35.472)" x="236.16" y="35.472">Genotypes</text>
   </g>
   <g id="legend_1">
    <g id="text_15">
     <text style="fill:#262626;font-family:Liberation Sans;font-size:10px;font-style:normal;font-weight:normal;text-anchor:start;" transform="rotate(-0, 330.625859, -232.795469)" x="330.625859" y="-232.795469">Genotypes</text>
    </g>
    <g id="line2d_19">
     <path style="fill:none;stroke:#fca082;stroke-linecap:round;stroke-width:12;"/>
    </g>
    <g id="line2d_20"/>
    <g id="text_16">
     <text style="fill:#262626;font-family:Liberation Sans;font-size:5px;font-style:normal;font-weight:normal;text-anchor:start;" transform="rotate(-0, 313.392656, -224.597031)" x="313.392656" y="-224.597031">genotype-red</text>
    </g>
    <g id="line2d_21">
     <path style="fill:none;stroke:#6aaed6;stroke-linecap:round;stroke-width:12;"/>
    </g>
    <g id="line2d_22"/>
    <g id="text_17">
     <text style="fill:#262626;font-family:Liberation Sans;font-size:5px;font-style:normal;font-weight:normal;text-anchor:start;" transform="rotate(-0, 313.392656, -217.436094)" x="313.392656" y="-217.436094">genotype-green</text>
    </g>
    <g id="line2d_23">
     <path style="fill:none;stroke:#c7e9c0;stroke-linecap:round;stroke-width:12;"/>
    </g>
    <g id="line2d_24"/>
    <g id="text_18">
     <text style="fill:#262626;font-family:Liberation Sans;font-size:5px;font-style:normal;font-weight:normal;text-anchor:start;" transform="rotate(-0, 313.392656, -210.275156)" x="313.392656" y="-210.275156">genotype-aqua</text>
    </g>
    <g id="line2d_25">
     <path style="fill:none;stroke:#73c476;stroke-linecap:round;stroke-width:12;"/>
    </g>
    <g id="line2d_26"/>
    <g id="text_19">
     <text style="fill:#262626;font-family:Liberation Sans;font-size:5px;font-style:normal;font-weight:normal;text-anchor:start;" transform="rotate(-0, 372.416094, -224.597031)" x="372.416094" y="-224.597031">genotype-sienna</text>
    </g>
    <g id="line2d_27">
     <path style="fill:none;stroke:#228a44;stroke-linecap:round;stroke-width:12;"/>
    </g>
    <g id="line2d_28"/>
    <g id="text_20">
     <text style="fill:#262626;font-family:Liberation Sans;font-size:5px;font-style:normal;font-weight:normal;text-anchor:start;" transform="rotate(-0, 372.416094, -217.436094)" x="372.416094" y="-217.436094">genotype-orchid</text>
    </g>
    <g id="line2d_29">
     <path style="fill:none;stroke:#e32f27;stroke-linecap:round;stroke-width:12;"/>
    </g>
    <g id="line2d_30"/>
    <g id="text_21">
     <text style="fill:#262626;font-family:Liberation Sans;font-size:5px;font-style:normal;font-weight:normal;text-anchor:start;" transform="rotate(-0, 372.416094, -210.275156)" x="372.416094" y="-210.275156">genotype-orange</text>
    </g>
   </g>
  </g>
 </g>
 <defs>
  <clipPath id="pfea49e19a9">
   <rect height="266.112" width="357.12" x="57.6" y="41.472"/>
  </clipPath>
 </defs>
</svg>
