<?xml version="1.0" encoding="UTF-8" standalone="no"?>
<!DOCTYPE svg PUBLIC "-//W3C//DTD SVG 1.1//EN"
 "http://www.w3.org/Graphics/SVG/1.1/DTD/svg11.dtd">
<!-- Generated by graphviz version 2.40.1 (20161225.0304)
 -->
<!-- Pages: 1 -->
<svg width="2394pt" height="355pt"
 viewBox="0.00 0.00 2393.50 355.00" xmlns="http://www.w3.org/2000/svg" xmlns:xlink="http://www.w3.org/1999/xlink">
<g id="graph0" class="graph" transform="scale(1 1) rotate(0) translate(4 351)">
<polygon fill="#ffffff" stroke="transparent" points="-4,4 -4,-351 2389.5,-351 2389.5,4 -4,4"/>
<!-- genotype&#45;19 -->
<g id="node1" class="node">
<title>genotype&#45;19</title>
<path fill="#000075" stroke="#333333" d="M1568,-275C1568,-275 1495,-275 1495,-275 1489,-275 1483,-269 1483,-263 1483,-263 1483,-249 1483,-249 1483,-243 1489,-237 1495,-237 1495,-237 1568,-237 1568,-237 1574,-237 1580,-243 1580,-249 1580,-249 1580,-263 1580,-263 1580,-269 1574,-275 1568,-275"/>
<text text-anchor="middle" x="1531.5" y="-259.8" font-family="lato" font-size="14.00" fill="#ffffff">genotype&#45;19</text>
<text text-anchor="middle" x="1531.5" y="-244.8" font-family="lato" font-size="14.00" fill="#ffffff">tig A151V</text>
</g>
<!-- genotype&#45;6 -->
<g id="node2" class="node">
<title>genotype&#45;6</title>
<path fill="#911eb4" stroke="#333333" d="M1443.5,-201C1443.5,-201 1309.5,-201 1309.5,-201 1303.5,-201 1297.5,-195 1297.5,-189 1297.5,-189 1297.5,-175 1297.5,-175 1297.5,-169 1303.5,-163 1309.5,-163 1309.5,-163 1443.5,-163 1443.5,-163 1449.5,-163 1455.5,-169 1455.5,-175 1455.5,-175 1455.5,-189 1455.5,-189 1455.5,-195 1449.5,-201 1443.5,-201"/>
<text text-anchor="middle" x="1376.5" y="-185.8" font-family="lato" font-size="14.00" fill="#ffffff">genotype&#45;6</text>
<text text-anchor="middle" x="1376.5" y="-170.8" font-family="lato" font-size="14.00" fill="#ffffff">PROKKA_00981 L83V</text>
</g>
<!-- genotype&#45;19&#45;&#45;genotype&#45;6 -->
<g id="edge1" class="edge">
<title>genotype&#45;19&#45;&#45;genotype&#45;6</title>
<g id="a_edge1"><a xlink:title="parent">
<path fill="none" stroke="#000000" d="M1482.8823,-256C1437.4259,-256 1376.5,-256 1376.5,-256 1376.5,-256 1376.5,-211.0568 1376.5,-211.0568"/>
<polygon fill="#000000" stroke="#000000" points="1380.0001,-211.0568 1376.5,-201.0568 1373.0001,-211.0569 1380.0001,-211.0568"/>
</a>
</g>
</g>
<!-- genotype&#45;29 -->
<g id="node3" class="node">
<title>genotype&#45;29</title>
<path fill="#5c9b52" stroke="#333333" d="M1573,-201C1573,-201 1490,-201 1490,-201 1484,-201 1478,-195 1478,-189 1478,-189 1478,-175 1478,-175 1478,-169 1484,-163 1490,-163 1490,-163 1573,-163 1573,-163 1579,-163 1585,-169 1585,-175 1585,-175 1585,-189 1585,-189 1585,-195 1579,-201 1573,-201"/>
<text text-anchor="middle" x="1531.5" y="-185.8" font-family="lato" font-size="14.00" fill="#333333">genotype&#45;29</text>
<text text-anchor="middle" x="1531.5" y="-170.8" font-family="lato" font-size="14.00" fill="#333333">bglK_1 A168D</text>
</g>
<!-- genotype&#45;19&#45;&#45;genotype&#45;29 -->
<g id="edge2" class="edge">
<title>genotype&#45;19&#45;&#45;genotype&#45;29</title>
<g id="a_edge2"><a xlink:title="parent">
<path fill="none" stroke="#000000" d="M1531.5,-236.9432C1531.5,-236.9432 1531.5,-211.2495 1531.5,-211.2495"/>
<polygon fill="#000000" stroke="#000000" points="1535.0001,-211.2494 1531.5,-201.2495 1528.0001,-211.2495 1535.0001,-211.2494"/>
</a>
</g>
</g>
<!-- genotype&#45;25 -->
<g id="node4" class="node">
<title>genotype&#45;25</title>
<path fill="#83d366" stroke="#333333" d="M1054.5,-119.5C1054.5,-119.5 860.5,-119.5 860.5,-119.5 854.5,-119.5 848.5,-113.5 848.5,-107.5 848.5,-107.5 848.5,-93.5 848.5,-93.5 848.5,-87.5 854.5,-81.5 860.5,-81.5 860.5,-81.5 1054.5,-81.5 1054.5,-81.5 1060.5,-81.5 1066.5,-87.5 1066.5,-93.5 1066.5,-93.5 1066.5,-107.5 1066.5,-107.5 1066.5,-113.5 1060.5,-119.5 1054.5,-119.5"/>
<text text-anchor="middle" x="957.5" y="-104.3" font-family="lato" font-size="14.00" fill="#333333">genotype&#45;25</text>
<text text-anchor="middle" x="957.5" y="-89.3" font-family="lato" font-size="14.00" fill="#333333">PROKKA_02115|parC intergenic</text>
</g>
<!-- genotype&#45;6&#45;&#45;genotype&#45;25 -->
<g id="edge3" class="edge">
<title>genotype&#45;6&#45;&#45;genotype&#45;25</title>
<g id="a_edge3"><a xlink:title="parent">
<path fill="none" stroke="#000000" d="M1297.1967,-188C1175.7242,-188 957.5,-188 957.5,-188 957.5,-188 957.5,-129.9191 957.5,-129.9191"/>
<polygon fill="#000000" stroke="#000000" points="961.0001,-129.9191 957.5,-119.9191 954.0001,-129.9191 961.0001,-129.9191"/>
</a>
</g>
</g>
<!-- genotype&#45;14 -->
<g id="node5" class="node">
<title>genotype&#45;14</title>
<path fill="#fffac8" stroke="#333333" d="M1240.5,-119.5C1240.5,-119.5 1096.5,-119.5 1096.5,-119.5 1090.5,-119.5 1084.5,-113.5 1084.5,-107.5 1084.5,-107.5 1084.5,-93.5 1084.5,-93.5 1084.5,-87.5 1090.5,-81.5 1096.5,-81.5 1096.5,-81.5 1240.5,-81.5 1240.5,-81.5 1246.5,-81.5 1252.5,-87.5 1252.5,-93.5 1252.5,-93.5 1252.5,-107.5 1252.5,-107.5 1252.5,-113.5 1246.5,-119.5 1240.5,-119.5"/>
<text text-anchor="middle" x="1168.5" y="-104.3" font-family="lato" font-size="14.00" fill="#333333">genotype&#45;14</text>
<text text-anchor="middle" x="1168.5" y="-89.3" font-family="lato" font-size="14.00" fill="#333333">PROKKA_01281 A256V</text>
</g>
<!-- genotype&#45;6&#45;&#45;genotype&#45;14 -->
<g id="edge4" class="edge">
<title>genotype&#45;6&#45;&#45;genotype&#45;14</title>
<g id="a_edge4"><a xlink:title="parent">
<path fill="none" stroke="#000000" d="M1297.2708,-175C1238.4901,-175 1168.5,-175 1168.5,-175 1168.5,-175 1168.5,-129.6856 1168.5,-129.6856"/>
<polygon fill="#000000" stroke="#000000" points="1172.0001,-129.6856 1168.5,-119.6856 1165.0001,-129.6856 1172.0001,-129.6856"/>
</a>
</g>
</g>
<!-- genotype&#45;30 -->
<g id="node6" class="node">
<title>genotype&#45;30</title>
<path fill="#9f8238" stroke="#333333" d="M1355,-119.5C1355,-119.5 1282,-119.5 1282,-119.5 1276,-119.5 1270,-113.5 1270,-107.5 1270,-107.5 1270,-93.5 1270,-93.5 1270,-87.5 1276,-81.5 1282,-81.5 1282,-81.5 1355,-81.5 1355,-81.5 1361,-81.5 1367,-87.5 1367,-93.5 1367,-93.5 1367,-107.5 1367,-107.5 1367,-113.5 1361,-119.5 1355,-119.5"/>
<text text-anchor="middle" x="1318.5" y="-104.3" font-family="lato" font-size="14.00" fill="#333333">genotype&#45;30</text>
<text text-anchor="middle" x="1318.5" y="-89.3" font-family="lato" font-size="14.00" fill="#333333">dnaI R14S</text>
</g>
<!-- genotype&#45;6&#45;&#45;genotype&#45;30 -->
<g id="edge5" class="edge">
<title>genotype&#45;6&#45;&#45;genotype&#45;30</title>
<g id="a_edge5"><a xlink:title="parent">
<path fill="none" stroke="#000000" d="M1332.25,-162.6856C1332.25,-162.6856 1332.25,-129.6757 1332.25,-129.6757"/>
<polygon fill="#000000" stroke="#000000" points="1335.7501,-129.6757 1332.25,-119.6757 1328.7501,-129.6758 1335.7501,-129.6757"/>
</a>
</g>
</g>
<!-- genotype&#45;24 -->
<g id="node7" class="node">
<title>genotype&#45;24</title>
<path fill="#815135" stroke="#333333" d="M1470,-119.5C1470,-119.5 1397,-119.5 1397,-119.5 1391,-119.5 1385,-113.5 1385,-107.5 1385,-107.5 1385,-93.5 1385,-93.5 1385,-87.5 1391,-81.5 1397,-81.5 1397,-81.5 1470,-81.5 1470,-81.5 1476,-81.5 1482,-87.5 1482,-93.5 1482,-93.5 1482,-107.5 1482,-107.5 1482,-113.5 1476,-119.5 1470,-119.5"/>
<text text-anchor="middle" x="1433.5" y="-104.3" font-family="lato" font-size="14.00" fill="#ffffff">genotype&#45;24</text>
<text text-anchor="middle" x="1433.5" y="-89.3" font-family="lato" font-size="14.00" fill="#ffffff">glnM I92S</text>
</g>
<!-- genotype&#45;6&#45;&#45;genotype&#45;24 -->
<g id="edge6" class="edge">
<title>genotype&#45;6&#45;&#45;genotype&#45;24</title>
<g id="a_edge6"><a xlink:title="parent">
<path fill="none" stroke="#000000" d="M1432,-162.6856C1432,-162.6856 1432,-129.6757 1432,-129.6757"/>
<polygon fill="#000000" stroke="#000000" points="1435.5001,-129.6757 1432,-119.6757 1428.5001,-129.6758 1435.5001,-129.6757"/>
</a>
</g>
</g>
<!-- genotype&#45;15 -->
<g id="node8" class="node">
<title>genotype&#45;15</title>
<path fill="#800000" stroke="#333333" d="M1595,-119.5C1595,-119.5 1512,-119.5 1512,-119.5 1506,-119.5 1500,-113.5 1500,-107.5 1500,-107.5 1500,-93.5 1500,-93.5 1500,-87.5 1506,-81.5 1512,-81.5 1512,-81.5 1595,-81.5 1595,-81.5 1601,-81.5 1607,-87.5 1607,-93.5 1607,-93.5 1607,-107.5 1607,-107.5 1607,-113.5 1601,-119.5 1595,-119.5"/>
<text text-anchor="middle" x="1553.5" y="-104.3" font-family="lato" font-size="14.00" fill="#ffffff">genotype&#45;15</text>
<text text-anchor="middle" x="1553.5" y="-89.3" font-family="lato" font-size="14.00" fill="#ffffff">nrnA_2 S191Y</text>
</g>
<!-- genotype&#45;6&#45;&#45;genotype&#45;15 -->
<g id="edge7" class="edge">
<title>genotype&#45;6&#45;&#45;genotype&#45;15</title>
<g id="a_edge7"><a xlink:title="parent">
<path fill="none" stroke="#000000" d="M1408.5,-162.8968C1408.5,-156.5173 1408.5,-151 1408.5,-151 1408.5,-151 1542.5,-151 1542.5,-151 1542.5,-151 1542.5,-129.5919 1542.5,-129.5919"/>
<polygon fill="#000000" stroke="#000000" points="1546.0001,-129.5918 1542.5,-119.5919 1539.0001,-129.5919 1546.0001,-129.5918"/>
</a>
</g>
</g>
<!-- genotype&#45;10 -->
<g id="node9" class="node">
<title>genotype&#45;10</title>
<path fill="#fabebe" stroke="#333333" d="M85,-38C85,-38 12,-38 12,-38 6,-38 0,-32 0,-26 0,-26 0,-12 0,-12 0,-6 6,0 12,0 12,0 85,0 85,0 91,0 97,-6 97,-12 97,-12 97,-26 97,-26 97,-32 91,-38 85,-38"/>
<text text-anchor="middle" x="48.5" y="-22.8" font-family="lato" font-size="14.00" fill="#333333">genotype&#45;10</text>
<text text-anchor="middle" x="48.5" y="-7.8" font-family="lato" font-size="14.00" fill="#333333">copA D584Y</text>
</g>
<!-- genotype&#45;14&#45;&#45;genotype&#45;10 -->
<g id="edge8" class="edge">
<title>genotype&#45;14&#45;&#45;genotype&#45;10</title>
<g id="a_edge8"><a xlink:title="parent">
<path fill="none" stroke="#000000" d="M1093.1111,-81.4496C1093.1111,-74.8159 1093.1111,-69 1093.1111,-69 1093.1111,-69 48.5,-69 48.5,-69 48.5,-69 48.5,-48.1883 48.5,-48.1883"/>
<polygon fill="#000000" stroke="#000000" points="52.0001,-48.1883 48.5,-38.1883 45.0001,-48.1883 52.0001,-48.1883"/>
</a>
</g>
</g>
<!-- genotype&#45;4 -->
<g id="node10" class="node">
<title>genotype&#45;4</title>
<path fill="#4363d8" stroke="#333333" d="M263.5,-38C263.5,-38 127.5,-38 127.5,-38 121.5,-38 115.5,-32 115.5,-26 115.5,-26 115.5,-12 115.5,-12 115.5,-6 121.5,0 127.5,0 127.5,0 263.5,0 263.5,0 269.5,0 275.5,-6 275.5,-12 275.5,-12 275.5,-26 275.5,-26 275.5,-32 269.5,-38 263.5,-38"/>
<text text-anchor="middle" x="195.5" y="-22.8" font-family="lato" font-size="14.00" fill="#ffffff">genotype&#45;4</text>
<text text-anchor="middle" x="195.5" y="-7.8" font-family="lato" font-size="14.00" fill="#ffffff">PROKKA_00838 A21V</text>
</g>
<!-- genotype&#45;14&#45;&#45;genotype&#45;4 -->
<g id="edge9" class="edge">
<title>genotype&#45;14&#45;&#45;genotype&#45;4</title>
<g id="a_edge9"><a xlink:title="parent">
<path fill="none" stroke="#000000" d="M1101.7222,-81.3948C1101.7222,-72.5636 1101.7222,-64 1101.7222,-64 1101.7222,-64 195.5,-64 195.5,-64 195.5,-64 195.5,-48.0841 195.5,-48.0841"/>
<polygon fill="#000000" stroke="#000000" points="199.0001,-48.084 195.5,-38.0841 192.0001,-48.0841 199.0001,-48.084"/>
</a>
</g>
</g>
<!-- genotype&#45;20 -->
<g id="node11" class="node">
<title>genotype&#45;20</title>
<path fill="#808080" stroke="#333333" d="M381,-38C381,-38 306,-38 306,-38 300,-38 294,-32 294,-26 294,-26 294,-12 294,-12 294,-6 300,0 306,0 306,0 381,0 381,0 387,0 393,-6 393,-12 393,-12 393,-26 393,-26 393,-32 387,-38 381,-38"/>
<text text-anchor="middle" x="343.5" y="-22.8" font-family="lato" font-size="14.00" fill="#333333">genotype&#45;20</text>
<text text-anchor="middle" x="343.5" y="-7.8" font-family="lato" font-size="14.00" fill="#333333">recD2 T316T</text>
</g>
<!-- genotype&#45;14&#45;&#45;genotype&#45;20 -->
<g id="edge10" class="edge">
<title>genotype&#45;14&#45;&#45;genotype&#45;20</title>
<g id="a_edge10"><a xlink:title="parent">
<path fill="none" stroke="#000000" d="M1110.3333,-81.2079C1110.3333,-70.3705 1110.3333,-59 1110.3333,-59 1110.3333,-59 343.5,-59 343.5,-59 343.5,-59 343.5,-48.0628 343.5,-48.0628"/>
<polygon fill="#000000" stroke="#000000" points="347.0001,-48.0628 343.5,-38.0628 340.0001,-48.0628 347.0001,-48.0628"/>
</a>
</g>
</g>
<!-- genotype&#45;28 -->
<g id="node12" class="node">
<title>genotype&#45;28</title>
<path fill="#cc53d4" stroke="#333333" d="M496,-38C496,-38 423,-38 423,-38 417,-38 411,-32 411,-26 411,-26 411,-12 411,-12 411,-6 417,0 423,0 423,0 496,0 496,0 502,0 508,-6 508,-12 508,-12 508,-26 508,-26 508,-32 502,-38 496,-38"/>
<text text-anchor="middle" x="459.5" y="-22.8" font-family="lato" font-size="14.00" fill="#333333">genotype&#45;28</text>
<text text-anchor="middle" x="459.5" y="-7.8" font-family="lato" font-size="14.00" fill="#333333">intergenic</text>
</g>
<!-- genotype&#45;14&#45;&#45;genotype&#45;28 -->
<g id="edge11" class="edge">
<title>genotype&#45;14&#45;&#45;genotype&#45;28</title>
<g id="a_edge11"><a xlink:title="parent">
<path fill="none" stroke="#000000" d="M1118.9444,-81.3182C1118.9444,-68.5093 1118.9444,-54 1118.9444,-54 1118.9444,-54 459.5,-54 459.5,-54 459.5,-54 459.5,-48.1385 459.5,-48.1385"/>
<polygon fill="#000000" stroke="#000000" points="463.0001,-48.1385 459.5,-38.1385 456.0001,-48.1385 463.0001,-48.1385"/>
</a>
</g>
</g>
<!-- genotype&#45;5 -->
<g id="node13" class="node">
<title>genotype&#45;5</title>
<path fill="#f58231" stroke="#333333" d="M612.5,-38C612.5,-38 538.5,-38 538.5,-38 532.5,-38 526.5,-32 526.5,-26 526.5,-26 526.5,-12 526.5,-12 526.5,-6 532.5,0 538.5,0 538.5,0 612.5,0 612.5,0 618.5,0 624.5,-6 624.5,-12 624.5,-12 624.5,-26 624.5,-26 624.5,-32 618.5,-38 612.5,-38"/>
<text text-anchor="middle" x="575.5" y="-22.8" font-family="lato" font-size="14.00" fill="#333333">genotype&#45;5</text>
<text text-anchor="middle" x="575.5" y="-7.8" font-family="lato" font-size="14.00" fill="#333333">malK_1 A83S</text>
</g>
<!-- genotype&#45;14&#45;&#45;genotype&#45;5 -->
<g id="edge12" class="edge">
<title>genotype&#45;14&#45;&#45;genotype&#45;5</title>
<g id="a_edge12"><a xlink:title="parent">
<path fill="none" stroke="#000000" d="M1127.5556,-81.4081C1127.5556,-67.1074 1127.5556,-50 1127.5556,-50 1127.5556,-50 575.5,-50 575.5,-50 575.5,-50 575.5,-48.1032 575.5,-48.1032"/>
<polygon fill="#000000" stroke="#000000" points="579.0001,-48.1032 575.5,-38.1032 572.0001,-48.1033 579.0001,-48.1032"/>
</a>
</g>
</g>
<!-- genotype&#45;3 -->
<g id="node14" class="node">
<title>genotype&#45;3</title>
<path fill="#ffe119" stroke="#333333" d="M796,-38C796,-38 655,-38 655,-38 649,-38 643,-32 643,-26 643,-26 643,-12 643,-12 643,-6 649,0 655,0 655,0 796,0 796,0 802,0 808,-6 808,-12 808,-12 808,-26 808,-26 808,-32 802,-38 796,-38"/>
<text text-anchor="middle" x="725.5" y="-22.8" font-family="lato" font-size="14.00" fill="#333333">genotype&#45;3</text>
<text text-anchor="middle" x="725.5" y="-7.8" font-family="lato" font-size="14.00" fill="#333333">PROKKA_00838 P431L</text>
</g>
<!-- genotype&#45;14&#45;&#45;genotype&#45;3 -->
<g id="edge13" class="edge">
<title>genotype&#45;14&#45;&#45;genotype&#45;3</title>
<g id="a_edge13"><a xlink:title="parent">
<path fill="none" stroke="#000000" d="M1136.1667,-81.4C1136.1667,-65.3459 1136.1667,-45 1136.1667,-45 1136.1667,-45 725.5,-45 725.5,-45 725.5,-45 725.5,-44.3169 725.5,-44.3169"/>
<polygon fill="#000000" stroke="#000000" points="729.0002,-48.1687 725.5,-38.1688 722.0002,-48.1689 729.0002,-48.1687"/>
</a>
</g>
</g>
<!-- genotype&#45;16 -->
<g id="node15" class="node">
<title>genotype&#45;16</title>
<path fill="#aaffc3" stroke="#333333" d="M963,-38C963,-38 838,-38 838,-38 832,-38 826,-32 826,-26 826,-26 826,-12 826,-12 826,-6 832,0 838,0 838,0 963,0 963,0 969,0 975,-6 975,-12 975,-12 975,-26 975,-26 975,-32 969,-38 963,-38"/>
<text text-anchor="middle" x="900.5" y="-22.8" font-family="lato" font-size="14.00" fill="#333333">genotype&#45;16</text>
<text text-anchor="middle" x="900.5" y="-7.8" font-family="lato" font-size="14.00" fill="#333333">PROKKA_01382 T8P</text>
</g>
<!-- genotype&#45;14&#45;&#45;genotype&#45;16 -->
<g id="edge14" class="edge">
<title>genotype&#45;14&#45;&#45;genotype&#45;16</title>
<g id="a_edge14"><a xlink:title="parent">
<path fill="none" stroke="#000000" d="M1144.7778,-81.3574C1144.7778,-63.6328 1144.7778,-40 1144.7778,-40 1144.7778,-40 911.75,-40 911.75,-40 911.75,-40 911.75,-39.8062 911.75,-39.8062"/>
<polygon fill="#000000" stroke="#000000" points="915.2506,-48.0618 911.75,-38.062 908.2506,-48.0622 915.2506,-48.0618"/>
</a>
</g>
</g>
<!-- genotype&#45;22 -->
<g id="node16" class="node">
<title>genotype&#45;22</title>
<path fill="#a36334" stroke="#333333" d="M1150,-38C1150,-38 1005,-38 1005,-38 999,-38 993,-32 993,-26 993,-26 993,-12 993,-12 993,-6 999,0 1005,0 1005,0 1150,0 1150,0 1156,0 1162,-6 1162,-12 1162,-12 1162,-26 1162,-26 1162,-32 1156,-38 1150,-38"/>
<text text-anchor="middle" x="1077.5" y="-22.8" font-family="lato" font-size="14.00" fill="#ffffff">genotype&#45;22</text>
<text text-anchor="middle" x="1077.5" y="-7.8" font-family="lato" font-size="14.00" fill="#ffffff">PROKKA_00438 A452G</text>
</g>
<!-- genotype&#45;14&#45;&#45;genotype&#45;22 -->
<g id="edge15" class="edge">
<title>genotype&#45;14&#45;&#45;genotype&#45;22</title>
<g id="a_edge15"><a xlink:title="parent">
<path fill="none" stroke="#000000" d="M1153.3889,-81.1856C1153.3889,-81.1856 1153.3889,-48.1757 1153.3889,-48.1757"/>
<polygon fill="#000000" stroke="#000000" points="1156.889,-48.1757 1153.3889,-38.1757 1149.889,-48.1758 1156.889,-48.1757"/>
</a>
</g>
</g>
<!-- genotype&#45;27 -->
<g id="node17" class="node">
<title>genotype&#45;27</title>
<path fill="#86c26e" stroke="#333333" d="M1327,-38C1327,-38 1192,-38 1192,-38 1186,-38 1180,-32 1180,-26 1180,-26 1180,-12 1180,-12 1180,-6 1186,0 1192,0 1192,0 1327,0 1327,0 1333,0 1339,-6 1339,-12 1339,-12 1339,-26 1339,-26 1339,-32 1333,-38 1327,-38"/>
<text text-anchor="middle" x="1259.5" y="-22.8" font-family="lato" font-size="14.00" fill="#333333">genotype&#45;27</text>
<text text-anchor="middle" x="1259.5" y="-7.8" font-family="lato" font-size="14.00" fill="#333333">PROKKA_00512 E35V</text>
</g>
<!-- genotype&#45;14&#45;&#45;genotype&#45;27 -->
<g id="edge16" class="edge">
<title>genotype&#45;14&#45;&#45;genotype&#45;27</title>
<g id="a_edge16"><a xlink:title="parent">
<path fill="none" stroke="#000000" d="M1188.0556,-81.1856C1188.0556,-81.1856 1188.0556,-48.1757 1188.0556,-48.1757"/>
<polygon fill="#000000" stroke="#000000" points="1191.5557,-48.1757 1188.0556,-38.1757 1184.5557,-48.1758 1191.5557,-48.1757"/>
</a>
</g>
</g>
<!-- genotype&#45;17 -->
<g id="node18" class="node">
<title>genotype&#45;17</title>
<path fill="#808000" stroke="#333333" d="M1511.5,-38C1511.5,-38 1369.5,-38 1369.5,-38 1363.5,-38 1357.5,-32 1357.5,-26 1357.5,-26 1357.5,-12 1357.5,-12 1357.5,-6 1363.5,0 1369.5,0 1369.5,0 1511.5,0 1511.5,0 1517.5,0 1523.5,-6 1523.5,-12 1523.5,-12 1523.5,-26 1523.5,-26 1523.5,-32 1517.5,-38 1511.5,-38"/>
<text text-anchor="middle" x="1440.5" y="-22.8" font-family="lato" font-size="14.00" fill="#ffffff">genotype&#45;17</text>
<text text-anchor="middle" x="1440.5" y="-7.8" font-family="lato" font-size="14.00" fill="#ffffff">PROKKA_01506 A136S</text>
</g>
<!-- genotype&#45;14&#45;&#45;genotype&#45;17 -->
<g id="edge17" class="edge">
<title>genotype&#45;14&#45;&#45;genotype&#45;17</title>
<g id="a_edge17"><a xlink:title="parent">
<path fill="none" stroke="#000000" d="M1196.1111,-81.3449C1196.1111,-64.2838 1196.1111,-42 1196.1111,-42 1196.1111,-42 1362.25,-42 1362.25,-42 1362.25,-42 1362.25,-41.6406 1362.25,-41.6406"/>
<polygon fill="#000000" stroke="#000000" points="1365.7503,-48.4061 1362.25,-38.4063 1358.7503,-48.4064 1365.7503,-48.4061"/>
</a>
</g>
</g>
<!-- genotype&#45;23 -->
<g id="node19" class="node">
<title>genotype&#45;23</title>
<path fill="#399b92" stroke="#333333" d="M1699,-38C1699,-38 1554,-38 1554,-38 1548,-38 1542,-32 1542,-26 1542,-26 1542,-12 1542,-12 1542,-6 1548,0 1554,0 1554,0 1699,0 1699,0 1705,0 1711,-6 1711,-12 1711,-12 1711,-26 1711,-26 1711,-32 1705,-38 1699,-38"/>
<text text-anchor="middle" x="1626.5" y="-22.8" font-family="lato" font-size="14.00" fill="#ffffff">genotype&#45;23</text>
<text text-anchor="middle" x="1626.5" y="-7.8" font-family="lato" font-size="14.00" fill="#ffffff">PROKKA_01887 A363D</text>
</g>
<!-- genotype&#45;14&#45;&#45;genotype&#45;23 -->
<g id="edge18" class="edge">
<title>genotype&#45;14&#45;&#45;genotype&#45;23</title>
<g id="a_edge18"><a xlink:title="parent">
<path fill="none" stroke="#000000" d="M1204.1667,-81.4873C1204.1667,-66.1098 1204.1667,-47 1204.1667,-47 1204.1667,-47 1574.5,-47 1574.5,-47 1574.5,-47 1574.5,-46.1141 1574.5,-46.1141"/>
<polygon fill="#000000" stroke="#000000" points="1578.0001,-48.1406 1574.5,-38.1406 1571.0001,-48.1407 1578.0001,-48.1406"/>
</a>
</g>
</g>
<!-- genotype&#45;8 -->
<g id="node20" class="node">
<title>genotype&#45;8</title>
<path fill="#f032e6" stroke="#333333" d="M1830,-38C1830,-38 1741,-38 1741,-38 1735,-38 1729,-32 1729,-26 1729,-26 1729,-12 1729,-12 1729,-6 1735,0 1741,0 1741,0 1830,0 1830,0 1836,0 1842,-6 1842,-12 1842,-12 1842,-26 1842,-26 1842,-32 1836,-38 1830,-38"/>
<text text-anchor="middle" x="1785.5" y="-22.8" font-family="lato" font-size="14.00" fill="#ffffff">genotype&#45;8</text>
<text text-anchor="middle" x="1785.5" y="-7.8" font-family="lato" font-size="14.00" fill="#ffffff">mepA_2 *427Q</text>
</g>
<!-- genotype&#45;14&#45;&#45;genotype&#45;8 -->
<g id="edge19" class="edge">
<title>genotype&#45;14&#45;&#45;genotype&#45;8</title>
<g id="a_edge19"><a xlink:title="parent">
<path fill="none" stroke="#000000" d="M1212.2222,-81.3315C1212.2222,-67.7749 1212.2222,-52 1212.2222,-52 1212.2222,-52 1761.5,-52 1761.5,-52 1761.5,-52 1761.5,-48.1962 1761.5,-48.1962"/>
<polygon fill="#000000" stroke="#000000" points="1765.0001,-48.1962 1761.5,-38.1962 1758.0001,-48.1963 1765.0001,-48.1962"/>
</a>
</g>
</g>
<!-- genotype&#45;7 -->
<g id="node21" class="node">
<title>genotype&#45;7</title>
<path fill="#46f0f0" stroke="#333333" d="M2018.5,-38C2018.5,-38 1872.5,-38 1872.5,-38 1866.5,-38 1860.5,-32 1860.5,-26 1860.5,-26 1860.5,-12 1860.5,-12 1860.5,-6 1866.5,0 1872.5,0 1872.5,0 2018.5,0 2018.5,0 2024.5,0 2030.5,-6 2030.5,-12 2030.5,-12 2030.5,-26 2030.5,-26 2030.5,-32 2024.5,-38 2018.5,-38"/>
<text text-anchor="middle" x="1945.5" y="-22.8" font-family="lato" font-size="14.00" fill="#333333">genotype&#45;7</text>
<text text-anchor="middle" x="1945.5" y="-7.8" font-family="lato" font-size="14.00" fill="#333333">PROKKA_01052 Q231K</text>
</g>
<!-- genotype&#45;14&#45;&#45;genotype&#45;7 -->
<g id="edge20" class="edge">
<title>genotype&#45;14&#45;&#45;genotype&#45;7</title>
<g id="a_edge20"><a xlink:title="parent">
<path fill="none" stroke="#000000" d="M1220.2778,-81.2936C1220.2778,-69.6406 1220.2778,-57 1220.2778,-57 1220.2778,-57 1905.75,-57 1905.75,-57 1905.75,-57 1905.75,-48.4453 1905.75,-48.4453"/>
<polygon fill="#000000" stroke="#000000" points="1909.2501,-48.4452 1905.75,-38.4453 1902.2501,-48.4453 1909.2501,-48.4452"/>
</a>
</g>
</g>
<!-- genotype&#45;13 -->
<g id="node22" class="node">
<title>genotype&#45;13</title>
<path fill="#9a6324" stroke="#333333" d="M2142,-38C2142,-38 2061,-38 2061,-38 2055,-38 2049,-32 2049,-26 2049,-26 2049,-12 2049,-12 2049,-6 2055,0 2061,0 2061,0 2142,0 2142,0 2148,0 2154,-6 2154,-12 2154,-12 2154,-26 2154,-26 2154,-32 2148,-38 2142,-38"/>
<text text-anchor="middle" x="2101.5" y="-22.8" font-family="lato" font-size="14.00" fill="#ffffff">genotype&#45;13</text>
<text text-anchor="middle" x="2101.5" y="-7.8" font-family="lato" font-size="14.00" fill="#ffffff">lytB_5 D625A</text>
</g>
<!-- genotype&#45;14&#45;&#45;genotype&#45;13 -->
<g id="edge21" class="edge">
<title>genotype&#45;14&#45;&#45;genotype&#45;13</title>
<g id="a_edge21"><a xlink:title="parent">
<path fill="none" stroke="#000000" d="M1228.3333,-81.25C1228.3333,-71.625 1228.3333,-62 1228.3333,-62 1228.3333,-62 2082.25,-62 2082.25,-62 2082.25,-62 2082.25,-48.2362 2082.25,-48.2362"/>
<polygon fill="#000000" stroke="#000000" points="2085.7501,-48.2361 2082.25,-38.2362 2078.7501,-48.2362 2085.7501,-48.2361"/>
</a>
</g>
</g>
<!-- genotype&#45;21 -->
<g id="node23" class="node">
<title>genotype&#45;21</title>
<path fill="#42dbaa" stroke="#333333" d="M2257,-38C2257,-38 2184,-38 2184,-38 2178,-38 2172,-32 2172,-26 2172,-26 2172,-12 2172,-12 2172,-6 2178,0 2184,0 2184,0 2257,0 2257,0 2263,0 2269,-6 2269,-12 2269,-12 2269,-26 2269,-26 2269,-32 2263,-38 2257,-38"/>
<text text-anchor="middle" x="2220.5" y="-22.8" font-family="lato" font-size="14.00" fill="#333333">genotype&#45;21</text>
<text text-anchor="middle" x="2220.5" y="-7.8" font-family="lato" font-size="14.00" fill="#333333">accD T213K</text>
</g>
<!-- genotype&#45;14&#45;&#45;genotype&#45;21 -->
<g id="edge22" class="edge">
<title>genotype&#45;14&#45;&#45;genotype&#45;21</title>
<g id="a_edge22"><a xlink:title="parent">
<path fill="none" stroke="#000000" d="M1236.3889,-81.2326C1236.3889,-73.33 1236.3889,-66 1236.3889,-66 1236.3889,-66 2220.5,-66 2220.5,-66 2220.5,-66 2220.5,-48.1167 2220.5,-48.1167"/>
<polygon fill="#000000" stroke="#000000" points="2224.0001,-48.1167 2220.5,-38.1167 2217.0001,-48.1167 2224.0001,-48.1167"/>
</a>
</g>
</g>
<!-- genotype&#45;11 -->
<g id="node24" class="node">
<title>genotype&#45;11</title>
<path fill="#008080" stroke="#333333" d="M2373.5,-38C2373.5,-38 2299.5,-38 2299.5,-38 2293.5,-38 2287.5,-32 2287.5,-26 2287.5,-26 2287.5,-12 2287.5,-12 2287.5,-6 2293.5,0 2299.5,0 2299.5,0 2373.5,0 2373.5,0 2379.5,0 2385.5,-6 2385.5,-12 2385.5,-12 2385.5,-26 2385.5,-26 2385.5,-32 2379.5,-38 2373.5,-38"/>
<text text-anchor="middle" x="2336.5" y="-22.8" font-family="lato" font-size="14.00" fill="#ffffff">genotype&#45;11</text>
<text text-anchor="middle" x="2336.5" y="-7.8" font-family="lato" font-size="14.00" fill="#ffffff">gapN|glgB nc</text>
</g>
<!-- genotype&#45;14&#45;&#45;genotype&#45;11 -->
<g id="edge23" class="edge">
<title>genotype&#45;14&#45;&#45;genotype&#45;11</title>
<g id="a_edge23"><a xlink:title="parent">
<path fill="none" stroke="#000000" d="M1244.4444,-81.3177C1244.4444,-75.6832 1244.4444,-71 1244.4444,-71 1244.4444,-71 2336.5,-71 2336.5,-71 2336.5,-71 2336.5,-48.0676 2336.5,-48.0676"/>
<polygon fill="#000000" stroke="#000000" points="2340.0001,-48.0676 2336.5,-38.0676 2333.0001,-48.0676 2340.0001,-48.0676"/>
</a>
</g>
</g>
<!-- genotype&#45;9 -->
<g id="node25" class="node">
<title>genotype&#45;9</title>
<path fill="#bcf60c" stroke="#333333" d="M1680.5,-275C1680.5,-275 1612.5,-275 1612.5,-275 1606.5,-275 1600.5,-269 1600.5,-263 1600.5,-263 1600.5,-249 1600.5,-249 1600.5,-243 1606.5,-237 1612.5,-237 1612.5,-237 1680.5,-237 1680.5,-237 1686.5,-237 1692.5,-243 1692.5,-249 1692.5,-249 1692.5,-263 1692.5,-263 1692.5,-269 1686.5,-275 1680.5,-275"/>
<text text-anchor="middle" x="1646.5" y="-259.8" font-family="lato" font-size="14.00" fill="#333333">genotype&#45;9</text>
<text text-anchor="middle" x="1646.5" y="-244.8" font-family="lato" font-size="14.00" fill="#333333">mutS L353F</text>
</g>
<!-- genotype&#45;12 -->
<g id="node26" class="node">
<title>genotype&#45;12</title>
<path fill="#e6beff" stroke="#333333" d="M1807,-275C1807,-275 1724,-275 1724,-275 1718,-275 1712,-269 1712,-263 1712,-263 1712,-249 1712,-249 1712,-243 1718,-237 1724,-237 1724,-237 1807,-237 1807,-237 1813,-237 1819,-243 1819,-249 1819,-249 1819,-263 1819,-263 1819,-269 1813,-275 1807,-275"/>
<text text-anchor="middle" x="1765.5" y="-259.8" font-family="lato" font-size="14.00" fill="#333333">genotype&#45;12</text>
<text text-anchor="middle" x="1765.5" y="-244.8" font-family="lato" font-size="14.00" fill="#333333">patA_1 Q111*</text>
</g>
<!-- genotype&#45;18 -->
<g id="node27" class="node">
<title>genotype&#45;18</title>
<path fill="#ffd8b1" stroke="#333333" d="M1746,-201C1746,-201 1673,-201 1673,-201 1667,-201 1661,-195 1661,-189 1661,-189 1661,-175 1661,-175 1661,-169 1667,-163 1673,-163 1673,-163 1746,-163 1746,-163 1752,-163 1758,-169 1758,-175 1758,-175 1758,-189 1758,-189 1758,-195 1752,-201 1746,-201"/>
<text text-anchor="middle" x="1709.5" y="-185.8" font-family="lato" font-size="14.00" fill="#333333">genotype&#45;18</text>
<text text-anchor="middle" x="1709.5" y="-170.8" font-family="lato" font-size="14.00" fill="#333333">ruvB A310T</text>
</g>
<!-- genotype&#45;12&#45;&#45;genotype&#45;18 -->
<g id="edge24" class="edge">
<title>genotype&#45;12&#45;&#45;genotype&#45;18</title>
<g id="a_edge24"><a xlink:title="parent">
<path fill="none" stroke="#000000" d="M1735,-236.9432C1735,-236.9432 1735,-211.2495 1735,-211.2495"/>
<polygon fill="#000000" stroke="#000000" points="1738.5001,-211.2494 1735,-201.2495 1731.5001,-211.2495 1738.5001,-211.2494"/>
</a>
</g>
</g>
<!-- genotype&#45;31 -->
<g id="node28" class="node">
<title>genotype&#45;31</title>
<path fill="#ca6a9d" stroke="#333333" d="M1929,-201C1929,-201 1788,-201 1788,-201 1782,-201 1776,-195 1776,-189 1776,-189 1776,-175 1776,-175 1776,-169 1782,-163 1788,-163 1788,-163 1929,-163 1929,-163 1935,-163 1941,-169 1941,-175 1941,-175 1941,-189 1941,-189 1941,-195 1935,-201 1929,-201"/>
<text text-anchor="middle" x="1858.5" y="-185.8" font-family="lato" font-size="14.00" fill="#333333">genotype&#45;31</text>
<text text-anchor="middle" x="1858.5" y="-170.8" font-family="lato" font-size="14.00" fill="#333333">PROKKA_00764 coding</text>
</g>
<!-- genotype&#45;12&#45;&#45;genotype&#45;31 -->
<g id="edge25" class="edge">
<title>genotype&#45;12&#45;&#45;genotype&#45;31</title>
<g id="a_edge25"><a xlink:title="parent">
<path fill="none" stroke="#000000" d="M1797.5,-236.9432C1797.5,-236.9432 1797.5,-211.2495 1797.5,-211.2495"/>
<polygon fill="#000000" stroke="#000000" points="1801.0001,-211.2494 1797.5,-201.2495 1794.0001,-211.2495 1801.0001,-211.2494"/>
</a>
</g>
</g>
<!-- genotype&#45;26 -->
<g id="node29" class="node">
<title>genotype&#45;26</title>
<path fill="#9b865d" stroke="#333333" d="M2103.5,-201C2103.5,-201 1971.5,-201 1971.5,-201 1965.5,-201 1959.5,-195 1959.5,-189 1959.5,-189 1959.5,-175 1959.5,-175 1959.5,-169 1965.5,-163 1971.5,-163 1971.5,-163 2103.5,-163 2103.5,-163 2109.5,-163 2115.5,-169 2115.5,-175 2115.5,-175 2115.5,-189 2115.5,-189 2115.5,-195 2109.5,-201 2103.5,-201"/>
<text text-anchor="middle" x="2037.5" y="-185.8" font-family="lato" font-size="14.00" fill="#333333">genotype&#45;26</text>
<text text-anchor="middle" x="2037.5" y="-170.8" font-family="lato" font-size="14.00" fill="#333333">PROKKA_00487 L93L</text>
</g>
<!-- genotype&#45;12&#45;&#45;genotype&#45;26 -->
<g id="edge26" class="edge">
<title>genotype&#45;12&#45;&#45;genotype&#45;26</title>
<g id="a_edge26"><a xlink:title="parent">
<path fill="none" stroke="#000000" d="M1819.2384,-256C1898.5076,-256 2037.5,-256 2037.5,-256 2037.5,-256 2037.5,-211.0568 2037.5,-211.0568"/>
<polygon fill="#000000" stroke="#000000" points="2041.0001,-211.0568 2037.5,-201.0568 2034.0001,-211.0569 2041.0001,-211.0568"/>
</a>
</g>
</g>
<!-- genotype&#45;1 -->
<g id="node30" class="node">
<title>genotype&#45;1</title>
<path fill="#e6194b" stroke="#333333" d="M1782,-127C1782,-127 1637,-127 1637,-127 1631,-127 1625,-121 1625,-115 1625,-115 1625,-86 1625,-86 1625,-80 1631,-74 1637,-74 1637,-74 1782,-74 1782,-74 1788,-74 1794,-80 1794,-86 1794,-86 1794,-115 1794,-115 1794,-121 1788,-127 1782,-127"/>
<text text-anchor="middle" x="1709.5" y="-111.8" font-family="lato" font-size="14.00" fill="#ffffff">genotype&#45;1</text>
<text text-anchor="middle" x="1709.5" y="-96.8" font-family="lato" font-size="14.00" fill="#ffffff">PROKKA_00139|glyA nc</text>
<text text-anchor="middle" x="1709.5" y="-81.8" font-family="lato" font-size="14.00" fill="#ffffff">patA_1 W285*</text>
</g>
<!-- genotype&#45;18&#45;&#45;genotype&#45;1 -->
<g id="edge27" class="edge">
<title>genotype&#45;18&#45;&#45;genotype&#45;1</title>
<g id="a_edge27"><a xlink:title="parent">
<path fill="none" stroke="#000000" d="M1693.3333,-162.6856C1693.3333,-162.6856 1693.3333,-137.0751 1693.3333,-137.0751"/>
<polygon fill="#000000" stroke="#000000" points="1696.8334,-137.0751 1693.3333,-127.0751 1689.8334,-137.0752 1696.8334,-137.0751"/>
</a>
</g>
</g>
<!-- genotype&#45;2 -->
<g id="node31" class="node">
<title>genotype&#45;2</title>
<path fill="#3cb44b" stroke="#333333" d="M1939,-119.5C1939,-119.5 1824,-119.5 1824,-119.5 1818,-119.5 1812,-113.5 1812,-107.5 1812,-107.5 1812,-93.5 1812,-93.5 1812,-87.5 1818,-81.5 1824,-81.5 1824,-81.5 1939,-81.5 1939,-81.5 1945,-81.5 1951,-87.5 1951,-93.5 1951,-93.5 1951,-107.5 1951,-107.5 1951,-113.5 1945,-119.5 1939,-119.5"/>
<text text-anchor="middle" x="1881.5" y="-104.3" font-family="lato" font-size="14.00" fill="#333333">genotype&#45;2</text>
<text text-anchor="middle" x="1881.5" y="-89.3" font-family="lato" font-size="14.00" fill="#333333">Ribonuclease Y A7A</text>
</g>
<!-- genotype&#45;18&#45;&#45;genotype&#45;2 -->
<g id="edge28" class="edge">
<title>genotype&#45;18&#45;&#45;genotype&#45;2</title>
<g id="a_edge28"><a xlink:title="parent">
<path fill="none" stroke="#000000" d="M1725.6667,-162.7638C1725.6667,-151.3149 1725.6667,-139 1725.6667,-139 1725.6667,-139 1876.5,-139 1876.5,-139 1876.5,-139 1876.5,-129.75 1876.5,-129.75"/>
<polygon fill="#000000" stroke="#000000" points="1880.0001,-129.75 1876.5,-119.75 1873.0001,-129.75 1880.0001,-129.75"/>
</a>
</g>
</g>
<!-- genotype&#45;0 -->
<g id="node32" class="node">
<title>genotype&#45;0</title>
<path fill="#d3d3d3" stroke="#000000" d="M1679,-347C1679,-347 1614,-347 1614,-347 1608,-347 1602,-341 1602,-335 1602,-335 1602,-323 1602,-323 1602,-317 1608,-311 1614,-311 1614,-311 1679,-311 1679,-311 1685,-311 1691,-317 1691,-323 1691,-323 1691,-335 1691,-335 1691,-341 1685,-347 1679,-347"/>
<text text-anchor="middle" x="1646.5" y="-325.3" font-family="lato" font-size="14.00" fill="#000000">genotype&#45;0</text>
</g>
<!-- genotype&#45;0&#45;&#45;genotype&#45;19 -->
<g id="edge29" class="edge">
<title>genotype&#45;0&#45;&#45;genotype&#45;19</title>
<g id="a_edge29"><a xlink:title="parent">
<path fill="none" stroke="#000000" d="M1601.7087,-329C1569.4186,-329 1531.5,-329 1531.5,-329 1531.5,-329 1531.5,-285.1799 1531.5,-285.1799"/>
<polygon fill="#000000" stroke="#000000" points="1535.0001,-285.1799 1531.5,-275.1799 1528.0001,-285.1799 1535.0001,-285.1799"/>
</a>
</g>
</g>
<!-- genotype&#45;0&#45;&#45;genotype&#45;9 -->
<g id="edge30" class="edge">
<title>genotype&#45;0&#45;&#45;genotype&#45;9</title>
<g id="a_edge30"><a xlink:title="parent">
<path fill="none" stroke="#000000" d="M1646.5,-310.9551C1646.5,-310.9551 1646.5,-285.1128 1646.5,-285.1128"/>
<polygon fill="#000000" stroke="#000000" points="1650.0001,-285.1128 1646.5,-275.1128 1643.0001,-285.1129 1650.0001,-285.1128"/>
</a>
</g>
</g>
<!-- genotype&#45;0&#45;&#45;genotype&#45;12 -->
<g id="edge31" class="edge">
<title>genotype&#45;0&#45;&#45;genotype&#45;12</title>
<g id="a_edge31"><a xlink:title="parent">
<path fill="none" stroke="#000000" d="M1691.1498,-329C1724.9165,-329 1765.5,-329 1765.5,-329 1765.5,-329 1765.5,-285.1799 1765.5,-285.1799"/>
<polygon fill="#000000" stroke="#000000" points="1769.0001,-285.1799 1765.5,-275.1799 1762.0001,-285.1799 1769.0001,-285.1799"/>
</a>
</g>
</g>
</g>
</svg>
