<?xml version="1.0" encoding="utf-8" standalone="no"?>
<!DOCTYPE svg PUBLIC "-//W3C//DTD SVG 1.1//EN"
  "http://www.w3.org/Graphics/SVG/1.1/DTD/svg11.dtd">
<!-- Created with matplotlib (https://matplotlib.org/) -->
<svg height="720pt" version="1.1" viewBox="0 0 864 720" width="864pt" xmlns="http://www.w3.org/2000/svg" xmlns:xlink="http://www.w3.org/1999/xlink">
 <defs>
  <style type="text/css">
*{stroke-linecap:butt;stroke-linejoin:round;}
  </style>
 </defs>
 <g id="figure_1">
  <g id="patch_1">
   <path d="M 0 720 
L 864 720 
L 864 0 
L 0 0 
z
" style="fill:#ffffff;"/>
  </g>
  <g id="axes_1">
   <g id="patch_2">
    <path d="M 50.97 672.9 
L 788.58 672.9 
L 788.58 10.8 
L 50.97 10.8 
z
" style="fill:#ffffff;"/>
   </g>
   <g id="matplotlib.axis_1">
    <g id="xtick_1">
     <g id="line2d_1"/>
     <g id="text_1">
      <text style="fill:#262626;font-family:Liberation Sans;font-size:10px;font-style:normal;font-weight:normal;text-anchor:middle;" transform="rotate(-0, 50.97, 683.646875)" x="50.97" y="683.646875">0</text>
     </g>
    </g>
    <g id="xtick_2">
     <g id="line2d_2"/>
     <g id="text_2">
      <text style="fill:#262626;font-family:Liberation Sans;font-size:10px;font-style:normal;font-weight:normal;text-anchor:middle;" transform="rotate(-0, 198.492, 683.646875)" x="198.492" y="683.646875">2</text>
     </g>
    </g>
    <g id="xtick_3">
     <g id="line2d_3"/>
     <g id="text_3">
      <text style="fill:#262626;font-family:Liberation Sans;font-size:10px;font-style:normal;font-weight:normal;text-anchor:middle;" transform="rotate(-0, 346.014, 683.646875)" x="346.014" y="683.646875">4</text>
     </g>
    </g>
    <g id="xtick_4">
     <g id="line2d_4"/>
     <g id="text_4">
      <text style="fill:#262626;font-family:Liberation Sans;font-size:10px;font-style:normal;font-weight:normal;text-anchor:middle;" transform="rotate(-0, 493.536, 683.646875)" x="493.536" y="683.646875">6</text>
     </g>
    </g>
    <g id="xtick_5">
     <g id="line2d_5"/>
     <g id="text_5">
      <text style="fill:#262626;font-family:Liberation Sans;font-size:10px;font-style:normal;font-weight:normal;text-anchor:middle;" transform="rotate(-0, 641.058, 683.646875)" x="641.058" y="683.646875">8</text>
     </g>
    </g>
    <g id="xtick_6">
     <g id="line2d_6"/>
     <g id="text_6">
      <text style="fill:#262626;font-family:Liberation Sans;font-size:10px;font-style:normal;font-weight:normal;text-anchor:middle;" transform="rotate(-0, 788.58, 683.646875)" x="788.58" y="683.646875">10</text>
     </g>
    </g>
    <g id="text_7">
     <text style="fill:#262626;font-family:Liberation Sans;font-size:20px;font-style:normal;font-weight:normal;text-anchor:middle;" transform="rotate(-0, 419.775, 704.215625)" x="419.775" y="704.215625">Generation</text>
    </g>
   </g>
   <g id="matplotlib.axis_2">
    <g id="ytick_1">
     <g id="line2d_7"/>
     <g id="text_8">
      <text style="fill:#262626;font-family:Liberation Sans;font-size:10px;font-style:normal;font-weight:normal;text-anchor:end;" transform="rotate(-0, 47.47, 676.523438)" x="47.47" y="676.523438">0.0</text>
     </g>
    </g>
    <g id="ytick_2">
     <g id="line2d_8"/>
     <g id="text_9">
      <text style="fill:#262626;font-family:Liberation Sans;font-size:10px;font-style:normal;font-weight:normal;text-anchor:end;" transform="rotate(-0, 47.47, 550.409152)" x="47.47" y="550.409152">0.2</text>
     </g>
    </g>
    <g id="ytick_3">
     <g id="line2d_9"/>
     <g id="text_10">
      <text style="fill:#262626;font-family:Liberation Sans;font-size:10px;font-style:normal;font-weight:normal;text-anchor:end;" transform="rotate(-0, 47.47, 424.294866)" x="47.47" y="424.294866">0.4</text>
     </g>
    </g>
    <g id="ytick_4">
     <g id="line2d_10"/>
     <g id="text_11">
      <text style="fill:#262626;font-family:Liberation Sans;font-size:10px;font-style:normal;font-weight:normal;text-anchor:end;" transform="rotate(-0, 47.47, 298.18058)" x="47.47" y="298.18058">0.6</text>
     </g>
    </g>
    <g id="ytick_5">
     <g id="line2d_11"/>
     <g id="text_12">
      <text style="fill:#262626;font-family:Liberation Sans;font-size:10px;font-style:normal;font-weight:normal;text-anchor:end;" transform="rotate(-0, 47.47, 172.066295)" x="47.47" y="172.066295">0.8</text>
     </g>
    </g>
    <g id="ytick_6">
     <g id="line2d_12"/>
     <g id="text_13">
      <text style="fill:#262626;font-family:Liberation Sans;font-size:10px;font-style:normal;font-weight:normal;text-anchor:end;" transform="rotate(-0, 47.47, 45.952009)" x="47.47" y="45.952009">1.0</text>
     </g>
    </g>
    <g id="text_14">
     <text style="fill:#262626;font-family:Liberation Sans;font-size:20px;font-style:normal;font-weight:normal;text-anchor:middle;" transform="rotate(-90, 25.42, 341.85)" x="25.42" y="341.85">Frequency</text>
    </g>
   </g>
   <g id="PolyCollection_1">
    <defs>
     <path d="M 50.97 -47.1 
L 50.97 -47.1 
L 87.8505 -47.1 
L 124.731 -47.1 
L 161.6115 -47.1 
L 198.492 -47.1 
L 235.3725 -47.1 
L 272.253 -47.1 
L 346.014 -47.1 
L 419.775 -47.1 
L 456.6555 -47.1 
L 493.536 -47.1 
L 530.4165 -47.1 
L 567.297 -47.1 
L 604.1775 -47.1 
L 641.058 -47.1 
L 677.9385 -47.1 
L 714.819 -47.1 
L 788.58 -47.1 
L 788.58 -47.1 
L 788.58 -47.1 
L 714.819 -47.1 
L 677.9385 -47.1 
L 641.058 -47.1 
L 604.1775 -47.1 
L 567.297 -47.1 
L 530.4165 -47.1 
L 493.536 -47.1 
L 456.6555 -47.1 
L 419.775 -47.1 
L 346.014 -47.1 
L 272.253 -47.1 
L 235.3725 -47.1 
L 198.492 -47.1 
L 161.6115 -135.328803 
L 124.731 -177.502171 
L 87.8505 -202.362994 
L 50.97 -182.042286 
z
" id="m278309043b" style="stroke:#ffffff;stroke-width:2;"/>
    </defs>
    <g clip-path="url(#p3510ff7552)">
     <use style="fill:#ffffff;stroke:#ffffff;stroke-width:2;" x="0" xlink:href="#m278309043b" y="720"/>
    </g>
   </g>
   <g id="PolyCollection_2">
    <defs>
     <path d="M 50.97 -182.042286 
L 50.97 -182.042286 
L 87.8505 -202.362994 
L 124.731 -177.502171 
L 161.6115 -135.328803 
L 198.492 -47.1 
L 235.3725 -47.1 
L 272.253 -47.1 
L 346.014 -47.1 
L 419.775 -47.1 
L 456.6555 -47.1 
L 493.536 -47.1 
L 530.4165 -47.1 
L 567.297 -47.1 
L 604.1775 -47.1 
L 641.058 -47.1 
L 677.9385 -47.1 
L 714.819 -47.1 
L 788.58 -47.1 
L 788.58 -47.1 
L 788.58 -47.1 
L 714.819 -47.1 
L 677.9385 -47.1 
L 641.058 -47.1 
L 604.1775 -47.1 
L 567.297 -47.1 
L 530.4165 -47.1 
L 493.536 -47.1 
L 456.6555 -51.836282 
L 419.775 -56.872858 
L 346.014 -58.346285 
L 272.253 -59.782629 
L 235.3725 -156.054473 
L 198.492 -305.036093 
L 161.6115 -135.328803 
L 124.731 -177.502171 
L 87.8505 -202.362994 
L 50.97 -182.042286 
z
" id="mf87848de98" style="stroke:#ffffff;stroke-width:2;"/>
    </defs>
    <g clip-path="url(#p3510ff7552)">
     <use style="fill:#959595;stroke:#ffffff;stroke-width:2;" x="0" xlink:href="#mf87848de98" y="720"/>
    </g>
   </g>
   <g id="PolyCollection_3">
    <defs>
     <path d="M 50.97 -182.042286 
L 50.97 -182.042286 
L 87.8505 -202.362994 
L 124.731 -177.502171 
L 161.6115 -135.328803 
L 198.492 -305.036093 
L 235.3725 -156.054473 
L 272.253 -59.782629 
L 346.014 -58.346285 
L 419.775 -56.872858 
L 456.6555 -51.836282 
L 493.536 -47.1 
L 530.4165 -47.1 
L 567.297 -47.1 
L 604.1775 -47.1 
L 641.058 -47.1 
L 677.9385 -47.1 
L 714.819 -47.1 
L 788.58 -47.1 
L 788.58 -47.1 
L 788.58 -47.848719 
L 714.819 -47.827135 
L 677.9385 -47.858628 
L 641.058 -47.859176 
L 604.1775 -47.971677 
L 567.297 -47.978478 
L 530.4165 -48.001331 
L 493.536 -47.971918 
L 456.6555 -52.91271 
L 419.775 -57.98341 
L 346.014 -80.337784 
L 272.253 -102.614316 
L 235.3725 -196.886557 
L 198.492 -307.780094 
L 161.6115 -135.328803 
L 124.731 -177.502171 
L 87.8505 -202.362994 
L 50.97 -182.042286 
z
" id="m065be540d8" style="stroke:#ffffff;stroke-width:2;"/>
    </defs>
    <g clip-path="url(#p3510ff7552)">
     <use style="fill:#aedea7;stroke:#ffffff;stroke-width:2;" x="0" xlink:href="#m065be540d8" y="720"/>
    </g>
   </g>
   <g id="PolyCollection_4">
    <defs>
     <path d="M 50.97 -182.042286 
L 50.97 -182.042286 
L 87.8505 -202.362994 
L 124.731 -177.502171 
L 161.6115 -135.328803 
L 198.492 -307.780094 
L 235.3725 -196.886557 
L 272.253 -102.614316 
L 346.014 -80.337784 
L 419.775 -57.98341 
L 456.6555 -52.91271 
L 493.536 -47.971918 
L 530.4165 -48.001331 
L 567.297 -47.978478 
L 604.1775 -47.971677 
L 641.058 -47.859176 
L 677.9385 -47.858628 
L 714.819 -47.827135 
L 788.58 -47.848719 
L 788.58 -47.848719 
L 788.58 -47.848719 
L 714.819 -47.827135 
L 677.9385 -47.858628 
L 641.058 -47.859176 
L 604.1775 -47.971677 
L 567.297 -47.978478 
L 530.4165 -48.001331 
L 493.536 -47.971918 
L 456.6555 -52.91271 
L 419.775 -57.98341 
L 346.014 -97.930983 
L 272.253 -137.769674 
L 235.3725 -233.893864 
L 198.492 -319.304899 
L 161.6115 -135.328803 
L 124.731 -177.502171 
L 87.8505 -202.362994 
L 50.97 -182.042286 
z
" id="m7f422b68b0" style="stroke:#ffffff;stroke-width:2;"/>
    </defs>
    <g clip-path="url(#p3510ff7552)">
     <use style="fill:#37a055;stroke:#ffffff;stroke-width:2;" x="0" xlink:href="#m7f422b68b0" y="720"/>
    </g>
   </g>
   <g id="PolyCollection_5">
    <defs>
     <path d="M 50.97 -182.042286 
L 50.97 -182.042286 
L 87.8505 -202.362994 
L 124.731 -177.502171 
L 161.6115 -135.328803 
L 198.492 -319.304899 
L 235.3725 -233.893864 
L 272.253 -137.769674 
L 346.014 -97.930983 
L 419.775 -57.98341 
L 456.6555 -52.91271 
L 493.536 -47.971918 
L 530.4165 -48.001331 
L 567.297 -47.978478 
L 604.1775 -47.971677 
L 641.058 -47.859176 
L 677.9385 -47.858628 
L 714.819 -47.827135 
L 788.58 -47.848719 
L 788.58 -47.848719 
L 788.58 -48.597439 
L 714.819 -48.55427 
L 677.9385 -48.617256 
L 641.058 -48.618352 
L 604.1775 -48.843355 
L 567.297 -48.856956 
L 530.4165 -48.902663 
L 493.536 -48.843837 
L 456.6555 -53.989138 
L 419.775 -59.093962 
L 346.014 -101.605512 
L 272.253 -143.999738 
L 235.3725 -244.231101 
L 198.492 -331.378503 
L 161.6115 -167.753315 
L 124.731 -211.553029 
L 87.8505 -202.362994 
L 50.97 -182.042286 
z
" id="m70d30a4ad2" style="stroke:#ffffff;stroke-width:2;"/>
    </defs>
    <g clip-path="url(#p3510ff7552)">
     <use style="fill:#e8e7f2;stroke:#ffffff;stroke-width:2;" x="0" xlink:href="#m70d30a4ad2" y="720"/>
    </g>
   </g>
   <g id="PolyCollection_6">
    <defs>
     <path d="M 50.97 -182.042286 
L 50.97 -182.042286 
L 87.8505 -202.362994 
L 124.731 -211.553029 
L 161.6115 -167.753315 
L 198.492 -331.378503 
L 235.3725 -244.231101 
L 272.253 -143.999738 
L 346.014 -101.605512 
L 419.775 -59.093962 
L 456.6555 -53.989138 
L 493.536 -48.843837 
L 530.4165 -48.902663 
L 567.297 -48.856956 
L 604.1775 -48.843355 
L 641.058 -48.618352 
L 677.9385 -48.617256 
L 714.819 -48.55427 
L 788.58 -48.597439 
L 788.58 -48.597439 
L 788.58 -73.679537 
L 714.819 -67.096211 
L 677.9385 -68.341578 
L 641.058 -68.736511 
L 604.1775 -63.443951 
L 567.297 -55.006301 
L 530.4165 -67.109556 
L 493.536 -77.965913 
L 456.6555 -75.248588 
L 419.775 -65.868329 
L 346.014 -109.065919 
L 272.253 -152.121071 
L 235.3725 -268.420234 
L 198.492 -375.556919 
L 161.6115 -167.753315 
L 124.731 -211.553029 
L 87.8505 -202.362994 
L 50.97 -182.042286 
z
" id="m642477eb1b" style="stroke:#ffffff;stroke-width:2;"/>
    </defs>
    <g clip-path="url(#p3510ff7552)">
     <use style="fill:#2f0000;stroke:#ffffff;stroke-width:2;" x="0" xlink:href="#m642477eb1b" y="720"/>
    </g>
   </g>
   <g id="PolyCollection_7">
    <defs>
     <path d="M 50.97 -182.042286 
L 50.97 -182.042286 
L 87.8505 -202.362994 
L 124.731 -211.553029 
L 161.6115 -167.753315 
L 198.492 -375.556919 
L 235.3725 -268.420234 
L 272.253 -152.121071 
L 346.014 -109.065919 
L 419.775 -65.868329 
L 456.6555 -75.248588 
L 493.536 -77.965913 
L 530.4165 -67.109556 
L 567.297 -55.006301 
L 604.1775 -63.443951 
L 641.058 -68.736511 
L 677.9385 -68.341578 
L 714.819 -67.096211 
L 788.58 -73.679537 
L 788.58 -73.679537 
L 788.58 -117.404746 
L 714.819 -92.836788 
L 677.9385 -68.341578 
L 641.058 -68.736511 
L 604.1775 -63.443951 
L 567.297 -55.006301 
L 530.4165 -67.109556 
L 493.536 -77.965913 
L 456.6555 -75.248588 
L 419.775 -65.868329 
L 346.014 -109.065919 
L 272.253 -152.121071 
L 235.3725 -268.420234 
L 198.492 -375.556919 
L 161.6115 -167.753315 
L 124.731 -211.553029 
L 87.8505 -202.362994 
L 50.97 -182.042286 
z
" id="mc91a94948c" style="stroke:#ffffff;stroke-width:2;"/>
    </defs>
    <g clip-path="url(#p3510ff7552)">
     <use style="fill:#ff3400;stroke:#ffffff;stroke-width:2;" x="0" xlink:href="#mc91a94948c" y="720"/>
    </g>
   </g>
   <g id="PolyCollection_8">
    <defs>
     <path d="M 50.97 -182.042286 
L 50.97 -182.042286 
L 87.8505 -202.362994 
L 124.731 -211.553029 
L 161.6115 -167.753315 
L 198.492 -375.556919 
L 235.3725 -268.420234 
L 272.253 -152.121071 
L 346.014 -109.065919 
L 419.775 -65.868329 
L 456.6555 -75.248588 
L 493.536 -77.965913 
L 530.4165 -67.109556 
L 567.297 -55.006301 
L 604.1775 -63.443951 
L 641.058 -68.736511 
L 677.9385 -68.341578 
L 714.819 -92.836788 
L 788.58 -117.404746 
L 788.58 -117.404746 
L 788.58 -146.6048 
L 714.819 -107.524914 
L 677.9385 -87.990038 
L 641.058 -92.726466 
L 604.1775 -63.443951 
L 567.297 -55.006301 
L 530.4165 -67.109556 
L 493.536 -77.965913 
L 456.6555 -75.248588 
L 419.775 -65.868329 
L 346.014 -109.065919 
L 272.253 -152.121071 
L 235.3725 -268.420234 
L 198.492 -375.556919 
L 161.6115 -167.753315 
L 124.731 -211.553029 
L 87.8505 -202.362994 
L 50.97 -182.042286 
z
" id="m7fa6eece06" style="stroke:#ffffff;stroke-width:2;"/>
    </defs>
    <g clip-path="url(#p3510ff7552)">
     <use style="fill:#ffef00;stroke:#ffffff;stroke-width:2;" x="0" xlink:href="#m7fa6eece06" y="720"/>
    </g>
   </g>
   <g id="PolyCollection_9">
    <defs>
     <path d="M 50.97 -182.042286 
L 50.97 -182.042286 
L 87.8505 -202.362994 
L 124.731 -211.553029 
L 161.6115 -167.753315 
L 198.492 -375.556919 
L 235.3725 -268.420234 
L 272.253 -152.121071 
L 346.014 -109.065919 
L 419.775 -65.868329 
L 456.6555 -75.248588 
L 493.536 -77.965913 
L 530.4165 -67.109556 
L 567.297 -55.006301 
L 604.1775 -63.443951 
L 641.058 -92.726466 
L 677.9385 -87.990038 
L 714.819 -107.524914 
L 788.58 -146.6048 
L 788.58 -146.6048 
L 788.58 -156.487896 
L 714.819 -125.267007 
L 677.9385 -100.962574 
L 641.058 -100.166389 
L 604.1775 -63.443951 
L 567.297 -55.006301 
L 530.4165 -67.109556 
L 493.536 -77.965913 
L 456.6555 -75.248588 
L 419.775 -65.868329 
L 346.014 -109.065919 
L 272.253 -152.121071 
L 235.3725 -268.420234 
L 198.492 -375.556919 
L 161.6115 -167.753315 
L 124.731 -211.553029 
L 87.8505 -202.362994 
L 50.97 -182.042286 
z
" id="m122e936cb6" style="stroke:#ffffff;stroke-width:2;"/>
    </defs>
    <g clip-path="url(#p3510ff7552)">
     <use style="fill:#ffff22;stroke:#ffffff;stroke-width:2;" x="0" xlink:href="#m122e936cb6" y="720"/>
    </g>
   </g>
   <g id="PolyCollection_10">
    <defs>
     <path d="M 50.97 -182.042286 
L 50.97 -182.042286 
L 87.8505 -202.362994 
L 124.731 -211.553029 
L 161.6115 -167.753315 
L 198.492 -375.556919 
L 235.3725 -268.420234 
L 272.253 -152.121071 
L 346.014 -109.065919 
L 419.775 -65.868329 
L 456.6555 -75.248588 
L 493.536 -77.965913 
L 530.4165 -67.109556 
L 567.297 -55.006301 
L 604.1775 -63.443951 
L 641.058 -100.166389 
L 677.9385 -100.962574 
L 714.819 -125.267007 
L 788.58 -156.487896 
L 788.58 -156.487896 
L 788.58 -207.850042 
L 714.819 -146.208494 
L 677.9385 -115.528228 
L 641.058 -107.454477 
L 604.1775 -63.443951 
L 567.297 -55.006301 
L 530.4165 -67.109556 
L 493.536 -77.965913 
L 456.6555 -75.248588 
L 419.775 -65.868329 
L 346.014 -109.065919 
L 272.253 -152.121071 
L 235.3725 -268.420234 
L 198.492 -375.556919 
L 161.6115 -167.753315 
L 124.731 -211.553029 
L 87.8505 -202.362994 
L 50.97 -182.042286 
z
" id="m6b9b826fd0" style="stroke:#ffffff;stroke-width:2;"/>
    </defs>
    <g clip-path="url(#p3510ff7552)">
     <use style="fill:#ea0000;stroke:#ffffff;stroke-width:2;" x="0" xlink:href="#m6b9b826fd0" y="720"/>
    </g>
   </g>
   <g id="PolyCollection_11">
    <defs>
     <path d="M 50.97 -182.042286 
L 50.97 -182.042286 
L 87.8505 -202.362994 
L 124.731 -211.553029 
L 161.6115 -167.753315 
L 198.492 -375.556919 
L 235.3725 -268.420234 
L 272.253 -152.121071 
L 346.014 -109.065919 
L 419.775 -65.868329 
L 456.6555 -75.248588 
L 493.536 -77.965913 
L 530.4165 -67.109556 
L 567.297 -55.006301 
L 604.1775 -63.443951 
L 641.058 -107.454477 
L 677.9385 -115.528228 
L 714.819 -146.208494 
L 788.58 -207.850042 
L 788.58 -207.850042 
L 788.58 -207.850042 
L 714.819 -160.460339 
L 677.9385 -136.618081 
L 641.058 -134.784806 
L 604.1775 -63.443951 
L 567.297 -55.006301 
L 530.4165 -67.109556 
L 493.536 -77.965913 
L 456.6555 -75.248588 
L 419.775 -65.868329 
L 346.014 -109.065919 
L 272.253 -152.121071 
L 235.3725 -268.420234 
L 198.492 -375.556919 
L 161.6115 -167.753315 
L 124.731 -211.553029 
L 87.8505 -202.362994 
L 50.97 -182.042286 
z
" id="m2798d92b24" style="stroke:#ffffff;stroke-width:2;"/>
    </defs>
    <g clip-path="url(#p3510ff7552)">
     <use style="fill:#ffca00;stroke:#ffffff;stroke-width:2;" x="0" xlink:href="#m2798d92b24" y="720"/>
    </g>
   </g>
   <g id="PolyCollection_12">
    <defs>
     <path d="M 50.97 -182.042286 
L 50.97 -182.042286 
L 87.8505 -202.362994 
L 124.731 -211.553029 
L 161.6115 -167.753315 
L 198.492 -375.556919 
L 235.3725 -268.420234 
L 272.253 -152.121071 
L 346.014 -109.065919 
L 419.775 -65.868329 
L 456.6555 -75.248588 
L 493.536 -77.965913 
L 530.4165 -67.109556 
L 567.297 -55.006301 
L 604.1775 -63.443951 
L 641.058 -134.784806 
L 677.9385 -136.618081 
L 714.819 -160.460339 
L 788.58 -207.850042 
L 788.58 -207.850042 
L 788.58 -221.326991 
L 714.819 -173.112487 
L 677.9385 -148.756125 
L 641.058 -145.868773 
L 604.1775 -63.443951 
L 567.297 -55.006301 
L 530.4165 -67.109556 
L 493.536 -77.965913 
L 456.6555 -75.248588 
L 419.775 -65.868329 
L 346.014 -109.065919 
L 272.253 -152.121071 
L 235.3725 -268.420234 
L 198.492 -375.556919 
L 161.6115 -167.753315 
L 124.731 -211.553029 
L 87.8505 -202.362994 
L 50.97 -182.042286 
z
" id="mebb13c8279" style="stroke:#ffffff;stroke-width:2;"/>
    </defs>
    <g clip-path="url(#p3510ff7552)">
     <use style="fill:#ffffc8;stroke:#ffffff;stroke-width:2;" x="0" xlink:href="#mebb13c8279" y="720"/>
    </g>
   </g>
   <g id="PolyCollection_13">
    <defs>
     <path d="M 50.97 -182.042286 
L 50.97 -182.042286 
L 87.8505 -202.362994 
L 124.731 -211.553029 
L 161.6115 -167.753315 
L 198.492 -375.556919 
L 235.3725 -268.420234 
L 272.253 -152.121071 
L 346.014 -109.065919 
L 419.775 -65.868329 
L 456.6555 -75.248588 
L 493.536 -77.965913 
L 530.4165 -67.109556 
L 567.297 -55.006301 
L 604.1775 -63.443951 
L 641.058 -145.868773 
L 677.9385 -148.756125 
L 714.819 -173.112487 
L 788.58 -221.326991 
L 788.58 -221.326991 
L 788.58 -221.326991 
L 714.819 -181.401825 
L 677.9385 -160.438994 
L 641.058 -160.596784 
L 604.1775 -81.923512 
L 567.297 -75.211292 
L 530.4165 -67.109556 
L 493.536 -77.965913 
L 456.6555 -75.248588 
L 419.775 -65.868329 
L 346.014 -109.065919 
L 272.253 -152.121071 
L 235.3725 -268.420234 
L 198.492 -375.556919 
L 161.6115 -167.753315 
L 124.731 -211.553029 
L 87.8505 -202.362994 
L 50.97 -182.042286 
z
" id="mb14acaef36" style="stroke:#ffffff;stroke-width:2;"/>
    </defs>
    <g clip-path="url(#p3510ff7552)">
     <use style="fill:#ff8000;stroke:#ffffff;stroke-width:2;" x="0" xlink:href="#mb14acaef36" y="720"/>
    </g>
   </g>
   <g id="PolyCollection_14">
    <defs>
     <path d="M 50.97 -182.042286 
L 50.97 -182.042286 
L 87.8505 -202.362994 
L 124.731 -211.553029 
L 161.6115 -167.753315 
L 198.492 -375.556919 
L 235.3725 -268.420234 
L 272.253 -152.121071 
L 346.014 -109.065919 
L 419.775 -65.868329 
L 456.6555 -75.248588 
L 493.536 -77.965913 
L 530.4165 -67.109556 
L 567.297 -75.211292 
L 604.1775 -81.923512 
L 641.058 -160.596784 
L 677.9385 -160.438994 
L 714.819 -181.401825 
L 788.58 -221.326991 
L 788.58 -221.326991 
L 788.58 -232.258293 
L 714.819 -193.035984 
L 677.9385 -166.508016 
L 641.058 -160.596784 
L 604.1775 -90.11728 
L 567.297 -91.726677 
L 530.4165 -67.109556 
L 493.536 -77.965913 
L 456.6555 -75.248588 
L 419.775 -65.868329 
L 346.014 -109.065919 
L 272.253 -152.121071 
L 235.3725 -268.420234 
L 198.492 -375.556919 
L 161.6115 -167.753315 
L 124.731 -211.553029 
L 87.8505 -202.362994 
L 50.97 -182.042286 
z
" id="m2f5c5e3bae" style="stroke:#ffffff;stroke-width:2;"/>
    </defs>
    <g clip-path="url(#p3510ff7552)">
     <use style="fill:#ffff91;stroke:#ffffff;stroke-width:2;" x="0" xlink:href="#m2f5c5e3bae" y="720"/>
    </g>
   </g>
   <g id="PolyCollection_15">
    <defs>
     <path d="M 50.97 -182.042286 
L 50.97 -182.042286 
L 87.8505 -202.362994 
L 124.731 -211.553029 
L 161.6115 -167.753315 
L 198.492 -375.556919 
L 235.3725 -268.420234 
L 272.253 -152.121071 
L 346.014 -109.065919 
L 419.775 -65.868329 
L 456.6555 -75.248588 
L 493.536 -77.965913 
L 530.4165 -67.109556 
L 567.297 -91.726677 
L 604.1775 -90.11728 
L 641.058 -160.596784 
L 677.9385 -166.508016 
L 714.819 -193.035984 
L 788.58 -232.258293 
L 788.58 -232.258293 
L 788.58 -238.547535 
L 714.819 -203.070447 
L 677.9385 -177.887433 
L 641.058 -172.895432 
L 604.1775 -103.279608 
L 567.297 -104.025367 
L 530.4165 -97.123891 
L 493.536 -123.828824 
L 456.6555 -75.248588 
L 419.775 -65.868329 
L 346.014 -109.065919 
L 272.253 -152.121071 
L 235.3725 -268.420234 
L 198.492 -375.556919 
L 161.6115 -167.753315 
L 124.731 -211.553029 
L 87.8505 -202.362994 
L 50.97 -182.042286 
z
" id="mb759e3999c" style="stroke:#ffffff;stroke-width:2;"/>
    </defs>
    <g clip-path="url(#p3510ff7552)">
     <use style="fill:#ff1000;stroke:#ffffff;stroke-width:2;" x="0" xlink:href="#mb759e3999c" y="720"/>
    </g>
   </g>
   <g id="PolyCollection_16">
    <defs>
     <path d="M 50.97 -182.042286 
L 50.97 -182.042286 
L 87.8505 -202.362994 
L 124.731 -211.553029 
L 161.6115 -167.753315 
L 198.492 -375.556919 
L 235.3725 -268.420234 
L 272.253 -152.121071 
L 346.014 -109.065919 
L 419.775 -65.868329 
L 456.6555 -75.248588 
L 493.536 -123.828824 
L 530.4165 -97.123891 
L 567.297 -104.025367 
L 604.1775 -103.279608 
L 641.058 -172.895432 
L 677.9385 -177.887433 
L 714.819 -203.070447 
L 788.58 -238.547535 
L 788.58 -238.547535 
L 788.58 -287.963012 
L 714.819 -235.209812 
L 677.9385 -211.342919 
L 641.058 -206.299168 
L 604.1775 -128.296749 
L 567.297 -115.796971 
L 530.4165 -124.794764 
L 493.536 -165.68091 
L 456.6555 -75.248588 
L 419.775 -65.868329 
L 346.014 -109.065919 
L 272.253 -152.121071 
L 235.3725 -268.420234 
L 198.492 -375.556919 
L 161.6115 -167.753315 
L 124.731 -211.553029 
L 87.8505 -202.362994 
L 50.97 -182.042286 
z
" id="m14adcef6d7" style="stroke:#ffffff;stroke-width:2;"/>
    </defs>
    <g clip-path="url(#p3510ff7552)">
     <use style="fill:#c50000;stroke:#ffffff;stroke-width:2;" x="0" xlink:href="#m14adcef6d7" y="720"/>
    </g>
   </g>
   <g id="PolyCollection_17">
    <defs>
     <path d="M 50.97 -182.042286 
L 50.97 -182.042286 
L 87.8505 -202.362994 
L 124.731 -211.553029 
L 161.6115 -167.753315 
L 198.492 -375.556919 
L 235.3725 -268.420234 
L 272.253 -152.121071 
L 346.014 -109.065919 
L 419.775 -65.868329 
L 456.6555 -75.248588 
L 493.536 -165.68091 
L 530.4165 -124.794764 
L 567.297 -115.796971 
L 604.1775 -128.296749 
L 641.058 -206.299168 
L 677.9385 -211.342919 
L 714.819 -235.209812 
L 788.58 -287.963012 
L 788.58 -287.963012 
L 788.58 -297.396876 
L 714.819 -249.31623 
L 677.9385 -229.853437 
L 641.058 -228.618936 
L 604.1775 -153.052388 
L 567.297 -139.867265 
L 530.4165 -139.576599 
L 493.536 -170.38927 
L 456.6555 -75.248588 
L 419.775 -65.868329 
L 346.014 -109.065919 
L 272.253 -152.121071 
L 235.3725 -268.420234 
L 198.492 -375.556919 
L 161.6115 -167.753315 
L 124.731 -211.553029 
L 87.8505 -202.362994 
L 50.97 -182.042286 
z
" id="m064d260fdf" style="stroke:#ffffff;stroke-width:2;"/>
    </defs>
    <g clip-path="url(#p3510ff7552)">
     <use style="fill:#ff5c00;stroke:#ffffff;stroke-width:2;" x="0" xlink:href="#m064d260fdf" y="720"/>
    </g>
   </g>
   <g id="PolyCollection_18">
    <defs>
     <path d="M 50.97 -182.042286 
L 50.97 -182.042286 
L 87.8505 -202.362994 
L 124.731 -211.553029 
L 161.6115 -167.753315 
L 198.492 -375.556919 
L 235.3725 -268.420234 
L 272.253 -152.121071 
L 346.014 -109.065919 
L 419.775 -65.868329 
L 456.6555 -75.248588 
L 493.536 -170.38927 
L 530.4165 -139.576599 
L 567.297 -139.867265 
L 604.1775 -153.052388 
L 641.058 -228.618936 
L 677.9385 -229.853437 
L 714.819 -249.31623 
L 788.58 -297.396876 
L 788.58 -297.396876 
L 788.58 -306.531251 
L 714.819 -263.568075 
L 677.9385 -246.315661 
L 641.058 -246.687321 
L 604.1775 -171.09611 
L 567.297 -155.328476 
L 530.4165 -153.547235 
L 493.536 -182.072977 
L 456.6555 -75.248588 
L 419.775 -65.868329 
L 346.014 -109.065919 
L 272.253 -152.121071 
L 235.3725 -268.420234 
L 198.492 -375.556919 
L 161.6115 -167.753315 
L 124.731 -211.553029 
L 87.8505 -202.362994 
L 50.97 -182.042286 
z
" id="m36a3b0a229" style="stroke:#ffffff;stroke-width:2;"/>
    </defs>
    <g clip-path="url(#p3510ff7552)">
     <use style="fill:#ffa500;stroke:#ffffff;stroke-width:2;" x="0" xlink:href="#m36a3b0a229" y="720"/>
    </g>
   </g>
   <g id="PolyCollection_19">
    <defs>
     <path d="M 50.97 -182.042286 
L 50.97 -182.042286 
L 87.8505 -202.362994 
L 124.731 -211.553029 
L 161.6115 -167.753315 
L 198.492 -375.556919 
L 235.3725 -268.420234 
L 272.253 -152.121071 
L 346.014 -109.065919 
L 419.775 -65.868329 
L 456.6555 -75.248588 
L 493.536 -182.072977 
L 530.4165 -153.547235 
L 567.297 -155.328476 
L 604.1775 -171.09611 
L 641.058 -246.687321 
L 677.9385 -246.315661 
L 714.819 -263.568075 
L 788.58 -306.531251 
L 788.58 -306.531251 
L 788.58 -306.531251 
L 714.819 -301.524519 
L 677.9385 -285.233267 
L 641.058 -284.949782 
L 604.1775 -199.774296 
L 567.297 -168.857035 
L 530.4165 -189.780756 
L 493.536 -238.747677 
L 456.6555 -111.308921 
L 419.775 -68.089433 
L 346.014 -109.065919 
L 272.253 -152.121071 
L 235.3725 -268.420234 
L 198.492 -375.556919 
L 161.6115 -167.753315 
L 124.731 -211.553029 
L 87.8505 -202.362994 
L 50.97 -182.042286 
z
" id="m14407660f5" style="stroke:#ffffff;stroke-width:2;"/>
    </defs>
    <g clip-path="url(#p3510ff7552)">
     <use style="fill:#9e0000;stroke:#ffffff;stroke-width:2;" x="0" xlink:href="#m14407660f5" y="720"/>
    </g>
   </g>
   <g id="PolyCollection_20">
    <defs>
     <path d="M 50.97 -182.042286 
L 50.97 -182.042286 
L 87.8505 -202.362994 
L 124.731 -211.553029 
L 161.6115 -167.753315 
L 198.492 -375.556919 
L 235.3725 -268.420234 
L 272.253 -152.121071 
L 346.014 -109.065919 
L 419.775 -68.089433 
L 456.6555 -111.308921 
L 493.536 -238.747677 
L 530.4165 -189.780756 
L 567.297 -168.857035 
L 604.1775 -199.774296 
L 641.058 -284.949782 
L 677.9385 -285.233267 
L 714.819 -301.524519 
L 788.58 -306.531251 
L 788.58 -306.531251 
L 788.58 -406.110924 
L 714.819 -403.90512 
L 677.9385 -392.427375 
L 641.058 -392.600912 
L 604.1775 -339.504183 
L 567.297 -325.928882 
L 530.4165 -330.388451 
L 493.536 -354.887216 
L 456.6555 -274.603024 
L 419.775 -257.105384 
L 346.014 -256.93787 
L 272.253 -258.254653 
L 235.3725 -268.420234 
L 198.492 -375.556919 
L 161.6115 -167.753315 
L 124.731 -211.553029 
L 87.8505 -202.362994 
L 50.97 -182.042286 
z
" id="md7d97a75d2" style="stroke:#ffffff;stroke-width:2;"/>
    </defs>
    <g clip-path="url(#p3510ff7552)">
     <use style="fill:#790000;stroke:#ffffff;stroke-width:2;" x="0" xlink:href="#md7d97a75d2" y="720"/>
    </g>
   </g>
   <g id="PolyCollection_21">
    <defs>
     <path d="M 50.97 -182.042286 
L 50.97 -182.042286 
L 87.8505 -202.362994 
L 124.731 -211.553029 
L 161.6115 -167.753315 
L 198.492 -375.556919 
L 235.3725 -268.420234 
L 272.253 -258.254653 
L 346.014 -256.93787 
L 419.775 -257.105384 
L 456.6555 -274.603024 
L 493.536 -354.887216 
L 530.4165 -330.388451 
L 567.297 -325.928882 
L 604.1775 -339.504183 
L 641.058 -392.600912 
L 677.9385 -392.427375 
L 714.819 -403.90512 
L 788.58 -406.110924 
L 788.58 -406.110924 
L 788.58 -501.348024 
L 714.819 -512.248227 
L 677.9385 -504.70429 
L 641.058 -504.199756 
L 604.1775 -484.638469 
L 567.297 -489.325769 
L 530.4165 -471.356677 
L 493.536 -465.446476 
L 456.6555 -438.220056 
L 419.775 -453.8952 
L 346.014 -406.368712 
L 272.253 -359.715687 
L 235.3725 -268.420234 
L 198.492 -375.556919 
L 161.6115 -167.753315 
L 124.731 -211.553029 
L 87.8505 -202.362994 
L 50.97 -182.042286 
z
" id="m76ee702a1e" style="stroke:#ffffff;stroke-width:2;"/>
    </defs>
    <g clip-path="url(#p3510ff7552)">
     <use style="fill:#540000;stroke:#ffffff;stroke-width:2;" x="0" xlink:href="#m76ee702a1e" y="720"/>
    </g>
   </g>
   <g id="PolyCollection_22">
    <defs>
     <path d="M 50.97 -182.042286 
L 50.97 -182.042286 
L 87.8505 -202.362994 
L 124.731 -211.553029 
L 161.6115 -167.753315 
L 198.492 -375.556919 
L 235.3725 -268.420234 
L 272.253 -359.715687 
L 346.014 -406.368712 
L 419.775 -453.8952 
L 456.6555 -438.220056 
L 493.536 -465.446476 
L 530.4165 -471.356677 
L 567.297 -489.325769 
L 604.1775 -484.638469 
L 641.058 -504.199756 
L 677.9385 -504.70429 
L 714.819 -512.248227 
L 788.58 -501.348024 
L 788.58 -501.348024 
L 788.58 -501.348024 
L 714.819 -512.248227 
L 677.9385 -504.70429 
L 641.058 -504.199756 
L 604.1775 -486.991998 
L 567.297 -494.06955 
L 530.4165 -477.395597 
L 493.536 -472.421824 
L 456.6555 -443.925123 
L 419.775 -456.782635 
L 346.014 -408.595699 
L 272.253 -361.273203 
L 235.3725 -271.72815 
L 198.492 -380.496121 
L 161.6115 -167.753315 
L 124.731 -211.553029 
L 87.8505 -202.362994 
L 50.97 -182.042286 
z
" id="m49be0c1359" style="stroke:#ffffff;stroke-width:2;"/>
    </defs>
    <g clip-path="url(#p3510ff7552)">
     <use style="fill:#ffff5a;stroke:#ffffff;stroke-width:2;" x="0" xlink:href="#m49be0c1359" y="720"/>
    </g>
   </g>
   <g id="PolyCollection_23">
    <defs>
     <path d="M 50.97 -182.042286 
L 50.97 -182.042286 
L 87.8505 -202.362994 
L 124.731 -211.553029 
L 161.6115 -167.753315 
L 198.492 -380.496121 
L 235.3725 -271.72815 
L 272.253 -361.273203 
L 346.014 -408.595699 
L 419.775 -456.782635 
L 456.6555 -443.925123 
L 493.536 -472.421824 
L 530.4165 -477.395597 
L 567.297 -494.06955 
L 604.1775 -486.991998 
L 641.058 -504.199756 
L 677.9385 -504.70429 
L 714.819 -512.248227 
L 788.58 -501.348024 
L 788.58 -501.348024 
L 788.58 -526.430122 
L 714.819 -530.790169 
L 677.9385 -524.428613 
L 641.058 -524.317915 
L 604.1775 -501.592594 
L 567.297 -500.218895 
L 530.4165 -495.602491 
L 493.536 -501.5439 
L 456.6555 -465.184573 
L 419.775 -463.557002 
L 346.014 -416.056106 
L 272.253 -369.394536 
L 235.3725 -295.917283 
L 198.492 -424.674537 
L 161.6115 -167.753315 
L 124.731 -211.553029 
L 87.8505 -202.362994 
L 50.97 -182.042286 
z
" id="m930a94f824" style="stroke:#ffffff;stroke-width:2;"/>
    </defs>
    <g clip-path="url(#p3510ff7552)">
     <use style="fill:#2f0000;stroke:#ffffff;stroke-width:2;" x="0" xlink:href="#m930a94f824" y="720"/>
    </g>
   </g>
   <g id="PolyCollection_24">
    <defs>
     <path d="M 50.97 -182.042286 
L 50.97 -182.042286 
L 87.8505 -202.362994 
L 124.731 -211.553029 
L 161.6115 -167.753315 
L 198.492 -424.674537 
L 235.3725 -295.917283 
L 272.253 -369.394536 
L 346.014 -416.056106 
L 419.775 -463.557002 
L 456.6555 -465.184573 
L 493.536 -501.5439 
L 530.4165 -495.602491 
L 567.297 -500.218895 
L 604.1775 -501.592594 
L 641.058 -524.317915 
L 677.9385 -524.428613 
L 714.819 -530.790169 
L 788.58 -526.430122 
L 788.58 -526.430122 
L 788.58 -526.430122 
L 714.819 -530.790169 
L 677.9385 -524.428613 
L 641.058 -524.317915 
L 604.1775 -501.592594 
L 567.297 -500.218895 
L 530.4165 -495.602491 
L 493.536 -501.5439 
L 456.6555 -465.184573 
L 419.775 -463.557002 
L 346.014 -435.319545 
L 272.253 -407.887428 
L 235.3725 -334.371803 
L 198.492 -431.808939 
L 161.6115 -191.218423 
L 124.731 -238.037029 
L 87.8505 -202.362994 
L 50.97 -182.042286 
z
" id="m6587403d74" style="stroke:#ffffff;stroke-width:2;"/>
    </defs>
    <g clip-path="url(#p3510ff7552)">
     <use style="fill:#9e9ac8;stroke:#ffffff;stroke-width:2;" x="0" xlink:href="#m6587403d74" y="720"/>
    </g>
   </g>
   <g id="PolyCollection_25">
    <defs>
     <path d="M 50.97 -182.042286 
L 50.97 -182.042286 
L 87.8505 -202.362994 
L 124.731 -238.037029 
L 161.6115 -191.218423 
L 198.492 -431.808939 
L 235.3725 -334.371803 
L 272.253 -407.887428 
L 346.014 -435.319545 
L 419.775 -463.557002 
L 456.6555 -465.184573 
L 493.536 -501.5439 
L 530.4165 -495.602491 
L 567.297 -500.218895 
L 604.1775 -501.592594 
L 641.058 -524.317915 
L 677.9385 -524.428613 
L 714.819 -530.790169 
L 788.58 -526.430122 
L 788.58 -526.430122 
L 788.58 -526.430122 
L 714.819 -530.790169 
L 677.9385 -524.428613 
L 641.058 -524.317915 
L 604.1775 -501.592594 
L 567.297 -500.218895 
L 530.4165 -495.602491 
L 493.536 -501.5439 
L 456.6555 -465.184573 
L 419.775 -463.557002 
L 346.014 -454.694334 
L 272.253 -446.602823 
L 235.3725 -377.994941 
L 198.492 -452.114547 
L 161.6115 -221.509743 
L 124.731 -259.476457 
L 87.8505 -202.362994 
L 50.97 -182.042286 
z
" id="m845ec9d173" style="stroke:#ffffff;stroke-width:2;"/>
    </defs>
    <g clip-path="url(#p3510ff7552)">
     <use style="fill:#796eb2;stroke:#ffffff;stroke-width:2;" x="0" xlink:href="#m845ec9d173" y="720"/>
    </g>
   </g>
   <g id="PolyCollection_26">
    <defs>
     <path d="M 50.97 -182.042286 
L 50.97 -182.042286 
L 87.8505 -202.362994 
L 124.731 -259.476457 
L 161.6115 -221.509743 
L 198.492 -452.114547 
L 235.3725 -377.994941 
L 272.253 -446.602823 
L 346.014 -454.694334 
L 419.775 -463.557002 
L 456.6555 -465.184573 
L 493.536 -501.5439 
L 530.4165 -495.602491 
L 567.297 -500.218895 
L 604.1775 -501.592594 
L 641.058 -524.317915 
L 677.9385 -524.428613 
L 714.819 -530.790169 
L 788.58 -526.430122 
L 788.58 -526.430122 
L 788.58 -526.430122 
L 714.819 -530.790169 
L 677.9385 -524.428613 
L 641.058 -524.317915 
L 604.1775 -501.592594 
L 567.297 -500.218895 
L 530.4165 -495.602491 
L 493.536 -501.5439 
L 456.6555 -465.184573 
L 419.775 -463.557002 
L 346.014 -470.951341 
L 272.253 -479.088154 
L 235.3725 -413.555035 
L 198.492 -466.383352 
L 161.6115 -250.09451 
L 124.731 -285.329886 
L 87.8505 -202.362994 
L 50.97 -182.042286 
z
" id="m5a3eb448fc" style="stroke:#ffffff;stroke-width:2;"/>
    </defs>
    <g clip-path="url(#p3510ff7552)">
     <use style="fill:#5b3495;stroke:#ffffff;stroke-width:2;" x="0" xlink:href="#m5a3eb448fc" y="720"/>
    </g>
   </g>
   <g id="PolyCollection_27">
    <defs>
     <path d="M 50.97 -182.042286 
L 50.97 -182.042286 
L 87.8505 -202.362994 
L 124.731 -285.329886 
L 161.6115 -250.09451 
L 198.492 -466.383352 
L 235.3725 -413.555035 
L 272.253 -479.088154 
L 346.014 -470.951341 
L 419.775 -463.557002 
L 456.6555 -465.184573 
L 493.536 -501.5439 
L 530.4165 -495.602491 
L 567.297 -500.218895 
L 604.1775 -501.592594 
L 641.058 -524.317915 
L 677.9385 -524.428613 
L 714.819 -530.790169 
L 788.58 -526.430122 
L 788.58 -526.430122 
L 788.58 -676.17399 
L 714.819 -676.217159 
L 677.9385 -676.154173 
L 641.058 -676.153077 
L 604.1775 -675.928074 
L 567.297 -675.914473 
L 530.4165 -675.868766 
L 493.536 -675.927592 
L 456.6555 -675.518573 
L 419.775 -675.450325 
L 346.014 -639.422923 
L 272.253 -603.466922 
L 235.3725 -579.157564 
L 198.492 -599.193 
L 161.6115 -353.938276 
L 124.731 -286.212686 
L 87.8505 -210.627944 
L 50.97 -195.284286 
z
" id="m7732d4bbaf" style="stroke:#ffffff;stroke-width:2;"/>
    </defs>
    <g clip-path="url(#p3510ff7552)">
     <use style="fill:#c6c7e1;stroke:#ffffff;stroke-width:2;" x="0" xlink:href="#m7732d4bbaf" y="720"/>
    </g>
   </g>
   <g id="PolyCollection_28">
    <defs>
     <path d="M 50.97 -195.284286 
L 50.97 -195.284286 
L 87.8505 -210.627944 
L 124.731 -286.212686 
L 161.6115 -353.938276 
L 198.492 -599.193 
L 235.3725 -579.157564 
L 272.253 -603.466922 
L 346.014 -639.422923 
L 419.775 -675.450325 
L 456.6555 -675.518573 
L 493.536 -675.927592 
L 530.4165 -675.868766 
L 567.297 -675.914473 
L 604.1775 -675.928074 
L 641.058 -676.153077 
L 677.9385 -676.154173 
L 714.819 -676.217159 
L 788.58 -676.17399 
L 788.58 -676.17399 
L 788.58 -676.922709 
L 714.819 -676.944294 
L 677.9385 -676.912801 
L 641.058 -676.912253 
L 604.1775 -676.799751 
L 567.297 -676.792951 
L 530.4165 -676.770097 
L 493.536 -676.79951 
L 456.6555 -676.595001 
L 419.775 -676.560877 
L 346.014 -643.097452 
L 272.253 -609.696986 
L 235.3725 -589.494801 
L 198.492 -611.266605 
L 161.6115 -386.362788 
L 124.731 -320.263543 
L 87.8505 -210.627944 
L 50.97 -195.284286 
z
" id="m0b6d63d111" style="stroke:#ffffff;stroke-width:2;"/>
    </defs>
    <g clip-path="url(#p3510ff7552)">
     <use style="fill:#e8e7f2;stroke:#ffffff;stroke-width:2;" x="0" xlink:href="#m0b6d63d111" y="720"/>
    </g>
   </g>
   <g id="PolyCollection_29">
    <defs>
     <path d="M 50.97 -195.284286 
L 50.97 -195.284286 
L 87.8505 -210.627944 
L 124.731 -320.263543 
L 161.6115 -386.362788 
L 198.492 -611.266605 
L 235.3725 -589.494801 
L 272.253 -609.696986 
L 346.014 -643.097452 
L 419.775 -676.560877 
L 456.6555 -676.595001 
L 493.536 -676.79951 
L 530.4165 -676.770097 
L 567.297 -676.792951 
L 604.1775 -676.799751 
L 641.058 -676.912253 
L 677.9385 -676.912801 
L 714.819 -676.944294 
L 788.58 -676.922709 
L 788.58 -676.922709 
L 788.58 -677.671429 
L 714.819 -677.671429 
L 677.9385 -677.671429 
L 641.058 -677.671429 
L 604.1775 -677.671429 
L 567.297 -677.671429 
L 530.4165 -677.671429 
L 493.536 -677.671429 
L 456.6555 -677.671429 
L 419.775 -677.671429 
L 346.014 -665.088951 
L 272.253 -652.528672 
L 235.3725 -630.326885 
L 198.492 -614.010605 
L 161.6115 -386.362788 
L 124.731 -320.263543 
L 87.8505 -210.627944 
L 50.97 -195.284286 
z
" id="mefeeb2b878" style="stroke:#ffffff;stroke-width:2;"/>
    </defs>
    <g clip-path="url(#p3510ff7552)">
     <use style="fill:#aedea7;stroke:#ffffff;stroke-width:2;" x="0" xlink:href="#mefeeb2b878" y="720"/>
    </g>
   </g>
   <g id="PolyCollection_30">
    <defs>
     <path d="M 50.97 -195.284286 
L 50.97 -195.284286 
L 87.8505 -210.627944 
L 124.731 -320.263543 
L 161.6115 -386.362788 
L 198.492 -614.010605 
L 235.3725 -630.326885 
L 272.253 -652.528672 
L 346.014 -665.088951 
L 419.775 -677.671429 
L 456.6555 -677.671429 
L 493.536 -677.671429 
L 530.4165 -677.671429 
L 567.297 -677.671429 
L 604.1775 -677.671429 
L 641.058 -677.671429 
L 677.9385 -677.671429 
L 714.819 -677.671429 
L 788.58 -677.671429 
L 788.58 -677.671429 
L 788.58 -677.671429 
L 714.819 -677.671429 
L 677.9385 -677.671429 
L 641.058 -677.671429 
L 604.1775 -677.671429 
L 567.297 -677.671429 
L 530.4165 -677.671429 
L 493.536 -677.671429 
L 456.6555 -677.671429 
L 419.775 -677.671429 
L 346.014 -671.38019 
L 272.253 -665.10005 
L 235.3725 -645.419251 
L 198.492 -623.065809 
L 161.6115 -426.25347 
L 124.731 -368.817543 
L 87.8505 -298.627527 
L 50.97 -297.121571 
z
" id="m197f301713" style="stroke:#ffffff;stroke-width:2;"/>
    </defs>
    <g clip-path="url(#p3510ff7552)">
     <use style="fill:#fcbba1;stroke:#ffffff;stroke-width:2;" x="0" xlink:href="#m197f301713" y="720"/>
    </g>
   </g>
   <g id="PolyCollection_31">
    <defs>
     <path d="M 50.97 -297.121571 
L 50.97 -297.121571 
L 87.8505 -298.627527 
L 124.731 -368.817543 
L 161.6115 -426.25347 
L 198.492 -623.065809 
L 235.3725 -645.419251 
L 272.253 -665.10005 
L 346.014 -671.38019 
L 419.775 -677.671429 
L 456.6555 -677.671429 
L 493.536 -677.671429 
L 530.4165 -677.671429 
L 567.297 -677.671429 
L 604.1775 -677.671429 
L 641.058 -677.671429 
L 677.9385 -677.671429 
L 714.819 -677.671429 
L 788.58 -677.671429 
L 788.58 -677.671429 
L 788.58 -677.671429 
L 714.819 -677.671429 
L 677.9385 -677.671429 
L 641.058 -677.671429 
L 604.1775 -677.671429 
L 567.297 -677.671429 
L 530.4165 -677.671429 
L 493.536 -677.671429 
L 456.6555 -677.671429 
L 419.775 -677.671429 
L 346.014 -671.38019 
L 272.253 -665.10005 
L 235.3725 -649.967635 
L 198.492 -635.139413 
L 161.6115 -457.398067 
L 124.731 -400.976686 
L 87.8505 -343.641988 
L 50.97 -341.892143 
z
" id="mf81dd1e1ac" style="stroke:#ffffff;stroke-width:2;"/>
    </defs>
    <g clip-path="url(#p3510ff7552)">
     <use style="fill:#fb694a;stroke:#ffffff;stroke-width:2;" x="0" xlink:href="#mf81dd1e1ac" y="720"/>
    </g>
   </g>
   <g id="PolyCollection_32">
    <defs>
     <path d="M 50.97 -341.892143 
L 50.97 -341.892143 
L 87.8505 -343.641988 
L 124.731 -400.976686 
L 161.6115 -457.398067 
L 198.492 -635.139413 
L 235.3725 -649.967635 
L 272.253 -665.10005 
L 346.014 -671.38019 
L 419.775 -677.671429 
L 456.6555 -677.671429 
L 493.536 -677.671429 
L 530.4165 -677.671429 
L 567.297 -677.671429 
L 604.1775 -677.671429 
L 641.058 -677.671429 
L 677.9385 -677.671429 
L 714.819 -677.671429 
L 788.58 -677.671429 
L 788.58 -677.671429 
L 788.58 -677.671429 
L 714.819 -677.671429 
L 677.9385 -677.671429 
L 641.058 -677.671429 
L 604.1775 -677.671429 
L 567.297 -677.671429 
L 530.4165 -677.671429 
L 493.536 -677.671429 
L 456.6555 -677.671429 
L 419.775 -677.671429 
L 346.014 -671.38019 
L 272.253 -665.10005 
L 235.3725 -649.967635 
L 198.492 -635.139413 
L 161.6115 -474.890238 
L 124.731 -426.830114 
L 87.8505 -378.325261 
L 50.97 -375.312429 
z
" id="m299ed3319a" style="stroke:#ffffff;stroke-width:2;"/>
    </defs>
    <g clip-path="url(#p3510ff7552)">
     <use style="fill:#ca181d;stroke:#ffffff;stroke-width:2;" x="0" xlink:href="#m299ed3319a" y="720"/>
    </g>
   </g>
   <g id="PolyCollection_33">
    <defs>
     <path d="M 50.97 -375.312429 
L 50.97 -375.312429 
L 87.8505 -378.325261 
L 124.731 -426.830114 
L 161.6115 -474.890238 
L 198.492 -635.139413 
L 235.3725 -649.967635 
L 272.253 -665.10005 
L 346.014 -671.38019 
L 419.775 -677.671429 
L 456.6555 -677.671429 
L 493.536 -677.671429 
L 530.4165 -677.671429 
L 567.297 -677.671429 
L 604.1775 -677.671429 
L 641.058 -677.671429 
L 677.9385 -677.671429 
L 714.819 -677.671429 
L 788.58 -677.671429 
L 788.58 -677.671429 
L 788.58 -677.671429 
L 714.819 -677.671429 
L 677.9385 -677.671429 
L 641.058 -677.671429 
L 604.1775 -677.671429 
L 567.297 -677.671429 
L 530.4165 -677.671429 
L 493.536 -677.671429 
L 456.6555 -677.671429 
L 419.775 -677.671429 
L 346.014 -671.38019 
L 272.253 -665.10005 
L 235.3725 -653.223864 
L 198.492 -643.783016 
L 161.6115 -483.742983 
L 124.731 -429.982971 
L 87.8505 -396.773811 
L 50.97 -403.688143 
z
" id="mf953c9f38b" style="stroke:#ffffff;stroke-width:2;"/>
    </defs>
    <g clip-path="url(#p3510ff7552)">
     <use style="fill:#c6dbef;stroke:#ffffff;stroke-width:2;" x="0" xlink:href="#mf953c9f38b" y="720"/>
    </g>
   </g>
   <g id="PolyCollection_34">
    <defs>
     <path d="M 50.97 -403.688143 
L 50.97 -403.688143 
L 87.8505 -396.773811 
L 124.731 -429.982971 
L 161.6115 -483.742983 
L 198.492 -643.783016 
L 235.3725 -653.223864 
L 272.253 -665.10005 
L 346.014 -671.38019 
L 419.775 -677.671429 
L 456.6555 -677.671429 
L 493.536 -677.671429 
L 530.4165 -677.671429 
L 567.297 -677.671429 
L 604.1775 -677.671429 
L 641.058 -677.671429 
L 677.9385 -677.671429 
L 714.819 -677.671429 
L 788.58 -677.671429 
L 788.58 -677.671429 
L 788.58 -677.671429 
L 714.819 -677.671429 
L 677.9385 -677.671429 
L 641.058 -677.671429 
L 604.1775 -677.671429 
L 567.297 -677.671429 
L 530.4165 -677.671429 
L 493.536 -677.671429 
L 456.6555 -677.671429 
L 419.775 -677.671429 
L 346.014 -671.38019 
L 272.253 -665.10005 
L 235.3725 -655.911546 
L 198.492 -650.917419 
L 161.6115 -517.44741 
L 124.731 -471.600686 
L 87.8505 -396.773811 
L 50.97 -403.688143 
z
" id="mf1a6a9b8f3" style="stroke:#ffffff;stroke-width:2;"/>
    </defs>
    <g clip-path="url(#p3510ff7552)">
     <use style="fill:#2070b4;stroke:#ffffff;stroke-width:2;" x="0" xlink:href="#mf1a6a9b8f3" y="720"/>
    </g>
   </g>
   <g id="PolyCollection_35">
    <defs>
     <path d="M 50.97 -403.688143 
L 50.97 -403.688143 
L 87.8505 -396.773811 
L 124.731 -471.600686 
L 161.6115 -517.44741 
L 198.492 -650.917419 
L 235.3725 -655.911546 
L 272.253 -665.10005 
L 346.014 -671.38019 
L 419.775 -677.671429 
L 456.6555 -677.671429 
L 493.536 -677.671429 
L 530.4165 -677.671429 
L 567.297 -677.671429 
L 604.1775 -677.671429 
L 641.058 -677.671429 
L 677.9385 -677.671429 
L 714.819 -677.671429 
L 788.58 -677.671429 
L 788.58 -677.671429 
L 788.58 -677.671429 
L 714.819 -677.671429 
L 677.9385 -677.671429 
L 641.058 -677.671429 
L 604.1775 -677.671429 
L 567.297 -677.671429 
L 530.4165 -677.671429 
L 493.536 -677.671429 
L 456.6555 -677.671429 
L 419.775 -677.671429 
L 346.014 -671.38019 
L 272.253 -665.10005 
L 235.3725 -659.322834 
L 198.492 -659.972622 
L 161.6115 -540.699198 
L 124.731 -495.5624 
L 87.8505 -415.960303 
L 50.97 -412.516143 
z
" id="mf3a2446bac" style="stroke:#ffffff;stroke-width:2;"/>
    </defs>
    <g clip-path="url(#p3510ff7552)">
     <use style="fill:#6aaed6;stroke:#ffffff;stroke-width:2;" x="0" xlink:href="#mf3a2446bac" y="720"/>
    </g>
   </g>
   <g id="PolyCollection_36">
    <defs>
     <path d="M 50.97 -412.516143 
L 50.97 -412.516143 
L 87.8505 -415.960303 
L 124.731 -495.5624 
L 161.6115 -540.699198 
L 198.492 -659.972622 
L 235.3725 -659.322834 
L 272.253 -665.10005 
L 346.014 -671.38019 
L 419.775 -677.671429 
L 456.6555 -677.671429 
L 493.536 -677.671429 
L 530.4165 -677.671429 
L 567.297 -677.671429 
L 604.1775 -677.671429 
L 641.058 -677.671429 
L 677.9385 -677.671429 
L 714.819 -677.671429 
L 788.58 -677.671429 
L 788.58 -677.671429 
L 788.58 -677.671429 
L 714.819 -677.671429 
L 677.9385 -677.671429 
L 641.058 -677.671429 
L 604.1775 -677.671429 
L 567.297 -677.671429 
L 530.4165 -677.671429 
L 493.536 -677.671429 
L 456.6555 -677.671429 
L 419.775 -677.671429 
L 346.014 -671.38019 
L 272.253 -665.10005 
L 235.3725 -662.579063 
L 198.492 -668.616225 
L 161.6115 -549.551943 
L 124.731 -498.715257 
L 87.8505 -434.408852 
L 50.97 -440.891857 
z
" id="ma1d027316c" style="stroke:#ffffff;stroke-width:2;"/>
    </defs>
    <g clip-path="url(#p3510ff7552)">
     <use style="fill:#c6dbef;stroke:#ffffff;stroke-width:2;" x="0" xlink:href="#ma1d027316c" y="720"/>
    </g>
   </g>
   <g id="PolyCollection_37">
    <defs>
     <path d="M 50.97 -440.891857 
L 50.97 -440.891857 
L 87.8505 -434.408852 
L 124.731 -498.715257 
L 161.6115 -549.551943 
L 198.492 -668.616225 
L 235.3725 -662.579063 
L 272.253 -665.10005 
L 346.014 -671.38019 
L 419.775 -677.671429 
L 456.6555 -677.671429 
L 493.536 -677.671429 
L 530.4165 -677.671429 
L 567.297 -677.671429 
L 604.1775 -677.671429 
L 641.058 -677.671429 
L 677.9385 -677.671429 
L 714.819 -677.671429 
L 788.58 -677.671429 
L 788.58 -677.671429 
L 788.58 -677.671429 
L 714.819 -677.671429 
L 677.9385 -677.671429 
L 641.058 -677.671429 
L 604.1775 -677.671429 
L 567.297 -677.671429 
L 530.4165 -677.671429 
L 493.536 -677.671429 
L 456.6555 -677.671429 
L 419.775 -677.671429 
L 346.014 -677.671429 
L 272.253 -677.671429 
L 235.3725 -677.671429 
L 198.492 -677.671429 
L 161.6115 -589.442625 
L 124.731 -547.269257 
L 87.8505 -522.408434 
L 50.97 -542.729143 
z
" id="mc233b31db5" style="stroke:#ffffff;stroke-width:2;"/>
    </defs>
    <g clip-path="url(#p3510ff7552)">
     <use style="fill:#fcbba1;stroke:#ffffff;stroke-width:2;" x="0" xlink:href="#mc233b31db5" y="720"/>
    </g>
   </g>
   <g id="PolyCollection_38">
    <defs>
     <path d="M 50.97 -542.729143 
L 50.97 -542.729143 
L 87.8505 -522.408434 
L 124.731 -547.269257 
L 161.6115 -589.442625 
L 198.492 -677.671429 
L 235.3725 -677.671429 
L 272.253 -677.671429 
L 346.014 -677.671429 
L 419.775 -677.671429 
L 456.6555 -677.671429 
L 493.536 -677.671429 
L 530.4165 -677.671429 
L 567.297 -677.671429 
L 604.1775 -677.671429 
L 641.058 -677.671429 
L 677.9385 -677.671429 
L 714.819 -677.671429 
L 788.58 -677.671429 
L 788.58 -677.671429 
L 788.58 -677.671429 
L 714.819 -677.671429 
L 677.9385 -677.671429 
L 641.058 -677.671429 
L 604.1775 -677.671429 
L 567.297 -677.671429 
L 530.4165 -677.671429 
L 493.536 -677.671429 
L 456.6555 -677.671429 
L 419.775 -677.671429 
L 346.014 -677.671429 
L 272.253 -677.671429 
L 235.3725 -677.671429 
L 198.492 -677.671429 
L 161.6115 -677.671429 
L 124.731 -677.671429 
L 87.8505 -677.671429 
L 50.97 -677.671429 
z
" id="ma3348cc0c0" style="stroke:#ffffff;stroke-width:2;"/>
    </defs>
    <g clip-path="url(#p3510ff7552)">
     <use style="fill:#ffffff;stroke:#ffffff;stroke-width:2;" x="0" xlink:href="#ma3348cc0c0" y="720"/>
    </g>
   </g>
   <g id="patch_3">
    <path d="M 50.97 672.9 
L 50.97 10.8 
" style="fill:none;stroke:#262626;stroke-linecap:square;stroke-linejoin:miter;stroke-width:1.25;"/>
   </g>
   <g id="patch_4">
    <path d="M 50.97 672.9 
L 788.58 672.9 
" style="fill:none;stroke:#262626;stroke-linecap:square;stroke-linejoin:miter;stroke-width:1.25;"/>
   </g>
   <g id="text_15">
    <g id="patch_5">
     <path d="M 194.532 549.759453 
L 251.473875 549.759453 
L 251.473875 533.449766 
L 194.532 533.449766 
z
" style="fill:#959595;stroke:#ffffff;stroke-linejoin:miter;stroke-width:0.5;"/>
    </g>
    <text style="fill:#333333;font-family:Liberation Sans;font-size:9px;font-style:normal;font-weight:normal;text-anchor:start;" transform="rotate(-0, 198.492, 543.931953)" x="198.492" y="543.931953">mutS L353F</text>
   </g>
   <g id="text_16">
    <g id="patch_6">
     <path d="M 489.576 677.855582 
L 536.515219 677.855582 
L 536.515219 661.545894 
L 489.576 661.545894 
z
" style="fill:#aedea7;stroke:#ffffff;stroke-linejoin:miter;stroke-width:0.5;"/>
    </g>
    <text style="fill:#333333;font-family:Liberation Sans;font-size:9px;font-style:normal;font-weight:normal;text-anchor:start;" transform="rotate(-0, 493.536, 672.028082)" x="493.536" y="672.028082">tig A151V</text>
   </g>
   <g id="text_17">
    <g id="patch_7">
     <path d="M 268.293 605.635505 
L 334.246125 605.635505 
L 334.246125 589.325817 
L 268.293 589.325817 
z
" style="fill:#37a055;stroke:#ffffff;stroke-linejoin:miter;stroke-width:0.5;"/>
    </g>
    <text style="fill:#ffffff;font-family:Liberation Sans;font-size:9px;font-style:normal;font-weight:normal;text-anchor:start;" transform="rotate(-0, 272.253, 599.808005)" x="272.253" y="599.808005">bglK_1 A168D</text>
   </g>
   <g id="text_18">
    <g id="patch_8">
     <path d="M 452.6955 567.9674 
L 551.675813 567.9674 
L 551.675813 551.657712 
L 452.6955 551.657712 
z
" style="fill:#e8e7f2;stroke:#ffffff;stroke-linejoin:miter;stroke-width:0.5;"/>
    </g>
    <text style="fill:#333333;font-family:Liberation Sans;font-size:9px;font-style:normal;font-weight:normal;text-anchor:start;" transform="rotate(-0, 456.6555, 562.1399)" x="456.6555" y="562.1399">PROKKA_00981 L83V</text>
   </g>
   <g id="text_19">
    <g id="patch_9">
     <path d="M 526.4565 564.164567 
L 631.433063 564.164567 
L 631.433063 547.85488 
L 526.4565 547.85488 
z
" style="fill:#2f0000;stroke:#ffffff;stroke-linejoin:miter;stroke-width:0.5;"/>
    </g>
    <text style="fill:#ffffff;font-family:Liberation Sans;font-size:9px;font-style:normal;font-weight:normal;text-anchor:start;" transform="rotate(-0, 530.4165, 558.337067)" x="530.4165" y="558.337067">PROKKA_01281 A256V</text>
   </g>
   <g id="text_20">
    <g id="patch_10">
     <path d="M 710.859 645.861 
L 805.32525 645.861 
L 805.32525 629.551313 
L 710.859 629.551313 
z
" style="fill:#ff3400;stroke:#ffffff;stroke-linejoin:miter;stroke-width:0.5;"/>
    </g>
    <text style="fill:#ffffff;font-family:Liberation Sans;font-size:9px;font-style:normal;font-weight:normal;text-anchor:start;" transform="rotate(-0, 714.819, 640.0335)" x="714.819" y="640.0335">PROKKA_01382 T8P</text>
   </g>
   <g id="text_21">
    <g id="patch_11">
     <path d="M 747.7395 526.022148 
L 817.197 526.022148 
L 817.197 509.712461 
L 747.7395 509.712461 
z
" style="fill:#ffef00;stroke:#ffffff;stroke-linejoin:miter;stroke-width:0.5;"/>
    </g>
    <text style="fill:#333333;font-family:Liberation Sans;font-size:9px;font-style:normal;font-weight:normal;text-anchor:start;" transform="rotate(-0, 751.6995, 520.194648)" x="751.6995" y="520.194648">mepA_2 *427Q</text>
   </g>
   <g id="text_22">
    <g id="patch_12">
     <path d="M 747.7395 523.67029 
L 853.720125 523.67029 
L 853.720125 507.360602 
L 747.7395 507.360602 
z
" style="fill:#ffff22;stroke:#ffffff;stroke-linejoin:miter;stroke-width:0.5;"/>
    </g>
    <text style="fill:#333333;font-family:Liberation Sans;font-size:9px;font-style:normal;font-weight:normal;text-anchor:start;" transform="rotate(-0, 751.6995, 517.84279)" x="751.6995" y="517.84279">PROKKA_01052 Q231K</text>
   </g>
   <g id="text_23">
    <g id="patch_13">
     <path d="M 747.7395 502.436003 
L 810.68325 502.436003 
L 810.68325 486.126316 
L 747.7395 486.126316 
z
" style="fill:#ea0000;stroke:#ffffff;stroke-linejoin:miter;stroke-width:0.5;"/>
    </g>
    <text style="fill:#ffffff;font-family:Liberation Sans;font-size:9px;font-style:normal;font-weight:normal;text-anchor:start;" transform="rotate(-0, 751.6995, 496.608503)" x="751.6995" y="496.608503">malK_1 A83S</text>
   </g>
   <g id="text_24">
    <g id="patch_14">
     <path d="M 673.9785 491.362177 
L 779.451469 491.362177 
L 779.451469 475.052489 
L 673.9785 475.052489 
z
" style="fill:#ffca00;stroke:#ffffff;stroke-linejoin:miter;stroke-width:0.5;"/>
    </g>
    <text style="fill:#333333;font-family:Liberation Sans;font-size:9px;font-style:normal;font-weight:normal;text-anchor:start;" transform="rotate(-0, 677.9385, 485.534677)" x="677.9385" y="485.534677">PROKKA_01887 A363D</text>
   </g>
   <g id="text_25">
    <g id="patch_15">
     <path d="M 747.7395 559.080462 
L 809.530125 559.080462 
L 809.530125 542.7314 
L 747.7395 542.7314 
z
" style="fill:#ffffc8;stroke:#ffffff;stroke-linejoin:miter;stroke-width:0.5;"/>
    </g>
    <text style="fill:#333333;font-family:Liberation Sans;font-size:9px;font-style:normal;font-weight:normal;text-anchor:start;" transform="rotate(-0, 751.6995, 553.213587)" x="751.6995" y="553.213587">gapN|glgB nc</text>
   </g>
   <g id="text_26">
    <g id="patch_16">
     <path d="M 637.098 572.594722 
L 737.07675 572.594722 
L 737.07675 556.285034 
L 637.098 556.285034 
z
" style="fill:#ff8000;stroke:#ffffff;stroke-linejoin:miter;stroke-width:0.5;"/>
    </g>
    <text style="fill:#333333;font-family:Liberation Sans;font-size:9px;font-style:normal;font-weight:normal;text-anchor:start;" transform="rotate(-0, 641.058, 566.767222)" x="641.058" y="566.767222">PROKKA_00512 E35V</text>
   </g>
   <g id="text_27">
    <g id="patch_17">
     <path d="M 710.859 562.353995 
L 768.297281 562.353995 
L 768.297281 546.044308 
L 710.859 546.044308 
z
" style="fill:#ffff91;stroke:#ffffff;stroke-linejoin:miter;stroke-width:0.5;"/>
    </g>
    <text style="fill:#333333;font-family:Liberation Sans;font-size:9px;font-style:normal;font-weight:normal;text-anchor:start;" transform="rotate(-0, 714.819, 556.526495)" x="714.819" y="556.526495">accD T213K</text>
   </g>
   <g id="text_28">
    <g id="patch_18">
     <path d="M 673.9785 437.209634 
L 777.963656 437.209634 
L 777.963656 420.899946 
L 673.9785 420.899946 
z
" style="fill:#ff1000;stroke:#ffffff;stroke-linejoin:miter;stroke-width:0.5;"/>
    </g>
    <text style="fill:#ffffff;font-family:Liberation Sans;font-size:9px;font-style:normal;font-weight:normal;text-anchor:start;" transform="rotate(-0, 677.9385, 431.382134)" x="677.9385" y="431.382134">PROKKA_00838 P431L</text>
   </g>
   <g id="text_29">
    <g id="patch_19">
     <path d="M 673.9785 468.979065 
L 720.919125 468.979065 
L 720.919125 452.669378 
L 673.9785 452.669378 
z
" style="fill:#c50000;stroke:#ffffff;stroke-linejoin:miter;stroke-width:0.5;"/>
    </g>
    <text style="fill:#ffffff;font-family:Liberation Sans;font-size:9px;font-style:normal;font-weight:normal;text-anchor:start;" transform="rotate(-0, 677.9385, 463.151565)" x="677.9385" y="463.151565">intergenic</text>
   </g>
   <g id="text_30">
    <g id="patch_20">
     <path d="M 673.9785 508.368448 
L 779.952094 508.368448 
L 779.952094 492.058761 
L 673.9785 492.058761 
z
" style="fill:#ff5c00;stroke:#ffffff;stroke-linejoin:miter;stroke-width:0.5;"/>
    </g>
    <text style="fill:#333333;font-family:Liberation Sans;font-size:9px;font-style:normal;font-weight:normal;text-anchor:start;" transform="rotate(-0, 677.9385, 502.540948)" x="677.9385" y="502.540948">PROKKA_00438 A452G</text>
   </g>
   <g id="text_31">
    <g id="patch_21">
     <path d="M 673.9785 488.174371 
L 778.955063 488.174371 
L 778.955063 471.864684 
L 673.9785 471.864684 
z
" style="fill:#ffa500;stroke:#ffffff;stroke-linejoin:miter;stroke-width:0.5;"/>
    </g>
    <text style="fill:#333333;font-family:Liberation Sans;font-size:9px;font-style:normal;font-weight:normal;text-anchor:start;" transform="rotate(-0, 677.9385, 482.346871)" x="677.9385" y="482.346871">PROKKA_01506 A136S</text>
   </g>
   <g id="text_32">
    <g id="patch_22">
     <path d="M 600.2175 469.145807 
L 660.651094 469.145807 
L 660.651094 452.836119 
L 600.2175 452.836119 
z
" style="fill:#9e0000;stroke:#ffffff;stroke-linejoin:miter;stroke-width:0.5;"/>
    </g>
    <text style="fill:#ffffff;font-family:Liberation Sans;font-size:9px;font-style:normal;font-weight:normal;text-anchor:start;" transform="rotate(-0, 604.1775, 463.318307)" x="604.1775" y="463.318307">recD2 T316T</text>
   </g>
   <g id="text_33">
    <g id="patch_23">
     <path d="M 563.337 465.742897 
L 663.308719 465.742897 
L 663.308719 449.433209 
L 563.337 449.433209 
z
" style="fill:#790000;stroke:#ffffff;stroke-linejoin:miter;stroke-width:0.5;"/>
    </g>
    <text style="fill:#ffffff;font-family:Liberation Sans;font-size:9px;font-style:normal;font-weight:normal;text-anchor:start;" transform="rotate(-0, 567.297, 459.915397)" x="567.297" y="459.915397">PROKKA_00838 A21V</text>
   </g>
   <g id="text_34">
    <g id="patch_24">
     <path d="M 526.4565 324.954936 
L 584.90025 324.954936 
L 584.90025 308.645249 
L 526.4565 308.645249 
z
" style="fill:#540000;stroke:#ffffff;stroke-linejoin:miter;stroke-width:0.5;"/>
    </g>
    <text style="fill:#ffffff;font-family:Liberation Sans;font-size:9px;font-style:normal;font-weight:normal;text-anchor:start;" transform="rotate(-0, 530.4165, 319.127436)" x="530.4165" y="319.127436">copA D584Y</text>
   </g>
   <g id="text_35">
    <g id="patch_25">
     <path d="M 194.532 347.80098 
L 257.482781 347.80098 
L 257.482781 331.491293 
L 194.532 331.491293 
z
" style="fill:#ffff5a;stroke:#ffffff;stroke-linejoin:miter;stroke-width:0.5;"/>
    </g>
    <text style="fill:#333333;font-family:Liberation Sans;font-size:9px;font-style:normal;font-weight:normal;text-anchor:start;" transform="rotate(-0, 198.492, 341.97348)" x="198.492" y="341.97348">lytB_5 D625A</text>
   </g>
   <g id="text_36">
    <g id="patch_26">
     <path d="M 268.293 451.147952 
L 318.740813 451.147952 
L 318.740813 434.838265 
L 268.293 434.838265 
z
" style="fill:#9e9ac8;stroke:#ffffff;stroke-linejoin:miter;stroke-width:0.5;"/>
    </g>
    <text style="fill:#333333;font-family:Liberation Sans;font-size:9px;font-style:normal;font-weight:normal;text-anchor:start;" transform="rotate(-0, 272.253, 445.320452)" x="272.253" y="445.320452">dnaI R14S</text>
   </g>
   <g id="text_37">
    <g id="patch_27">
     <path d="M 268.293 199.305562 
L 316.732688 199.305562 
L 316.732688 182.995875 
L 268.293 182.995875 
z
" style="fill:#796eb2;stroke:#ffffff;stroke-linejoin:miter;stroke-width:0.5;"/>
    </g>
    <text style="fill:#ffffff;font-family:Liberation Sans;font-size:9px;font-style:normal;font-weight:normal;text-anchor:start;" transform="rotate(-0, 272.253, 193.478062)" x="272.253" y="193.478062">glnM I92S</text>
   </g>
   <g id="text_38">
    <g id="patch_28">
     <path d="M 231.4125 267.539938 
L 297.873281 267.539938 
L 297.873281 251.23025 
L 231.4125 251.23025 
z
" style="fill:#5b3495;stroke:#ffffff;stroke-linejoin:miter;stroke-width:0.5;"/>
    </g>
    <text style="fill:#ffffff;font-family:Liberation Sans;font-size:9px;font-style:normal;font-weight:normal;text-anchor:start;" transform="rotate(-0, 235.3725, 261.712438)" x="235.3725" y="261.712438">nrnA_2 S191Y</text>
   </g>
   <g id="text_39">
    <g id="patch_29">
     <path d="M 415.815 156.363212 
L 554.642813 156.363212 
L 554.642813 140.014149 
L 415.815 140.014149 
z
" style="fill:#c6c7e1;stroke:#ffffff;stroke-linejoin:miter;stroke-width:0.5;"/>
    </g>
    <text style="fill:#333333;font-family:Liberation Sans;font-size:9px;font-style:normal;font-weight:normal;text-anchor:start;" transform="rotate(-0, 419.775, 150.496337)" x="419.775" y="150.496337">PROKKA_02115|parC intergenic</text>
   </g>
   <g id="text_40">
    <g id="patch_30">
     <path d="M 194.532 102.761691 
L 258.993094 102.761691 
L 258.993094 86.452004 
L 194.532 86.452004 
z
" style="fill:#fcbba1;stroke:#ffffff;stroke-linejoin:miter;stroke-width:0.5;"/>
    </g>
    <text style="fill:#333333;font-family:Liberation Sans;font-size:9px;font-style:normal;font-weight:normal;text-anchor:start;" transform="rotate(-0, 198.492, 96.934191)" x="198.492" y="96.934191">patA_1 Q111*</text>
   </g>
   <g id="text_41">
    <g id="patch_31">
     <path d="M 54.3861 406.320643 
L 158.867662 406.320643 
L 158.867662 390.010955 
L 54.3861 390.010955 
z
" style="fill:#fb694a;stroke:#ffffff;stroke-linejoin:miter;stroke-width:0.5;"/>
    </g>
    <text style="fill:#333333;font-family:Liberation Sans;font-size:9px;font-style:normal;font-weight:normal;text-anchor:start;" transform="rotate(-0, 58.3461, 400.493143)" x="58.3461" y="400.493143">PROKKA_00764 coding</text>
   </g>
   <g id="text_42">
    <g id="patch_32">
     <path d="M 91.2666 242.390331 
L 189.248475 242.390331 
L 189.248475 226.080643 
L 91.2666 226.080643 
z
" style="fill:#ca181d;stroke:#ffffff;stroke-linejoin:miter;stroke-width:0.5;"/>
    </g>
    <text style="fill:#ffffff;font-family:Liberation Sans;font-size:9px;font-style:normal;font-weight:normal;text-anchor:start;" transform="rotate(-0, 95.2266, 236.562831)" x="95.2266" y="236.562831">PROKKA_00487 L93L</text>
   </g>
   <g id="text_43">
    <g id="patch_33">
     <path d="M 91.2666 322.139357 
L 146.699569 322.139357 
L 146.699569 305.82967 
L 91.2666 305.82967 
z
" style="fill:#c6dbef;stroke:#ffffff;stroke-linejoin:miter;stroke-width:0.5;"/>
    </g>
    <text style="fill:#333333;font-family:Liberation Sans;font-size:9px;font-style:normal;font-weight:normal;text-anchor:start;" transform="rotate(-0, 95.2266, 316.311857)" x="95.2266" y="316.311857">ruvB A310T</text>
   </g>
   <g id="text_44">
    <g id="patch_34">
     <path d="M 157.6515 415.376475 
L 248.109938 415.376475 
L 248.109938 399.066787 
L 157.6515 399.066787 
z
" style="fill:#2070b4;stroke:#ffffff;stroke-linejoin:miter;stroke-width:0.5;"/>
    </g>
    <text style="fill:#ffffff;font-family:Liberation Sans;font-size:9px;font-style:normal;font-weight:normal;text-anchor:start;" transform="rotate(-0, 161.6115, 409.548975)" x="161.6115" y="409.548975">Ribonuclease Y A7A</text>
   </g>
   <g id="text_45">
    <g id="patch_35">
     <path d="M 91.2666 317.764732 
L 198.573319 317.764732 
L 198.573319 291.68217 
L 91.2666 291.68217 
z
" style="fill:#6aaed6;stroke:#ffffff;stroke-linejoin:miter;stroke-width:0.5;"/>
    </g>
    <text style="fill:#333333;font-family:Liberation Sans;font-size:9px;font-style:normal;font-weight:normal;" transform="translate(95.2266 302.203732)">PROKKA_00139|glyA nc</text>
    <text style="fill:#333333;font-family:Liberation Sans;font-size:9px;font-style:normal;font-weight:normal;" transform="translate(95.2266 311.937232)">patA_1 W285*</text>
   </g>
  </g>
 </g>
 <defs>
  <clipPath id="p3510ff7552">
   <rect height="662.1" width="737.61" x="50.97" y="10.8"/>
  </clipPath>
 </defs>
</svg>
