<?xml version="1.0" encoding="UTF-8" standalone="no"?>
<!DOCTYPE svg PUBLIC "-//W3C//DTD SVG 1.1//EN"
 "http://www.w3.org/Graphics/SVG/1.1/DTD/svg11.dtd">
<!-- Generated by graphviz version 2.40.1 (20161225.0304)
 -->
<!-- Pages: 1 -->
<svg width="335pt" height="332pt"
 viewBox="0.00 0.00 335.00 332.00" xmlns="http://www.w3.org/2000/svg" xmlns:xlink="http://www.w3.org/1999/xlink">
<g id="graph0" class="graph" transform="scale(1 1) rotate(0) translate(4 328)">
<polygon fill="#ffffff" stroke="transparent" points="-4,4 -4,-328 331,-328 331,4 -4,4"/>
<!-- genotype&#45;red -->
<g id="node1" class="node">
<title>genotype&#45;red</title>
<path fill="#ff0000" stroke="#333333" d="M235,-252C235,-252 158,-252 158,-252 152,-252 146,-246 146,-240 146,-240 146,-228 146,-228 146,-222 152,-216 158,-216 158,-216 235,-216 235,-216 241,-216 247,-222 247,-228 247,-228 247,-240 247,-240 247,-246 241,-252 235,-252"/>
<text text-anchor="middle" x="196.5" y="-230.3" font-family="lato" font-size="14.00" fill="#ffffff">genotype&#45;red</text>
</g>
<!-- genotype&#45;green -->
<g id="node2" class="node">
<title>genotype&#45;green</title>
<path fill="#008000" stroke="#333333" d="M173.5,-180C173.5,-180 81.5,-180 81.5,-180 75.5,-180 69.5,-174 69.5,-168 69.5,-168 69.5,-156 69.5,-156 69.5,-150 75.5,-144 81.5,-144 81.5,-144 173.5,-144 173.5,-144 179.5,-144 185.5,-150 185.5,-156 185.5,-156 185.5,-168 185.5,-168 185.5,-174 179.5,-180 173.5,-180"/>
<text text-anchor="middle" x="127.5" y="-158.3" font-family="lato" font-size="14.00" fill="#ffffff">genotype&#45;green</text>
</g>
<!-- genotype&#45;red&#45;&#45;genotype&#45;green -->
<g id="edge1" class="edge">
<title>genotype&#45;red&#45;&#45;genotype&#45;green</title>
<g id="a_edge1"><a xlink:title="parent">
<path fill="none" stroke="#000000" d="M165.75,-215.8314C165.75,-215.8314 165.75,-190.4133 165.75,-190.4133"/>
<polygon fill="#000000" stroke="#000000" points="169.2501,-190.4132 165.75,-180.4133 162.2501,-190.4133 169.2501,-190.4132"/>
</a>
</g>
<text text-anchor="middle" x="174.2024" y="-194.8394" font-family="Times,serif" font-size="14.00" fill="#000000">4.0</text>
</g>
<!-- genotype&#45;orange -->
<g id="node3" class="node">
<title>genotype&#45;orange</title>
<path fill="#ffa500" stroke="#333333" d="M315,-180C315,-180 216,-180 216,-180 210,-180 204,-174 204,-168 204,-168 204,-156 204,-156 204,-150 210,-144 216,-144 216,-144 315,-144 315,-144 321,-144 327,-150 327,-156 327,-156 327,-168 327,-168 327,-174 321,-180 315,-180"/>
<text text-anchor="middle" x="265.5" y="-158.3" font-family="lato" font-size="14.00" fill="#333333">genotype&#45;orange</text>
</g>
<!-- genotype&#45;red&#45;&#45;genotype&#45;orange -->
<g id="edge2" class="edge">
<title>genotype&#45;red&#45;&#45;genotype&#45;orange</title>
<g id="a_edge2"><a xlink:title="parent">
<path fill="none" stroke="#000000" d="M225.5,-215.8314C225.5,-215.8314 225.5,-190.4133 225.5,-190.4133"/>
<polygon fill="#000000" stroke="#000000" points="229.0001,-190.4132 225.5,-180.4133 222.0001,-190.4133 229.0001,-190.4132"/>
</a>
</g>
<text text-anchor="middle" x="233.9524" y="-194.8394" font-family="Times,serif" font-size="14.00" fill="#000000">6.0</text>
</g>
<!-- genotype&#45;aqua -->
<g id="node4" class="node">
<title>genotype&#45;aqua</title>
<path fill="#00ffff" stroke="#333333" d="M170,-108C170,-108 85,-108 85,-108 79,-108 73,-102 73,-96 73,-96 73,-84 73,-84 73,-78 79,-72 85,-72 85,-72 170,-72 170,-72 176,-72 182,-78 182,-84 182,-84 182,-96 182,-96 182,-102 176,-108 170,-108"/>
<text text-anchor="middle" x="127.5" y="-86.3" font-family="lato" font-size="14.00" fill="#333333">genotype&#45;aqua</text>
</g>
<!-- genotype&#45;green&#45;&#45;genotype&#45;aqua -->
<g id="edge3" class="edge">
<title>genotype&#45;green&#45;&#45;genotype&#45;aqua</title>
<g id="a_edge3"><a xlink:title="parent">
<path fill="none" stroke="#000000" d="M127.5,-143.8314C127.5,-143.8314 127.5,-118.4133 127.5,-118.4133"/>
<polygon fill="#000000" stroke="#000000" points="131.0001,-118.4132 127.5,-108.4133 124.0001,-118.4133 131.0001,-118.4132"/>
</a>
</g>
<text text-anchor="middle" x="135.9524" y="-122.8394" font-family="Times,serif" font-size="14.00" fill="#000000">4.0</text>
</g>
<!-- genotype&#45;sienna -->
<g id="node5" class="node">
<title>genotype&#45;sienna</title>
<path fill="#a0522d" stroke="#333333" d="M107,-36C107,-36 12,-36 12,-36 6,-36 0,-30 0,-24 0,-24 0,-12 0,-12 0,-6 6,0 12,0 12,0 107,0 107,0 113,0 119,-6 119,-12 119,-12 119,-24 119,-24 119,-30 113,-36 107,-36"/>
<text text-anchor="middle" x="59.5" y="-14.3" font-family="lato" font-size="14.00" fill="#ffffff">genotype&#45;sienna</text>
</g>
<!-- genotype&#45;aqua&#45;&#45;genotype&#45;sienna -->
<g id="edge4" class="edge">
<title>genotype&#45;aqua&#45;&#45;genotype&#45;sienna</title>
<g id="a_edge4"><a xlink:title="parent">
<path fill="none" stroke="#000000" d="M96,-71.8314C96,-71.8314 96,-46.4133 96,-46.4133"/>
<polygon fill="#000000" stroke="#000000" points="99.5001,-46.4132 96,-36.4133 92.5001,-46.4133 99.5001,-46.4132"/>
</a>
</g>
<text text-anchor="middle" x="104.4524" y="-50.8394" font-family="Times,serif" font-size="14.00" fill="#000000">4.0</text>
</g>
<!-- genotype&#45;orchid -->
<g id="node6" class="node">
<title>genotype&#45;orchid</title>
<path fill="#da70d6" stroke="#333333" d="M244,-36C244,-36 149,-36 149,-36 143,-36 137,-30 137,-24 137,-24 137,-12 137,-12 137,-6 143,0 149,0 149,0 244,0 244,0 250,0 256,-6 256,-12 256,-12 256,-24 256,-24 256,-30 250,-36 244,-36"/>
<text text-anchor="middle" x="196.5" y="-14.3" font-family="lato" font-size="14.00" fill="#333333">genotype&#45;orchid</text>
</g>
<!-- genotype&#45;aqua&#45;&#45;genotype&#45;orchid -->
<g id="edge5" class="edge">
<title>genotype&#45;aqua&#45;&#45;genotype&#45;orchid</title>
<g id="a_edge5"><a xlink:title="parent">
<path fill="none" stroke="#000000" d="M159.5,-71.8314C159.5,-71.8314 159.5,-46.4133 159.5,-46.4133"/>
<polygon fill="#000000" stroke="#000000" points="163.0001,-46.4132 159.5,-36.4133 156.0001,-46.4133 163.0001,-46.4132"/>
</a>
</g>
<text text-anchor="middle" x="167.9524" y="-50.8394" font-family="Times,serif" font-size="14.00" fill="#000000">3.0</text>
</g>
<!-- genotype&#45;0 -->
<g id="node7" class="node">
<title>genotype&#45;0</title>
<path fill="#d3d3d3" stroke="#000000" d="M229,-324C229,-324 164,-324 164,-324 158,-324 152,-318 152,-312 152,-312 152,-300 152,-300 152,-294 158,-288 164,-288 164,-288 229,-288 229,-288 235,-288 241,-294 241,-300 241,-300 241,-312 241,-312 241,-318 235,-324 229,-324"/>
<text text-anchor="middle" x="196.5" y="-302.3" font-family="lato" font-size="14.00" fill="#000000">genotype&#45;0</text>
</g>
<!-- genotype&#45;0&#45;&#45;genotype&#45;red -->
<g id="edge6" class="edge">
<title>genotype&#45;0&#45;&#45;genotype&#45;red</title>
<g id="a_edge6"><a xlink:title="parent">
<path fill="none" stroke="#000000" d="M196.5,-287.8314C196.5,-287.8314 196.5,-262.4133 196.5,-262.4133"/>
<polygon fill="#000000" stroke="#000000" points="200.0001,-262.4132 196.5,-252.4133 193.0001,-262.4133 200.0001,-262.4132"/>
</a>
</g>
<text text-anchor="middle" x="204.9524" y="-266.8394" font-family="Times,serif" font-size="14.00" fill="#000000">nan</text>
</g>
</g>
</svg>
