<?xml version="1.0" encoding="UTF-8" standalone="no"?>
<!DOCTYPE svg PUBLIC "-//W3C//DTD SVG 1.1//EN"
 "http://www.w3.org/Graphics/SVG/1.1/DTD/svg11.dtd">
<!-- Generated by graphviz version 2.40.1 (20161225.0304)
 -->
<!-- Pages: 1 -->
<svg width="836pt" height="356pt"
 viewBox="0.00 0.00 835.50 356.00" xmlns="http://www.w3.org/2000/svg" xmlns:xlink="http://www.w3.org/1999/xlink">
<g id="graph0" class="graph" transform="scale(1 1) rotate(0) translate(4 352)">
<polygon fill="#ffffff" stroke="transparent" points="-4,4 -4,-352 831.5,-352 831.5,4 -4,4"/>
<!-- genotype&#45;6 -->
<g id="node1" class="node">
<title>genotype&#45;6</title>
<path fill="#911eb4" stroke="#333333" d="M366.5,-261C366.5,-261 286.5,-261 286.5,-261 280.5,-261 274.5,-255 274.5,-249 274.5,-249 274.5,-235 274.5,-235 274.5,-229 280.5,-223 286.5,-223 286.5,-223 366.5,-223 366.5,-223 372.5,-223 378.5,-229 378.5,-235 378.5,-235 378.5,-249 378.5,-249 378.5,-255 372.5,-261 366.5,-261"/>
<text text-anchor="middle" x="326.5" y="-245.8" font-family="lato" font-size="14.00" fill="#ffffff">genotype&#45;6</text>
<text text-anchor="middle" x="326.5" y="-230.8" font-family="lato" font-size="14.00" fill="#ffffff">OGDH R204S</text>
</g>
<!-- genotype&#45;8 -->
<g id="node2" class="node">
<title>genotype&#45;8</title>
<path fill="#f032e6" stroke="#333333" d="M143,-172C143,-172 78,-172 78,-172 72,-172 66,-166 66,-160 66,-160 66,-131 66,-131 66,-125 72,-119 78,-119 78,-119 143,-119 143,-119 149,-119 155,-125 155,-131 155,-131 155,-160 155,-160 155,-166 149,-172 143,-172"/>
<text text-anchor="middle" x="110.5" y="-156.8" font-family="lato" font-size="14.00" fill="#ffffff">genotype&#45;8</text>
<text text-anchor="middle" x="110.5" y="-141.8" font-family="lato" font-size="14.00" fill="#ffffff">manC &#45;1bp</text>
<text text-anchor="middle" x="110.5" y="-126.8" font-family="lato" font-size="14.00" fill="#ffffff">bfr &#45;10bp</text>
</g>
<!-- genotype&#45;6&#45;&#45;genotype&#45;8 -->
<g id="edge1" class="edge">
<title>genotype&#45;6&#45;&#45;genotype&#45;8</title>
<g id="a_edge1"><a xlink:title="Parent">
<path fill="none" stroke="#000000" d="M274.4877,-242C210.5736,-242 110.5,-242 110.5,-242 110.5,-242 110.5,-182.1245 110.5,-182.1245"/>
<polygon fill="#000000" stroke="#000000" points="114.0001,-182.1245 110.5,-172.1245 107.0001,-182.1245 114.0001,-182.1245"/>
</a>
</g>
<text text-anchor="middle" x="118.9524" y="-186.5507" font-family="Times,serif" font-size="14.00" fill="#000000">0.0</text>
</g>
<!-- genotype&#45;7 -->
<g id="node3" class="node">
<title>genotype&#45;7</title>
<path fill="#46f0f0" stroke="#333333" d="M310,-172C310,-172 185,-172 185,-172 179,-172 173,-166 173,-160 173,-160 173,-131 173,-131 173,-125 179,-119 185,-119 185,-119 310,-119 310,-119 316,-119 322,-125 322,-131 322,-131 322,-160 322,-160 322,-166 316,-172 310,-172"/>
<text text-anchor="middle" x="247.5" y="-156.8" font-family="lato" font-size="14.00" fill="#333333">genotype&#45;7</text>
<text text-anchor="middle" x="247.5" y="-141.8" font-family="lato" font-size="14.00" fill="#333333">LysR&#45;like &#45;6:CGATGC</text>
<text text-anchor="middle" x="247.5" y="-126.8" font-family="lato" font-size="14.00" fill="#333333">95 gene deletion d95</text>
</g>
<!-- genotype&#45;6&#45;&#45;genotype&#45;7 -->
<g id="edge2" class="edge">
<title>genotype&#45;6&#45;&#45;genotype&#45;7</title>
<g id="a_edge2"><a xlink:title="Parent">
<path fill="none" stroke="#000000" d="M298.25,-222.9347C298.25,-222.9347 298.25,-182.1965 298.25,-182.1965"/>
<polygon fill="#000000" stroke="#000000" points="301.7501,-182.1964 298.25,-172.1965 294.7501,-182.1965 301.7501,-182.1964"/>
</a>
</g>
<text text-anchor="middle" x="306.7024" y="-186.6226" font-family="Times,serif" font-size="14.00" fill="#000000">0.0</text>
</g>
<!-- genotype&#45;9 -->
<g id="node4" class="node">
<title>genotype&#45;9</title>
<path fill="#bcf60c" stroke="#333333" d="M477,-164.5C477,-164.5 352,-164.5 352,-164.5 346,-164.5 340,-158.5 340,-152.5 340,-152.5 340,-138.5 340,-138.5 340,-132.5 346,-126.5 352,-126.5 352,-126.5 477,-126.5 477,-126.5 483,-126.5 489,-132.5 489,-138.5 489,-138.5 489,-152.5 489,-152.5 489,-158.5 483,-164.5 477,-164.5"/>
<text text-anchor="middle" x="414.5" y="-149.3" font-family="lato" font-size="14.00" fill="#333333">genotype&#45;9</text>
<text text-anchor="middle" x="414.5" y="-134.3" font-family="lato" font-size="14.00" fill="#333333">49 gene deletion d49</text>
</g>
<!-- genotype&#45;6&#45;&#45;genotype&#45;9 -->
<g id="edge3" class="edge">
<title>genotype&#45;6&#45;&#45;genotype&#45;9</title>
<g id="a_edge3"><a xlink:title="Parent">
<path fill="none" stroke="#000000" d="M359.25,-222.9347C359.25,-222.9347 359.25,-174.5257 359.25,-174.5257"/>
<polygon fill="#000000" stroke="#000000" points="362.7501,-174.5257 359.25,-164.5257 355.7501,-174.5257 362.7501,-174.5257"/>
</a>
</g>
<text text-anchor="middle" x="367.7024" y="-178.9518" font-family="Times,serif" font-size="14.00" fill="#000000">0.0</text>
</g>
<!-- genotype&#45;2 -->
<g id="node5" class="node">
<title>genotype&#45;2</title>
<path fill="#3cb44b" stroke="#333333" d="M209,-83C209,-83 12,-83 12,-83 6,-83 0,-77 0,-71 0,-71 0,-12 0,-12 0,-6 6,0 12,0 12,0 209,0 209,0 215,0 221,-6 221,-12 221,-12 221,-71 221,-71 221,-77 215,-83 209,-83"/>
<text text-anchor="middle" x="110.5" y="-67.8" font-family="lato" font-size="14.00" fill="#333333">genotype&#45;2</text>
<text text-anchor="middle" x="110.5" y="-52.8" font-family="lato" font-size="14.00" fill="#333333">DUF88 A209P</text>
<text text-anchor="middle" x="110.5" y="-37.8" font-family="lato" font-size="14.00" fill="#333333">MltA &#45;10bp</text>
<text text-anchor="middle" x="110.5" y="-22.8" font-family="lato" font-size="14.00" fill="#333333">wspD L35P</text>
<text text-anchor="middle" x="110.5" y="-7.8" font-family="lato" font-size="14.00" fill="#333333">succinate dehydrogenase G147G</text>
</g>
<!-- genotype&#45;8&#45;&#45;genotype&#45;2 -->
<g id="edge4" class="edge">
<title>genotype&#45;8&#45;&#45;genotype&#45;2</title>
<g id="a_edge4"><a xlink:title="Parent">
<path fill="none" stroke="#000000" d="M110.5,-118.9873C110.5,-118.9873 110.5,-93.3255 110.5,-93.3255"/>
<polygon fill="#000000" stroke="#000000" points="114.0001,-93.3255 110.5,-83.3255 107.0001,-93.3255 114.0001,-93.3255"/>
</a>
</g>
<text text-anchor="middle" x="118.9524" y="-97.7517" font-family="Times,serif" font-size="14.00" fill="#000000">0.0</text>
</g>
<!-- genotype&#45;1 -->
<g id="node6" class="node">
<title>genotype&#45;1</title>
<path fill="#e6194b" stroke="#333333" d="M579.5,-268.5C579.5,-268.5 447.5,-268.5 447.5,-268.5 441.5,-268.5 435.5,-262.5 435.5,-256.5 435.5,-256.5 435.5,-227.5 435.5,-227.5 435.5,-221.5 441.5,-215.5 447.5,-215.5 447.5,-215.5 579.5,-215.5 579.5,-215.5 585.5,-215.5 591.5,-221.5 591.5,-227.5 591.5,-227.5 591.5,-256.5 591.5,-256.5 591.5,-262.5 585.5,-268.5 579.5,-268.5"/>
<text text-anchor="middle" x="513.5" y="-253.3" font-family="lato" font-size="14.00" fill="#ffffff">genotype&#45;1</text>
<text text-anchor="middle" x="513.5" y="-238.3" font-family="lato" font-size="14.00" fill="#ffffff">yciR Y355D</text>
<text text-anchor="middle" x="513.5" y="-223.3" font-family="lato" font-size="14.00" fill="#ffffff">monoxygenase E481D</text>
</g>
<!-- genotype&#45;4 -->
<g id="node7" class="node">
<title>genotype&#45;4</title>
<path fill="#4363d8" stroke="#333333" d="M588,-172C588,-172 519,-172 519,-172 513,-172 507,-166 507,-160 507,-160 507,-131 507,-131 507,-125 513,-119 519,-119 519,-119 588,-119 588,-119 594,-119 600,-125 600,-131 600,-131 600,-160 600,-160 600,-166 594,-172 588,-172"/>
<text text-anchor="middle" x="553.5" y="-156.8" font-family="lato" font-size="14.00" fill="#ffffff">genotype&#45;4</text>
<text text-anchor="middle" x="553.5" y="-141.8" font-family="lato" font-size="14.00" fill="#ffffff">wspE S726L</text>
<text text-anchor="middle" x="553.5" y="-126.8" font-family="lato" font-size="14.00" fill="#ffffff">bfr &#45;35bp</text>
</g>
<!-- genotype&#45;1&#45;&#45;genotype&#45;4 -->
<g id="edge5" class="edge">
<title>genotype&#45;1&#45;&#45;genotype&#45;4</title>
<g id="a_edge5"><a xlink:title="Parent">
<path fill="none" stroke="#000000" d="M549.25,-215.3755C549.25,-215.3755 549.25,-182.0376 549.25,-182.0376"/>
<polygon fill="#000000" stroke="#000000" points="552.7501,-182.0376 549.25,-172.0376 545.7501,-182.0376 552.7501,-182.0376"/>
</a>
</g>
<text text-anchor="middle" x="557.7024" y="-186.4638" font-family="Times,serif" font-size="14.00" fill="#000000">0.0</text>
</g>
<!-- genotype&#45;5 -->
<g id="node8" class="node">
<title>genotype&#45;5</title>
<path fill="#f58231" stroke="#333333" d="M699.5,-276C699.5,-276 621.5,-276 621.5,-276 615.5,-276 609.5,-270 609.5,-264 609.5,-264 609.5,-220 609.5,-220 609.5,-214 615.5,-208 621.5,-208 621.5,-208 699.5,-208 699.5,-208 705.5,-208 711.5,-214 711.5,-220 711.5,-220 711.5,-264 711.5,-264 711.5,-270 705.5,-276 699.5,-276"/>
<text text-anchor="middle" x="660.5" y="-260.8" font-family="lato" font-size="14.00" fill="#333333">genotype&#45;5</text>
<text text-anchor="middle" x="660.5" y="-245.8" font-family="lato" font-size="14.00" fill="#333333">yciR A106P</text>
<text text-anchor="middle" x="660.5" y="-230.8" font-family="lato" font-size="14.00" fill="#333333">wspA I196N</text>
<text text-anchor="middle" x="660.5" y="-215.8" font-family="lato" font-size="14.00" fill="#333333">rpoC A1318V</text>
</g>
<!-- genotype&#45;3 -->
<g id="node9" class="node">
<title>genotype&#45;3</title>
<path fill="#ffe119" stroke="#333333" d="M815.5,-261C815.5,-261 741.5,-261 741.5,-261 735.5,-261 729.5,-255 729.5,-249 729.5,-249 729.5,-235 729.5,-235 729.5,-229 735.5,-223 741.5,-223 741.5,-223 815.5,-223 815.5,-223 821.5,-223 827.5,-229 827.5,-235 827.5,-235 827.5,-249 827.5,-249 827.5,-255 821.5,-261 815.5,-261"/>
<text text-anchor="middle" x="778.5" y="-245.8" font-family="lato" font-size="14.00" fill="#333333">genotype&#45;3</text>
<text text-anchor="middle" x="778.5" y="-230.8" font-family="lato" font-size="14.00" fill="#333333">wspA A407V</text>
</g>
<!-- genotype&#45;0 -->
<g id="node10" class="node">
<title>genotype&#45;0</title>
<path fill="#d3d3d3" stroke="#000000" d="M619,-348C619,-348 554,-348 554,-348 548,-348 542,-342 542,-336 542,-336 542,-324 542,-324 542,-318 548,-312 554,-312 554,-312 619,-312 619,-312 625,-312 631,-318 631,-324 631,-324 631,-336 631,-336 631,-342 625,-348 619,-348"/>
<text text-anchor="middle" x="586.5" y="-326.3" font-family="lato" font-size="14.00" fill="#000000">genotype&#45;0</text>
</g>
<!-- genotype&#45;0&#45;&#45;genotype&#45;6 -->
<g id="edge6" class="edge">
<title>genotype&#45;0&#45;&#45;genotype&#45;6</title>
<g id="a_edge6"><a xlink:title="Parent">
<path fill="none" stroke="#000000" d="M541.8044,-330C467.4666,-330 326.5,-330 326.5,-330 326.5,-330 326.5,-271.0947 326.5,-271.0947"/>
<polygon fill="#000000" stroke="#000000" points="330.0001,-271.0947 326.5,-261.0947 323.0001,-271.0947 330.0001,-271.0947"/>
</a>
</g>
<text text-anchor="middle" x="334.9524" y="-275.5208" font-family="Times,serif" font-size="14.00" fill="#000000">0.0</text>
</g>
<!-- genotype&#45;0&#45;&#45;genotype&#45;1 -->
<g id="edge7" class="edge">
<title>genotype&#45;0&#45;&#45;genotype&#45;1</title>
<g id="a_edge7"><a xlink:title="Parent">
<path fill="none" stroke="#000000" d="M566.75,-311.7663C566.75,-311.7663 566.75,-278.5596 566.75,-278.5596"/>
<polygon fill="#000000" stroke="#000000" points="570.2501,-278.5595 566.75,-268.5596 563.2501,-278.5596 570.2501,-278.5595"/>
</a>
</g>
<text text-anchor="middle" x="575.2024" y="-282.9857" font-family="Times,serif" font-size="14.00" fill="#000000">0.0</text>
</g>
<!-- genotype&#45;0&#45;&#45;genotype&#45;5 -->
<g id="edge8" class="edge">
<title>genotype&#45;0&#45;&#45;genotype&#45;5</title>
<g id="a_edge8"><a xlink:title="Parent">
<path fill="none" stroke="#000000" d="M620.25,-311.7663C620.25,-311.7663 620.25,-286.216 620.25,-286.216"/>
<polygon fill="#000000" stroke="#000000" points="623.7501,-286.216 620.25,-276.216 616.7501,-286.216 623.7501,-286.216"/>
</a>
</g>
<text text-anchor="middle" x="628.7024" y="-290.6421" font-family="Times,serif" font-size="14.00" fill="#000000">0.0</text>
</g>
<!-- genotype&#45;0&#45;&#45;genotype&#45;3 -->
<g id="edge9" class="edge">
<title>genotype&#45;0&#45;&#45;genotype&#45;3</title>
<g id="a_edge9"><a xlink:title="Parent">
<path fill="none" stroke="#000000" d="M631.0313,-330C687.75,-330 778.5,-330 778.5,-330 778.5,-330 778.5,-271.0947 778.5,-271.0947"/>
<polygon fill="#000000" stroke="#000000" points="782.0001,-271.0947 778.5,-261.0947 775.0001,-271.0947 782.0001,-271.0947"/>
</a>
</g>
<text text-anchor="middle" x="786.9524" y="-275.5208" font-family="Times,serif" font-size="14.00" fill="#000000">0.0</text>
</g>
</g>
</svg>
