<?xml version="1.0" encoding="utf-8" standalone="no"?>
<!DOCTYPE svg PUBLIC "-//W3C//DTD SVG 1.1//EN"
  "http://www.w3.org/Graphics/SVG/1.1/DTD/svg11.dtd">
<!-- Created with matplotlib (https://matplotlib.org/) -->
<svg height="720pt" version="1.1" viewBox="0 0 864 720" width="864pt" xmlns="http://www.w3.org/2000/svg" xmlns:xlink="http://www.w3.org/1999/xlink">
 <defs>
  <style type="text/css">
*{stroke-linecap:butt;stroke-linejoin:round;}
  </style>
 </defs>
 <g id="figure_1">
  <g id="patch_1">
   <path d="M 0 720 
L 864 720 
L 864 0 
L 0 0 
z
" style="fill:#ffffff;"/>
  </g>
  <g id="axes_1">
   <g id="patch_2">
    <path d="M 108 640.8 
L 777.6 640.8 
L 777.6 86.4 
L 108 86.4 
z
" style="fill:#ffffff;"/>
   </g>
   <g id="matplotlib.axis_1">
    <g id="xtick_1">
     <g id="line2d_1"/>
     <g id="text_1">
      <text style="fill:#262626;font-family:Liberation Sans;font-size:18px;font-style:normal;font-weight:normal;text-anchor:middle;" transform="rotate(-0, 108, 657.344375)" x="108" y="657.344375">0</text>
     </g>
    </g>
    <g id="xtick_2">
     <g id="line2d_2"/>
     <g id="text_2">
      <text style="fill:#262626;font-family:Liberation Sans;font-size:18px;font-style:normal;font-weight:normal;text-anchor:middle;" transform="rotate(-0, 182.4, 657.344375)" x="182.4" y="657.344375">10</text>
     </g>
    </g>
    <g id="xtick_3">
     <g id="line2d_3"/>
     <g id="text_3">
      <text style="fill:#262626;font-family:Liberation Sans;font-size:18px;font-style:normal;font-weight:normal;text-anchor:middle;" transform="rotate(-0, 256.8, 657.344375)" x="256.8" y="657.344375">20</text>
     </g>
    </g>
    <g id="xtick_4">
     <g id="line2d_4"/>
     <g id="text_4">
      <text style="fill:#262626;font-family:Liberation Sans;font-size:18px;font-style:normal;font-weight:normal;text-anchor:middle;" transform="rotate(-0, 331.2, 657.344375)" x="331.2" y="657.344375">30</text>
     </g>
    </g>
    <g id="xtick_5">
     <g id="line2d_5"/>
     <g id="text_5">
      <text style="fill:#262626;font-family:Liberation Sans;font-size:18px;font-style:normal;font-weight:normal;text-anchor:middle;" transform="rotate(-0, 405.6, 657.344375)" x="405.6" y="657.344375">40</text>
     </g>
    </g>
    <g id="xtick_6">
     <g id="line2d_6"/>
     <g id="text_6">
      <text style="fill:#262626;font-family:Liberation Sans;font-size:18px;font-style:normal;font-weight:normal;text-anchor:middle;" transform="rotate(-0, 480, 657.344375)" x="480" y="657.344375">50</text>
     </g>
    </g>
    <g id="xtick_7">
     <g id="line2d_7"/>
     <g id="text_7">
      <text style="fill:#262626;font-family:Liberation Sans;font-size:18px;font-style:normal;font-weight:normal;text-anchor:middle;" transform="rotate(-0, 554.4, 657.344375)" x="554.4" y="657.344375">60</text>
     </g>
    </g>
    <g id="xtick_8">
     <g id="line2d_8"/>
     <g id="text_8">
      <text style="fill:#262626;font-family:Liberation Sans;font-size:18px;font-style:normal;font-weight:normal;text-anchor:middle;" transform="rotate(-0, 628.8, 657.344375)" x="628.8" y="657.344375">70</text>
     </g>
    </g>
    <g id="xtick_9">
     <g id="line2d_9"/>
     <g id="text_9">
      <text style="fill:#262626;font-family:Liberation Sans;font-size:18px;font-style:normal;font-weight:normal;text-anchor:middle;" transform="rotate(-0, 703.2, 657.344375)" x="703.2" y="657.344375">80</text>
     </g>
    </g>
    <g id="xtick_10">
     <g id="line2d_10"/>
     <g id="text_10">
      <text style="fill:#262626;font-family:Liberation Sans;font-size:18px;font-style:normal;font-weight:normal;text-anchor:middle;" transform="rotate(-0, 777.6, 657.344375)" x="777.6" y="657.344375">90</text>
     </g>
    </g>
    <g id="text_11">
     <text style="fill:#262626;font-family:Liberation Sans;font-size:24px;font-style:normal;font-weight:normal;text-anchor:middle;" transform="rotate(-0, 442.8, 682.471875)" x="442.8" y="682.471875">Generation</text>
    </g>
   </g>
   <g id="matplotlib.axis_2">
    <g id="ytick_1">
     <g id="line2d_11"/>
     <g id="text_12">
      <text style="fill:#262626;font-family:Liberation Sans;font-size:18px;font-style:normal;font-weight:normal;text-anchor:end;" transform="rotate(-0, 104.5, 647.322188)" x="104.5" y="647.322188">0.0</text>
     </g>
    </g>
    <g id="ytick_2">
     <g id="line2d_12"/>
     <g id="text_13">
      <text style="fill:#262626;font-family:Liberation Sans;font-size:18px;font-style:normal;font-weight:normal;text-anchor:end;" transform="rotate(-0, 104.5, 536.442188)" x="104.5" y="536.442188">0.2</text>
     </g>
    </g>
    <g id="ytick_3">
     <g id="line2d_13"/>
     <g id="text_14">
      <text style="fill:#262626;font-family:Liberation Sans;font-size:18px;font-style:normal;font-weight:normal;text-anchor:end;" transform="rotate(-0, 104.5, 425.562187)" x="104.5" y="425.562187">0.4</text>
     </g>
    </g>
    <g id="ytick_4">
     <g id="line2d_14"/>
     <g id="text_15">
      <text style="fill:#262626;font-family:Liberation Sans;font-size:18px;font-style:normal;font-weight:normal;text-anchor:end;" transform="rotate(-0, 104.5, 314.682187)" x="104.5" y="314.682187">0.6</text>
     </g>
    </g>
    <g id="ytick_5">
     <g id="line2d_15"/>
     <g id="text_16">
      <text style="fill:#262626;font-family:Liberation Sans;font-size:18px;font-style:normal;font-weight:normal;text-anchor:end;" transform="rotate(-0, 104.5, 203.802187)" x="104.5" y="203.802187">0.8</text>
     </g>
    </g>
    <g id="ytick_6">
     <g id="line2d_16"/>
     <g id="text_17">
      <text style="fill:#262626;font-family:Liberation Sans;font-size:18px;font-style:normal;font-weight:normal;text-anchor:end;" transform="rotate(-0, 104.5, 92.922187)" x="104.5" y="92.922187">1.0</text>
     </g>
    </g>
    <g id="text_18">
     <text style="fill:#262626;font-family:Liberation Sans;font-size:24px;font-style:normal;font-weight:normal;text-anchor:middle;" transform="rotate(-90, 70.5, 363.6)" x="70.5" y="363.6">Frequency</text>
    </g>
   </g>
   <g id="PolyCollection_1">
    <defs>
     <path d="M 108 -79.2 
L 108 -79.2 
L 219.6 -79.2 
L 331.2 -79.2 
L 387 -79.2 
L 442.8 -79.2 
L 554.4 -79.2 
L 666 -79.2 
L 777.6 -79.2 
L 777.6 -79.2 
L 777.6 -79.2 
L 666 -79.2 
L 554.4 -79.2 
L 442.8 -79.2 
L 387 -137.452997 
L 331.2 -185.8758 
L 219.6 -356.4 
L 108 -356.4 
z
" id="mf01d0f60cc" style="stroke:#ffffff;stroke-width:2;"/>
    </defs>
    <g clip-path="url(#p4436dda186)">
     <use style="fill:#ffffff;stroke:#ffffff;stroke-width:2;" x="0" xlink:href="#mf01d0f60cc" y="720"/>
    </g>
   </g>
   <g id="PolyCollection_2">
    <defs>
     <path d="M 108 -356.4 
L 108 -356.4 
L 219.6 -356.4 
L 331.2 -185.8758 
L 387 -137.452997 
L 442.8 -79.2 
L 554.4 -79.2 
L 666 -79.2 
L 777.6 -79.2 
L 777.6 -79.2 
L 777.6 -81.982667 
L 666 -79.2 
L 554.4 -79.2 
L 442.8 -79.2 
L 387 -137.452997 
L 331.2 -185.8758 
L 219.6 -356.4 
L 108 -356.4 
z
" id="m4867b47b0b" style="stroke:#ffffff;stroke-width:2;"/>
    </defs>
    <g clip-path="url(#p4436dda186)">
     <use style="fill:#ffe119;stroke:#ffffff;stroke-width:2;" x="0" xlink:href="#m4867b47b0b" y="720"/>
    </g>
   </g>
   <g id="PolyCollection_3">
    <defs>
     <path d="M 108 -356.4 
L 108 -356.4 
L 219.6 -356.4 
L 331.2 -185.8758 
L 387 -137.452997 
L 442.8 -79.2 
L 554.4 -79.2 
L 666 -79.2 
L 777.6 -81.982667 
L 777.6 -81.982667 
L 777.6 -83.374 
L 666 -83.575514 
L 554.4 -86.109436 
L 442.8 -102.550181 
L 387 -161.321611 
L 331.2 -205.330201 
L 219.6 -356.4 
L 108 -356.4 
z
" id="me049eab2ff" style="stroke:#ffffff;stroke-width:2;"/>
    </defs>
    <g clip-path="url(#p4436dda186)">
     <use style="fill:#911eb4;stroke:#ffffff;stroke-width:2;" x="0" xlink:href="#me049eab2ff" y="720"/>
    </g>
   </g>
   <g id="PolyCollection_4">
    <defs>
     <path d="M 108 -356.4 
L 108 -356.4 
L 219.6 -356.4 
L 331.2 -205.330201 
L 387 -161.321611 
L 442.8 -102.550181 
L 554.4 -86.109436 
L 666 -83.575514 
L 777.6 -83.374 
L 777.6 -83.374 
L 777.6 -113.983336 
L 666 -83.575514 
L 554.4 -86.109436 
L 442.8 -102.550181 
L 387 -161.321611 
L 331.2 -205.330201 
L 219.6 -356.4 
L 108 -356.4 
z
" id="md7c4b52eaf" style="stroke:#ffffff;stroke-width:2;"/>
    </defs>
    <g clip-path="url(#p4436dda186)">
     <use style="fill:#bcf60c;stroke:#ffffff;stroke-width:2;" x="0" xlink:href="#md7c4b52eaf" y="720"/>
    </g>
   </g>
   <g id="PolyCollection_5">
    <defs>
     <path d="M 108 -356.4 
L 108 -356.4 
L 219.6 -356.4 
L 331.2 -205.330201 
L 387 -161.321611 
L 442.8 -102.550181 
L 554.4 -86.109436 
L 666 -83.575514 
L 777.6 -113.983336 
L 777.6 -113.983336 
L 777.6 -210.611444 
L 666 -215.05128 
L 554.4 -228.904451 
L 442.8 -157.923466 
L 387 -161.321611 
L 331.2 -205.330201 
L 219.6 -356.4 
L 108 -356.4 
z
" id="mbf0007321e" style="stroke:#ffffff;stroke-width:2;"/>
    </defs>
    <g clip-path="url(#p4436dda186)">
     <use style="fill:#f032e6;stroke:#ffffff;stroke-width:2;" x="0" xlink:href="#mbf0007321e" y="720"/>
    </g>
   </g>
   <g id="PolyCollection_6">
    <defs>
     <path d="M 108 -356.4 
L 108 -356.4 
L 219.6 -356.4 
L 331.2 -205.330201 
L 387 -161.321611 
L 442.8 -157.923466 
L 554.4 -228.904451 
L 666 -215.05128 
L 777.6 -210.611444 
L 777.6 -210.611444 
L 777.6 -283.795583 
L 666 -215.05128 
L 554.4 -228.904451 
L 442.8 -157.923466 
L 387 -161.321611 
L 331.2 -205.330201 
L 219.6 -356.4 
L 108 -356.4 
z
" id="mb85c46181f" style="stroke:#ffffff;stroke-width:2;"/>
    </defs>
    <g clip-path="url(#p4436dda186)">
     <use style="fill:#3cb44b;stroke:#ffffff;stroke-width:2;" x="0" xlink:href="#mb85c46181f" y="720"/>
    </g>
   </g>
   <g id="PolyCollection_7">
    <defs>
     <path d="M 108 -356.4 
L 108 -356.4 
L 219.6 -356.4 
L 331.2 -205.330201 
L 387 -161.321611 
L 442.8 -157.923466 
L 554.4 -228.904451 
L 666 -215.05128 
L 777.6 -283.795583 
L 777.6 -283.795583 
L 777.6 -380.423691 
L 666 -346.527046 
L 554.4 -371.699466 
L 442.8 -213.296751 
L 387 -161.321611 
L 331.2 -205.330201 
L 219.6 -356.4 
L 108 -356.4 
z
" id="md3d2262244" style="stroke:#ffffff;stroke-width:2;"/>
    </defs>
    <g clip-path="url(#p4436dda186)">
     <use style="fill:#f032e6;stroke:#ffffff;stroke-width:2;" x="0" xlink:href="#md3d2262244" y="720"/>
    </g>
   </g>
   <g id="PolyCollection_8">
    <defs>
     <path d="M 108 -356.4 
L 108 -356.4 
L 219.6 -356.4 
L 331.2 -205.330201 
L 387 -161.321611 
L 442.8 -213.296751 
L 554.4 -371.699466 
L 666 -346.527046 
L 777.6 -380.423691 
L 777.6 -380.423691 
L 777.6 -618.063443 
L 666 -604.682343 
L 554.4 -595.433591 
L 442.8 -460.141516 
L 387 -330.65185 
L 331.2 -259.006199 
L 219.6 -356.4 
L 108 -356.4 
z
" id="mfe31f81748" style="stroke:#ffffff;stroke-width:2;"/>
    </defs>
    <g clip-path="url(#p4436dda186)">
     <use style="fill:#46f0f0;stroke:#ffffff;stroke-width:2;" x="0" xlink:href="#mfe31f81748" y="720"/>
    </g>
   </g>
   <g id="PolyCollection_9">
    <defs>
     <path d="M 108 -356.4 
L 108 -356.4 
L 219.6 -356.4 
L 331.2 -259.006199 
L 387 -330.65185 
L 442.8 -460.141516 
L 554.4 -595.433591 
L 666 -604.682343 
L 777.6 -618.063443 
L 777.6 -618.063443 
L 777.6 -619.454777 
L 666 -609.057857 
L 554.4 -602.343027 
L 442.8 -483.491697 
L 387 -354.520464 
L 331.2 -278.4606 
L 219.6 -356.4 
L 108 -356.4 
z
" id="m51d0c4e5fa" style="stroke:#ffffff;stroke-width:2;"/>
    </defs>
    <g clip-path="url(#p4436dda186)">
     <use style="fill:#911eb4;stroke:#ffffff;stroke-width:2;" x="0" xlink:href="#m51d0c4e5fa" y="720"/>
    </g>
   </g>
   <g id="PolyCollection_10">
    <defs>
     <path d="M 108 -356.4 
L 108 -356.4 
L 219.6 -356.4 
L 331.2 -278.4606 
L 387 -354.520464 
L 442.8 -483.491697 
L 554.4 -602.343027 
L 666 -609.057857 
L 777.6 -619.454777 
L 777.6 -619.454777 
L 777.6 -620.382332 
L 666 -609.61882 
L 554.4 -602.343027 
L 442.8 -483.491697 
L 387 -388.932369 
L 331.2 -341.4774 
L 219.6 -356.4 
L 108 -356.4 
z
" id="m0bf7361e4a" style="stroke:#ffffff;stroke-width:2;"/>
    </defs>
    <g clip-path="url(#p4436dda186)">
     <use style="fill:#f58231;stroke:#ffffff;stroke-width:2;" x="0" xlink:href="#m0bf7361e4a" y="720"/>
    </g>
   </g>
   <g id="PolyCollection_11">
    <defs>
     <path d="M 108 -356.4 
L 108 -356.4 
L 219.6 -356.4 
L 331.2 -341.4774 
L 387 -388.932369 
L 442.8 -483.491697 
L 554.4 -602.343027 
L 666 -609.61882 
L 777.6 -620.382332 
L 777.6 -620.382332 
L 777.6 -621.773666 
L 666 -615.929657 
L 554.4 -613.036202 
L 442.8 -494.499639 
L 387 -445.053543 
L 331.2 -432.8148 
L 219.6 -356.4 
L 108 -356.4 
z
" id="m2e292f5257" style="stroke:#ffffff;stroke-width:2;"/>
    </defs>
    <g clip-path="url(#p4436dda186)">
     <use style="fill:#e6194b;stroke:#ffffff;stroke-width:2;" x="0" xlink:href="#m2e292f5257" y="720"/>
    </g>
   </g>
   <g id="PolyCollection_12">
    <defs>
     <path d="M 108 -356.4 
L 108 -356.4 
L 219.6 -356.4 
L 331.2 -432.8148 
L 387 -445.053543 
L 442.8 -494.499639 
L 554.4 -613.036202 
L 666 -615.929657 
L 777.6 -621.773666 
L 777.6 -621.773666 
L 777.6 -632.208667 
L 666 -627.289163 
L 554.4 -622.906825 
L 442.8 -622.592058 
L 387 -519.225829 
L 331.2 -435.5868 
L 219.6 -356.4 
L 108 -356.4 
z
" id="mcdbe2333db" style="stroke:#ffffff;stroke-width:2;"/>
    </defs>
    <g clip-path="url(#p4436dda186)">
     <use style="fill:#4363d8;stroke:#ffffff;stroke-width:2;" x="0" xlink:href="#mcdbe2333db" y="720"/>
    </g>
   </g>
   <g id="PolyCollection_13">
    <defs>
     <path d="M 108 -356.4 
L 108 -356.4 
L 219.6 -356.4 
L 331.2 -435.5868 
L 387 -519.225829 
L 442.8 -622.592058 
L 554.4 -622.906825 
L 666 -627.289163 
L 777.6 -632.208667 
L 777.6 -632.208667 
L 777.6 -633.6 
L 666 -633.6 
L 554.4 -633.6 
L 442.8 -633.6 
L 387 -575.347003 
L 331.2 -526.9242 
L 219.6 -356.4 
L 108 -356.4 
z
" id="m5409f9cb36" style="stroke:#ffffff;stroke-width:2;"/>
    </defs>
    <g clip-path="url(#p4436dda186)">
     <use style="fill:#e6194b;stroke:#ffffff;stroke-width:2;" x="0" xlink:href="#m5409f9cb36" y="720"/>
    </g>
   </g>
   <g id="PolyCollection_14">
    <defs>
     <path d="M 108 -356.4 
L 108 -356.4 
L 219.6 -356.4 
L 331.2 -526.9242 
L 387 -575.347003 
L 442.8 -633.6 
L 554.4 -633.6 
L 666 -633.6 
L 777.6 -633.6 
L 777.6 -633.6 
L 777.6 -633.6 
L 666 -633.6 
L 554.4 -633.6 
L 442.8 -633.6 
L 387 -633.6 
L 331.2 -633.6 
L 219.6 -633.6 
L 108 -633.6 
z
" id="mca153f410c" style="stroke:#ffffff;stroke-width:2;"/>
    </defs>
    <g clip-path="url(#p4436dda186)">
     <use style="fill:#ffffff;stroke:#ffffff;stroke-width:2;" x="0" xlink:href="#mca153f410c" y="720"/>
    </g>
   </g>
   <g id="patch_3">
    <path d="M 108 640.8 
L 108 86.4 
" style="fill:none;stroke:#262626;stroke-linecap:square;stroke-linejoin:miter;stroke-width:1.25;"/>
   </g>
   <g id="patch_4">
    <path d="M 108 640.8 
L 777.6 640.8 
" style="fill:none;stroke:#262626;stroke-linecap:square;stroke-linejoin:miter;stroke-width:1.25;"/>
   </g>
  </g>
 </g>
 <defs>
  <clipPath id="p4436dda186">
   <rect height="554.4" width="669.6" x="108" y="86.4"/>
  </clipPath>
 </defs>
</svg>
