<?xml version="1.0" encoding="utf-8" standalone="no"?>
<!DOCTYPE svg PUBLIC "-//W3C//DTD SVG 1.1//EN"
  "http://www.w3.org/Graphics/SVG/1.1/DTD/svg11.dtd">
<!-- Created with matplotlib (https://matplotlib.org/) -->
<svg height="720pt" version="1.1" viewBox="0 0 864 720" width="864pt" xmlns="http://www.w3.org/2000/svg" xmlns:xlink="http://www.w3.org/1999/xlink">
 <defs>
  <style type="text/css">
*{stroke-linecap:butt;stroke-linejoin:round;}
  </style>
 </defs>
 <g id="figure_1">
  <g id="patch_1">
   <path d="M 0 720 
L 864 720 
L 864 0 
L 0 0 
z
" style="fill:#ffffff;"/>
  </g>
  <g id="axes_1">
   <g id="patch_2">
    <path d="M 108 640.8 
L 777.6 640.8 
L 777.6 86.4 
L 108 86.4 
z
" style="fill:#ffffff;"/>
   </g>
   <g id="matplotlib.axis_1">
    <g id="xtick_1">
     <g id="line2d_1"/>
     <g id="text_1">
      <text style="fill:#262626;font-family:Liberation Sans;font-size:18px;font-style:normal;font-weight:normal;text-anchor:middle;" transform="rotate(-0, 108, 657.344375)" x="108" y="657.344375">0</text>
     </g>
    </g>
    <g id="xtick_2">
     <g id="line2d_2"/>
     <g id="text_2">
      <text style="fill:#262626;font-family:Liberation Sans;font-size:18px;font-style:normal;font-weight:normal;text-anchor:middle;" transform="rotate(-0, 182.4, 657.344375)" x="182.4" y="657.344375">10</text>
     </g>
    </g>
    <g id="xtick_3">
     <g id="line2d_3"/>
     <g id="text_3">
      <text style="fill:#262626;font-family:Liberation Sans;font-size:18px;font-style:normal;font-weight:normal;text-anchor:middle;" transform="rotate(-0, 256.8, 657.344375)" x="256.8" y="657.344375">20</text>
     </g>
    </g>
    <g id="xtick_4">
     <g id="line2d_4"/>
     <g id="text_4">
      <text style="fill:#262626;font-family:Liberation Sans;font-size:18px;font-style:normal;font-weight:normal;text-anchor:middle;" transform="rotate(-0, 331.2, 657.344375)" x="331.2" y="657.344375">30</text>
     </g>
    </g>
    <g id="xtick_5">
     <g id="line2d_5"/>
     <g id="text_5">
      <text style="fill:#262626;font-family:Liberation Sans;font-size:18px;font-style:normal;font-weight:normal;text-anchor:middle;" transform="rotate(-0, 405.6, 657.344375)" x="405.6" y="657.344375">40</text>
     </g>
    </g>
    <g id="xtick_6">
     <g id="line2d_6"/>
     <g id="text_6">
      <text style="fill:#262626;font-family:Liberation Sans;font-size:18px;font-style:normal;font-weight:normal;text-anchor:middle;" transform="rotate(-0, 480, 657.344375)" x="480" y="657.344375">50</text>
     </g>
    </g>
    <g id="xtick_7">
     <g id="line2d_7"/>
     <g id="text_7">
      <text style="fill:#262626;font-family:Liberation Sans;font-size:18px;font-style:normal;font-weight:normal;text-anchor:middle;" transform="rotate(-0, 554.4, 657.344375)" x="554.4" y="657.344375">60</text>
     </g>
    </g>
    <g id="xtick_8">
     <g id="line2d_8"/>
     <g id="text_8">
      <text style="fill:#262626;font-family:Liberation Sans;font-size:18px;font-style:normal;font-weight:normal;text-anchor:middle;" transform="rotate(-0, 628.8, 657.344375)" x="628.8" y="657.344375">70</text>
     </g>
    </g>
    <g id="xtick_9">
     <g id="line2d_9"/>
     <g id="text_9">
      <text style="fill:#262626;font-family:Liberation Sans;font-size:18px;font-style:normal;font-weight:normal;text-anchor:middle;" transform="rotate(-0, 703.2, 657.344375)" x="703.2" y="657.344375">80</text>
     </g>
    </g>
    <g id="xtick_10">
     <g id="line2d_10"/>
     <g id="text_10">
      <text style="fill:#262626;font-family:Liberation Sans;font-size:18px;font-style:normal;font-weight:normal;text-anchor:middle;" transform="rotate(-0, 777.6, 657.344375)" x="777.6" y="657.344375">90</text>
     </g>
    </g>
    <g id="text_11">
     <text style="fill:#262626;font-family:Liberation Sans;font-size:24px;font-style:normal;font-weight:normal;text-anchor:middle;" transform="rotate(-0, 442.8, 682.471875)" x="442.8" y="682.471875">Generation</text>
    </g>
   </g>
   <g id="matplotlib.axis_2">
    <g id="ytick_1">
     <g id="line2d_11"/>
     <g id="text_12">
      <text style="fill:#262626;font-family:Liberation Sans;font-size:18px;font-style:normal;font-weight:normal;text-anchor:end;" transform="rotate(-0, 104.5, 647.322188)" x="104.5" y="647.322188">0.0</text>
     </g>
    </g>
    <g id="ytick_2">
     <g id="line2d_12"/>
     <g id="text_13">
      <text style="fill:#262626;font-family:Liberation Sans;font-size:18px;font-style:normal;font-weight:normal;text-anchor:end;" transform="rotate(-0, 104.5, 537.540009)" x="104.5" y="537.540009">0.2</text>
     </g>
    </g>
    <g id="ytick_3">
     <g id="line2d_13"/>
     <g id="text_14">
      <text style="fill:#262626;font-family:Liberation Sans;font-size:18px;font-style:normal;font-weight:normal;text-anchor:end;" transform="rotate(-0, 104.5, 427.757831)" x="104.5" y="427.757831">0.4</text>
     </g>
    </g>
    <g id="ytick_4">
     <g id="line2d_14"/>
     <g id="text_15">
      <text style="fill:#262626;font-family:Liberation Sans;font-size:18px;font-style:normal;font-weight:normal;text-anchor:end;" transform="rotate(-0, 104.5, 317.975653)" x="104.5" y="317.975653">0.6</text>
     </g>
    </g>
    <g id="ytick_5">
     <g id="line2d_15"/>
     <g id="text_16">
      <text style="fill:#262626;font-family:Liberation Sans;font-size:18px;font-style:normal;font-weight:normal;text-anchor:end;" transform="rotate(-0, 104.5, 208.193475)" x="104.5" y="208.193475">0.8</text>
     </g>
    </g>
    <g id="ytick_6">
     <g id="line2d_16"/>
     <g id="text_17">
      <text style="fill:#262626;font-family:Liberation Sans;font-size:18px;font-style:normal;font-weight:normal;text-anchor:end;" transform="rotate(-0, 104.5, 98.411296)" x="104.5" y="98.411296">1.0</text>
     </g>
    </g>
    <g id="text_18">
     <text style="fill:#262626;font-family:Liberation Sans;font-size:24px;font-style:normal;font-weight:normal;text-anchor:middle;" transform="rotate(-90, 70.5, 363.6)" x="70.5" y="363.6">Frequency</text>
    </g>
   </g>
   <g id="line2d_17">
    <path clip-path="url(#pb01512c6b5)" d="M 108 640.8 
L 331.2 549.131881 
L 442.8 338.89901 
L 554.4 141.291089 
L 777.6 107.258614 
" style="fill:none;stroke:#911eb4;stroke-linecap:round;stroke-width:2;"/>
    <defs>
     <path d="M 0 2 
C 0.530406 2 1.03916 1.789267 1.414214 1.414214 
C 1.789267 1.03916 2 0.530406 2 0 
C 2 -0.530406 1.789267 -1.03916 1.414214 -1.414214 
C 1.03916 -1.789267 0.530406 -2 0 -2 
C -0.530406 -2 -1.03916 -1.789267 -1.414214 -1.414214 
C -1.789267 -1.03916 -2 -0.530406 -2 0 
C -2 0.530406 -1.789267 1.03916 -1.414214 1.414214 
C -1.03916 1.789267 -0.530406 2 0 2 
z
" id="ma5a088ec90" style="stroke:#911eb4;"/>
    </defs>
    <g clip-path="url(#pb01512c6b5)">
     <use style="fill:#911eb4;stroke:#911eb4;" x="108" xlink:href="#ma5a088ec90" y="640.8"/>
     <use style="fill:#911eb4;stroke:#911eb4;" x="331.2" xlink:href="#ma5a088ec90" y="549.131881"/>
     <use style="fill:#911eb4;stroke:#911eb4;" x="442.8" xlink:href="#ma5a088ec90" y="338.89901"/>
     <use style="fill:#911eb4;stroke:#911eb4;" x="554.4" xlink:href="#ma5a088ec90" y="141.291089"/>
     <use style="fill:#911eb4;stroke:#911eb4;" x="777.6" xlink:href="#ma5a088ec90" y="107.258614"/>
    </g>
   </g>
   <g id="line2d_18">
    <path clip-path="url(#pb01512c6b5)" d="M 108 640.8 
L 331.2 635.310891 
L 442.8 526.90099 
L 554.4 164.345347 
L 777.6 115.217822 
" style="fill:none;stroke:#f032e6;stroke-linecap:round;stroke-width:2;"/>
    <defs>
     <path d="M 0 2 
C 0.530406 2 1.03916 1.789267 1.414214 1.414214 
C 1.789267 1.03916 2 0.530406 2 0 
C 2 -0.530406 1.789267 -1.03916 1.414214 -1.414214 
C 1.03916 -1.789267 0.530406 -2 0 -2 
C -0.530406 -2 -1.03916 -1.789267 -1.414214 -1.414214 
C -1.789267 -1.03916 -2 -0.530406 -2 0 
C -2 0.530406 -1.789267 1.03916 -1.414214 1.414214 
C -1.03916 1.789267 -0.530406 2 0 2 
z
" id="ma03cefa7c7" style="stroke:#f032e6;"/>
    </defs>
    <g clip-path="url(#pb01512c6b5)">
     <use style="fill:#f032e6;stroke:#f032e6;" x="108" xlink:href="#ma03cefa7c7" y="640.8"/>
     <use style="fill:#f032e6;stroke:#f032e6;" x="331.2" xlink:href="#ma03cefa7c7" y="635.310891"/>
     <use style="fill:#f032e6;stroke:#f032e6;" x="442.8" xlink:href="#ma03cefa7c7" y="526.90099"/>
     <use style="fill:#f032e6;stroke:#f032e6;" x="554.4" xlink:href="#ma03cefa7c7" y="164.345347"/>
     <use style="fill:#f032e6;stroke:#f032e6;" x="777.6" xlink:href="#ma03cefa7c7" y="115.217822"/>
    </g>
   </g>
   <g id="line2d_19">
    <path clip-path="url(#pb01512c6b5)" d="M 108 640.8 
L 331.2 587.655447 
L 442.8 386.928713 
L 554.4 267.540594 
L 777.6 172.030099 
" style="fill:none;stroke:#46f0f0;stroke-linecap:round;stroke-width:2;"/>
    <defs>
     <path d="M 0 2 
C 0.530406 2 1.03916 1.789267 1.414214 1.414214 
C 1.789267 1.03916 2 0.530406 2 0 
C 2 -0.530406 1.789267 -1.03916 1.414214 -1.414214 
C 1.03916 -1.789267 0.530406 -2 0 -2 
C -0.530406 -2 -1.03916 -1.789267 -1.414214 -1.414214 
C -1.789267 -1.03916 -2 -0.530406 -2 0 
C -2 0.530406 -1.789267 1.03916 -1.414214 1.414214 
C -1.03916 1.789267 -0.530406 2 0 2 
z
" id="m34322d2ce8" style="stroke:#46f0f0;"/>
    </defs>
    <g clip-path="url(#pb01512c6b5)">
     <use style="fill:#46f0f0;stroke:#46f0f0;" x="108" xlink:href="#m34322d2ce8" y="640.8"/>
     <use style="fill:#46f0f0;stroke:#46f0f0;" x="331.2" xlink:href="#m34322d2ce8" y="587.655447"/>
     <use style="fill:#46f0f0;stroke:#46f0f0;" x="442.8" xlink:href="#m34322d2ce8" y="386.928713"/>
     <use style="fill:#46f0f0;stroke:#46f0f0;" x="554.4" xlink:href="#m34322d2ce8" y="267.540594"/>
     <use style="fill:#46f0f0;stroke:#46f0f0;" x="777.6" xlink:href="#m34322d2ce8" y="172.030099"/>
    </g>
   </g>
   <g id="line2d_20">
    <path clip-path="url(#pb01512c6b5)" d="M 108 640.8 
L 331.2 457.189307 
L 442.8 486.418812 
L 554.4 588.653465 
L 777.6 616.09901 
" style="fill:none;stroke:#e6194b;stroke-linecap:round;stroke-width:2;"/>
    <defs>
     <path d="M 0 2 
C 0.530406 2 1.03916 1.789267 1.414214 1.414214 
C 1.789267 1.03916 2 0.530406 2 0 
C 2 -0.530406 1.789267 -1.03916 1.414214 -1.414214 
C 1.03916 -1.789267 0.530406 -2 0 -2 
C -0.530406 -2 -1.03916 -1.789267 -1.414214 -1.414214 
C -1.789267 -1.03916 -2 -0.530406 -2 0 
C -2 0.530406 -1.789267 1.03916 -1.414214 1.414214 
C -1.03916 1.789267 -0.530406 2 0 2 
z
" id="m01a9184df3" style="stroke:#e6194b;"/>
    </defs>
    <g clip-path="url(#pb01512c6b5)">
     <use style="fill:#e6194b;stroke:#e6194b;" x="108" xlink:href="#m01a9184df3" y="640.8"/>
     <use style="fill:#e6194b;stroke:#e6194b;" x="331.2" xlink:href="#m01a9184df3" y="457.189307"/>
     <use style="fill:#e6194b;stroke:#e6194b;" x="442.8" xlink:href="#m01a9184df3" y="486.418812"/>
     <use style="fill:#e6194b;stroke:#e6194b;" x="554.4" xlink:href="#m01a9184df3" y="588.653465"/>
     <use style="fill:#e6194b;stroke:#e6194b;" x="777.6" xlink:href="#m01a9184df3" y="616.09901"/>
    </g>
   </g>
   <g id="line2d_21">
    <path clip-path="url(#pb01512c6b5)" d="M 108 640.8 
L 331.2 638.055446 
L 442.8 509.061386 
L 554.4 624.332673 
L 777.6 620.215842 
" style="fill:none;stroke:#4363d8;stroke-linecap:round;stroke-width:2;"/>
    <defs>
     <path d="M 0 2 
C 0.530406 2 1.03916 1.789267 1.414214 1.414214 
C 1.789267 1.03916 2 0.530406 2 0 
C 2 -0.530406 1.789267 -1.03916 1.414214 -1.414214 
C 1.03916 -1.789267 0.530406 -2 0 -2 
C -0.530406 -2 -1.03916 -1.789267 -1.414214 -1.414214 
C -1.789267 -1.03916 -2 -0.530406 -2 0 
C -2 0.530406 -1.789267 1.03916 -1.414214 1.414214 
C -1.03916 1.789267 -0.530406 2 0 2 
z
" id="m00c382365b" style="stroke:#4363d8;"/>
    </defs>
    <g clip-path="url(#pb01512c6b5)">
     <use style="fill:#4363d8;stroke:#4363d8;" x="108" xlink:href="#m00c382365b" y="640.8"/>
     <use style="fill:#4363d8;stroke:#4363d8;" x="331.2" xlink:href="#m00c382365b" y="638.055446"/>
     <use style="fill:#4363d8;stroke:#4363d8;" x="442.8" xlink:href="#m00c382365b" y="509.061386"/>
     <use style="fill:#4363d8;stroke:#4363d8;" x="554.4" xlink:href="#m00c382365b" y="624.332673"/>
     <use style="fill:#4363d8;stroke:#4363d8;" x="777.6" xlink:href="#m00c382365b" y="620.215842"/>
    </g>
   </g>
   <g id="line2d_22">
    <path clip-path="url(#pb01512c6b5)" d="M 108 640.8 
L 331.2 640.8 
L 442.8 640.8 
L 554.4 640.8 
L 777.6 496.436436 
" style="fill:none;stroke:#3cb44b;stroke-linecap:round;stroke-width:2;"/>
    <defs>
     <path d="M 0 2 
C 0.530406 2 1.03916 1.789267 1.414214 1.414214 
C 1.789267 1.03916 2 0.530406 2 0 
C 2 -0.530406 1.789267 -1.03916 1.414214 -1.414214 
C 1.03916 -1.789267 0.530406 -2 0 -2 
C -0.530406 -2 -1.03916 -1.789267 -1.414214 -1.414214 
C -1.789267 -1.03916 -2 -0.530406 -2 0 
C -2 0.530406 -1.789267 1.03916 -1.414214 1.414214 
C -1.03916 1.789267 -0.530406 2 0 2 
z
" id="m254b9bc2b4" style="stroke:#3cb44b;"/>
    </defs>
    <g clip-path="url(#pb01512c6b5)">
     <use style="fill:#3cb44b;stroke:#3cb44b;" x="108" xlink:href="#m254b9bc2b4" y="640.8"/>
     <use style="fill:#3cb44b;stroke:#3cb44b;" x="331.2" xlink:href="#m254b9bc2b4" y="640.8"/>
     <use style="fill:#3cb44b;stroke:#3cb44b;" x="442.8" xlink:href="#m254b9bc2b4" y="640.8"/>
     <use style="fill:#3cb44b;stroke:#3cb44b;" x="554.4" xlink:href="#m254b9bc2b4" y="640.8"/>
     <use style="fill:#3cb44b;stroke:#3cb44b;" x="777.6" xlink:href="#m254b9bc2b4" y="496.436436"/>
    </g>
   </g>
   <g id="line2d_23">
    <path clip-path="url(#pb01512c6b5)" d="M 108 640.8 
L 331.2 578.407129 
L 442.8 640.8 
L 554.4 640.8 
L 777.6 638.970297 
" style="fill:none;stroke:#f58231;stroke-linecap:round;stroke-width:2;"/>
    <defs>
     <path d="M 0 2 
C 0.530406 2 1.03916 1.789267 1.414214 1.414214 
C 1.789267 1.03916 2 0.530406 2 0 
C 2 -0.530406 1.789267 -1.03916 1.414214 -1.414214 
C 1.03916 -1.789267 0.530406 -2 0 -2 
C -0.530406 -2 -1.03916 -1.789267 -1.414214 -1.414214 
C -1.789267 -1.03916 -2 -0.530406 -2 0 
C -2 0.530406 -1.789267 1.03916 -1.414214 1.414214 
C -1.03916 1.789267 -0.530406 2 0 2 
z
" id="m22a3a30a53" style="stroke:#f58231;"/>
    </defs>
    <g clip-path="url(#pb01512c6b5)">
     <use style="fill:#f58231;stroke:#f58231;" x="108" xlink:href="#m22a3a30a53" y="640.8"/>
     <use style="fill:#f58231;stroke:#f58231;" x="331.2" xlink:href="#m22a3a30a53" y="578.407129"/>
     <use style="fill:#f58231;stroke:#f58231;" x="442.8" xlink:href="#m22a3a30a53" y="640.8"/>
     <use style="fill:#f58231;stroke:#f58231;" x="554.4" xlink:href="#m22a3a30a53" y="640.8"/>
     <use style="fill:#f58231;stroke:#f58231;" x="777.6" xlink:href="#m22a3a30a53" y="638.970297"/>
    </g>
   </g>
   <g id="line2d_24">
    <path clip-path="url(#pb01512c6b5)" d="M 108 640.8 
L 331.2 640.8 
L 442.8 640.8 
L 554.4 640.8 
L 777.6 580.419802 
" style="fill:none;stroke:#bcf60c;stroke-linecap:round;stroke-width:2;"/>
    <defs>
     <path d="M 0 2 
C 0.530406 2 1.03916 1.789267 1.414214 1.414214 
C 1.789267 1.03916 2 0.530406 2 0 
C 2 -0.530406 1.789267 -1.03916 1.414214 -1.414214 
C 1.03916 -1.789267 0.530406 -2 0 -2 
C -0.530406 -2 -1.03916 -1.789267 -1.414214 -1.414214 
C -1.789267 -1.03916 -2 -0.530406 -2 0 
C -2 0.530406 -1.789267 1.03916 -1.414214 1.414214 
C -1.03916 1.789267 -0.530406 2 0 2 
z
" id="m22467ea041" style="stroke:#bcf60c;"/>
    </defs>
    <g clip-path="url(#pb01512c6b5)">
     <use style="fill:#bcf60c;stroke:#bcf60c;" x="108" xlink:href="#m22467ea041" y="640.8"/>
     <use style="fill:#bcf60c;stroke:#bcf60c;" x="331.2" xlink:href="#m22467ea041" y="640.8"/>
     <use style="fill:#bcf60c;stroke:#bcf60c;" x="442.8" xlink:href="#m22467ea041" y="640.8"/>
     <use style="fill:#bcf60c;stroke:#bcf60c;" x="554.4" xlink:href="#m22467ea041" y="640.8"/>
     <use style="fill:#bcf60c;stroke:#bcf60c;" x="777.6" xlink:href="#m22467ea041" y="580.419802"/>
    </g>
   </g>
   <g id="line2d_25">
    <path clip-path="url(#pb01512c6b5)" d="M 108 640.8 
L 331.2 640.8 
L 442.8 640.8 
L 554.4 640.8 
L 777.6 635.310891 
" style="fill:none;stroke:#ffe119;stroke-linecap:round;stroke-width:2;"/>
    <defs>
     <path d="M 0 2 
C 0.530406 2 1.03916 1.789267 1.414214 1.414214 
C 1.789267 1.03916 2 0.530406 2 0 
C 2 -0.530406 1.789267 -1.03916 1.414214 -1.414214 
C 1.03916 -1.789267 0.530406 -2 0 -2 
C -0.530406 -2 -1.03916 -1.789267 -1.414214 -1.414214 
C -1.789267 -1.03916 -2 -0.530406 -2 0 
C -2 0.530406 -1.789267 1.03916 -1.414214 1.414214 
C -1.03916 1.789267 -0.530406 2 0 2 
z
" id="m74e3202282" style="stroke:#ffe119;"/>
    </defs>
    <g clip-path="url(#pb01512c6b5)">
     <use style="fill:#ffe119;stroke:#ffe119;" x="108" xlink:href="#m74e3202282" y="640.8"/>
     <use style="fill:#ffe119;stroke:#ffe119;" x="331.2" xlink:href="#m74e3202282" y="640.8"/>
     <use style="fill:#ffe119;stroke:#ffe119;" x="442.8" xlink:href="#m74e3202282" y="640.8"/>
     <use style="fill:#ffe119;stroke:#ffe119;" x="554.4" xlink:href="#m74e3202282" y="640.8"/>
     <use style="fill:#ffe119;stroke:#ffe119;" x="777.6" xlink:href="#m74e3202282" y="635.310891"/>
    </g>
   </g>
   <g id="patch_3">
    <path d="M 108 640.8 
L 108 86.4 
" style="fill:none;stroke:#262626;stroke-linecap:square;stroke-linejoin:miter;stroke-width:1.25;"/>
   </g>
   <g id="patch_4">
    <path d="M 777.6 640.8 
L 777.6 86.4 
" style="fill:none;stroke:#262626;stroke-linecap:square;stroke-linejoin:miter;stroke-width:1.25;"/>
   </g>
   <g id="patch_5">
    <path d="M 108 640.8 
L 777.6 640.8 
" style="fill:none;stroke:#262626;stroke-linecap:square;stroke-linejoin:miter;stroke-width:1.25;"/>
   </g>
   <g id="patch_6">
    <path d="M 108 86.4 
L 777.6 86.4 
" style="fill:none;stroke:#262626;stroke-linecap:square;stroke-linejoin:miter;stroke-width:1.25;"/>
   </g>
   <g id="text_19">
    <text style="fill:#262626;font-family:Liberation Sans;font-size:42px;font-style:normal;font-weight:normal;text-anchor:middle;" transform="rotate(-0, 442.8, 80.4)" x="442.8" y="80.4">Genotypes</text>
   </g>
  </g>
 </g>
 <defs>
  <clipPath id="pb01512c6b5">
   <rect height="554.4" width="669.6" x="108" y="86.4"/>
  </clipPath>
 </defs>
</svg>
