<?xml version="1.0" encoding="UTF-8" standalone="no"?>
<!DOCTYPE svg PUBLIC "-//W3C//DTD SVG 1.1//EN"
 "http://www.w3.org/Graphics/SVG/1.1/DTD/svg11.dtd">
<!-- Generated by graphviz version 2.40.1 (20161225.0304)
 -->
<!-- Pages: 1 -->
<svg width="903pt" height="504pt"
 viewBox="0.00 0.00 903.00 504.00" xmlns="http://www.w3.org/2000/svg" xmlns:xlink="http://www.w3.org/1999/xlink">
<g id="graph0" class="graph" transform="scale(1 1) rotate(0) translate(4 500)">
<polygon fill="#ffffff" stroke="transparent" points="-4,4 -4,-500 899,-500 899,4 -4,4"/>
<!-- genotype&#45;10 -->
<g id="node1" class="node">
<title>genotype&#45;10</title>
<path fill="#abd0e6" stroke="#333333" d="M175,-409C175,-409 102,-409 102,-409 96,-409 90,-403 90,-397 90,-397 90,-383 90,-383 90,-377 96,-371 102,-371 102,-371 175,-371 175,-371 181,-371 187,-377 187,-383 187,-383 187,-397 187,-397 187,-403 181,-409 175,-409"/>
<text text-anchor="middle" x="138.5" y="-393.8" font-family="lato" font-size="14.00" fill="#333333">genotype&#45;10</text>
<text text-anchor="middle" x="138.5" y="-378.8" font-family="lato" font-size="14.00" fill="#333333">OGDH</text>
</g>
<!-- genotype&#45;8 -->
<g id="node2" class="node">
<title>genotype&#45;8</title>
<path fill="#73c476" stroke="#333333" d="M118,-312.5C118,-312.5 53,-312.5 53,-312.5 47,-312.5 41,-306.5 41,-300.5 41,-300.5 41,-286.5 41,-286.5 41,-280.5 47,-274.5 53,-274.5 53,-274.5 118,-274.5 118,-274.5 124,-274.5 130,-280.5 130,-286.5 130,-286.5 130,-300.5 130,-300.5 130,-306.5 124,-312.5 118,-312.5"/>
<text text-anchor="middle" x="85.5" y="-297.3" font-family="lato" font-size="14.00" fill="#333333">genotype&#45;8</text>
<text text-anchor="middle" x="85.5" y="-282.3" font-family="lato" font-size="14.00" fill="#333333">manC</text>
</g>
<!-- genotype&#45;10&#45;&#45;genotype&#45;8 -->
<g id="edge1" class="edge">
<title>genotype&#45;10&#45;&#45;genotype&#45;8</title>
<g id="a_edge1"><a xlink:title="Parent">
<path fill="none" stroke="#000000" d="M110,-370.9347C110,-370.9347 110,-322.5257 110,-322.5257"/>
<polygon fill="#000000" stroke="#000000" points="113.5001,-322.5257 110,-312.5257 106.5001,-322.5257 113.5001,-322.5257"/>
</a>
</g>
<text text-anchor="middle" x="118.4524" y="-326.9518" font-family="Times,serif" font-size="14.00" fill="#000000">0.0</text>
</g>
<!-- genotype&#45;9 -->
<g id="node3" class="node">
<title>genotype&#45;9</title>
<path fill="#3787c0" stroke="#333333" d="M225,-320C225,-320 160,-320 160,-320 154,-320 148,-314 148,-308 148,-308 148,-279 148,-279 148,-273 154,-267 160,-267 160,-267 225,-267 225,-267 231,-267 237,-273 237,-279 237,-279 237,-308 237,-308 237,-314 231,-320 225,-320"/>
<text text-anchor="middle" x="192.5" y="-304.8" font-family="lato" font-size="14.00" fill="#ffffff">genotype&#45;9</text>
<text text-anchor="middle" x="192.5" y="-289.8" font-family="lato" font-size="14.00" fill="#ffffff">LysR&#45;like</text>
<text text-anchor="middle" x="192.5" y="-274.8" font-family="lato" font-size="14.00" fill="#ffffff">d95</text>
</g>
<!-- genotype&#45;10&#45;&#45;genotype&#45;9 -->
<g id="edge2" class="edge">
<title>genotype&#45;10&#45;&#45;genotype&#45;9</title>
<g id="a_edge2"><a xlink:title="Parent">
<path fill="none" stroke="#000000" d="M167.5,-370.9347C167.5,-370.9347 167.5,-330.1965 167.5,-330.1965"/>
<polygon fill="#000000" stroke="#000000" points="171.0001,-330.1964 167.5,-320.1965 164.0001,-330.1965 171.0001,-330.1964"/>
</a>
</g>
<text text-anchor="middle" x="175.9524" y="-334.6226" font-family="Times,serif" font-size="14.00" fill="#000000">0.0</text>
</g>
<!-- genotype&#45;11 -->
<g id="node4" class="node">
<title>genotype&#45;11</title>
<path fill="#9e9ac8" stroke="#333333" d="M122,-231C122,-231 49,-231 49,-231 43,-231 37,-225 37,-219 37,-219 37,-205 37,-205 37,-199 43,-193 49,-193 49,-193 122,-193 122,-193 128,-193 134,-199 134,-205 134,-205 134,-219 134,-219 134,-225 128,-231 122,-231"/>
<text text-anchor="middle" x="85.5" y="-215.8" font-family="lato" font-size="14.00" fill="#333333">genotype&#45;11</text>
<text text-anchor="middle" x="85.5" y="-200.8" font-family="lato" font-size="14.00" fill="#333333">bfr</text>
</g>
<!-- genotype&#45;8&#45;&#45;genotype&#45;11 -->
<g id="edge3" class="edge">
<title>genotype&#45;8&#45;&#45;genotype&#45;11</title>
<g id="a_edge3"><a xlink:title="Parent">
<path fill="none" stroke="#000000" d="M85.5,-274.1856C85.5,-274.1856 85.5,-241.1757 85.5,-241.1757"/>
<polygon fill="#000000" stroke="#000000" points="89.0001,-241.1757 85.5,-231.1757 82.0001,-241.1758 89.0001,-241.1757"/>
</a>
</g>
<text text-anchor="middle" x="93.9524" y="-245.6019" font-family="Times,serif" font-size="14.00" fill="#000000">0.0</text>
</g>
<!-- genotype&#45;7 -->
<g id="node5" class="node">
<title>genotype&#45;7</title>
<path fill="#ea0000" stroke="#333333" d="M118,-157C118,-157 53,-157 53,-157 47,-157 41,-151 41,-145 41,-145 41,-131 41,-131 41,-125 47,-119 53,-119 53,-119 118,-119 118,-119 124,-119 130,-125 130,-131 130,-131 130,-145 130,-145 130,-151 124,-157 118,-157"/>
<text text-anchor="middle" x="85.5" y="-141.8" font-family="lato" font-size="14.00" fill="#ffffff">genotype&#45;7</text>
<text text-anchor="middle" x="85.5" y="-126.8" font-family="lato" font-size="14.00" fill="#ffffff">McsS</text>
</g>
<!-- genotype&#45;11&#45;&#45;genotype&#45;7 -->
<g id="edge4" class="edge">
<title>genotype&#45;11&#45;&#45;genotype&#45;7</title>
<g id="a_edge4"><a xlink:title="Parent">
<path fill="none" stroke="#000000" d="M85.5,-192.9432C85.5,-192.9432 85.5,-167.2495 85.5,-167.2495"/>
<polygon fill="#000000" stroke="#000000" points="89.0001,-167.2494 85.5,-157.2495 82.0001,-167.2495 89.0001,-167.2494"/>
</a>
</g>
<text text-anchor="middle" x="93.9524" y="-171.6756" font-family="Times,serif" font-size="14.00" fill="#000000">0.0</text>
</g>
<!-- genotype&#45;5 -->
<g id="node6" class="node">
<title>genotype&#45;5</title>
<path fill="#ffca00" stroke="#333333" d="M159,-83C159,-83 12,-83 12,-83 6,-83 0,-77 0,-71 0,-71 0,-12 0,-12 0,-6 6,0 12,0 12,0 159,0 159,0 165,0 171,-6 171,-12 171,-12 171,-71 171,-71 171,-77 165,-83 159,-83"/>
<text text-anchor="middle" x="85.5" y="-67.8" font-family="lato" font-size="14.00" fill="#333333">genotype&#45;5</text>
<text text-anchor="middle" x="85.5" y="-52.8" font-family="lato" font-size="14.00" fill="#333333">wspD</text>
<text text-anchor="middle" x="85.5" y="-37.8" font-family="lato" font-size="14.00" fill="#333333">succinate dehydrogenase</text>
<text text-anchor="middle" x="85.5" y="-22.8" font-family="lato" font-size="14.00" fill="#333333">MltA</text>
<text text-anchor="middle" x="85.5" y="-7.8" font-family="lato" font-size="14.00" fill="#333333">DUF88</text>
</g>
<!-- genotype&#45;7&#45;&#45;genotype&#45;5 -->
<g id="edge5" class="edge">
<title>genotype&#45;7&#45;&#45;genotype&#45;5</title>
<g id="a_edge5"><a xlink:title="Parent">
<path fill="none" stroke="#000000" d="M85.5,-118.9347C85.5,-118.9347 85.5,-93.276 85.5,-93.276"/>
<polygon fill="#000000" stroke="#000000" points="89.0001,-93.276 85.5,-83.276 82.0001,-93.276 89.0001,-93.276"/>
</a>
</g>
<text text-anchor="middle" x="93.9524" y="-97.7022" font-family="Times,serif" font-size="14.00" fill="#000000">0.0</text>
</g>
<!-- genotype&#45;2 -->
<g id="node7" class="node">
<title>genotype&#45;2</title>
<path fill="#fc8161" stroke="#333333" d="M302,-416.5C302,-416.5 217,-416.5 217,-416.5 211,-416.5 205,-410.5 205,-404.5 205,-404.5 205,-375.5 205,-375.5 205,-369.5 211,-363.5 217,-363.5 217,-363.5 302,-363.5 302,-363.5 308,-363.5 314,-369.5 314,-375.5 314,-375.5 314,-404.5 314,-404.5 314,-410.5 308,-416.5 302,-416.5"/>
<text text-anchor="middle" x="259.5" y="-401.3" font-family="lato" font-size="14.00" fill="#333333">genotype&#45;2</text>
<text text-anchor="middle" x="259.5" y="-386.3" font-family="lato" font-size="14.00" fill="#333333">rpfR</text>
<text text-anchor="middle" x="259.5" y="-371.3" font-family="lato" font-size="14.00" fill="#333333">monoxygenase</text>
</g>
<!-- genotype&#45;12 -->
<g id="node8" class="node">
<title>genotype&#45;12</title>
<path fill="#fcaf93" stroke="#333333" d="M417,-409C417,-409 344,-409 344,-409 338,-409 332,-403 332,-397 332,-397 332,-383 332,-383 332,-377 338,-371 344,-371 344,-371 417,-371 417,-371 423,-371 429,-377 429,-383 429,-383 429,-397 429,-397 429,-403 423,-409 417,-409"/>
<text text-anchor="middle" x="380.5" y="-393.8" font-family="lato" font-size="14.00" fill="#333333">genotype&#45;12</text>
<text text-anchor="middle" x="380.5" y="-378.8" font-family="lato" font-size="14.00" fill="#333333">bfr</text>
</g>
<!-- genotype&#45;1 -->
<g id="node9" class="node">
<title>genotype&#45;1</title>
<path fill="#fedbcc" stroke="#333333" d="M524,-416.5C524,-416.5 459,-416.5 459,-416.5 453,-416.5 447,-410.5 447,-404.5 447,-404.5 447,-375.5 447,-375.5 447,-369.5 453,-363.5 459,-363.5 459,-363.5 524,-363.5 524,-363.5 530,-363.5 536,-369.5 536,-375.5 536,-375.5 536,-404.5 536,-404.5 536,-410.5 530,-416.5 524,-416.5"/>
<text text-anchor="middle" x="491.5" y="-401.3" font-family="lato" font-size="14.00" fill="#333333">genotype&#45;1</text>
<text text-anchor="middle" x="491.5" y="-386.3" font-family="lato" font-size="14.00" fill="#333333">rpoC</text>
<text text-anchor="middle" x="491.5" y="-371.3" font-family="lato" font-size="14.00" fill="#333333">rpfR</text>
</g>
<!-- genotype&#45;3 -->
<g id="node10" class="node">
<title>genotype&#45;3</title>
<path fill="#f44f39" stroke="#333333" d="M669,-416.5C669,-416.5 566,-416.5 566,-416.5 560,-416.5 554,-410.5 554,-404.5 554,-404.5 554,-375.5 554,-375.5 554,-369.5 560,-363.5 566,-363.5 566,-363.5 669,-363.5 669,-363.5 675,-363.5 681,-369.5 681,-375.5 681,-375.5 681,-404.5 681,-404.5 681,-410.5 675,-416.5 669,-416.5"/>
<text text-anchor="middle" x="617.5" y="-401.3" font-family="lato" font-size="14.00" fill="#ffffff">genotype&#45;3</text>
<text text-anchor="middle" x="617.5" y="-386.3" font-family="lato" font-size="14.00" fill="#ffffff">wspA</text>
<text text-anchor="middle" x="617.5" y="-371.3" font-family="lato" font-size="14.00" fill="#ffffff">3&#39;exoribonuclease</text>
</g>
<!-- genotype&#45;6 -->
<g id="node11" class="node">
<title>genotype&#45;6</title>
<path fill="#aa1016" stroke="#333333" d="M776,-424C776,-424 711,-424 711,-424 705,-424 699,-418 699,-412 699,-412 699,-368 699,-368 699,-362 705,-356 711,-356 711,-356 776,-356 776,-356 782,-356 788,-362 788,-368 788,-368 788,-412 788,-412 788,-418 782,-424 776,-424"/>
<text text-anchor="middle" x="743.5" y="-408.8" font-family="lato" font-size="14.00" fill="#ffffff">genotype&#45;6</text>
<text text-anchor="middle" x="743.5" y="-393.8" font-family="lato" font-size="14.00" fill="#ffffff">wspE</text>
<text text-anchor="middle" x="743.5" y="-378.8" font-family="lato" font-size="14.00" fill="#ffffff">d49</text>
<text text-anchor="middle" x="743.5" y="-363.8" font-family="lato" font-size="14.00" fill="#ffffff">ferridoxin</text>
</g>
<!-- genotype&#45;4 -->
<g id="node12" class="node">
<title>genotype&#45;4</title>
<path fill="#d52221" stroke="#333333" d="M883,-416.5C883,-416.5 818,-416.5 818,-416.5 812,-416.5 806,-410.5 806,-404.5 806,-404.5 806,-375.5 806,-375.5 806,-369.5 812,-363.5 818,-363.5 818,-363.5 883,-363.5 883,-363.5 889,-363.5 895,-369.5 895,-375.5 895,-375.5 895,-404.5 895,-404.5 895,-410.5 889,-416.5 883,-416.5"/>
<text text-anchor="middle" x="850.5" y="-401.3" font-family="lato" font-size="14.00" fill="#ffffff">genotype&#45;4</text>
<text text-anchor="middle" x="850.5" y="-386.3" font-family="lato" font-size="14.00" fill="#ffffff">wspA</text>
<text text-anchor="middle" x="850.5" y="-371.3" font-family="lato" font-size="14.00" fill="#ffffff">manC</text>
</g>
<!-- genotype&#45;0 -->
<g id="node13" class="node">
<title>genotype&#45;0</title>
<path fill="#d3d3d3" stroke="#000000" d="M524,-496C524,-496 459,-496 459,-496 453,-496 447,-490 447,-484 447,-484 447,-472 447,-472 447,-466 453,-460 459,-460 459,-460 524,-460 524,-460 530,-460 536,-466 536,-472 536,-472 536,-484 536,-484 536,-490 530,-496 524,-496"/>
<text text-anchor="middle" x="491.5" y="-474.3" font-family="lato" font-size="14.00" fill="#000000">genotype&#45;0</text>
</g>
<!-- genotype&#45;0&#45;&#45;genotype&#45;10 -->
<g id="edge6" class="edge">
<title>genotype&#45;0&#45;&#45;genotype&#45;10</title>
<g id="a_edge6"><a xlink:title="Parent">
<path fill="none" stroke="#000000" d="M446.7923,-487C351.8049,-487 138.5,-487 138.5,-487 138.5,-487 138.5,-419.1641 138.5,-419.1641"/>
<polygon fill="#000000" stroke="#000000" points="142.0001,-419.164 138.5,-409.1641 135.0001,-419.1641 142.0001,-419.164"/>
</a>
</g>
<text text-anchor="middle" x="146.9524" y="-423.5902" font-family="Times,serif" font-size="14.00" fill="#000000">0.0</text>
</g>
<!-- genotype&#45;0&#45;&#45;genotype&#45;2 -->
<g id="edge7" class="edge">
<title>genotype&#45;0&#45;&#45;genotype&#45;2</title>
<g id="a_edge7"><a xlink:title="Parent">
<path fill="none" stroke="#000000" d="M446.7681,-478C379.3516,-478 259.5,-478 259.5,-478 259.5,-478 259.5,-426.8811 259.5,-426.8811"/>
<polygon fill="#000000" stroke="#000000" points="263.0001,-426.881 259.5,-416.8811 256.0001,-426.8811 263.0001,-426.881"/>
</a>
</g>
<text text-anchor="middle" x="267.9524" y="-431.3072" font-family="Times,serif" font-size="14.00" fill="#000000">0.0</text>
</g>
<!-- genotype&#45;0&#45;&#45;genotype&#45;12 -->
<g id="edge8" class="edge">
<title>genotype&#45;0&#45;&#45;genotype&#45;12</title>
<g id="a_edge8"><a xlink:title="Parent">
<path fill="none" stroke="#000000" d="M446.9916,-469C416.1106,-469 380.5,-469 380.5,-469 380.5,-469 380.5,-419.1237 380.5,-419.1237"/>
<polygon fill="#000000" stroke="#000000" points="384.0001,-419.1237 380.5,-409.1237 377.0001,-419.1237 384.0001,-419.1237"/>
</a>
</g>
<text text-anchor="middle" x="388.9524" y="-423.5499" font-family="Times,serif" font-size="14.00" fill="#000000">0.0</text>
</g>
<!-- genotype&#45;0&#45;&#45;genotype&#45;1 -->
<g id="edge9" class="edge">
<title>genotype&#45;0&#45;&#45;genotype&#45;1</title>
<g id="a_edge9"><a xlink:title="Parent">
<path fill="none" stroke="#000000" d="M476.6667,-459.7663C476.6667,-459.7663 476.6667,-426.5596 476.6667,-426.5596"/>
<polygon fill="#000000" stroke="#000000" points="480.1668,-426.5595 476.6667,-416.5596 473.1668,-426.5596 480.1668,-426.5595"/>
</a>
</g>
<text text-anchor="middle" x="485.119" y="-430.9857" font-family="Times,serif" font-size="14.00" fill="#000000">0.0</text>
</g>
<!-- genotype&#45;0&#45;&#45;genotype&#45;3 -->
<g id="edge10" class="edge">
<title>genotype&#45;0&#45;&#45;genotype&#45;3</title>
<g id="a_edge10"><a xlink:title="Parent">
<path fill="none" stroke="#000000" d="M536.2777,-472C572.4937,-472 617.5,-472 617.5,-472 617.5,-472 617.5,-426.8499 617.5,-426.8499"/>
<polygon fill="#000000" stroke="#000000" points="621.0001,-426.8498 617.5,-416.8499 614.0001,-426.8499 621.0001,-426.8498"/>
</a>
</g>
<text text-anchor="middle" x="625.9524" y="-431.276" font-family="Times,serif" font-size="14.00" fill="#000000">0.0</text>
</g>
<!-- genotype&#45;0&#45;&#45;genotype&#45;6 -->
<g id="edge11" class="edge">
<title>genotype&#45;0&#45;&#45;genotype&#45;6</title>
<g id="a_edge11"><a xlink:title="Parent">
<path fill="none" stroke="#000000" d="M506.3333,-459.9664C506.3333,-442.9403 506.3333,-420 506.3333,-420 506.3333,-420 688.8908,-420 688.8908,-420"/>
<polygon fill="#000000" stroke="#000000" points="688.8908,-423.5001 698.8908,-420 688.8907,-416.5001 688.8908,-423.5001"/>
</a>
</g>
<text text-anchor="middle" x="680.7646" y="-424.7524" font-family="Times,serif" font-size="14.00" fill="#000000">0.0</text>
</g>
<!-- genotype&#45;0&#45;&#45;genotype&#45;4 -->
<g id="edge12" class="edge">
<title>genotype&#45;0&#45;&#45;genotype&#45;4</title>
<g id="a_edge12"><a xlink:title="Parent">
<path fill="none" stroke="#000000" d="M536.2417,-484C632.478,-484 850.5,-484 850.5,-484 850.5,-484 850.5,-426.6852 850.5,-426.6852"/>
<polygon fill="#000000" stroke="#000000" points="854.0001,-426.6852 850.5,-416.6852 847.0001,-426.6852 854.0001,-426.6852"/>
</a>
</g>
<text text-anchor="middle" x="858.9524" y="-431.1113" font-family="Times,serif" font-size="14.00" fill="#000000">0.0</text>
</g>
</g>
</svg>
