<?xml version="1.0" encoding="utf-8" standalone="no"?>
<!DOCTYPE svg PUBLIC "-//W3C//DTD SVG 1.1//EN"
  "http://www.w3.org/Graphics/SVG/1.1/DTD/svg11.dtd">
<!-- Created with matplotlib (https://matplotlib.org/) -->
<svg height="720pt" version="1.1" viewBox="0 0 864 720" width="864pt" xmlns="http://www.w3.org/2000/svg" xmlns:xlink="http://www.w3.org/1999/xlink">
 <defs>
  <style type="text/css">
*{stroke-linecap:butt;stroke-linejoin:round;}
  </style>
 </defs>
 <g id="figure_1">
  <g id="patch_1">
   <path d="M 0 720 
L 864 720 
L 864 0 
L 0 0 
z
" style="fill:#ffffff;"/>
  </g>
  <g id="axes_1">
   <g id="patch_2">
    <path d="M 50.97 672.9 
L 847.665 672.9 
L 847.665 14.76 
L 50.97 14.76 
z
" style="fill:#ffffff;"/>
   </g>
   <g id="matplotlib.axis_1">
    <g id="xtick_1">
     <g id="line2d_1"/>
     <g id="text_1">
      <!-- 0 -->
      <defs>
       <path d="M 51.703125 34.421875 
Q 51.703125 24.515625 49.828125 17.75 
Q 47.953125 10.984375 44.703125 6.8125 
Q 41.453125 2.640625 37.0625 0.828125 
Q 32.671875 -0.984375 27.6875 -0.984375 
Q 22.65625 -0.984375 18.3125 0.828125 
Q 13.96875 2.640625 10.765625 6.78125 
Q 7.5625 10.9375 5.734375 17.703125 
Q 3.90625 24.46875 3.90625 34.421875 
Q 3.90625 44.828125 5.734375 51.640625 
Q 7.5625 58.453125 10.78125 62.5 
Q 14.015625 66.546875 18.40625 68.1875 
Q 22.796875 69.828125 27.984375 69.828125 
Q 32.90625 69.828125 37.21875 68.1875 
Q 41.546875 66.546875 44.765625 62.5 
Q 48 58.453125 49.84375 51.640625 
Q 51.703125 44.828125 51.703125 34.421875 
z
M 42.78125 34.421875 
Q 42.78125 42.625 41.796875 48.0625 
Q 40.828125 53.515625 38.921875 56.765625 
Q 37.015625 60.015625 34.25 61.359375 
Q 31.5 62.703125 27.984375 62.703125 
Q 24.265625 62.703125 21.4375 61.328125 
Q 18.609375 59.96875 16.671875 56.71875 
Q 14.75 53.46875 13.765625 48.015625 
Q 12.796875 42.578125 12.796875 34.421875 
Q 12.796875 26.515625 13.796875 21.09375 
Q 14.796875 15.671875 16.71875 12.375 
Q 18.65625 9.078125 21.4375 7.640625 
Q 24.21875 6.203125 27.78125 6.203125 
Q 31.25 6.203125 34.03125 7.640625 
Q 36.8125 9.078125 38.734375 12.375 
Q 40.671875 15.671875 41.71875 21.09375 
Q 42.78125 26.515625 42.78125 34.421875 
z
" id="LiberationSans-48"/>
      </defs>
      <g style="fill:#262626;" transform="translate(48.189531 683.646875)scale(0.1 -0.1)">
       <use xlink:href="#LiberationSans-48"/>
      </g>
     </g>
    </g>
    <g id="xtick_2">
     <g id="line2d_2"/>
     <g id="text_2">
      <!-- 10 -->
      <defs>
       <path d="M 7.625 0 
L 7.625 7.46875 
L 25.140625 7.46875 
L 25.140625 60.40625 
L 9.625 49.3125 
L 9.625 57.625 
L 25.875 68.796875 
L 33.984375 68.796875 
L 33.984375 7.46875 
L 50.734375 7.46875 
L 50.734375 0 
z
" id="LiberationSans-49"/>
      </defs>
      <g style="fill:#262626;" transform="translate(133.930729 683.646875)scale(0.1 -0.1)">
       <use xlink:href="#LiberationSans-49"/>
       <use x="55.615234" xlink:href="#LiberationSans-48"/>
      </g>
     </g>
    </g>
    <g id="xtick_3">
     <g id="line2d_3"/>
     <g id="text_3">
      <!-- 20 -->
      <defs>
       <path d="M 5.03125 0 
L 5.03125 6.203125 
Q 7.515625 11.921875 11.109375 16.28125 
Q 14.703125 20.65625 18.65625 24.1875 
Q 22.609375 27.734375 26.484375 30.765625 
Q 30.375 33.796875 33.5 36.8125 
Q 36.625 39.84375 38.546875 43.15625 
Q 40.484375 46.484375 40.484375 50.6875 
Q 40.484375 53.609375 39.59375 55.828125 
Q 38.71875 58.0625 37.0625 59.5625 
Q 35.40625 61.078125 33.078125 61.828125 
Q 30.765625 62.59375 27.9375 62.59375 
Q 25.296875 62.59375 22.96875 61.859375 
Q 20.65625 61.140625 18.84375 59.671875 
Q 17.046875 58.203125 15.890625 56.03125 
Q 14.75 53.859375 14.40625 50.984375 
L 5.421875 51.8125 
Q 5.859375 55.515625 7.46875 58.78125 
Q 9.078125 62.0625 11.90625 64.53125 
Q 14.75 67 18.71875 68.40625 
Q 22.703125 69.828125 27.9375 69.828125 
Q 33.0625 69.828125 37.0625 68.609375 
Q 41.0625 67.390625 43.8125 64.984375 
Q 46.578125 62.59375 48.046875 59.078125 
Q 49.515625 55.5625 49.515625 50.984375 
Q 49.515625 47.515625 48.265625 44.390625 
Q 47.015625 41.265625 44.9375 38.421875 
Q 42.875 35.59375 40.140625 32.953125 
Q 37.40625 30.328125 34.421875 27.8125 
Q 31.453125 25.296875 28.421875 22.828125 
Q 25.390625 20.359375 22.71875 17.859375 
Q 20.0625 15.375 17.96875 12.8125 
Q 15.875 10.25 14.703125 7.46875 
L 50.59375 7.46875 
L 50.59375 0 
z
" id="LiberationSans-50"/>
      </defs>
      <g style="fill:#262626;" transform="translate(222.452396 683.646875)scale(0.1 -0.1)">
       <use xlink:href="#LiberationSans-50"/>
       <use x="55.615234" xlink:href="#LiberationSans-48"/>
      </g>
     </g>
    </g>
    <g id="xtick_4">
     <g id="line2d_4"/>
     <g id="text_4">
      <!-- 30 -->
      <defs>
       <path d="M 51.21875 19 
Q 51.21875 14.265625 49.671875 10.546875 
Q 48.140625 6.84375 45.1875 4.265625 
Q 42.234375 1.703125 37.859375 0.359375 
Q 33.5 -0.984375 27.875 -0.984375 
Q 21.484375 -0.984375 17.109375 0.609375 
Q 12.75 2.203125 9.90625 4.8125 
Q 7.078125 7.421875 5.65625 10.765625 
Q 4.25 14.109375 3.8125 17.671875 
L 12.890625 18.5 
Q 13.28125 15.765625 14.328125 13.515625 
Q 15.375 11.28125 17.1875 9.671875 
Q 19 8.0625 21.625 7.171875 
Q 24.265625 6.296875 27.875 6.296875 
Q 34.515625 6.296875 38.296875 9.5625 
Q 42.09375 12.84375 42.09375 19.28125 
Q 42.09375 23.09375 40.40625 25.40625 
Q 38.71875 27.734375 36.203125 29.03125 
Q 33.6875 30.328125 30.734375 30.765625 
Q 27.78125 31.203125 25.296875 31.203125 
L 20.3125 31.203125 
L 20.3125 38.8125 
L 25.09375 38.8125 
Q 27.59375 38.8125 30.265625 39.328125 
Q 32.953125 39.84375 35.171875 41.1875 
Q 37.40625 42.53125 38.84375 44.828125 
Q 40.28125 47.125 40.28125 50.6875 
Q 40.28125 56.203125 37.03125 59.390625 
Q 33.796875 62.59375 27.390625 62.59375 
Q 21.578125 62.59375 17.984375 59.609375 
Q 14.40625 56.640625 13.8125 51.21875 
L 4.984375 51.90625 
Q 5.515625 56.453125 7.46875 59.8125 
Q 9.421875 63.1875 12.421875 65.40625 
Q 15.4375 67.625 19.28125 68.71875 
Q 23.140625 69.828125 27.484375 69.828125 
Q 33.25 69.828125 37.390625 68.375 
Q 41.546875 66.9375 44.1875 64.46875 
Q 46.828125 62.015625 48.0625 58.6875 
Q 49.3125 55.375 49.3125 51.609375 
Q 49.3125 48.578125 48.484375 45.9375 
Q 47.65625 43.3125 45.890625 41.203125 
Q 44.140625 39.109375 41.421875 37.59375 
Q 38.71875 36.078125 34.90625 35.296875 
L 34.90625 35.109375 
Q 39.0625 34.671875 42.140625 33.21875 
Q 45.21875 31.78125 47.21875 29.625 
Q 49.21875 27.484375 50.21875 24.75 
Q 51.21875 22.015625 51.21875 19 
z
" id="LiberationSans-51"/>
      </defs>
      <g style="fill:#262626;" transform="translate(310.974062 683.646875)scale(0.1 -0.1)">
       <use xlink:href="#LiberationSans-51"/>
       <use x="55.615234" xlink:href="#LiberationSans-48"/>
      </g>
     </g>
    </g>
    <g id="xtick_5">
     <g id="line2d_5"/>
     <g id="text_5">
      <!-- 40 -->
      <defs>
       <path d="M 43.015625 15.578125 
L 43.015625 0 
L 34.71875 0 
L 34.71875 15.578125 
L 2.296875 15.578125 
L 2.296875 22.40625 
L 33.796875 68.796875 
L 43.015625 68.796875 
L 43.015625 22.515625 
L 52.6875 22.515625 
L 52.6875 15.578125 
z
M 34.71875 58.890625 
Q 34.625 58.640625 34.234375 57.9375 
Q 33.84375 57.234375 33.34375 56.34375 
Q 32.859375 55.46875 32.34375 54.5625 
Q 31.84375 53.65625 31.453125 53.078125 
L 13.8125 27.09375 
Q 13.578125 26.703125 13.109375 26.0625 
Q 12.640625 25.4375 12.15625 24.78125 
Q 11.671875 24.125 11.171875 23.484375 
Q 10.6875 22.859375 10.40625 22.515625 
L 34.71875 22.515625 
z
" id="LiberationSans-52"/>
      </defs>
      <g style="fill:#262626;" transform="translate(399.495729 683.646875)scale(0.1 -0.1)">
       <use xlink:href="#LiberationSans-52"/>
       <use x="55.615234" xlink:href="#LiberationSans-48"/>
      </g>
     </g>
    </g>
    <g id="xtick_6">
     <g id="line2d_6"/>
     <g id="text_6">
      <!-- 50 -->
      <defs>
       <path d="M 51.421875 22.40625 
Q 51.421875 17.234375 49.859375 12.9375 
Q 48.296875 8.640625 45.21875 5.53125 
Q 42.140625 2.4375 37.578125 0.71875 
Q 33.015625 -0.984375 27 -0.984375 
Q 21.578125 -0.984375 17.546875 0.28125 
Q 13.53125 1.5625 10.734375 3.78125 
Q 7.953125 6 6.3125 8.984375 
Q 4.6875 11.96875 4 15.375 
L 12.890625 16.40625 
Q 13.421875 14.453125 14.390625 12.625 
Q 15.375 10.796875 17.0625 9.34375 
Q 18.75 7.90625 21.21875 7.046875 
Q 23.6875 6.203125 27.203125 6.203125 
Q 30.609375 6.203125 33.390625 7.25 
Q 36.1875 8.296875 38.15625 10.34375 
Q 40.140625 12.40625 41.203125 15.375 
Q 42.28125 18.359375 42.28125 22.21875 
Q 42.28125 25.390625 41.25 28.046875 
Q 40.234375 30.71875 38.328125 32.640625 
Q 36.421875 34.578125 33.65625 35.640625 
Q 30.90625 36.71875 27.390625 36.71875 
Q 25.203125 36.71875 23.34375 36.328125 
Q 21.484375 35.9375 19.890625 35.25 
Q 18.3125 34.578125 17.015625 33.671875 
Q 15.71875 32.765625 14.59375 31.78125 
L 6 31.78125 
L 8.296875 68.796875 
L 47.40625 68.796875 
L 47.40625 61.328125 
L 16.3125 61.328125 
L 14.984375 39.5 
Q 17.328125 41.3125 20.84375 42.59375 
Q 24.359375 43.890625 29.203125 43.890625 
Q 34.328125 43.890625 38.421875 42.328125 
Q 42.53125 40.765625 45.40625 37.90625 
Q 48.296875 35.0625 49.859375 31.109375 
Q 51.421875 27.15625 51.421875 22.40625 
z
" id="LiberationSans-53"/>
      </defs>
      <g style="fill:#262626;" transform="translate(488.017396 683.646875)scale(0.1 -0.1)">
       <use xlink:href="#LiberationSans-53"/>
       <use x="55.615234" xlink:href="#LiberationSans-48"/>
      </g>
     </g>
    </g>
    <g id="xtick_7">
     <g id="line2d_7"/>
     <g id="text_7">
      <!-- 60 -->
      <defs>
       <path d="M 51.21875 22.515625 
Q 51.21875 17.328125 49.78125 13 
Q 48.34375 8.6875 45.53125 5.578125 
Q 42.71875 2.484375 38.5625 0.75 
Q 34.421875 -0.984375 29 -0.984375 
Q 23 -0.984375 18.5 1.3125 
Q 14.015625 3.609375 11.03125 7.921875 
Q 8.0625 12.25 6.5625 18.53125 
Q 5.078125 24.8125 5.078125 32.8125 
Q 5.078125 42 6.765625 48.921875 
Q 8.453125 55.859375 11.625 60.5 
Q 14.796875 65.140625 19.359375 67.484375 
Q 23.921875 69.828125 29.6875 69.828125 
Q 33.203125 69.828125 36.28125 69.09375 
Q 39.359375 68.359375 41.875 66.71875 
Q 44.390625 65.09375 46.28125 62.40625 
Q 48.1875 59.71875 49.3125 55.8125 
L 40.921875 54.296875 
Q 39.546875 58.734375 36.546875 60.71875 
Q 33.546875 62.703125 29.59375 62.703125 
Q 25.984375 62.703125 23.046875 60.984375 
Q 20.125 59.28125 18.0625 55.875 
Q 16.015625 52.484375 14.90625 47.359375 
Q 13.8125 42.234375 13.8125 35.40625 
Q 16.21875 39.84375 20.5625 42.15625 
Q 24.90625 44.484375 30.515625 44.484375 
Q 35.203125 44.484375 39.015625 42.96875 
Q 42.828125 41.453125 45.53125 38.59375 
Q 48.25 35.75 49.734375 31.671875 
Q 51.21875 27.59375 51.21875 22.515625 
z
M 42.28125 22.125 
Q 42.28125 25.6875 41.40625 28.5625 
Q 40.53125 31.453125 38.765625 33.46875 
Q 37.015625 35.5 34.421875 36.59375 
Q 31.84375 37.703125 28.421875 37.703125 
Q 26.03125 37.703125 23.578125 36.984375 
Q 21.140625 36.28125 19.15625 34.6875 
Q 17.1875 33.109375 15.9375 30.515625 
Q 14.703125 27.9375 14.703125 24.21875 
Q 14.703125 20.40625 15.671875 17.109375 
Q 16.65625 13.8125 18.484375 11.375 
Q 20.3125 8.9375 22.890625 7.515625 
Q 25.484375 6.109375 28.71875 6.109375 
Q 31.890625 6.109375 34.40625 7.203125 
Q 36.921875 8.296875 38.671875 10.375 
Q 40.4375 12.453125 41.359375 15.421875 
Q 42.28125 18.40625 42.28125 22.125 
z
" id="LiberationSans-54"/>
      </defs>
      <g style="fill:#262626;" transform="translate(576.539062 683.646875)scale(0.1 -0.1)">
       <use xlink:href="#LiberationSans-54"/>
       <use x="55.615234" xlink:href="#LiberationSans-48"/>
      </g>
     </g>
    </g>
    <g id="xtick_8">
     <g id="line2d_8"/>
     <g id="text_8">
      <!-- 70 -->
      <defs>
       <path d="M 50.59375 61.671875 
Q 45.40625 53.765625 41.0625 46.453125 
Q 36.71875 39.15625 33.59375 31.75 
Q 30.46875 24.359375 28.734375 16.578125 
Q 27 8.796875 27 0 
L 17.828125 0 
Q 17.828125 8.25 19.78125 16.1875 
Q 21.734375 24.125 25.046875 31.765625 
Q 28.375 39.40625 32.765625 46.78125 
Q 37.15625 54.15625 42.09375 61.328125 
L 5.125 61.328125 
L 5.125 68.796875 
L 50.59375 68.796875 
z
" id="LiberationSans-55"/>
      </defs>
      <g style="fill:#262626;" transform="translate(665.060729 683.646875)scale(0.1 -0.1)">
       <use xlink:href="#LiberationSans-55"/>
       <use x="55.615234" xlink:href="#LiberationSans-48"/>
      </g>
     </g>
    </g>
    <g id="xtick_9">
     <g id="line2d_9"/>
     <g id="text_9">
      <!-- 80 -->
      <defs>
       <path d="M 51.265625 19.1875 
Q 51.265625 14.796875 49.875 11.109375 
Q 48.484375 7.421875 45.625 4.734375 
Q 42.78125 2.046875 38.328125 0.53125 
Q 33.890625 -0.984375 27.828125 -0.984375 
Q 21.78125 -0.984375 17.359375 0.53125 
Q 12.9375 2.046875 10.03125 4.703125 
Q 7.125 7.375 5.734375 11.0625 
Q 4.34375 14.75 4.34375 19.09375 
Q 4.34375 22.859375 5.484375 25.78125 
Q 6.640625 28.71875 8.5625 30.828125 
Q 10.5 32.953125 12.96875 34.25 
Q 15.4375 35.546875 18.0625 35.984375 
L 18.0625 36.1875 
Q 15.1875 36.859375 12.90625 38.375 
Q 10.640625 39.890625 9.09375 42.015625 
Q 7.5625 44.140625 6.75 46.71875 
Q 5.953125 49.3125 5.953125 52.203125 
Q 5.953125 55.8125 7.34375 59 
Q 8.734375 62.203125 11.46875 64.625 
Q 14.203125 67.046875 18.25 68.4375 
Q 22.3125 69.828125 27.640625 69.828125 
Q 33.25 69.828125 37.375 68.40625 
Q 41.5 67 44.203125 64.578125 
Q 46.921875 62.15625 48.234375 58.9375 
Q 49.5625 55.71875 49.5625 52.09375 
Q 49.5625 49.265625 48.75 46.671875 
Q 47.953125 44.09375 46.40625 41.96875 
Q 44.875 39.84375 42.59375 38.34375 
Q 40.328125 36.859375 37.359375 36.28125 
L 37.359375 36.078125 
Q 40.328125 35.59375 42.859375 34.296875 
Q 45.40625 33.015625 47.265625 30.890625 
Q 49.125 28.765625 50.1875 25.828125 
Q 51.265625 22.90625 51.265625 19.1875 
z
M 40.4375 51.609375 
Q 40.4375 54.203125 39.765625 56.34375 
Q 39.109375 58.5 37.59375 60.03125 
Q 36.078125 61.578125 33.640625 62.421875 
Q 31.203125 63.28125 27.640625 63.28125 
Q 24.171875 63.28125 21.78125 62.421875 
Q 19.390625 61.578125 17.84375 60.03125 
Q 16.3125 58.5 15.625 56.34375 
Q 14.9375 54.203125 14.9375 51.609375 
Q 14.9375 49.5625 15.46875 47.40625 
Q 16.015625 45.265625 17.421875 43.5 
Q 18.84375 41.75 21.328125 40.625 
Q 23.828125 39.5 27.734375 39.5 
Q 31.890625 39.5 34.40625 40.625 
Q 36.921875 41.75 38.25 43.5 
Q 39.59375 45.265625 40.015625 47.40625 
Q 40.4375 49.5625 40.4375 51.609375 
z
M 42.140625 20.015625 
Q 42.140625 22.515625 41.453125 24.828125 
Q 40.765625 27.15625 39.109375 28.9375 
Q 37.453125 30.71875 34.640625 31.8125 
Q 31.84375 32.90625 27.640625 32.90625 
Q 23.78125 32.90625 21.0625 31.8125 
Q 18.359375 30.71875 16.671875 28.90625 
Q 14.984375 27.09375 14.203125 24.71875 
Q 13.421875 22.359375 13.421875 19.828125 
Q 13.421875 16.65625 14.203125 14.03125 
Q 14.984375 11.421875 16.6875 9.546875 
Q 18.40625 7.671875 21.1875 6.640625 
Q 23.96875 5.609375 27.9375 5.609375 
Q 31.9375 5.609375 34.671875 6.640625 
Q 37.40625 7.671875 39.0625 9.546875 
Q 40.71875 11.421875 41.421875 14.078125 
Q 42.140625 16.75 42.140625 20.015625 
z
" id="LiberationSans-56"/>
      </defs>
      <g style="fill:#262626;" transform="translate(753.582396 683.646875)scale(0.1 -0.1)">
       <use xlink:href="#LiberationSans-56"/>
       <use x="55.615234" xlink:href="#LiberationSans-48"/>
      </g>
     </g>
    </g>
    <g id="xtick_10">
     <g id="line2d_10"/>
     <g id="text_10">
      <!-- 90 -->
      <defs>
       <path d="M 50.875 35.796875 
Q 50.875 26.609375 49.140625 19.703125 
Q 47.40625 12.796875 44.1875 8.203125 
Q 40.96875 3.609375 36.34375 1.3125 
Q 31.734375 -0.984375 25.984375 -0.984375 
Q 22.015625 -0.984375 18.84375 -0.171875 
Q 15.671875 0.640625 13.171875 2.34375 
Q 10.6875 4.046875 8.921875 6.78125 
Q 7.171875 9.515625 6.109375 13.375 
L 14.5 14.703125 
Q 15.875 10.25 18.78125 8.171875 
Q 21.6875 6.109375 26.125 6.109375 
Q 29.6875 6.109375 32.640625 7.78125 
Q 35.59375 9.46875 37.671875 12.84375 
Q 39.75 16.21875 40.921875 21.296875 
Q 42.09375 26.375 42.1875 33.203125 
Q 41.15625 30.90625 39.375 29.09375 
Q 37.59375 27.296875 35.328125 26.046875 
Q 33.0625 24.8125 30.421875 24.140625 
Q 27.78125 23.484375 25.09375 23.484375 
Q 20.40625 23.484375 16.625 25.171875 
Q 12.84375 26.859375 10.203125 29.875 
Q 7.5625 32.90625 6.125 37.171875 
Q 4.6875 41.453125 4.6875 46.6875 
Q 4.6875 52 6.21875 56.296875 
Q 7.765625 60.59375 10.6875 63.59375 
Q 13.625 66.609375 17.890625 68.21875 
Q 22.171875 69.828125 27.59375 69.828125 
Q 39.0625 69.828125 44.96875 61.328125 
Q 50.875 52.828125 50.875 35.796875 
z
M 41.3125 44.28125 
Q 41.3125 48.09375 40.40625 51.453125 
Q 39.5 54.828125 37.71875 57.3125 
Q 35.9375 59.8125 33.328125 61.25 
Q 30.71875 62.703125 27.296875 62.703125 
Q 24.125 62.703125 21.578125 61.578125 
Q 19.046875 60.453125 17.28125 58.375 
Q 15.53125 56.296875 14.578125 53.3125 
Q 13.625 50.34375 13.625 46.6875 
Q 13.625 43.21875 14.46875 40.234375 
Q 15.328125 37.25 17.03125 35.078125 
Q 18.75 32.90625 21.28125 31.65625 
Q 23.828125 30.421875 27.203125 30.421875 
Q 29.640625 30.421875 32.15625 31.25 
Q 34.671875 32.078125 36.6875 33.78125 
Q 38.71875 35.5 40.015625 38.109375 
Q 41.3125 40.71875 41.3125 44.28125 
z
" id="LiberationSans-57"/>
      </defs>
      <g style="fill:#262626;" transform="translate(842.104063 683.646875)scale(0.1 -0.1)">
       <use xlink:href="#LiberationSans-57"/>
       <use x="55.615234" xlink:href="#LiberationSans-48"/>
      </g>
     </g>
    </g>
    <g id="text_11">
     <!-- Generation -->
     <defs>
      <path d="M 5.03125 34.71875 
Q 5.03125 42.78125 7.203125 49.265625 
Q 9.375 55.765625 13.6875 60.328125 
Q 18.015625 64.890625 24.40625 67.359375 
Q 30.8125 69.828125 39.265625 69.828125 
Q 45.609375 69.828125 50.390625 68.703125 
Q 55.171875 67.578125 58.6875 65.46875 
Q 62.203125 63.375 64.640625 60.375 
Q 67.09375 57.375 68.796875 53.609375 
L 59.90625 50.984375 
Q 58.640625 53.515625 56.859375 55.59375 
Q 55.078125 57.671875 52.53125 59.125 
Q 50 60.59375 46.65625 61.390625 
Q 43.3125 62.203125 39.015625 62.203125 
Q 32.765625 62.203125 28.140625 60.25 
Q 23.53125 58.296875 20.5 54.6875 
Q 17.484375 51.078125 15.984375 46 
Q 14.5 40.921875 14.5 34.71875 
Q 14.5 28.515625 16.109375 23.359375 
Q 17.71875 18.21875 20.890625 14.484375 
Q 24.078125 10.75 28.78125 8.671875 
Q 33.5 6.59375 39.703125 6.59375 
Q 43.75 6.59375 47.171875 7.265625 
Q 50.59375 7.953125 53.34375 9.046875 
Q 56.109375 10.15625 58.203125 11.5 
Q 60.296875 12.84375 61.71875 14.203125 
L 61.71875 26.609375 
L 41.15625 26.609375 
L 41.15625 34.421875 
L 70.3125 34.421875 
L 70.3125 10.6875 
Q 68.015625 8.34375 64.90625 6.21875 
Q 61.8125 4.109375 57.953125 2.484375 
Q 54.109375 0.875 49.515625 -0.046875 
Q 44.921875 -0.984375 39.703125 -0.984375 
Q 31 -0.984375 24.5 1.671875 
Q 18.015625 4.34375 13.6875 9.109375 
Q 9.375 13.875 7.203125 20.40625 
Q 5.03125 26.953125 5.03125 34.71875 
z
" id="LiberationSans-71"/>
      <path d="M 13.484375 24.5625 
Q 13.484375 20.40625 14.328125 16.90625 
Q 15.1875 13.421875 16.96875 10.90625 
Q 18.75 8.40625 21.53125 7 
Q 24.3125 5.609375 28.21875 5.609375 
Q 33.9375 5.609375 37.375 7.90625 
Q 40.828125 10.203125 42.046875 13.71875 
L 49.75 11.53125 
Q 48.921875 9.328125 47.4375 7.109375 
Q 45.953125 4.890625 43.453125 3.09375 
Q 40.96875 1.3125 37.234375 0.15625 
Q 33.5 -0.984375 28.21875 -0.984375 
Q 16.5 -0.984375 10.375 6 
Q 4.25 12.984375 4.25 26.765625 
Q 4.25 34.1875 6.09375 39.328125 
Q 7.953125 44.484375 11.171875 47.703125 
Q 14.40625 50.921875 18.703125 52.359375 
Q 23 53.8125 27.875 53.8125 
Q 34.515625 53.8125 38.984375 51.65625 
Q 43.453125 49.515625 46.15625 45.71875 
Q 48.875 41.9375 50.015625 36.8125 
Q 51.171875 31.6875 51.171875 25.734375 
L 51.171875 24.5625 
z
M 42.09375 31.296875 
Q 41.359375 39.65625 37.84375 43.484375 
Q 34.328125 47.3125 27.734375 47.3125 
Q 25.53125 47.3125 23.109375 46.609375 
Q 20.703125 45.90625 18.65625 44.09375 
Q 16.609375 42.28125 15.1875 39.171875 
Q 13.765625 36.078125 13.578125 31.296875 
z
" id="LiberationSans-101"/>
      <path d="M 40.28125 0 
L 40.28125 33.5 
Q 40.28125 37.359375 39.71875 39.9375 
Q 39.15625 42.53125 37.890625 44.109375 
Q 36.625 45.703125 34.546875 46.359375 
Q 32.46875 47.015625 29.390625 47.015625 
Q 26.265625 47.015625 23.75 45.921875 
Q 21.234375 44.828125 19.453125 42.75 
Q 17.671875 40.671875 16.6875 37.625 
Q 15.71875 34.578125 15.71875 30.609375 
L 15.71875 0 
L 6.9375 0 
L 6.9375 41.546875 
Q 6.9375 43.21875 6.90625 45.046875 
Q 6.890625 46.875 6.828125 48.5 
Q 6.78125 50.140625 6.734375 51.3125 
Q 6.6875 52.484375 6.640625 52.828125 
L 14.9375 52.828125 
Q 14.984375 52.59375 15.03125 51.515625 
Q 15.09375 50.4375 15.15625 49.046875 
Q 15.234375 47.65625 15.28125 46.21875 
Q 15.328125 44.78125 15.328125 43.796875 
L 15.484375 43.796875 
Q 16.75 46.09375 18.265625 47.953125 
Q 19.78125 49.8125 21.78125 51.09375 
Q 23.78125 52.390625 26.359375 53.09375 
Q 28.953125 53.8125 32.375 53.8125 
Q 36.765625 53.8125 39.9375 52.734375 
Q 43.109375 51.65625 45.15625 49.40625 
Q 47.21875 47.171875 48.171875 43.625 
Q 49.125 40.09375 49.125 35.203125 
L 49.125 0 
z
" id="LiberationSans-110"/>
      <path d="M 6.9375 0 
L 6.9375 40.53125 
Q 6.9375 42.1875 6.90625 43.921875 
Q 6.890625 45.65625 6.828125 47.265625 
Q 6.78125 48.875 6.734375 50.28125 
Q 6.6875 51.703125 6.640625 52.828125 
L 14.9375 52.828125 
Q 14.984375 51.703125 15.0625 50.265625 
Q 15.140625 48.828125 15.203125 47.3125 
Q 15.28125 45.796875 15.296875 44.40625 
Q 15.328125 43.015625 15.328125 42.046875 
L 15.53125 42.046875 
Q 16.453125 45.0625 17.5 47.28125 
Q 18.5625 49.515625 19.96875 50.953125 
Q 21.390625 52.390625 23.34375 53.09375 
Q 25.296875 53.8125 28.078125 53.8125 
Q 29.15625 53.8125 30.125 53.640625 
Q 31.109375 53.46875 31.640625 53.328125 
L 31.640625 45.265625 
Q 30.765625 45.515625 29.59375 45.625 
Q 28.421875 45.75 26.953125 45.75 
Q 23.921875 45.75 21.796875 44.375 
Q 19.671875 43.015625 18.328125 40.59375 
Q 17 38.1875 16.359375 34.84375 
Q 15.71875 31.5 15.71875 27.546875 
L 15.71875 0 
z
" id="LiberationSans-114"/>
      <path d="M 20.21875 -0.984375 
Q 12.25 -0.984375 8.25 3.21875 
Q 4.25 7.421875 4.25 14.75 
Q 4.25 19.96875 6.21875 23.3125 
Q 8.203125 26.65625 11.390625 28.5625 
Q 14.59375 30.46875 18.6875 31.203125 
Q 22.796875 31.9375 27.046875 32.03125 
L 38.921875 32.234375 
L 38.921875 35.109375 
Q 38.921875 38.375 38.234375 40.671875 
Q 37.546875 42.96875 36.125 44.375 
Q 34.71875 45.796875 32.59375 46.453125 
Q 30.46875 47.125 27.59375 47.125 
Q 25.046875 47.125 23 46.75 
Q 20.953125 46.390625 19.4375 45.4375 
Q 17.921875 44.484375 16.984375 42.84375 
Q 16.0625 41.21875 15.765625 38.71875 
L 6.59375 39.546875 
Q 7.078125 42.671875 8.4375 45.28125 
Q 9.8125 47.90625 12.328125 49.796875 
Q 14.84375 51.703125 18.625 52.75 
Q 22.40625 53.8125 27.78125 53.8125 
Q 37.75 53.8125 42.765625 49.234375 
Q 47.796875 44.671875 47.796875 36.03125 
L 47.796875 13.28125 
Q 47.796875 9.375 48.828125 7.390625 
Q 49.859375 5.421875 52.734375 5.421875 
Q 53.46875 5.421875 54.203125 5.515625 
Q 54.9375 5.609375 55.609375 5.765625 
L 55.609375 0.296875 
Q 53.953125 -0.09375 52.3125 -0.28125 
Q 50.6875 -0.484375 48.828125 -0.484375 
Q 46.34375 -0.484375 44.5625 0.171875 
Q 42.78125 0.828125 41.65625 2.171875 
Q 40.53125 3.515625 39.9375 5.484375 
Q 39.359375 7.46875 39.203125 10.109375 
L 38.921875 10.109375 
Q 37.5 7.5625 35.8125 5.515625 
Q 34.125 3.46875 31.875 2.03125 
Q 29.640625 0.59375 26.78125 -0.1875 
Q 23.921875 -0.984375 20.21875 -0.984375 
z
M 22.21875 5.609375 
Q 26.421875 5.609375 29.5625 7.140625 
Q 32.71875 8.6875 34.78125 11.078125 
Q 36.859375 13.484375 37.890625 16.3125 
Q 38.921875 19.140625 38.921875 21.734375 
L 38.921875 26.078125 
L 29.296875 25.875 
Q 26.078125 25.828125 23.171875 25.40625 
Q 20.265625 25 18.0625 23.78125 
Q 15.875 22.5625 14.578125 20.359375 
Q 13.28125 18.171875 13.28125 14.59375 
Q 13.28125 10.296875 15.59375 7.953125 
Q 17.921875 5.609375 22.21875 5.609375 
z
" id="LiberationSans-97"/>
      <path d="M 27.046875 0.390625 
Q 25.046875 -0.140625 22.96875 -0.453125 
Q 20.90625 -0.78125 18.171875 -0.78125 
Q 7.625 -0.78125 7.625 11.1875 
L 7.625 46.4375 
L 1.515625 46.4375 
L 1.515625 52.828125 
L 7.953125 52.828125 
L 10.546875 64.65625 
L 16.40625 64.65625 
L 16.40625 52.828125 
L 26.171875 52.828125 
L 26.171875 46.4375 
L 16.40625 46.4375 
L 16.40625 13.09375 
Q 16.40625 9.28125 17.640625 7.734375 
Q 18.890625 6.203125 21.96875 6.203125 
Q 23.25 6.203125 24.4375 6.390625 
Q 25.640625 6.59375 27.046875 6.890625 
z
" id="LiberationSans-116"/>
      <path d="M 6.6875 64.0625 
L 6.6875 72.46875 
L 15.484375 72.46875 
L 15.484375 64.0625 
z
M 6.6875 0 
L 6.6875 52.828125 
L 15.484375 52.828125 
L 15.484375 0 
z
" id="LiberationSans-105"/>
      <path d="M 51.421875 26.46875 
Q 51.421875 12.59375 45.3125 5.796875 
Q 39.203125 -0.984375 27.59375 -0.984375 
Q 22.078125 -0.984375 17.71875 0.671875 
Q 13.375 2.34375 10.375 5.765625 
Q 7.375 9.1875 5.78125 14.328125 
Q 4.203125 19.484375 4.203125 26.46875 
Q 4.203125 53.8125 27.875 53.8125 
Q 34.03125 53.8125 38.5 52.09375 
Q 42.96875 50.390625 45.828125 46.96875 
Q 48.6875 43.5625 50.046875 38.421875 
Q 51.421875 33.296875 51.421875 26.46875 
z
M 42.1875 26.46875 
Q 42.1875 32.625 41.234375 36.625 
Q 40.28125 40.625 38.453125 43.015625 
Q 36.625 45.40625 33.984375 46.359375 
Q 31.34375 47.3125 28.03125 47.3125 
Q 24.65625 47.3125 21.9375 46.3125 
Q 19.234375 45.3125 17.328125 42.890625 
Q 15.4375 40.484375 14.421875 36.46875 
Q 13.421875 32.46875 13.421875 26.46875 
Q 13.421875 20.3125 14.5 16.28125 
Q 15.578125 12.25 17.453125 9.859375 
Q 19.34375 7.46875 21.90625 6.484375 
Q 24.46875 5.515625 27.484375 5.515625 
Q 30.859375 5.515625 33.59375 6.46875 
Q 36.328125 7.421875 38.234375 9.8125 
Q 40.140625 12.203125 41.15625 16.25 
Q 42.1875 20.3125 42.1875 26.46875 
z
" id="LiberationSans-111"/>
     </defs>
     <g style="fill:#262626;" transform="translate(399.844063 704.215625)scale(0.2 -0.2)">
      <use xlink:href="#LiberationSans-71"/>
      <use x="77.783203" xlink:href="#LiberationSans-101"/>
      <use x="133.398438" xlink:href="#LiberationSans-110"/>
      <use x="189.013672" xlink:href="#LiberationSans-101"/>
      <use x="244.628906" xlink:href="#LiberationSans-114"/>
      <use x="277.929688" xlink:href="#LiberationSans-97"/>
      <use x="333.544922" xlink:href="#LiberationSans-116"/>
      <use x="361.328125" xlink:href="#LiberationSans-105"/>
      <use x="383.544922" xlink:href="#LiberationSans-111"/>
      <use x="439.160156" xlink:href="#LiberationSans-110"/>
     </g>
    </g>
   </g>
   <g id="matplotlib.axis_2">
    <g id="ytick_1">
     <g id="line2d_11"/>
     <g id="text_12">
      <!-- 0.0 -->
      <defs>
       <path d="M 9.125 0 
L 9.125 10.6875 
L 18.65625 10.6875 
L 18.65625 0 
z
" id="LiberationSans-46"/>
      </defs>
      <g style="fill:#262626;" transform="translate(33.57 676.523438)scale(0.1 -0.1)">
       <use xlink:href="#LiberationSans-48"/>
       <use x="55.615234" xlink:href="#LiberationSans-46"/>
       <use x="83.398438" xlink:href="#LiberationSans-48"/>
      </g>
     </g>
    </g>
    <g id="ytick_2">
     <g id="line2d_12"/>
     <g id="text_13">
      <!-- 0.2 -->
      <g style="fill:#262626;" transform="translate(33.57 544.895437)scale(0.1 -0.1)">
       <use xlink:href="#LiberationSans-48"/>
       <use x="55.615234" xlink:href="#LiberationSans-46"/>
       <use x="83.398438" xlink:href="#LiberationSans-50"/>
      </g>
     </g>
    </g>
    <g id="ytick_3">
     <g id="line2d_13"/>
     <g id="text_14">
      <!-- 0.4 -->
      <g style="fill:#262626;" transform="translate(33.57 413.267438)scale(0.1 -0.1)">
       <use xlink:href="#LiberationSans-48"/>
       <use x="55.615234" xlink:href="#LiberationSans-46"/>
       <use x="83.398438" xlink:href="#LiberationSans-52"/>
      </g>
     </g>
    </g>
    <g id="ytick_4">
     <g id="line2d_14"/>
     <g id="text_15">
      <!-- 0.6 -->
      <g style="fill:#262626;" transform="translate(33.57 281.639438)scale(0.1 -0.1)">
       <use xlink:href="#LiberationSans-48"/>
       <use x="55.615234" xlink:href="#LiberationSans-46"/>
       <use x="83.398438" xlink:href="#LiberationSans-54"/>
      </g>
     </g>
    </g>
    <g id="ytick_5">
     <g id="line2d_15"/>
     <g id="text_16">
      <!-- 0.8 -->
      <g style="fill:#262626;" transform="translate(33.57 150.011438)scale(0.1 -0.1)">
       <use xlink:href="#LiberationSans-48"/>
       <use x="55.615234" xlink:href="#LiberationSans-46"/>
       <use x="83.398438" xlink:href="#LiberationSans-56"/>
      </g>
     </g>
    </g>
    <g id="ytick_6">
     <g id="line2d_16"/>
     <g id="text_17">
      <!-- 1.0 -->
      <g style="fill:#262626;" transform="translate(33.57 18.383438)scale(0.1 -0.1)">
       <use xlink:href="#LiberationSans-49"/>
       <use x="55.615234" xlink:href="#LiberationSans-46"/>
       <use x="83.398438" xlink:href="#LiberationSans-48"/>
      </g>
     </g>
    </g>
    <g id="text_18">
     <!-- Frequency -->
     <defs>
      <path d="M 17.53125 61.1875 
L 17.53125 35.59375 
L 55.90625 35.59375 
L 55.90625 27.875 
L 17.53125 27.875 
L 17.53125 0 
L 8.203125 0 
L 8.203125 68.796875 
L 57.078125 68.796875 
L 57.078125 61.1875 
z
" id="LiberationSans-70"/>
      <path d="M 23.640625 -0.984375 
Q 13.578125 -0.984375 8.890625 5.796875 
Q 4.203125 12.59375 4.203125 26.171875 
Q 4.203125 39.9375 9 46.875 
Q 13.8125 53.8125 23.640625 53.8125 
Q 26.90625 53.8125 29.421875 53.21875 
Q 31.9375 52.640625 33.90625 51.484375 
Q 35.890625 50.34375 37.375 48.625 
Q 38.875 46.921875 40.09375 44.625 
L 40.1875 44.625 
Q 40.1875 45.84375 40.25 47.328125 
Q 40.328125 48.828125 40.40625 50.140625 
Q 40.484375 51.46875 40.578125 52.421875 
Q 40.671875 53.375 40.765625 53.515625 
L 49.21875 53.515625 
Q 49.125 52.6875 49 49.171875 
Q 48.875 45.65625 48.875 39.109375 
L 48.875 -20.75 
L 40.09375 -20.75 
L 40.09375 0.6875 
Q 40.09375 1.953125 40.109375 3.3125 
Q 40.140625 4.6875 40.1875 5.90625 
Q 40.234375 7.28125 40.28125 8.6875 
L 40.1875 8.6875 
Q 38.921875 6.203125 37.375 4.375 
Q 35.84375 2.546875 33.84375 1.34375 
Q 31.84375 0.140625 29.328125 -0.421875 
Q 26.8125 -0.984375 23.640625 -0.984375 
z
M 40.09375 27.046875 
Q 40.09375 32.8125 39.09375 36.71875 
Q 38.09375 40.625 36.25 42.96875 
Q 34.421875 45.3125 31.8125 46.3125 
Q 29.203125 47.3125 25.984375 47.3125 
Q 22.609375 47.3125 20.21875 46.0625 
Q 17.828125 44.828125 16.328125 42.265625 
Q 14.84375 39.703125 14.125 35.765625 
Q 13.421875 31.84375 13.421875 26.46875 
Q 13.421875 21.1875 14.078125 17.28125 
Q 14.75 13.375 16.234375 10.828125 
Q 17.71875 8.296875 20.09375 7.046875 
Q 22.46875 5.8125 25.875 5.8125 
Q 28.8125 5.8125 31.390625 6.71875 
Q 33.984375 7.625 35.90625 9.984375 
Q 37.84375 12.359375 38.96875 16.484375 
Q 40.09375 20.609375 40.09375 27.046875 
z
" id="LiberationSans-113"/>
      <path d="M 15.328125 52.828125 
L 15.328125 19.34375 
Q 15.328125 15.484375 15.890625 12.890625 
Q 16.453125 10.296875 17.71875 8.703125 
Q 19 7.125 21.0625 6.46875 
Q 23.140625 5.8125 26.21875 5.8125 
Q 29.34375 5.8125 31.859375 6.90625 
Q 34.375 8.015625 36.15625 10.078125 
Q 37.9375 12.15625 38.90625 15.203125 
Q 39.890625 18.265625 39.890625 22.21875 
L 39.890625 52.828125 
L 48.6875 52.828125 
L 48.6875 11.28125 
Q 48.6875 9.625 48.703125 7.78125 
Q 48.734375 5.953125 48.78125 4.3125 
Q 48.828125 2.6875 48.875 1.515625 
Q 48.921875 0.34375 48.96875 0 
L 40.671875 0 
Q 40.625 0.25 40.578125 1.3125 
Q 40.53125 2.390625 40.453125 3.78125 
Q 40.375 5.171875 40.328125 6.609375 
Q 40.28125 8.0625 40.28125 9.03125 
L 40.140625 9.03125 
Q 38.875 6.734375 37.359375 4.875 
Q 35.84375 3.03125 33.84375 1.734375 
Q 31.84375 0.4375 29.25 -0.265625 
Q 26.65625 -0.984375 23.25 -0.984375 
Q 18.84375 -0.984375 15.671875 0.09375 
Q 12.5 1.171875 10.453125 3.421875 
Q 8.40625 5.671875 7.453125 9.1875 
Q 6.5 12.703125 6.5 17.625 
L 6.5 52.828125 
z
" id="LiberationSans-117"/>
      <path d="M 13.421875 26.65625 
Q 13.421875 22.125 14.078125 18.3125 
Q 14.75 14.5 16.3125 11.734375 
Q 17.875 8.984375 20.4375 7.46875 
Q 23 5.953125 26.765625 5.953125 
Q 31.453125 5.953125 34.59375 8.484375 
Q 37.75 11.03125 38.484375 16.3125 
L 47.359375 15.71875 
Q 46.921875 12.453125 45.453125 9.421875 
Q 44 6.390625 41.484375 4.09375 
Q 38.96875 1.8125 35.34375 0.40625 
Q 31.734375 -0.984375 27 -0.984375 
Q 20.796875 -0.984375 16.453125 1.109375 
Q 12.109375 3.21875 9.390625 6.90625 
Q 6.6875 10.59375 5.46875 15.59375 
Q 4.25 20.609375 4.25 26.46875 
Q 4.25 31.78125 5.125 35.859375 
Q 6 39.9375 7.59375 42.984375 
Q 9.1875 46.046875 11.328125 48.125 
Q 13.484375 50.203125 15.984375 51.4375 
Q 18.5 52.6875 21.28125 53.25 
Q 24.078125 53.8125 26.90625 53.8125 
Q 31.34375 53.8125 34.8125 52.59375 
Q 38.28125 51.375 40.796875 49.25 
Q 43.3125 47.125 44.875 44.234375 
Q 46.4375 41.359375 47.078125 38.03125 
L 38.03125 37.359375 
Q 37.359375 41.75 34.5625 44.328125 
Q 31.78125 46.921875 26.65625 46.921875 
Q 22.90625 46.921875 20.390625 45.671875 
Q 17.875 44.4375 16.3125 41.921875 
Q 14.75 39.40625 14.078125 35.59375 
Q 13.421875 31.78125 13.421875 26.65625 
z
" id="LiberationSans-99"/>
      <path d="M 29.5 0 
Q 27.640625 -4.78125 25.703125 -8.609375 
Q 23.78125 -12.453125 21.390625 -15.15625 
Q 19 -17.875 16.0625 -19.3125 
Q 13.140625 -20.75 9.328125 -20.75 
Q 7.671875 -20.75 6.25 -20.65625 
Q 4.828125 -20.5625 3.265625 -20.21875 
L 3.265625 -13.625 
Q 4.203125 -13.765625 5.375 -13.84375 
Q 6.546875 -13.921875 7.375 -13.921875 
Q 11.234375 -13.921875 14.546875 -11.03125 
Q 17.875 -8.15625 20.359375 -1.859375 
L 21.1875 0.25 
L 0.25 52.828125 
L 9.625 52.828125 
L 20.75 23.640625 
Q 21.234375 22.3125 21.984375 20.109375 
Q 22.75 17.921875 23.5 15.71875 
Q 24.265625 13.53125 24.84375 11.765625 
Q 25.4375 10.015625 25.53125 9.578125 
Q 25.6875 10.109375 26.25 11.6875 
Q 26.8125 13.28125 27.515625 15.234375 
Q 28.21875 17.1875 28.953125 19.1875 
Q 29.6875 21.1875 30.171875 22.65625 
L 40.53125 52.828125 
L 49.8125 52.828125 
z
" id="LiberationSans-121"/>
     </defs>
     <g style="fill:#262626;" transform="translate(25.42 391.072188)rotate(-90)scale(0.2 -0.2)">
      <use xlink:href="#LiberationSans-70"/>
      <use x="61.083984" xlink:href="#LiberationSans-114"/>
      <use x="94.384766" xlink:href="#LiberationSans-101"/>
      <use x="150" xlink:href="#LiberationSans-113"/>
      <use x="205.615234" xlink:href="#LiberationSans-117"/>
      <use x="261.230469" xlink:href="#LiberationSans-101"/>
      <use x="316.845703" xlink:href="#LiberationSans-110"/>
      <use x="372.460938" xlink:href="#LiberationSans-99"/>
      <use x="422.460938" xlink:href="#LiberationSans-121"/>
     </g>
    </g>
   </g>
   <g id="PolyCollection_1">
    <path clip-path="url(#pef750b81e5)" d="M 50.97 343.83 
L 50.97 672.9 
L 126.213417 672.9 
L 201.456833 672.9 
L 236.8655 672.9 
L 272.274167 672.9 
L 356.36975 672.9 
L 440.465333 672.9 
L 537.839167 672.9 
L 635.213 672.9 
L 675.04775 672.9 
L 714.8825 672.9 
L 847.665 672.9 
L 847.665 672.9 
L 847.665 672.9 
L 714.8825 672.9 
L 675.04775 672.9 
L 635.213 672.9 
L 537.839167 672.9 
L 440.465333 672.9 
L 356.36975 636.186377 
L 272.274167 610.3767 
L 236.8655 508.567879 
L 201.456833 468.8766 
L 126.213417 343.83 
L 50.97 343.83 
z
" style="fill:#ffffff;"/>
   </g>
   <g id="PolyCollection_2">
    <path clip-path="url(#pef750b81e5)" d="M 50.97 343.83 
L 50.97 343.83 
L 126.213417 343.83 
L 201.456833 468.8766 
L 236.8655 508.567879 
L 272.274167 610.3767 
L 356.36975 636.186377 
L 440.465333 672.9 
L 537.839167 672.9 
L 635.213 672.9 
L 675.04775 672.9 
L 714.8825 672.9 
L 847.665 672.9 
L 847.665 658.296721 
L 847.665 658.296721 
L 714.8825 672.9 
L 675.04775 672.9 
L 635.213 672.9 
L 537.839167 672.9 
L 440.465333 672.9 
L 356.36975 613.578514 
L 272.274167 571.87551 
L 236.8655 508.567879 
L 201.456833 468.8766 
L 126.213417 343.83 
L 50.97 343.83 
z
" style="fill:#e32f27;"/>
   </g>
   <g id="PolyCollection_3">
    <path clip-path="url(#pef750b81e5)" d="M 50.97 343.83 
L 50.97 343.83 
L 126.213417 343.83 
L 201.456833 468.8766 
L 236.8655 508.567879 
L 272.274167 571.87551 
L 356.36975 613.578514 
L 440.465333 672.9 
L 537.839167 672.9 
L 635.213 672.9 
L 675.04775 672.9 
L 714.8825 672.9 
L 847.665 658.296721 
L 847.665 643.693442 
L 847.665 643.693442 
L 714.8825 672.9 
L 675.04775 672.9 
L 635.213 672.9 
L 537.839167 672.9 
L 440.465333 672.9 
L 356.36975 590.970652 
L 272.274167 533.37432 
L 236.8655 508.567879 
L 201.456833 468.8766 
L 126.213417 343.83 
L 50.97 343.83 
z
" style="fill:#e32f27;"/>
   </g>
   <g id="PolyCollection_4">
    <path clip-path="url(#pef750b81e5)" d="M 50.97 343.83 
L 50.97 343.83 
L 126.213417 343.83 
L 201.456833 468.8766 
L 236.8655 508.567879 
L 272.274167 533.37432 
L 356.36975 590.970652 
L 440.465333 672.9 
L 537.839167 672.9 
L 635.213 672.9 
L 675.04775 672.9 
L 714.8825 672.9 
L 847.665 643.693442 
L 847.665 636.604472 
L 847.665 636.604472 
L 714.8825 666.135971 
L 675.04775 645.629566 
L 635.213 638.269375 
L 537.839167 590.770892 
L 440.465333 555.648559 
L 356.36975 431.556236 
L 272.274167 458.34636 
L 236.8655 508.567879 
L 201.456833 468.8766 
L 126.213417 343.83 
L 50.97 343.83 
z
" style="fill:#334538;"/>
   </g>
   <g id="PolyCollection_5">
    <path clip-path="url(#pef750b81e5)" d="M 50.97 343.83 
L 50.97 343.83 
L 126.213417 343.83 
L 201.456833 468.8766 
L 236.8655 508.567879 
L 272.274167 458.34636 
L 356.36975 431.556236 
L 440.465333 555.648559 
L 537.839167 590.770892 
L 635.213 638.269375 
L 675.04775 645.629566 
L 714.8825 666.135971 
L 847.665 636.604472 
L 847.665 627.885039 
L 847.665 627.885039 
L 714.8825 649.834662 
L 675.04775 633.413628 
L 635.213 638.269375 
L 537.839167 579.246648 
L 440.465333 533.160636 
L 356.36975 431.556236 
L 272.274167 458.34636 
L 236.8655 508.567879 
L 201.456833 468.8766 
L 126.213417 343.83 
L 50.97 343.83 
z
" style="fill:#37a155;"/>
   </g>
   <g id="PolyCollection_6">
    <path clip-path="url(#pef750b81e5)" d="M 50.97 343.83 
L 50.97 343.83 
L 126.213417 343.83 
L 201.456833 468.8766 
L 236.8655 508.567879 
L 272.274167 458.34636 
L 356.36975 431.556236 
L 440.465333 533.160636 
L 537.839167 579.246648 
L 635.213 638.269375 
L 675.04775 633.413628 
L 714.8825 649.834662 
L 847.665 627.885039 
L 847.665 619.165605 
L 847.665 619.165605 
L 714.8825 633.533353 
L 675.04775 621.197689 
L 635.213 638.269375 
L 537.839167 567.722404 
L 440.465333 510.672713 
L 356.36975 431.556236 
L 272.274167 458.34636 
L 236.8655 508.567879 
L 201.456833 468.8766 
L 126.213417 343.83 
L 50.97 343.83 
z
" style="fill:#37a155;"/>
   </g>
   <g id="PolyCollection_7">
    <path clip-path="url(#pef750b81e5)" d="M 50.97 343.83 
L 50.97 343.83 
L 126.213417 343.83 
L 201.456833 468.8766 
L 236.8655 508.567879 
L 272.274167 458.34636 
L 356.36975 431.556236 
L 440.465333 510.672713 
L 537.839167 567.722404 
L 635.213 638.269375 
L 675.04775 621.197689 
L 714.8825 633.533353 
L 847.665 619.165605 
L 847.665 608.106812 
L 847.665 608.106812 
L 714.8825 629.677856 
L 675.04775 590.27768 
L 635.213 594.546235 
L 537.839167 532.948376 
L 440.465333 497.121038 
L 356.36975 431.556236 
L 272.274167 458.34636 
L 236.8655 508.567879 
L 201.456833 468.8766 
L 126.213417 343.83 
L 50.97 343.83 
z
" style="fill:#357c49;"/>
   </g>
   <g id="PolyCollection_8">
    <path clip-path="url(#pef750b81e5)" d="M 50.97 343.83 
L 50.97 343.83 
L 126.213417 343.83 
L 201.456833 468.8766 
L 236.8655 508.567879 
L 272.274167 458.34636 
L 356.36975 431.556236 
L 440.465333 497.121038 
L 537.839167 532.948376 
L 635.213 594.546235 
L 675.04775 590.27768 
L 714.8825 629.677856 
L 847.665 608.106812 
L 847.665 597.048018 
L 847.665 597.048018 
L 714.8825 625.82236 
L 675.04775 559.357671 
L 635.213 550.823095 
L 537.839167 498.174348 
L 440.465333 483.569364 
L 356.36975 431.556236 
L 272.274167 458.34636 
L 236.8655 508.567879 
L 201.456833 468.8766 
L 126.213417 343.83 
L 50.97 343.83 
z
" style="fill:#357c49;"/>
   </g>
   <g id="PolyCollection_9">
    <path clip-path="url(#pef750b81e5)" d="M 50.97 343.83 
L 50.97 343.83 
L 126.213417 343.83 
L 201.456833 468.8766 
L 236.8655 508.567879 
L 272.274167 458.34636 
L 356.36975 431.556236 
L 440.465333 483.569364 
L 537.839167 498.174348 
L 635.213 550.823095 
L 675.04775 559.357671 
L 714.8825 625.82236 
L 847.665 597.048018 
L 847.665 589.959048 
L 847.665 589.959048 
L 714.8825 619.058331 
L 675.04775 520.935758 
L 635.213 498.798092 
L 537.839167 460.028598 
L 440.465333 473.749311 
L 356.36975 431.556236 
L 272.274167 458.34636 
L 236.8655 508.567879 
L 201.456833 468.8766 
L 126.213417 343.83 
L 50.97 343.83 
z
" style="fill:#34573e;"/>
   </g>
   <g id="PolyCollection_10">
    <path clip-path="url(#pef750b81e5)" d="M 50.97 343.83 
L 50.97 343.83 
L 126.213417 343.83 
L 201.456833 468.8766 
L 236.8655 508.567879 
L 272.274167 458.34636 
L 356.36975 431.556236 
L 440.465333 473.749311 
L 537.839167 460.028598 
L 635.213 498.798092 
L 675.04775 520.935758 
L 714.8825 619.058331 
L 847.665 589.959048 
L 847.665 448.179642 
L 847.665 448.179642 
L 714.8825 483.777755 
L 675.04775 520.935758 
L 635.213 498.798092 
L 537.839167 460.028598 
L 440.465333 473.749311 
L 356.36975 431.556236 
L 272.274167 458.34636 
L 236.8655 508.567879 
L 201.456833 468.8766 
L 126.213417 343.83 
L 50.97 343.83 
z
" style="fill:#4bab63;"/>
   </g>
   <g id="PolyCollection_11">
    <path clip-path="url(#pef750b81e5)" d="M 50.97 343.83 
L 50.97 343.83 
L 126.213417 343.83 
L 201.456833 468.8766 
L 236.8655 508.567879 
L 272.274167 458.34636 
L 356.36975 431.556236 
L 440.465333 473.749311 
L 537.839167 460.028598 
L 635.213 498.798092 
L 675.04775 520.935758 
L 714.8825 483.777755 
L 847.665 448.179642 
L 847.665 306.400237 
L 847.665 306.400237 
L 714.8825 348.49718 
L 675.04775 520.935758 
L 635.213 498.798092 
L 537.839167 460.028598 
L 440.465333 473.749311 
L 356.36975 431.556236 
L 272.274167 458.34636 
L 236.8655 508.567879 
L 201.456833 468.8766 
L 126.213417 343.83 
L 50.97 343.83 
z
" style="fill:#4bab63;"/>
   </g>
   <g id="PolyCollection_12">
    <path clip-path="url(#pef750b81e5)" d="M 50.97 343.83 
L 50.97 343.83 
L 126.213417 343.83 
L 201.456833 468.8766 
L 236.8655 508.567879 
L 272.274167 458.34636 
L 356.36975 431.556236 
L 440.465333 473.749311 
L 537.839167 460.028598 
L 635.213 498.798092 
L 675.04775 520.935758 
L 714.8825 348.49718 
L 847.665 306.400237 
L 847.665 306.400237 
L 847.665 306.400237 
L 714.8825 320.22354 
L 675.04775 478.560139 
L 635.213 465.748775 
L 537.839167 460.028598 
L 440.465333 473.749311 
L 356.36975 431.556236 
L 272.274167 458.34636 
L 236.8655 508.567879 
L 201.456833 468.8766 
L 126.213417 343.83 
L 50.97 343.83 
z
" style="fill:#73c07f;"/>
   </g>
   <g id="PolyCollection_13">
    <path clip-path="url(#pef750b81e5)" d="M 50.97 343.83 
L 50.97 343.83 
L 126.213417 343.83 
L 201.456833 468.8766 
L 236.8655 508.567879 
L 272.274167 458.34636 
L 356.36975 431.556236 
L 440.465333 473.749311 
L 537.839167 460.028598 
L 635.213 465.748775 
L 675.04775 478.560139 
L 714.8825 320.22354 
L 847.665 306.400237 
L 847.665 306.400237 
L 847.665 306.400237 
L 714.8825 291.949899 
L 675.04775 436.184519 
L 635.213 432.699457 
L 537.839167 460.028598 
L 440.465333 473.749311 
L 356.36975 431.556236 
L 272.274167 458.34636 
L 236.8655 508.567879 
L 201.456833 468.8766 
L 126.213417 343.83 
L 50.97 343.83 
z
" style="fill:#73c07f;"/>
   </g>
   <g id="PolyCollection_14">
    <path clip-path="url(#pef750b81e5)" d="M 50.97 343.83 
L 50.97 343.83 
L 126.213417 343.83 
L 201.456833 468.8766 
L 236.8655 508.567879 
L 272.274167 458.34636 
L 356.36975 431.556236 
L 440.465333 473.749311 
L 537.839167 460.028598 
L 635.213 432.699457 
L 675.04775 436.184519 
L 714.8825 291.949899 
L 847.665 306.400237 
L 847.665 292.860304 
L 847.665 292.860304 
L 714.8825 279.030604 
L 675.04775 408.863396 
L 635.213 405.184714 
L 537.839167 408.697905 
L 440.465333 407.75855 
L 356.36975 431.556236 
L 272.274167 458.34636 
L 236.8655 508.567879 
L 201.456833 468.8766 
L 126.213417 343.83 
L 50.97 343.83 
z
" style="fill:#5eb570;"/>
   </g>
   <g id="PolyCollection_15">
    <path clip-path="url(#pef750b81e5)" d="M 50.97 343.83 
L 50.97 343.83 
L 126.213417 343.83 
L 201.456833 468.8766 
L 236.8655 508.567879 
L 272.274167 458.34636 
L 356.36975 431.556236 
L 440.465333 407.75855 
L 537.839167 408.697905 
L 635.213 405.184714 
L 675.04775 408.863396 
L 714.8825 279.030604 
L 847.665 292.860304 
L 847.665 225.231527 
L 847.665 225.231527 
L 714.8825 204.017525 
L 675.04775 324.466978 
L 635.213 361.224378 
L 537.839167 408.697905 
L 440.465333 407.75855 
L 356.36975 431.556236 
L 272.274167 458.34636 
L 236.8655 508.567879 
L 201.456833 468.8766 
L 126.213417 343.83 
L 50.97 343.83 
z
" style="fill:#87ca8c;"/>
   </g>
   <g id="PolyCollection_16">
    <path clip-path="url(#pef750b81e5)" d="M 50.97 343.83 
L 50.97 343.83 
L 126.213417 343.83 
L 201.456833 468.8766 
L 236.8655 508.567879 
L 272.274167 458.34636 
L 356.36975 431.556236 
L 440.465333 407.75855 
L 537.839167 408.697905 
L 635.213 361.224378 
L 675.04775 324.466978 
L 714.8825 204.017525 
L 847.665 225.231527 
L 847.665 179.011441 
L 847.665 179.011441 
L 714.8825 167.829971 
L 675.04775 324.466978 
L 635.213 361.224378 
L 537.839167 408.697905 
L 440.465333 407.75855 
L 356.36975 431.556236 
L 272.274167 458.34636 
L 236.8655 508.567879 
L 201.456833 468.8766 
L 126.213417 343.83 
L 50.97 343.83 
z
" style="fill:#9ad49a;"/>
   </g>
   <g id="PolyCollection_17">
    <path clip-path="url(#pef750b81e5)" d="M 50.97 343.83 
L 50.97 343.83 
L 126.213417 343.83 
L 201.456833 468.8766 
L 236.8655 508.567879 
L 272.274167 458.34636 
L 356.36975 431.556236 
L 440.465333 407.75855 
L 537.839167 408.697905 
L 635.213 361.224378 
L 675.04775 324.466978 
L 714.8825 167.829971 
L 847.665 179.011441 
L 847.665 132.791355 
L 847.665 132.791355 
L 714.8825 131.642417 
L 675.04775 324.466978 
L 635.213 361.224378 
L 537.839167 408.697905 
L 440.465333 407.75855 
L 356.36975 431.556236 
L 272.274167 458.34636 
L 236.8655 508.567879 
L 201.456833 468.8766 
L 126.213417 343.83 
L 50.97 343.83 
z
" style="fill:#9ad49a;"/>
   </g>
   <g id="PolyCollection_18">
    <path clip-path="url(#pef750b81e5)" d="M 50.97 343.83 
L 50.97 343.83 
L 126.213417 343.83 
L 201.456833 468.8766 
L 236.8655 508.567879 
L 272.274167 458.34636 
L 356.36975 431.556236 
L 440.465333 407.75855 
L 537.839167 408.697905 
L 635.213 361.224378 
L 675.04775 324.466978 
L 714.8825 131.642417 
L 847.665 132.791355 
L 847.665 65.162579 
L 847.665 65.162579 
L 714.8825 56.629338 
L 675.04775 240.070559 
L 635.213 317.264041 
L 537.839167 408.697905 
L 440.465333 407.75855 
L 356.36975 431.556236 
L 272.274167 458.34636 
L 236.8655 508.567879 
L 201.456833 468.8766 
L 126.213417 343.83 
L 50.97 343.83 
z
" style="fill:#87ca8c;"/>
   </g>
   <g id="PolyCollection_19">
    <path clip-path="url(#pef750b81e5)" d="M 50.97 343.83 
L 50.97 343.83 
L 126.213417 343.83 
L 201.456833 468.8766 
L 236.8655 508.567879 
L 272.274167 458.34636 
L 356.36975 431.556236 
L 440.465333 407.75855 
L 537.839167 408.697905 
L 635.213 317.264041 
L 675.04775 240.070559 
L 714.8825 56.629338 
L 847.665 65.162579 
L 847.665 51.622645 
L 847.665 51.622645 
L 714.8825 43.710043 
L 675.04775 212.749436 
L 635.213 289.749298 
L 537.839167 357.367212 
L 440.465333 341.767789 
L 356.36975 431.556236 
L 272.274167 458.34636 
L 236.8655 508.567879 
L 201.456833 468.8766 
L 126.213417 343.83 
L 50.97 343.83 
z
" style="fill:#5eb570;"/>
   </g>
   <g id="PolyCollection_20">
    <path clip-path="url(#pef750b81e5)" d="M 50.97 343.83 
L 50.97 343.83 
L 126.213417 343.83 
L 201.456833 468.8766 
L 236.8655 508.567879 
L 272.274167 458.34636 
L 356.36975 431.556236 
L 440.465333 341.767789 
L 537.839167 357.367212 
L 635.213 289.749298 
L 675.04775 212.749436 
L 714.8825 43.710043 
L 847.665 51.622645 
L 847.665 44.533675 
L 847.665 44.533675 
L 714.8825 36.946014 
L 675.04775 174.327523 
L 635.213 237.724296 
L 537.839167 319.221462 
L 440.465333 331.947735 
L 356.36975 431.556236 
L 272.274167 458.34636 
L 236.8655 508.567879 
L 201.456833 468.8766 
L 126.213417 343.83 
L 50.97 343.83 
z
" style="fill:#34573e;"/>
   </g>
   <g id="PolyCollection_21">
    <path clip-path="url(#pef750b81e5)" d="M 50.97 343.83 
L 50.97 343.83 
L 126.213417 343.83 
L 201.456833 468.8766 
L 236.8655 508.567879 
L 272.274167 458.34636 
L 356.36975 431.556236 
L 440.465333 331.947735 
L 537.839167 319.221462 
L 635.213 237.724296 
L 675.04775 174.327523 
L 714.8825 36.946014 
L 847.665 44.533675 
L 847.665 33.191323 
L 847.665 33.191323 
L 714.8825 29.235022 
L 675.04775 118.975638 
L 635.213 160.398381 
L 537.839167 229.443074 
L 440.465333 252.798102 
L 356.36975 431.556236 
L 272.274167 458.34636 
L 236.8655 508.567879 
L 201.456833 468.8766 
L 126.213417 343.83 
L 50.97 343.83 
z
" style="fill:#356a44;"/>
   </g>
   <g id="PolyCollection_22">
    <path clip-path="url(#pef750b81e5)" d="M 50.97 343.83 
L 50.97 343.83 
L 126.213417 343.83 
L 201.456833 468.8766 
L 236.8655 508.567879 
L 272.274167 458.34636 
L 356.36975 431.556236 
L 440.465333 252.798102 
L 537.839167 229.443074 
L 635.213 160.398381 
L 675.04775 118.975638 
L 714.8825 29.235022 
L 847.665 33.191323 
L 847.665 21.84897 
L 847.665 21.84897 
L 714.8825 21.524029 
L 675.04775 63.623752 
L 635.213 83.072465 
L 537.839167 139.664686 
L 440.465333 173.648469 
L 356.36975 431.556236 
L 272.274167 458.34636 
L 236.8655 508.567879 
L 201.456833 468.8766 
L 126.213417 343.83 
L 50.97 343.83 
z
" style="fill:#356a44;"/>
   </g>
   <g id="PolyCollection_23">
    <path clip-path="url(#pef750b81e5)" d="M 50.97 343.83 
L 50.97 343.83 
L 126.213417 343.83 
L 201.456833 468.8766 
L 236.8655 508.567879 
L 272.274167 458.34636 
L 356.36975 431.556236 
L 440.465333 173.648469 
L 537.839167 139.664686 
L 635.213 83.072465 
L 675.04775 63.623752 
L 714.8825 21.524029 
L 847.665 21.84897 
L 847.665 21.84897 
L 847.665 21.84897 
L 714.8825 21.524029 
L 675.04775 52.827093 
L 635.213 66.231545 
L 537.839167 118.276897 
L 440.465333 152.829955 
L 356.36975 404.697322 
L 272.274167 447.48705 
L 236.8655 508.567879 
L 201.456833 468.8766 
L 126.213417 343.83 
L 50.97 343.83 
z
" style="fill:#368e4f;"/>
   </g>
   <g id="PolyCollection_24">
    <path clip-path="url(#pef750b81e5)" d="M 50.97 343.83 
L 50.97 343.83 
L 126.213417 343.83 
L 201.456833 468.8766 
L 236.8655 508.567879 
L 272.274167 447.48705 
L 356.36975 404.697322 
L 440.465333 152.829955 
L 537.839167 118.276897 
L 635.213 66.231545 
L 675.04775 52.827093 
L 714.8825 21.524029 
L 847.665 21.84897 
L 847.665 21.84897 
L 847.665 21.84897 
L 714.8825 21.524029 
L 675.04775 42.030434 
L 635.213 49.390625 
L 537.839167 96.889108 
L 440.465333 132.011441 
L 356.36975 377.838409 
L 272.274167 436.62774 
L 236.8655 508.567879 
L 201.456833 468.8766 
L 126.213417 343.83 
L 50.97 343.83 
z
" style="fill:#368e4f;"/>
   </g>
   <g id="PolyCollection_25">
    <path clip-path="url(#pef750b81e5)" d="M 50.97 343.83 
L 50.97 343.83 
L 126.213417 343.83 
L 201.456833 468.8766 
L 236.8655 508.567879 
L 272.274167 436.62774 
L 356.36975 377.838409 
L 440.465333 132.011441 
L 537.839167 96.889108 
L 635.213 49.390625 
L 675.04775 42.030434 
L 714.8825 21.524029 
L 847.665 21.84897 
L 847.665 14.76 
L 847.665 14.76 
L 714.8825 14.76 
L 675.04775 14.76 
L 635.213 14.76 
L 537.839167 14.76 
L 440.465333 14.76 
L 356.36975 218.423993 
L 272.274167 361.59978 
L 236.8655 508.567879 
L 201.456833 468.8766 
L 126.213417 343.83 
L 50.97 343.83 
z
" style="fill:#334538;"/>
   </g>
   <g id="PolyCollection_26">
    <path clip-path="url(#pef750b81e5)" d="M 50.97 343.83 
L 50.97 343.83 
L 126.213417 343.83 
L 201.456833 468.8766 
L 236.8655 508.567879 
L 272.274167 361.59978 
L 356.36975 218.423993 
L 440.465333 14.76 
L 537.839167 14.76 
L 635.213 14.76 
L 675.04775 14.76 
L 714.8825 14.76 
L 847.665 14.76 
L 847.665 14.76 
L 847.665 14.76 
L 714.8825 14.76 
L 675.04775 14.76 
L 635.213 14.76 
L 537.839167 14.76 
L 440.465333 14.76 
L 356.36975 134.948808 
L 272.274167 219.44154 
L 236.8655 343.83 
L 201.456833 343.83 
L 126.213417 343.83 
L 50.97 343.83 
z
" style="fill:#3787c1;"/>
   </g>
   <g id="PolyCollection_27">
    <path clip-path="url(#pef750b81e5)" d="M 50.97 343.83 
L 50.97 343.83 
L 126.213417 343.83 
L 201.456833 343.83 
L 236.8655 343.83 
L 272.274167 219.44154 
L 356.36975 134.948808 
L 440.465333 14.76 
L 537.839167 14.76 
L 635.213 14.76 
L 675.04775 14.76 
L 714.8825 14.76 
L 847.665 14.76 
L 847.665 14.76 
L 847.665 14.76 
L 714.8825 14.76 
L 675.04775 14.76 
L 635.213 14.76 
L 537.839167 14.76 
L 440.465333 14.76 
L 356.36975 51.473623 
L 272.274167 77.2833 
L 236.8655 179.092121 
L 201.456833 218.7834 
L 126.213417 343.83 
L 50.97 343.83 
z
" style="fill:#3787c1;"/>
   </g>
   <g id="PolyCollection_28">
    <path clip-path="url(#pef750b81e5)" d="M 50.97 14.76 
L 50.97 343.83 
L 126.213417 343.83 
L 201.456833 218.7834 
L 236.8655 179.092121 
L 272.274167 77.2833 
L 356.36975 51.473623 
L 440.465333 14.76 
L 537.839167 14.76 
L 635.213 14.76 
L 675.04775 14.76 
L 714.8825 14.76 
L 847.665 14.76 
L 847.665 14.76 
L 847.665 14.76 
L 714.8825 14.76 
L 675.04775 14.76 
L 635.213 14.76 
L 537.839167 14.76 
L 440.465333 14.76 
L 356.36975 14.76 
L 272.274167 14.76 
L 236.8655 14.76 
L 201.456833 14.76 
L 126.213417 14.76 
L 50.97 14.76 
z
" style="fill:#ffffff;"/>
   </g>
   <g id="patch_3">
    <path d="M 50.97 672.9 
L 50.97 14.76 
" style="fill:none;stroke:#262626;stroke-linecap:square;stroke-linejoin:miter;stroke-width:1.25;"/>
   </g>
   <g id="patch_4">
    <path d="M 50.97 672.9 
L 847.665 672.9 
" style="fill:none;stroke:#262626;stroke-linecap:square;stroke-linejoin:miter;stroke-width:1.25;"/>
   </g>
   <g id="text_19">
    <g id="patch_5">
     <path d="M 268.314167 577.70301 
L 311.255417 577.70301 
L 311.255417 561.393323 
L 268.314167 561.393323 
z
" style="fill:#e32f27;stroke:#000000;stroke-linejoin:miter;"/>
    </g>
    <!-- -Gene10 -->
    <defs>
     <path d="M 4.4375 22.65625 
L 4.4375 30.46875 
L 28.859375 30.46875 
L 28.859375 22.65625 
z
" id="LiberationSans-45"/>
    </defs>
    <g style="fill:#ffffff;" transform="translate(272.274167 571.87551)scale(0.09 -0.09)">
     <use xlink:href="#LiberationSans-45"/>
     <use x="33.300781" xlink:href="#LiberationSans-71"/>
     <use x="111.083984" xlink:href="#LiberationSans-101"/>
     <use x="166.699219" xlink:href="#LiberationSans-110"/>
     <use x="222.314453" xlink:href="#LiberationSans-101"/>
     <use x="277.929688" xlink:href="#LiberationSans-49"/>
     <use x="333.544922" xlink:href="#LiberationSans-48"/>
    </g>
   </g>
   <g id="text_20">
    <g id="patch_6">
     <path d="M 272.74025 464.17386 
L 310.676656 464.17386 
L 310.676656 447.864172 
L 272.74025 447.864172 
z
" style="fill:#334538;stroke:#000000;stroke-linejoin:miter;"/>
    </g>
    <!-- -Gene1 -->
    <g style="fill:#ffffff;" transform="translate(276.70025 458.34636)scale(0.09 -0.09)">
     <use xlink:href="#LiberationSans-45"/>
     <use x="33.300781" xlink:href="#LiberationSans-71"/>
     <use x="111.083984" xlink:href="#LiberationSans-101"/>
     <use x="166.699219" xlink:href="#LiberationSans-110"/>
     <use x="222.314453" xlink:href="#LiberationSans-101"/>
     <use x="277.929688" xlink:href="#LiberationSans-49"/>
    </g>
   </g>
   <g id="text_21">
    <g id="patch_7">
     <path d="M 436.505333 538.988136 
L 479.446583 538.988136 
L 479.446583 512.984323 
L 436.505333 512.984323 
z
" style="fill:#37a155;stroke:#000000;stroke-linejoin:miter;"/>
    </g>
    <!-- -Gene18 -->
    <g style="fill:#ffffff;" transform="translate(440.465333 523.466511)scale(0.09 -0.09)">
     <use xlink:href="#LiberationSans-45"/>
     <use x="33.300781" xlink:href="#LiberationSans-71"/>
     <use x="111.083984" xlink:href="#LiberationSans-101"/>
     <use x="166.699219" xlink:href="#LiberationSans-110"/>
     <use x="222.314453" xlink:href="#LiberationSans-101"/>
     <use x="277.929688" xlink:href="#LiberationSans-49"/>
     <use x="333.544922" xlink:href="#LiberationSans-56"/>
    </g>
    <!-- -Gene21 -->
    <g style="fill:#ffffff;" transform="translate(440.465333 533.160636)scale(0.09 -0.09)">
     <use xlink:href="#LiberationSans-45"/>
     <use x="33.300781" xlink:href="#LiberationSans-71"/>
     <use x="111.083984" xlink:href="#LiberationSans-101"/>
     <use x="166.699219" xlink:href="#LiberationSans-110"/>
     <use x="222.314453" xlink:href="#LiberationSans-101"/>
     <use x="277.929688" xlink:href="#LiberationSans-50"/>
     <use x="333.544922" xlink:href="#LiberationSans-49"/>
    </g>
   </g>
   <g id="text_22">
    <g id="patch_8">
     <path d="M 440.931417 373.625204 
L 483.872667 373.625204 
L 483.872667 347.621392 
L 440.931417 347.621392 
z
" style="fill:#357c49;stroke:#000000;stroke-linejoin:miter;"/>
    </g>
    <!-- -Gene13 -->
    <g style="fill:#ffffff;" transform="translate(444.891417 358.103579)scale(0.09 -0.09)">
     <use xlink:href="#LiberationSans-45"/>
     <use x="33.300781" xlink:href="#LiberationSans-71"/>
     <use x="111.083984" xlink:href="#LiberationSans-101"/>
     <use x="166.699219" xlink:href="#LiberationSans-110"/>
     <use x="222.314453" xlink:href="#LiberationSans-101"/>
     <use x="277.929688" xlink:href="#LiberationSans-49"/>
     <use x="333.544922" xlink:href="#LiberationSans-51"/>
    </g>
    <!-- -Gene20 -->
    <g style="fill:#ffffff;" transform="translate(444.891417 367.797704)scale(0.09 -0.09)">
     <use xlink:href="#LiberationSans-45"/>
     <use x="33.300781" xlink:href="#LiberationSans-71"/>
     <use x="111.083984" xlink:href="#LiberationSans-101"/>
     <use x="166.699219" xlink:href="#LiberationSans-110"/>
     <use x="222.314453" xlink:href="#LiberationSans-101"/>
     <use x="277.929688" xlink:href="#LiberationSans-50"/>
     <use x="333.544922" xlink:href="#LiberationSans-48"/>
    </g>
   </g>
   <g id="text_23">
    <g id="patch_9">
     <path d="M 440.931417 350.831872 
L 478.867823 350.831872 
L 478.867823 334.522185 
L 440.931417 334.522185 
z
" style="fill:#34573e;stroke:#000000;stroke-linejoin:miter;"/>
    </g>
    <!-- -Gene7 -->
    <g style="fill:#ffffff;" transform="translate(444.891417 345.004372)scale(0.09 -0.09)">
     <use xlink:href="#LiberationSans-45"/>
     <use x="33.300781" xlink:href="#LiberationSans-71"/>
     <use x="111.083984" xlink:href="#LiberationSans-101"/>
     <use x="166.699219" xlink:href="#LiberationSans-110"/>
     <use x="222.314453" xlink:href="#LiberationSans-101"/>
     <use x="277.929688" xlink:href="#LiberationSans-55"/>
    </g>
   </g>
   <g id="text_24">
    <g id="patch_10">
     <path d="M 710.9225 489.605255 
L 748.858906 489.605255 
L 748.858906 473.295568 
L 710.9225 473.295568 
z
" style="fill:#4bab63;stroke:#000000;stroke-linejoin:miter;"/>
    </g>
    <!-- -Gene6 -->
    <g style="fill:#333333;" transform="translate(714.8825 483.777755)scale(0.09 -0.09)">
     <use xlink:href="#LiberationSans-45"/>
     <use x="33.300781" xlink:href="#LiberationSans-71"/>
     <use x="111.083984" xlink:href="#LiberationSans-101"/>
     <use x="166.699219" xlink:href="#LiberationSans-110"/>
     <use x="222.314453" xlink:href="#LiberationSans-101"/>
     <use x="277.929688" xlink:href="#LiberationSans-54"/>
    </g>
   </g>
   <g id="text_25">
    <g id="patch_11">
     <path d="M 671.08775 484.387639 
L 714.029 484.387639 
L 714.029 468.077951 
L 671.08775 468.077951 
z
" style="fill:#73c07f;stroke:#000000;stroke-linejoin:miter;"/>
    </g>
    <!-- -Gene16 -->
    <g style="fill:#333333;" transform="translate(675.04775 478.560139)scale(0.09 -0.09)">
     <use xlink:href="#LiberationSans-45"/>
     <use x="33.300781" xlink:href="#LiberationSans-71"/>
     <use x="111.083984" xlink:href="#LiberationSans-101"/>
     <use x="166.699219" xlink:href="#LiberationSans-110"/>
     <use x="222.314453" xlink:href="#LiberationSans-101"/>
     <use x="277.929688" xlink:href="#LiberationSans-49"/>
     <use x="333.544922" xlink:href="#LiberationSans-54"/>
    </g>
   </g>
   <g id="text_26">
    <g id="patch_12">
     <path d="M 440.931417 413.58605 
L 478.867823 413.58605 
L 478.867823 387.582237 
L 440.931417 387.582237 
z
" style="fill:#5eb570;stroke:#000000;stroke-linejoin:miter;"/>
    </g>
    <!-- -Gene2 -->
    <g style="fill:#333333;" transform="translate(444.891417 398.064425)scale(0.09 -0.09)">
     <use xlink:href="#LiberationSans-45"/>
     <use x="33.300781" xlink:href="#LiberationSans-71"/>
     <use x="111.083984" xlink:href="#LiberationSans-101"/>
     <use x="166.699219" xlink:href="#LiberationSans-110"/>
     <use x="222.314453" xlink:href="#LiberationSans-101"/>
     <use x="277.929688" xlink:href="#LiberationSans-50"/>
    </g>
    <!-- -Gene3 -->
    <g style="fill:#333333;" transform="translate(444.891417 407.75855)scale(0.09 -0.09)">
     <use xlink:href="#LiberationSans-45"/>
     <use x="33.300781" xlink:href="#LiberationSans-71"/>
     <use x="111.083984" xlink:href="#LiberationSans-101"/>
     <use x="166.699219" xlink:href="#LiberationSans-110"/>
     <use x="222.314453" xlink:href="#LiberationSans-101"/>
     <use x="277.929688" xlink:href="#LiberationSans-51"/>
    </g>
   </g>
   <g id="text_27">
    <g id="patch_13">
     <path d="M 631.253 367.051878 
L 669.189406 367.051878 
L 669.189406 341.048065 
L 631.253 341.048065 
z
" style="fill:#87ca8c;stroke:#000000;stroke-linejoin:miter;"/>
    </g>
    <!-- -Gene4 -->
    <g style="fill:#333333;" transform="translate(635.213 351.530253)scale(0.09 -0.09)">
     <use xlink:href="#LiberationSans-45"/>
     <use x="33.300781" xlink:href="#LiberationSans-71"/>
     <use x="111.083984" xlink:href="#LiberationSans-101"/>
     <use x="166.699219" xlink:href="#LiberationSans-110"/>
     <use x="222.314453" xlink:href="#LiberationSans-101"/>
     <use x="277.929688" xlink:href="#LiberationSans-52"/>
    </g>
    <!-- -Gene8 -->
    <g style="fill:#333333;" transform="translate(635.213 361.224378)scale(0.09 -0.09)">
     <use xlink:href="#LiberationSans-45"/>
     <use x="33.300781" xlink:href="#LiberationSans-71"/>
     <use x="111.083984" xlink:href="#LiberationSans-101"/>
     <use x="166.699219" xlink:href="#LiberationSans-110"/>
     <use x="222.314453" xlink:href="#LiberationSans-101"/>
     <use x="277.929688" xlink:href="#LiberationSans-56"/>
    </g>
   </g>
   <g id="text_28">
    <g id="patch_14">
     <path d="M 710.9225 173.657471 
L 753.86375 173.657471 
L 753.86375 147.653659 
L 710.9225 147.653659 
z
" style="fill:#9ad49a;stroke:#000000;stroke-linejoin:miter;"/>
    </g>
    <!-- -Gene17 -->
    <g style="fill:#333333;" transform="translate(714.8825 158.135846)scale(0.09 -0.09)">
     <use xlink:href="#LiberationSans-45"/>
     <use x="33.300781" xlink:href="#LiberationSans-71"/>
     <use x="111.083984" xlink:href="#LiberationSans-101"/>
     <use x="166.699219" xlink:href="#LiberationSans-110"/>
     <use x="222.314453" xlink:href="#LiberationSans-101"/>
     <use x="277.929688" xlink:href="#LiberationSans-49"/>
     <use x="333.544922" xlink:href="#LiberationSans-55"/>
    </g>
    <!-- -Gene9 -->
    <g style="fill:#333333;" transform="translate(714.8825 167.829971)scale(0.09 -0.09)">
     <use xlink:href="#LiberationSans-45"/>
     <use x="33.300781" xlink:href="#LiberationSans-71"/>
     <use x="111.083984" xlink:href="#LiberationSans-101"/>
     <use x="166.699219" xlink:href="#LiberationSans-110"/>
     <use x="222.314453" xlink:href="#LiberationSans-101"/>
     <use x="277.929688" xlink:href="#LiberationSans-57"/>
    </g>
   </g>
   <g id="text_29">
    <g id="patch_15">
     <path d="M 436.505333 258.625602 
L 474.44174 258.625602 
L 474.44174 242.315915 
L 436.505333 242.315915 
z
" style="fill:#356a44;stroke:#000000;stroke-linejoin:miter;"/>
    </g>
    <!-- -Gene5 -->
    <g style="fill:#ffffff;" transform="translate(440.465333 252.798102)scale(0.09 -0.09)">
     <use xlink:href="#LiberationSans-45"/>
     <use x="33.300781" xlink:href="#LiberationSans-71"/>
     <use x="111.083984" xlink:href="#LiberationSans-101"/>
     <use x="166.699219" xlink:href="#LiberationSans-110"/>
     <use x="222.314453" xlink:href="#LiberationSans-101"/>
     <use x="277.929688" xlink:href="#LiberationSans-53"/>
    </g>
   </g>
   <g id="text_30">
    <g id="patch_16">
     <path d="M 272.74025 453.31455 
L 315.6815 453.31455 
L 315.6815 427.310738 
L 272.74025 427.310738 
z
" style="fill:#368e4f;stroke:#000000;stroke-linejoin:miter;"/>
    </g>
    <!-- -Gene11 -->
    <g style="fill:#ffffff;" transform="translate(276.70025 437.792925)scale(0.09 -0.09)">
     <use xlink:href="#LiberationSans-45"/>
     <use x="33.300781" xlink:href="#LiberationSans-71"/>
     <use x="111.083984" xlink:href="#LiberationSans-101"/>
     <use x="166.699219" xlink:href="#LiberationSans-110"/>
     <use x="222.314453" xlink:href="#LiberationSans-101"/>
     <use x="277.929688" xlink:href="#LiberationSans-49"/>
     <use x="333.544922" xlink:href="#LiberationSans-49"/>
    </g>
    <!-- -Gene15 -->
    <g style="fill:#ffffff;" transform="translate(276.70025 447.48705)scale(0.09 -0.09)">
     <use xlink:href="#LiberationSans-45"/>
     <use x="33.300781" xlink:href="#LiberationSans-71"/>
     <use x="111.083984" xlink:href="#LiberationSans-101"/>
     <use x="166.699219" xlink:href="#LiberationSans-110"/>
     <use x="222.314453" xlink:href="#LiberationSans-101"/>
     <use x="277.929688" xlink:href="#LiberationSans-49"/>
     <use x="333.544922" xlink:href="#LiberationSans-53"/>
    </g>
   </g>
   <g id="text_31">
    <g id="patch_17">
     <path d="M 197.496833 349.6575 
L 240.438083 349.6575 
L 240.438083 333.347813 
L 197.496833 333.347813 
z
" style="fill:#3787c1;stroke:#000000;stroke-linejoin:miter;"/>
    </g>
    <!-- -Gene14 -->
    <g style="fill:#ffffff;" transform="translate(201.456833 343.83)scale(0.09 -0.09)">
     <use xlink:href="#LiberationSans-45"/>
     <use x="33.300781" xlink:href="#LiberationSans-71"/>
     <use x="111.083984" xlink:href="#LiberationSans-101"/>
     <use x="166.699219" xlink:href="#LiberationSans-110"/>
     <use x="222.314453" xlink:href="#LiberationSans-101"/>
     <use x="277.929688" xlink:href="#LiberationSans-49"/>
     <use x="333.544922" xlink:href="#LiberationSans-52"/>
    </g>
   </g>
  </g>
 </g>
 <defs>
  <clipPath id="pef750b81e5">
   <rect height="658.14" width="796.695" x="50.97" y="14.76"/>
  </clipPath>
 </defs>
</svg>
