<?xml version="1.0" encoding="utf-8" standalone="no"?>
<!DOCTYPE svg PUBLIC "-//W3C//DTD SVG 1.1//EN"
  "http://www.w3.org/Graphics/SVG/1.1/DTD/svg11.dtd">
<!-- Created with matplotlib (https://matplotlib.org/) -->
<svg height="720pt" version="1.1" viewBox="0 0 864 720" width="864pt" xmlns="http://www.w3.org/2000/svg" xmlns:xlink="http://www.w3.org/1999/xlink">
 <defs>
  <style type="text/css">
*{stroke-linecap:butt;stroke-linejoin:round;}
  </style>
 </defs>
 <g id="figure_1">
  <g id="patch_1">
   <path d="M 0 720 
L 864 720 
L 864 0 
L 0 0 
z
" style="fill:#ffffff;"/>
  </g>
  <g id="axes_1">
   <g id="patch_2">
    <path d="M 50.97 672.9 
L 757.76 672.9 
L 757.76 10.8 
L 50.97 10.8 
z
" style="fill:#ffffff;"/>
   </g>
   <g id="matplotlib.axis_1">
    <g id="xtick_1">
     <g id="line2d_1"/>
     <g id="text_1">
      <text style="fill:#262626;font-family:Liberation Sans;font-size:10px;font-style:normal;font-weight:normal;text-anchor:middle;" transform="rotate(-0, 50.97, 683.646875)" x="50.97" y="683.646875">0</text>
     </g>
    </g>
    <g id="xtick_2">
     <g id="line2d_2"/>
     <g id="text_2">
      <text style="fill:#262626;font-family:Liberation Sans;font-size:10px;font-style:normal;font-weight:normal;text-anchor:middle;" transform="rotate(-0, 192.328, 683.646875)" x="192.328" y="683.646875">2</text>
     </g>
    </g>
    <g id="xtick_3">
     <g id="line2d_3"/>
     <g id="text_3">
      <text style="fill:#262626;font-family:Liberation Sans;font-size:10px;font-style:normal;font-weight:normal;text-anchor:middle;" transform="rotate(-0, 333.686, 683.646875)" x="333.686" y="683.646875">4</text>
     </g>
    </g>
    <g id="xtick_4">
     <g id="line2d_4"/>
     <g id="text_4">
      <text style="fill:#262626;font-family:Liberation Sans;font-size:10px;font-style:normal;font-weight:normal;text-anchor:middle;" transform="rotate(-0, 475.044, 683.646875)" x="475.044" y="683.646875">6</text>
     </g>
    </g>
    <g id="xtick_5">
     <g id="line2d_5"/>
     <g id="text_5">
      <text style="fill:#262626;font-family:Liberation Sans;font-size:10px;font-style:normal;font-weight:normal;text-anchor:middle;" transform="rotate(-0, 616.402, 683.646875)" x="616.402" y="683.646875">8</text>
     </g>
    </g>
    <g id="xtick_6">
     <g id="line2d_6"/>
     <g id="text_6">
      <text style="fill:#262626;font-family:Liberation Sans;font-size:10px;font-style:normal;font-weight:normal;text-anchor:middle;" transform="rotate(-0, 757.76, 683.646875)" x="757.76" y="683.646875">10</text>
     </g>
    </g>
    <g id="text_7">
     <text style="fill:#262626;font-family:Liberation Sans;font-size:20px;font-style:normal;font-weight:normal;text-anchor:middle;" transform="rotate(-0, 404.365, 704.215625)" x="404.365" y="704.215625">Generation</text>
    </g>
   </g>
   <g id="matplotlib.axis_2">
    <g id="ytick_1">
     <g id="line2d_7"/>
     <g id="text_8">
      <text style="fill:#262626;font-family:Liberation Sans;font-size:10px;font-style:normal;font-weight:normal;text-anchor:end;" transform="rotate(-0, 47.47, 676.523438)" x="47.47" y="676.523438">0.0</text>
     </g>
    </g>
    <g id="ytick_2">
     <g id="line2d_8"/>
     <g id="text_9">
      <text style="fill:#262626;font-family:Liberation Sans;font-size:10px;font-style:normal;font-weight:normal;text-anchor:end;" transform="rotate(-0, 47.47, 550.409152)" x="47.47" y="550.409152">0.2</text>
     </g>
    </g>
    <g id="ytick_3">
     <g id="line2d_9"/>
     <g id="text_10">
      <text style="fill:#262626;font-family:Liberation Sans;font-size:10px;font-style:normal;font-weight:normal;text-anchor:end;" transform="rotate(-0, 47.47, 424.294866)" x="47.47" y="424.294866">0.4</text>
     </g>
    </g>
    <g id="ytick_4">
     <g id="line2d_10"/>
     <g id="text_11">
      <text style="fill:#262626;font-family:Liberation Sans;font-size:10px;font-style:normal;font-weight:normal;text-anchor:end;" transform="rotate(-0, 47.47, 298.18058)" x="47.47" y="298.18058">0.6</text>
     </g>
    </g>
    <g id="ytick_5">
     <g id="line2d_11"/>
     <g id="text_12">
      <text style="fill:#262626;font-family:Liberation Sans;font-size:10px;font-style:normal;font-weight:normal;text-anchor:end;" transform="rotate(-0, 47.47, 172.066295)" x="47.47" y="172.066295">0.8</text>
     </g>
    </g>
    <g id="ytick_6">
     <g id="line2d_12"/>
     <g id="text_13">
      <text style="fill:#262626;font-family:Liberation Sans;font-size:10px;font-style:normal;font-weight:normal;text-anchor:end;" transform="rotate(-0, 47.47, 45.952009)" x="47.47" y="45.952009">1.0</text>
     </g>
    </g>
    <g id="text_14">
     <text style="fill:#262626;font-family:Liberation Sans;font-size:20px;font-style:normal;font-weight:normal;text-anchor:middle;" transform="rotate(-90, 25.42, 341.85)" x="25.42" y="341.85">Frequency</text>
    </g>
   </g>
   <g id="PolyCollection_1">
    <defs>
     <path d="M 50.97 -47.1 
L 50.97 -47.1 
L 86.3095 -47.1 
L 121.649 -47.1 
L 156.9885 -47.1 
L 192.328 -47.1 
L 227.6675 -47.1 
L 263.007 -47.1 
L 333.686 -47.1 
L 404.365 -47.1 
L 439.7045 -47.1 
L 475.044 -47.1 
L 510.3835 -47.1 
L 545.723 -47.1 
L 581.0625 -47.1 
L 616.402 -47.1 
L 651.7415 -47.1 
L 687.081 -47.1 
L 757.76 -47.1 
L 757.76 -47.1 
L 757.76 -47.1 
L 687.081 -47.1 
L 651.7415 -47.1 
L 616.402 -47.1 
L 581.0625 -47.1 
L 545.723 -47.1 
L 510.3835 -47.1 
L 475.044 -47.1 
L 439.7045 -47.1 
L 404.365 -47.1 
L 333.686 -47.1 
L 263.007 -47.1 
L 227.6675 -47.1 
L 192.328 -47.1 
L 156.9885 -135.328803 
L 121.649 -177.502171 
L 86.3095 -202.362994 
L 50.97 -182.042286 
z
" id="m607abb6751" style="stroke:#ffffff;stroke-width:2;"/>
    </defs>
    <g clip-path="url(#p0cf46a68ee)">
     <use style="fill:#ffffff;stroke:#ffffff;stroke-width:2;" x="0" xlink:href="#m607abb6751" y="720"/>
    </g>
   </g>
   <g id="PolyCollection_2">
    <defs>
     <path d="M 50.97 -182.042286 
L 50.97 -182.042286 
L 86.3095 -202.362994 
L 121.649 -177.502171 
L 156.9885 -135.328803 
L 192.328 -47.1 
L 227.6675 -47.1 
L 263.007 -47.1 
L 333.686 -47.1 
L 404.365 -47.1 
L 439.7045 -47.1 
L 475.044 -47.1 
L 510.3835 -47.1 
L 545.723 -47.1 
L 581.0625 -47.1 
L 616.402 -47.1 
L 651.7415 -47.1 
L 687.081 -47.1 
L 757.76 -47.1 
L 757.76 -47.1 
L 757.76 -47.1 
L 687.081 -47.1 
L 651.7415 -47.1 
L 616.402 -47.1 
L 581.0625 -47.1 
L 545.723 -47.1 
L 510.3835 -47.1 
L 475.044 -47.1 
L 439.7045 -51.836282 
L 404.365 -56.872858 
L 333.686 -58.346285 
L 263.007 -59.782629 
L 227.6675 -156.054473 
L 192.328 -305.036093 
L 156.9885 -135.328803 
L 121.649 -177.502171 
L 86.3095 -202.362994 
L 50.97 -182.042286 
z
" id="me75a5a9d4e" style="stroke:#ffffff;stroke-width:2;"/>
    </defs>
    <g clip-path="url(#p0cf46a68ee)">
     <use style="fill:#bcf60c;stroke:#ffffff;stroke-width:2;" x="0" xlink:href="#me75a5a9d4e" y="720"/>
    </g>
   </g>
   <g id="PolyCollection_3">
    <defs>
     <path d="M 50.97 -182.042286 
L 50.97 -182.042286 
L 86.3095 -202.362994 
L 121.649 -177.502171 
L 156.9885 -135.328803 
L 192.328 -305.036093 
L 227.6675 -156.054473 
L 263.007 -59.782629 
L 333.686 -58.346285 
L 404.365 -56.872858 
L 439.7045 -51.836282 
L 475.044 -47.1 
L 510.3835 -47.1 
L 545.723 -47.1 
L 581.0625 -47.1 
L 616.402 -47.1 
L 651.7415 -47.1 
L 687.081 -47.1 
L 757.76 -47.1 
L 757.76 -47.1 
L 757.76 -47.848719 
L 687.081 -47.827135 
L 651.7415 -47.858628 
L 616.402 -47.859176 
L 581.0625 -47.971677 
L 545.723 -47.978478 
L 510.3835 -48.001331 
L 475.044 -47.971918 
L 439.7045 -52.91271 
L 404.365 -57.98341 
L 333.686 -80.337784 
L 263.007 -102.614316 
L 227.6675 -196.886557 
L 192.328 -307.780094 
L 156.9885 -135.328803 
L 121.649 -177.502171 
L 86.3095 -202.362994 
L 50.97 -182.042286 
z
" id="m6b2896f1d2" style="stroke:#ffffff;stroke-width:2;"/>
    </defs>
    <g clip-path="url(#p0cf46a68ee)">
     <use style="fill:#000075;stroke:#ffffff;stroke-width:2;" x="0" xlink:href="#m6b2896f1d2" y="720"/>
    </g>
   </g>
   <g id="PolyCollection_4">
    <defs>
     <path d="M 50.97 -182.042286 
L 50.97 -182.042286 
L 86.3095 -202.362994 
L 121.649 -177.502171 
L 156.9885 -135.328803 
L 192.328 -307.780094 
L 227.6675 -196.886557 
L 263.007 -102.614316 
L 333.686 -80.337784 
L 404.365 -57.98341 
L 439.7045 -52.91271 
L 475.044 -47.971918 
L 510.3835 -48.001331 
L 545.723 -47.978478 
L 581.0625 -47.971677 
L 616.402 -47.859176 
L 651.7415 -47.858628 
L 687.081 -47.827135 
L 757.76 -47.848719 
L 757.76 -47.848719 
L 757.76 -47.848719 
L 687.081 -47.827135 
L 651.7415 -47.858628 
L 616.402 -47.859176 
L 581.0625 -47.971677 
L 545.723 -47.978478 
L 510.3835 -48.001331 
L 475.044 -47.971918 
L 439.7045 -52.91271 
L 404.365 -57.98341 
L 333.686 -97.930983 
L 263.007 -137.769674 
L 227.6675 -233.893864 
L 192.328 -319.304899 
L 156.9885 -135.328803 
L 121.649 -177.502171 
L 86.3095 -202.362994 
L 50.97 -182.042286 
z
" id="mcf44499888" style="stroke:#ffffff;stroke-width:2;"/>
    </defs>
    <g clip-path="url(#p0cf46a68ee)">
     <use style="fill:#5c9b52;stroke:#ffffff;stroke-width:2;" x="0" xlink:href="#mcf44499888" y="720"/>
    </g>
   </g>
   <g id="PolyCollection_5">
    <defs>
     <path d="M 50.97 -182.042286 
L 50.97 -182.042286 
L 86.3095 -202.362994 
L 121.649 -177.502171 
L 156.9885 -135.328803 
L 192.328 -319.304899 
L 227.6675 -233.893864 
L 263.007 -137.769674 
L 333.686 -97.930983 
L 404.365 -57.98341 
L 439.7045 -52.91271 
L 475.044 -47.971918 
L 510.3835 -48.001331 
L 545.723 -47.978478 
L 581.0625 -47.971677 
L 616.402 -47.859176 
L 651.7415 -47.858628 
L 687.081 -47.827135 
L 757.76 -47.848719 
L 757.76 -47.848719 
L 757.76 -48.597439 
L 687.081 -48.55427 
L 651.7415 -48.617256 
L 616.402 -48.618352 
L 581.0625 -48.843355 
L 545.723 -48.856956 
L 510.3835 -48.902663 
L 475.044 -48.843837 
L 439.7045 -53.989138 
L 404.365 -59.093962 
L 333.686 -101.605512 
L 263.007 -143.999738 
L 227.6675 -244.231101 
L 192.328 -331.378503 
L 156.9885 -167.753315 
L 121.649 -211.553029 
L 86.3095 -202.362994 
L 50.97 -182.042286 
z
" id="m6b0ce6734f" style="stroke:#ffffff;stroke-width:2;"/>
    </defs>
    <g clip-path="url(#p0cf46a68ee)">
     <use style="fill:#911eb4;stroke:#ffffff;stroke-width:2;" x="0" xlink:href="#m6b0ce6734f" y="720"/>
    </g>
   </g>
   <g id="PolyCollection_6">
    <defs>
     <path d="M 50.97 -182.042286 
L 50.97 -182.042286 
L 86.3095 -202.362994 
L 121.649 -211.553029 
L 156.9885 -167.753315 
L 192.328 -331.378503 
L 227.6675 -244.231101 
L 263.007 -143.999738 
L 333.686 -101.605512 
L 404.365 -59.093962 
L 439.7045 -53.989138 
L 475.044 -48.843837 
L 510.3835 -48.902663 
L 545.723 -48.856956 
L 581.0625 -48.843355 
L 616.402 -48.618352 
L 651.7415 -48.617256 
L 687.081 -48.55427 
L 757.76 -48.597439 
L 757.76 -48.597439 
L 757.76 -73.679537 
L 687.081 -67.096211 
L 651.7415 -68.341578 
L 616.402 -68.736511 
L 581.0625 -63.443951 
L 545.723 -55.006301 
L 510.3835 -67.109556 
L 475.044 -77.965913 
L 439.7045 -75.248588 
L 404.365 -65.868329 
L 333.686 -109.065919 
L 263.007 -152.121071 
L 227.6675 -268.420234 
L 192.328 -375.556919 
L 156.9885 -167.753315 
L 121.649 -211.553029 
L 86.3095 -202.362994 
L 50.97 -182.042286 
z
" id="mf0bdd5ce05" style="stroke:#ffffff;stroke-width:2;"/>
    </defs>
    <g clip-path="url(#p0cf46a68ee)">
     <use style="fill:#fffac8;stroke:#ffffff;stroke-width:2;" x="0" xlink:href="#mf0bdd5ce05" y="720"/>
    </g>
   </g>
   <g id="PolyCollection_7">
    <defs>
     <path d="M 50.97 -182.042286 
L 50.97 -182.042286 
L 86.3095 -202.362994 
L 121.649 -211.553029 
L 156.9885 -167.753315 
L 192.328 -375.556919 
L 227.6675 -268.420234 
L 263.007 -152.121071 
L 333.686 -109.065919 
L 404.365 -65.868329 
L 439.7045 -75.248588 
L 475.044 -77.965913 
L 510.3835 -67.109556 
L 545.723 -55.006301 
L 581.0625 -63.443951 
L 616.402 -68.736511 
L 651.7415 -68.341578 
L 687.081 -67.096211 
L 757.76 -73.679537 
L 757.76 -73.679537 
L 757.76 -117.404746 
L 687.081 -92.836788 
L 651.7415 -68.341578 
L 616.402 -68.736511 
L 581.0625 -63.443951 
L 545.723 -55.006301 
L 510.3835 -67.109556 
L 475.044 -77.965913 
L 439.7045 -75.248588 
L 404.365 -65.868329 
L 333.686 -109.065919 
L 263.007 -152.121071 
L 227.6675 -268.420234 
L 192.328 -375.556919 
L 156.9885 -167.753315 
L 121.649 -211.553029 
L 86.3095 -202.362994 
L 50.97 -182.042286 
z
" id="m50c8421b12" style="stroke:#ffffff;stroke-width:2;"/>
    </defs>
    <g clip-path="url(#p0cf46a68ee)">
     <use style="fill:#aaffc3;stroke:#ffffff;stroke-width:2;" x="0" xlink:href="#m50c8421b12" y="720"/>
    </g>
   </g>
   <g id="PolyCollection_8">
    <defs>
     <path d="M 50.97 -182.042286 
L 50.97 -182.042286 
L 86.3095 -202.362994 
L 121.649 -211.553029 
L 156.9885 -167.753315 
L 192.328 -375.556919 
L 227.6675 -268.420234 
L 263.007 -152.121071 
L 333.686 -109.065919 
L 404.365 -65.868329 
L 439.7045 -75.248588 
L 475.044 -77.965913 
L 510.3835 -67.109556 
L 545.723 -55.006301 
L 581.0625 -63.443951 
L 616.402 -68.736511 
L 651.7415 -68.341578 
L 687.081 -92.836788 
L 757.76 -117.404746 
L 757.76 -117.404746 
L 757.76 -146.6048 
L 687.081 -107.524914 
L 651.7415 -87.990038 
L 616.402 -92.726466 
L 581.0625 -63.443951 
L 545.723 -55.006301 
L 510.3835 -67.109556 
L 475.044 -77.965913 
L 439.7045 -75.248588 
L 404.365 -65.868329 
L 333.686 -109.065919 
L 263.007 -152.121071 
L 227.6675 -268.420234 
L 192.328 -375.556919 
L 156.9885 -167.753315 
L 121.649 -211.553029 
L 86.3095 -202.362994 
L 50.97 -182.042286 
z
" id="md9f05b49c1" style="stroke:#ffffff;stroke-width:2;"/>
    </defs>
    <g clip-path="url(#p0cf46a68ee)">
     <use style="fill:#f032e6;stroke:#ffffff;stroke-width:2;" x="0" xlink:href="#md9f05b49c1" y="720"/>
    </g>
   </g>
   <g id="PolyCollection_9">
    <defs>
     <path d="M 50.97 -182.042286 
L 50.97 -182.042286 
L 86.3095 -202.362994 
L 121.649 -211.553029 
L 156.9885 -167.753315 
L 192.328 -375.556919 
L 227.6675 -268.420234 
L 263.007 -152.121071 
L 333.686 -109.065919 
L 404.365 -65.868329 
L 439.7045 -75.248588 
L 475.044 -77.965913 
L 510.3835 -67.109556 
L 545.723 -55.006301 
L 581.0625 -63.443951 
L 616.402 -92.726466 
L 651.7415 -87.990038 
L 687.081 -107.524914 
L 757.76 -146.6048 
L 757.76 -146.6048 
L 757.76 -156.487896 
L 687.081 -125.267007 
L 651.7415 -100.962574 
L 616.402 -100.166389 
L 581.0625 -63.443951 
L 545.723 -55.006301 
L 510.3835 -67.109556 
L 475.044 -77.965913 
L 439.7045 -75.248588 
L 404.365 -65.868329 
L 333.686 -109.065919 
L 263.007 -152.121071 
L 227.6675 -268.420234 
L 192.328 -375.556919 
L 156.9885 -167.753315 
L 121.649 -211.553029 
L 86.3095 -202.362994 
L 50.97 -182.042286 
z
" id="m4cc3115282" style="stroke:#ffffff;stroke-width:2;"/>
    </defs>
    <g clip-path="url(#p0cf46a68ee)">
     <use style="fill:#46f0f0;stroke:#ffffff;stroke-width:2;" x="0" xlink:href="#m4cc3115282" y="720"/>
    </g>
   </g>
   <g id="PolyCollection_10">
    <defs>
     <path d="M 50.97 -182.042286 
L 50.97 -182.042286 
L 86.3095 -202.362994 
L 121.649 -211.553029 
L 156.9885 -167.753315 
L 192.328 -375.556919 
L 227.6675 -268.420234 
L 263.007 -152.121071 
L 333.686 -109.065919 
L 404.365 -65.868329 
L 439.7045 -75.248588 
L 475.044 -77.965913 
L 510.3835 -67.109556 
L 545.723 -55.006301 
L 581.0625 -63.443951 
L 616.402 -100.166389 
L 651.7415 -100.962574 
L 687.081 -125.267007 
L 757.76 -156.487896 
L 757.76 -156.487896 
L 757.76 -207.850042 
L 687.081 -146.208494 
L 651.7415 -115.528228 
L 616.402 -107.454477 
L 581.0625 -63.443951 
L 545.723 -55.006301 
L 510.3835 -67.109556 
L 475.044 -77.965913 
L 439.7045 -75.248588 
L 404.365 -65.868329 
L 333.686 -109.065919 
L 263.007 -152.121071 
L 227.6675 -268.420234 
L 192.328 -375.556919 
L 156.9885 -167.753315 
L 121.649 -211.553029 
L 86.3095 -202.362994 
L 50.97 -182.042286 
z
" id="m89ed71f1ca" style="stroke:#ffffff;stroke-width:2;"/>
    </defs>
    <g clip-path="url(#p0cf46a68ee)">
     <use style="fill:#f58231;stroke:#ffffff;stroke-width:2;" x="0" xlink:href="#m89ed71f1ca" y="720"/>
    </g>
   </g>
   <g id="PolyCollection_11">
    <defs>
     <path d="M 50.97 -182.042286 
L 50.97 -182.042286 
L 86.3095 -202.362994 
L 121.649 -211.553029 
L 156.9885 -167.753315 
L 192.328 -375.556919 
L 227.6675 -268.420234 
L 263.007 -152.121071 
L 333.686 -109.065919 
L 404.365 -65.868329 
L 439.7045 -75.248588 
L 475.044 -77.965913 
L 510.3835 -67.109556 
L 545.723 -55.006301 
L 581.0625 -63.443951 
L 616.402 -107.454477 
L 651.7415 -115.528228 
L 687.081 -146.208494 
L 757.76 -207.850042 
L 757.76 -207.850042 
L 757.76 -207.850042 
L 687.081 -160.460339 
L 651.7415 -136.618081 
L 616.402 -134.784806 
L 581.0625 -63.443951 
L 545.723 -55.006301 
L 510.3835 -67.109556 
L 475.044 -77.965913 
L 439.7045 -75.248588 
L 404.365 -65.868329 
L 333.686 -109.065919 
L 263.007 -152.121071 
L 227.6675 -268.420234 
L 192.328 -375.556919 
L 156.9885 -167.753315 
L 121.649 -211.553029 
L 86.3095 -202.362994 
L 50.97 -182.042286 
z
" id="m2f89bce158" style="stroke:#ffffff;stroke-width:2;"/>
    </defs>
    <g clip-path="url(#p0cf46a68ee)">
     <use style="fill:#399b92;stroke:#ffffff;stroke-width:2;" x="0" xlink:href="#m2f89bce158" y="720"/>
    </g>
   </g>
   <g id="PolyCollection_12">
    <defs>
     <path d="M 50.97 -182.042286 
L 50.97 -182.042286 
L 86.3095 -202.362994 
L 121.649 -211.553029 
L 156.9885 -167.753315 
L 192.328 -375.556919 
L 227.6675 -268.420234 
L 263.007 -152.121071 
L 333.686 -109.065919 
L 404.365 -65.868329 
L 439.7045 -75.248588 
L 475.044 -77.965913 
L 510.3835 -67.109556 
L 545.723 -55.006301 
L 581.0625 -63.443951 
L 616.402 -134.784806 
L 651.7415 -136.618081 
L 687.081 -160.460339 
L 757.76 -207.850042 
L 757.76 -207.850042 
L 757.76 -221.326991 
L 687.081 -173.112487 
L 651.7415 -148.756125 
L 616.402 -145.868773 
L 581.0625 -63.443951 
L 545.723 -55.006301 
L 510.3835 -67.109556 
L 475.044 -77.965913 
L 439.7045 -75.248588 
L 404.365 -65.868329 
L 333.686 -109.065919 
L 263.007 -152.121071 
L 227.6675 -268.420234 
L 192.328 -375.556919 
L 156.9885 -167.753315 
L 121.649 -211.553029 
L 86.3095 -202.362994 
L 50.97 -182.042286 
z
" id="m7958693044" style="stroke:#ffffff;stroke-width:2;"/>
    </defs>
    <g clip-path="url(#p0cf46a68ee)">
     <use style="fill:#008080;stroke:#ffffff;stroke-width:2;" x="0" xlink:href="#m7958693044" y="720"/>
    </g>
   </g>
   <g id="PolyCollection_13">
    <defs>
     <path d="M 50.97 -182.042286 
L 50.97 -182.042286 
L 86.3095 -202.362994 
L 121.649 -211.553029 
L 156.9885 -167.753315 
L 192.328 -375.556919 
L 227.6675 -268.420234 
L 263.007 -152.121071 
L 333.686 -109.065919 
L 404.365 -65.868329 
L 439.7045 -75.248588 
L 475.044 -77.965913 
L 510.3835 -67.109556 
L 545.723 -55.006301 
L 581.0625 -63.443951 
L 616.402 -145.868773 
L 651.7415 -148.756125 
L 687.081 -173.112487 
L 757.76 -221.326991 
L 757.76 -221.326991 
L 757.76 -221.326991 
L 687.081 -181.401825 
L 651.7415 -160.438994 
L 616.402 -160.596784 
L 581.0625 -81.923512 
L 545.723 -75.211292 
L 510.3835 -67.109556 
L 475.044 -77.965913 
L 439.7045 -75.248588 
L 404.365 -65.868329 
L 333.686 -109.065919 
L 263.007 -152.121071 
L 227.6675 -268.420234 
L 192.328 -375.556919 
L 156.9885 -167.753315 
L 121.649 -211.553029 
L 86.3095 -202.362994 
L 50.97 -182.042286 
z
" id="m877c7d2e23" style="stroke:#ffffff;stroke-width:2;"/>
    </defs>
    <g clip-path="url(#p0cf46a68ee)">
     <use style="fill:#86c26e;stroke:#ffffff;stroke-width:2;" x="0" xlink:href="#m877c7d2e23" y="720"/>
    </g>
   </g>
   <g id="PolyCollection_14">
    <defs>
     <path d="M 50.97 -182.042286 
L 50.97 -182.042286 
L 86.3095 -202.362994 
L 121.649 -211.553029 
L 156.9885 -167.753315 
L 192.328 -375.556919 
L 227.6675 -268.420234 
L 263.007 -152.121071 
L 333.686 -109.065919 
L 404.365 -65.868329 
L 439.7045 -75.248588 
L 475.044 -77.965913 
L 510.3835 -67.109556 
L 545.723 -75.211292 
L 581.0625 -81.923512 
L 616.402 -160.596784 
L 651.7415 -160.438994 
L 687.081 -181.401825 
L 757.76 -221.326991 
L 757.76 -221.326991 
L 757.76 -232.258293 
L 687.081 -193.035984 
L 651.7415 -166.508016 
L 616.402 -160.596784 
L 581.0625 -90.11728 
L 545.723 -91.726677 
L 510.3835 -67.109556 
L 475.044 -77.965913 
L 439.7045 -75.248588 
L 404.365 -65.868329 
L 333.686 -109.065919 
L 263.007 -152.121071 
L 227.6675 -268.420234 
L 192.328 -375.556919 
L 156.9885 -167.753315 
L 121.649 -211.553029 
L 86.3095 -202.362994 
L 50.97 -182.042286 
z
" id="m35ad9c90d9" style="stroke:#ffffff;stroke-width:2;"/>
    </defs>
    <g clip-path="url(#p0cf46a68ee)">
     <use style="fill:#42dbaa;stroke:#ffffff;stroke-width:2;" x="0" xlink:href="#m35ad9c90d9" y="720"/>
    </g>
   </g>
   <g id="PolyCollection_15">
    <defs>
     <path d="M 50.97 -182.042286 
L 50.97 -182.042286 
L 86.3095 -202.362994 
L 121.649 -211.553029 
L 156.9885 -167.753315 
L 192.328 -375.556919 
L 227.6675 -268.420234 
L 263.007 -152.121071 
L 333.686 -109.065919 
L 404.365 -65.868329 
L 439.7045 -75.248588 
L 475.044 -77.965913 
L 510.3835 -67.109556 
L 545.723 -91.726677 
L 581.0625 -90.11728 
L 616.402 -160.596784 
L 651.7415 -166.508016 
L 687.081 -193.035984 
L 757.76 -232.258293 
L 757.76 -232.258293 
L 757.76 -238.547535 
L 687.081 -203.070447 
L 651.7415 -177.887433 
L 616.402 -172.895432 
L 581.0625 -103.279608 
L 545.723 -104.025367 
L 510.3835 -97.123891 
L 475.044 -123.828824 
L 439.7045 -75.248588 
L 404.365 -65.868329 
L 333.686 -109.065919 
L 263.007 -152.121071 
L 227.6675 -268.420234 
L 192.328 -375.556919 
L 156.9885 -167.753315 
L 121.649 -211.553029 
L 86.3095 -202.362994 
L 50.97 -182.042286 
z
" id="meb86f6dc97" style="stroke:#ffffff;stroke-width:2;"/>
    </defs>
    <g clip-path="url(#p0cf46a68ee)">
     <use style="fill:#ffe119;stroke:#ffffff;stroke-width:2;" x="0" xlink:href="#meb86f6dc97" y="720"/>
    </g>
   </g>
   <g id="PolyCollection_16">
    <defs>
     <path d="M 50.97 -182.042286 
L 50.97 -182.042286 
L 86.3095 -202.362994 
L 121.649 -211.553029 
L 156.9885 -167.753315 
L 192.328 -375.556919 
L 227.6675 -268.420234 
L 263.007 -152.121071 
L 333.686 -109.065919 
L 404.365 -65.868329 
L 439.7045 -75.248588 
L 475.044 -123.828824 
L 510.3835 -97.123891 
L 545.723 -104.025367 
L 581.0625 -103.279608 
L 616.402 -172.895432 
L 651.7415 -177.887433 
L 687.081 -203.070447 
L 757.76 -238.547535 
L 757.76 -238.547535 
L 757.76 -287.963012 
L 687.081 -235.209812 
L 651.7415 -211.342919 
L 616.402 -206.299168 
L 581.0625 -128.296749 
L 545.723 -115.796971 
L 510.3835 -124.794764 
L 475.044 -165.68091 
L 439.7045 -75.248588 
L 404.365 -65.868329 
L 333.686 -109.065919 
L 263.007 -152.121071 
L 227.6675 -268.420234 
L 192.328 -375.556919 
L 156.9885 -167.753315 
L 121.649 -211.553029 
L 86.3095 -202.362994 
L 50.97 -182.042286 
z
" id="mc098fddc44" style="stroke:#ffffff;stroke-width:2;"/>
    </defs>
    <g clip-path="url(#p0cf46a68ee)">
     <use style="fill:#cc53d4;stroke:#ffffff;stroke-width:2;" x="0" xlink:href="#mc098fddc44" y="720"/>
    </g>
   </g>
   <g id="PolyCollection_17">
    <defs>
     <path d="M 50.97 -182.042286 
L 50.97 -182.042286 
L 86.3095 -202.362994 
L 121.649 -211.553029 
L 156.9885 -167.753315 
L 192.328 -375.556919 
L 227.6675 -268.420234 
L 263.007 -152.121071 
L 333.686 -109.065919 
L 404.365 -65.868329 
L 439.7045 -75.248588 
L 475.044 -165.68091 
L 510.3835 -124.794764 
L 545.723 -115.796971 
L 581.0625 -128.296749 
L 616.402 -206.299168 
L 651.7415 -211.342919 
L 687.081 -235.209812 
L 757.76 -287.963012 
L 757.76 -287.963012 
L 757.76 -297.396876 
L 687.081 -249.31623 
L 651.7415 -229.853437 
L 616.402 -228.618936 
L 581.0625 -153.052388 
L 545.723 -139.867265 
L 510.3835 -139.576599 
L 475.044 -170.38927 
L 439.7045 -75.248588 
L 404.365 -65.868329 
L 333.686 -109.065919 
L 263.007 -152.121071 
L 227.6675 -268.420234 
L 192.328 -375.556919 
L 156.9885 -167.753315 
L 121.649 -211.553029 
L 86.3095 -202.362994 
L 50.97 -182.042286 
z
" id="m8460c44836" style="stroke:#ffffff;stroke-width:2;"/>
    </defs>
    <g clip-path="url(#p0cf46a68ee)">
     <use style="fill:#a36334;stroke:#ffffff;stroke-width:2;" x="0" xlink:href="#m8460c44836" y="720"/>
    </g>
   </g>
   <g id="PolyCollection_18">
    <defs>
     <path d="M 50.97 -182.042286 
L 50.97 -182.042286 
L 86.3095 -202.362994 
L 121.649 -211.553029 
L 156.9885 -167.753315 
L 192.328 -375.556919 
L 227.6675 -268.420234 
L 263.007 -152.121071 
L 333.686 -109.065919 
L 404.365 -65.868329 
L 439.7045 -75.248588 
L 475.044 -170.38927 
L 510.3835 -139.576599 
L 545.723 -139.867265 
L 581.0625 -153.052388 
L 616.402 -228.618936 
L 651.7415 -229.853437 
L 687.081 -249.31623 
L 757.76 -297.396876 
L 757.76 -297.396876 
L 757.76 -306.531251 
L 687.081 -263.568075 
L 651.7415 -246.315661 
L 616.402 -246.687321 
L 581.0625 -171.09611 
L 545.723 -155.328476 
L 510.3835 -153.547235 
L 475.044 -182.072977 
L 439.7045 -75.248588 
L 404.365 -65.868329 
L 333.686 -109.065919 
L 263.007 -152.121071 
L 227.6675 -268.420234 
L 192.328 -375.556919 
L 156.9885 -167.753315 
L 121.649 -211.553029 
L 86.3095 -202.362994 
L 50.97 -182.042286 
z
" id="m4dc32669bd" style="stroke:#ffffff;stroke-width:2;"/>
    </defs>
    <g clip-path="url(#p0cf46a68ee)">
     <use style="fill:#808000;stroke:#ffffff;stroke-width:2;" x="0" xlink:href="#m4dc32669bd" y="720"/>
    </g>
   </g>
   <g id="PolyCollection_19">
    <defs>
     <path d="M 50.97 -182.042286 
L 50.97 -182.042286 
L 86.3095 -202.362994 
L 121.649 -211.553029 
L 156.9885 -167.753315 
L 192.328 -375.556919 
L 227.6675 -268.420234 
L 263.007 -152.121071 
L 333.686 -109.065919 
L 404.365 -65.868329 
L 439.7045 -75.248588 
L 475.044 -182.072977 
L 510.3835 -153.547235 
L 545.723 -155.328476 
L 581.0625 -171.09611 
L 616.402 -246.687321 
L 651.7415 -246.315661 
L 687.081 -263.568075 
L 757.76 -306.531251 
L 757.76 -306.531251 
L 757.76 -306.531251 
L 687.081 -301.524519 
L 651.7415 -285.233267 
L 616.402 -284.949782 
L 581.0625 -199.774296 
L 545.723 -168.857035 
L 510.3835 -189.780756 
L 475.044 -238.747677 
L 439.7045 -111.308921 
L 404.365 -68.089433 
L 333.686 -109.065919 
L 263.007 -152.121071 
L 227.6675 -268.420234 
L 192.328 -375.556919 
L 156.9885 -167.753315 
L 121.649 -211.553029 
L 86.3095 -202.362994 
L 50.97 -182.042286 
z
" id="m7e3054ec54" style="stroke:#ffffff;stroke-width:2;"/>
    </defs>
    <g clip-path="url(#p0cf46a68ee)">
     <use style="fill:#808080;stroke:#ffffff;stroke-width:2;" x="0" xlink:href="#m7e3054ec54" y="720"/>
    </g>
   </g>
   <g id="PolyCollection_20">
    <defs>
     <path d="M 50.97 -182.042286 
L 50.97 -182.042286 
L 86.3095 -202.362994 
L 121.649 -211.553029 
L 156.9885 -167.753315 
L 192.328 -375.556919 
L 227.6675 -268.420234 
L 263.007 -152.121071 
L 333.686 -109.065919 
L 404.365 -68.089433 
L 439.7045 -111.308921 
L 475.044 -238.747677 
L 510.3835 -189.780756 
L 545.723 -168.857035 
L 581.0625 -199.774296 
L 616.402 -284.949782 
L 651.7415 -285.233267 
L 687.081 -301.524519 
L 757.76 -306.531251 
L 757.76 -306.531251 
L 757.76 -406.110924 
L 687.081 -403.90512 
L 651.7415 -392.427375 
L 616.402 -392.600912 
L 581.0625 -339.504183 
L 545.723 -325.928882 
L 510.3835 -330.388451 
L 475.044 -354.887216 
L 439.7045 -274.603024 
L 404.365 -257.105384 
L 333.686 -256.93787 
L 263.007 -258.254653 
L 227.6675 -268.420234 
L 192.328 -375.556919 
L 156.9885 -167.753315 
L 121.649 -211.553029 
L 86.3095 -202.362994 
L 50.97 -182.042286 
z
" id="m00f6c26818" style="stroke:#ffffff;stroke-width:2;"/>
    </defs>
    <g clip-path="url(#p0cf46a68ee)">
     <use style="fill:#4363d8;stroke:#ffffff;stroke-width:2;" x="0" xlink:href="#m00f6c26818" y="720"/>
    </g>
   </g>
   <g id="PolyCollection_21">
    <defs>
     <path d="M 50.97 -182.042286 
L 50.97 -182.042286 
L 86.3095 -202.362994 
L 121.649 -211.553029 
L 156.9885 -167.753315 
L 192.328 -375.556919 
L 227.6675 -268.420234 
L 263.007 -258.254653 
L 333.686 -256.93787 
L 404.365 -257.105384 
L 439.7045 -274.603024 
L 475.044 -354.887216 
L 510.3835 -330.388451 
L 545.723 -325.928882 
L 581.0625 -339.504183 
L 616.402 -392.600912 
L 651.7415 -392.427375 
L 687.081 -403.90512 
L 757.76 -406.110924 
L 757.76 -406.110924 
L 757.76 -501.348024 
L 687.081 -512.248227 
L 651.7415 -504.70429 
L 616.402 -504.199756 
L 581.0625 -484.638469 
L 545.723 -489.325769 
L 510.3835 -471.356677 
L 475.044 -465.446476 
L 439.7045 -438.220056 
L 404.365 -453.8952 
L 333.686 -406.368712 
L 263.007 -359.715687 
L 227.6675 -268.420234 
L 192.328 -375.556919 
L 156.9885 -167.753315 
L 121.649 -211.553029 
L 86.3095 -202.362994 
L 50.97 -182.042286 
z
" id="ma8f16672eb" style="stroke:#ffffff;stroke-width:2;"/>
    </defs>
    <g clip-path="url(#p0cf46a68ee)">
     <use style="fill:#fabebe;stroke:#ffffff;stroke-width:2;" x="0" xlink:href="#ma8f16672eb" y="720"/>
    </g>
   </g>
   <g id="PolyCollection_22">
    <defs>
     <path d="M 50.97 -182.042286 
L 50.97 -182.042286 
L 86.3095 -202.362994 
L 121.649 -211.553029 
L 156.9885 -167.753315 
L 192.328 -375.556919 
L 227.6675 -268.420234 
L 263.007 -359.715687 
L 333.686 -406.368712 
L 404.365 -453.8952 
L 439.7045 -438.220056 
L 475.044 -465.446476 
L 510.3835 -471.356677 
L 545.723 -489.325769 
L 581.0625 -484.638469 
L 616.402 -504.199756 
L 651.7415 -504.70429 
L 687.081 -512.248227 
L 757.76 -501.348024 
L 757.76 -501.348024 
L 757.76 -501.348024 
L 687.081 -512.248227 
L 651.7415 -504.70429 
L 616.402 -504.199756 
L 581.0625 -486.991998 
L 545.723 -494.06955 
L 510.3835 -477.395597 
L 475.044 -472.421824 
L 439.7045 -443.925123 
L 404.365 -456.782635 
L 333.686 -408.595699 
L 263.007 -361.273203 
L 227.6675 -271.72815 
L 192.328 -380.496121 
L 156.9885 -167.753315 
L 121.649 -211.553029 
L 86.3095 -202.362994 
L 50.97 -182.042286 
z
" id="m0db3e0ce6c" style="stroke:#ffffff;stroke-width:2;"/>
    </defs>
    <g clip-path="url(#p0cf46a68ee)">
     <use style="fill:#9a6324;stroke:#ffffff;stroke-width:2;" x="0" xlink:href="#m0db3e0ce6c" y="720"/>
    </g>
   </g>
   <g id="PolyCollection_23">
    <defs>
     <path d="M 50.97 -182.042286 
L 50.97 -182.042286 
L 86.3095 -202.362994 
L 121.649 -211.553029 
L 156.9885 -167.753315 
L 192.328 -380.496121 
L 227.6675 -271.72815 
L 263.007 -361.273203 
L 333.686 -408.595699 
L 404.365 -456.782635 
L 439.7045 -443.925123 
L 475.044 -472.421824 
L 510.3835 -477.395597 
L 545.723 -494.06955 
L 581.0625 -486.991998 
L 616.402 -504.199756 
L 651.7415 -504.70429 
L 687.081 -512.248227 
L 757.76 -501.348024 
L 757.76 -501.348024 
L 757.76 -526.430122 
L 687.081 -530.790169 
L 651.7415 -524.428613 
L 616.402 -524.317915 
L 581.0625 -501.592594 
L 545.723 -500.218895 
L 510.3835 -495.602491 
L 475.044 -501.5439 
L 439.7045 -465.184573 
L 404.365 -463.557002 
L 333.686 -416.056106 
L 263.007 -369.394536 
L 227.6675 -295.917283 
L 192.328 -424.674537 
L 156.9885 -167.753315 
L 121.649 -211.553029 
L 86.3095 -202.362994 
L 50.97 -182.042286 
z
" id="m9920979223" style="stroke:#ffffff;stroke-width:2;"/>
    </defs>
    <g clip-path="url(#p0cf46a68ee)">
     <use style="fill:#fffac8;stroke:#ffffff;stroke-width:2;" x="0" xlink:href="#m9920979223" y="720"/>
    </g>
   </g>
   <g id="PolyCollection_24">
    <defs>
     <path d="M 50.97 -182.042286 
L 50.97 -182.042286 
L 86.3095 -202.362994 
L 121.649 -211.553029 
L 156.9885 -167.753315 
L 192.328 -424.674537 
L 227.6675 -295.917283 
L 263.007 -369.394536 
L 333.686 -416.056106 
L 404.365 -463.557002 
L 439.7045 -465.184573 
L 475.044 -501.5439 
L 510.3835 -495.602491 
L 545.723 -500.218895 
L 581.0625 -501.592594 
L 616.402 -524.317915 
L 651.7415 -524.428613 
L 687.081 -530.790169 
L 757.76 -526.430122 
L 757.76 -526.430122 
L 757.76 -526.430122 
L 687.081 -530.790169 
L 651.7415 -524.428613 
L 616.402 -524.317915 
L 581.0625 -501.592594 
L 545.723 -500.218895 
L 510.3835 -495.602491 
L 475.044 -501.5439 
L 439.7045 -465.184573 
L 404.365 -463.557002 
L 333.686 -435.319545 
L 263.007 -407.887428 
L 227.6675 -334.371803 
L 192.328 -431.808939 
L 156.9885 -191.218423 
L 121.649 -238.037029 
L 86.3095 -202.362994 
L 50.97 -182.042286 
z
" id="m871d554286" style="stroke:#ffffff;stroke-width:2;"/>
    </defs>
    <g clip-path="url(#p0cf46a68ee)">
     <use style="fill:#9f8238;stroke:#ffffff;stroke-width:2;" x="0" xlink:href="#m871d554286" y="720"/>
    </g>
   </g>
   <g id="PolyCollection_25">
    <defs>
     <path d="M 50.97 -182.042286 
L 50.97 -182.042286 
L 86.3095 -202.362994 
L 121.649 -238.037029 
L 156.9885 -191.218423 
L 192.328 -431.808939 
L 227.6675 -334.371803 
L 263.007 -407.887428 
L 333.686 -435.319545 
L 404.365 -463.557002 
L 439.7045 -465.184573 
L 475.044 -501.5439 
L 510.3835 -495.602491 
L 545.723 -500.218895 
L 581.0625 -501.592594 
L 616.402 -524.317915 
L 651.7415 -524.428613 
L 687.081 -530.790169 
L 757.76 -526.430122 
L 757.76 -526.430122 
L 757.76 -526.430122 
L 687.081 -530.790169 
L 651.7415 -524.428613 
L 616.402 -524.317915 
L 581.0625 -501.592594 
L 545.723 -500.218895 
L 510.3835 -495.602491 
L 475.044 -501.5439 
L 439.7045 -465.184573 
L 404.365 -463.557002 
L 333.686 -454.694334 
L 263.007 -446.602823 
L 227.6675 -377.994941 
L 192.328 -452.114547 
L 156.9885 -221.509743 
L 121.649 -259.476457 
L 86.3095 -202.362994 
L 50.97 -182.042286 
z
" id="m69ebae61db" style="stroke:#ffffff;stroke-width:2;"/>
    </defs>
    <g clip-path="url(#p0cf46a68ee)">
     <use style="fill:#815135;stroke:#ffffff;stroke-width:2;" x="0" xlink:href="#m69ebae61db" y="720"/>
    </g>
   </g>
   <g id="PolyCollection_26">
    <defs>
     <path d="M 50.97 -182.042286 
L 50.97 -182.042286 
L 86.3095 -202.362994 
L 121.649 -259.476457 
L 156.9885 -221.509743 
L 192.328 -452.114547 
L 227.6675 -377.994941 
L 263.007 -446.602823 
L 333.686 -454.694334 
L 404.365 -463.557002 
L 439.7045 -465.184573 
L 475.044 -501.5439 
L 510.3835 -495.602491 
L 545.723 -500.218895 
L 581.0625 -501.592594 
L 616.402 -524.317915 
L 651.7415 -524.428613 
L 687.081 -530.790169 
L 757.76 -526.430122 
L 757.76 -526.430122 
L 757.76 -526.430122 
L 687.081 -530.790169 
L 651.7415 -524.428613 
L 616.402 -524.317915 
L 581.0625 -501.592594 
L 545.723 -500.218895 
L 510.3835 -495.602491 
L 475.044 -501.5439 
L 439.7045 -465.184573 
L 404.365 -463.557002 
L 333.686 -470.951341 
L 263.007 -479.088154 
L 227.6675 -413.555035 
L 192.328 -466.383352 
L 156.9885 -250.09451 
L 121.649 -285.329886 
L 86.3095 -202.362994 
L 50.97 -182.042286 
z
" id="m3c112cf1aa" style="stroke:#ffffff;stroke-width:2;"/>
    </defs>
    <g clip-path="url(#p0cf46a68ee)">
     <use style="fill:#800000;stroke:#ffffff;stroke-width:2;" x="0" xlink:href="#m3c112cf1aa" y="720"/>
    </g>
   </g>
   <g id="PolyCollection_27">
    <defs>
     <path d="M 50.97 -182.042286 
L 50.97 -182.042286 
L 86.3095 -202.362994 
L 121.649 -285.329886 
L 156.9885 -250.09451 
L 192.328 -466.383352 
L 227.6675 -413.555035 
L 263.007 -479.088154 
L 333.686 -470.951341 
L 404.365 -463.557002 
L 439.7045 -465.184573 
L 475.044 -501.5439 
L 510.3835 -495.602491 
L 545.723 -500.218895 
L 581.0625 -501.592594 
L 616.402 -524.317915 
L 651.7415 -524.428613 
L 687.081 -530.790169 
L 757.76 -526.430122 
L 757.76 -526.430122 
L 757.76 -676.17399 
L 687.081 -676.217159 
L 651.7415 -676.154173 
L 616.402 -676.153077 
L 581.0625 -675.928074 
L 545.723 -675.914473 
L 510.3835 -675.868766 
L 475.044 -675.927592 
L 439.7045 -675.518573 
L 404.365 -675.450325 
L 333.686 -639.422923 
L 263.007 -603.466922 
L 227.6675 -579.157564 
L 192.328 -599.193 
L 156.9885 -353.938276 
L 121.649 -286.212686 
L 86.3095 -210.627944 
L 50.97 -195.284286 
z
" id="me5c12ba1fe" style="stroke:#ffffff;stroke-width:2;"/>
    </defs>
    <g clip-path="url(#p0cf46a68ee)">
     <use style="fill:#83d366;stroke:#ffffff;stroke-width:2;" x="0" xlink:href="#me5c12ba1fe" y="720"/>
    </g>
   </g>
   <g id="PolyCollection_28">
    <defs>
     <path d="M 50.97 -195.284286 
L 50.97 -195.284286 
L 86.3095 -210.627944 
L 121.649 -286.212686 
L 156.9885 -353.938276 
L 192.328 -599.193 
L 227.6675 -579.157564 
L 263.007 -603.466922 
L 333.686 -639.422923 
L 404.365 -675.450325 
L 439.7045 -675.518573 
L 475.044 -675.927592 
L 510.3835 -675.868766 
L 545.723 -675.914473 
L 581.0625 -675.928074 
L 616.402 -676.153077 
L 651.7415 -676.154173 
L 687.081 -676.217159 
L 757.76 -676.17399 
L 757.76 -676.17399 
L 757.76 -676.922709 
L 687.081 -676.944294 
L 651.7415 -676.912801 
L 616.402 -676.912253 
L 581.0625 -676.799751 
L 545.723 -676.792951 
L 510.3835 -676.770097 
L 475.044 -676.79951 
L 439.7045 -676.595001 
L 404.365 -676.560877 
L 333.686 -643.097452 
L 263.007 -609.696986 
L 227.6675 -589.494801 
L 192.328 -611.266605 
L 156.9885 -386.362788 
L 121.649 -320.263543 
L 86.3095 -210.627944 
L 50.97 -195.284286 
z
" id="md721472816" style="stroke:#ffffff;stroke-width:2;"/>
    </defs>
    <g clip-path="url(#p0cf46a68ee)">
     <use style="fill:#911eb4;stroke:#ffffff;stroke-width:2;" x="0" xlink:href="#md721472816" y="720"/>
    </g>
   </g>
   <g id="PolyCollection_29">
    <defs>
     <path d="M 50.97 -195.284286 
L 50.97 -195.284286 
L 86.3095 -210.627944 
L 121.649 -320.263543 
L 156.9885 -386.362788 
L 192.328 -611.266605 
L 227.6675 -589.494801 
L 263.007 -609.696986 
L 333.686 -643.097452 
L 404.365 -676.560877 
L 439.7045 -676.595001 
L 475.044 -676.79951 
L 510.3835 -676.770097 
L 545.723 -676.792951 
L 581.0625 -676.799751 
L 616.402 -676.912253 
L 651.7415 -676.912801 
L 687.081 -676.944294 
L 757.76 -676.922709 
L 757.76 -676.922709 
L 757.76 -677.671429 
L 687.081 -677.671429 
L 651.7415 -677.671429 
L 616.402 -677.671429 
L 581.0625 -677.671429 
L 545.723 -677.671429 
L 510.3835 -677.671429 
L 475.044 -677.671429 
L 439.7045 -677.671429 
L 404.365 -677.671429 
L 333.686 -665.088951 
L 263.007 -652.528672 
L 227.6675 -630.326885 
L 192.328 -614.010605 
L 156.9885 -386.362788 
L 121.649 -320.263543 
L 86.3095 -210.627944 
L 50.97 -195.284286 
z
" id="m3b44be1fd9" style="stroke:#ffffff;stroke-width:2;"/>
    </defs>
    <g clip-path="url(#p0cf46a68ee)">
     <use style="fill:#000075;stroke:#ffffff;stroke-width:2;" x="0" xlink:href="#m3b44be1fd9" y="720"/>
    </g>
   </g>
   <g id="PolyCollection_30">
    <defs>
     <path d="M 50.97 -195.284286 
L 50.97 -195.284286 
L 86.3095 -210.627944 
L 121.649 -320.263543 
L 156.9885 -386.362788 
L 192.328 -614.010605 
L 227.6675 -630.326885 
L 263.007 -652.528672 
L 333.686 -665.088951 
L 404.365 -677.671429 
L 439.7045 -677.671429 
L 475.044 -677.671429 
L 510.3835 -677.671429 
L 545.723 -677.671429 
L 581.0625 -677.671429 
L 616.402 -677.671429 
L 651.7415 -677.671429 
L 687.081 -677.671429 
L 757.76 -677.671429 
L 757.76 -677.671429 
L 757.76 -677.671429 
L 687.081 -677.671429 
L 651.7415 -677.671429 
L 616.402 -677.671429 
L 581.0625 -677.671429 
L 545.723 -677.671429 
L 510.3835 -677.671429 
L 475.044 -677.671429 
L 439.7045 -677.671429 
L 404.365 -677.671429 
L 333.686 -671.38019 
L 263.007 -665.10005 
L 227.6675 -645.419251 
L 192.328 -623.065809 
L 156.9885 -426.25347 
L 121.649 -368.817543 
L 86.3095 -298.627527 
L 50.97 -297.121571 
z
" id="mfe08931ec7" style="stroke:#ffffff;stroke-width:2;"/>
    </defs>
    <g clip-path="url(#p0cf46a68ee)">
     <use style="fill:#e6beff;stroke:#ffffff;stroke-width:2;" x="0" xlink:href="#mfe08931ec7" y="720"/>
    </g>
   </g>
   <g id="PolyCollection_31">
    <defs>
     <path d="M 50.97 -297.121571 
L 50.97 -297.121571 
L 86.3095 -298.627527 
L 121.649 -368.817543 
L 156.9885 -426.25347 
L 192.328 -623.065809 
L 227.6675 -645.419251 
L 263.007 -665.10005 
L 333.686 -671.38019 
L 404.365 -677.671429 
L 439.7045 -677.671429 
L 475.044 -677.671429 
L 510.3835 -677.671429 
L 545.723 -677.671429 
L 581.0625 -677.671429 
L 616.402 -677.671429 
L 651.7415 -677.671429 
L 687.081 -677.671429 
L 757.76 -677.671429 
L 757.76 -677.671429 
L 757.76 -677.671429 
L 687.081 -677.671429 
L 651.7415 -677.671429 
L 616.402 -677.671429 
L 581.0625 -677.671429 
L 545.723 -677.671429 
L 510.3835 -677.671429 
L 475.044 -677.671429 
L 439.7045 -677.671429 
L 404.365 -677.671429 
L 333.686 -671.38019 
L 263.007 -665.10005 
L 227.6675 -649.967635 
L 192.328 -635.139413 
L 156.9885 -457.398067 
L 121.649 -400.976686 
L 86.3095 -343.641988 
L 50.97 -341.892143 
z
" id="m642c785518" style="stroke:#ffffff;stroke-width:2;"/>
    </defs>
    <g clip-path="url(#p0cf46a68ee)">
     <use style="fill:#ca6a9d;stroke:#ffffff;stroke-width:2;" x="0" xlink:href="#m642c785518" y="720"/>
    </g>
   </g>
   <g id="PolyCollection_32">
    <defs>
     <path d="M 50.97 -341.892143 
L 50.97 -341.892143 
L 86.3095 -343.641988 
L 121.649 -400.976686 
L 156.9885 -457.398067 
L 192.328 -635.139413 
L 227.6675 -649.967635 
L 263.007 -665.10005 
L 333.686 -671.38019 
L 404.365 -677.671429 
L 439.7045 -677.671429 
L 475.044 -677.671429 
L 510.3835 -677.671429 
L 545.723 -677.671429 
L 581.0625 -677.671429 
L 616.402 -677.671429 
L 651.7415 -677.671429 
L 687.081 -677.671429 
L 757.76 -677.671429 
L 757.76 -677.671429 
L 757.76 -677.671429 
L 687.081 -677.671429 
L 651.7415 -677.671429 
L 616.402 -677.671429 
L 581.0625 -677.671429 
L 545.723 -677.671429 
L 510.3835 -677.671429 
L 475.044 -677.671429 
L 439.7045 -677.671429 
L 404.365 -677.671429 
L 333.686 -671.38019 
L 263.007 -665.10005 
L 227.6675 -649.967635 
L 192.328 -635.139413 
L 156.9885 -474.890238 
L 121.649 -426.830114 
L 86.3095 -378.325261 
L 50.97 -375.312429 
z
" id="m25809cc503" style="stroke:#ffffff;stroke-width:2;"/>
    </defs>
    <g clip-path="url(#p0cf46a68ee)">
     <use style="fill:#9b865d;stroke:#ffffff;stroke-width:2;" x="0" xlink:href="#m25809cc503" y="720"/>
    </g>
   </g>
   <g id="PolyCollection_33">
    <defs>
     <path d="M 50.97 -375.312429 
L 50.97 -375.312429 
L 86.3095 -378.325261 
L 121.649 -426.830114 
L 156.9885 -474.890238 
L 192.328 -635.139413 
L 227.6675 -649.967635 
L 263.007 -665.10005 
L 333.686 -671.38019 
L 404.365 -677.671429 
L 439.7045 -677.671429 
L 475.044 -677.671429 
L 510.3835 -677.671429 
L 545.723 -677.671429 
L 581.0625 -677.671429 
L 616.402 -677.671429 
L 651.7415 -677.671429 
L 687.081 -677.671429 
L 757.76 -677.671429 
L 757.76 -677.671429 
L 757.76 -677.671429 
L 687.081 -677.671429 
L 651.7415 -677.671429 
L 616.402 -677.671429 
L 581.0625 -677.671429 
L 545.723 -677.671429 
L 510.3835 -677.671429 
L 475.044 -677.671429 
L 439.7045 -677.671429 
L 404.365 -677.671429 
L 333.686 -671.38019 
L 263.007 -665.10005 
L 227.6675 -653.223864 
L 192.328 -643.783016 
L 156.9885 -483.742983 
L 121.649 -429.982971 
L 86.3095 -396.773811 
L 50.97 -403.688143 
z
" id="mbb033d4b92" style="stroke:#ffffff;stroke-width:2;"/>
    </defs>
    <g clip-path="url(#p0cf46a68ee)">
     <use style="fill:#ffd8b1;stroke:#ffffff;stroke-width:2;" x="0" xlink:href="#mbb033d4b92" y="720"/>
    </g>
   </g>
   <g id="PolyCollection_34">
    <defs>
     <path d="M 50.97 -403.688143 
L 50.97 -403.688143 
L 86.3095 -396.773811 
L 121.649 -429.982971 
L 156.9885 -483.742983 
L 192.328 -643.783016 
L 227.6675 -653.223864 
L 263.007 -665.10005 
L 333.686 -671.38019 
L 404.365 -677.671429 
L 439.7045 -677.671429 
L 475.044 -677.671429 
L 510.3835 -677.671429 
L 545.723 -677.671429 
L 581.0625 -677.671429 
L 616.402 -677.671429 
L 651.7415 -677.671429 
L 687.081 -677.671429 
L 757.76 -677.671429 
L 757.76 -677.671429 
L 757.76 -677.671429 
L 687.081 -677.671429 
L 651.7415 -677.671429 
L 616.402 -677.671429 
L 581.0625 -677.671429 
L 545.723 -677.671429 
L 510.3835 -677.671429 
L 475.044 -677.671429 
L 439.7045 -677.671429 
L 404.365 -677.671429 
L 333.686 -671.38019 
L 263.007 -665.10005 
L 227.6675 -655.911546 
L 192.328 -650.917419 
L 156.9885 -517.44741 
L 121.649 -471.600686 
L 86.3095 -396.773811 
L 50.97 -403.688143 
z
" id="m83e7782e17" style="stroke:#ffffff;stroke-width:2;"/>
    </defs>
    <g clip-path="url(#p0cf46a68ee)">
     <use style="fill:#3cb44b;stroke:#ffffff;stroke-width:2;" x="0" xlink:href="#m83e7782e17" y="720"/>
    </g>
   </g>
   <g id="PolyCollection_35">
    <defs>
     <path d="M 50.97 -403.688143 
L 50.97 -403.688143 
L 86.3095 -396.773811 
L 121.649 -471.600686 
L 156.9885 -517.44741 
L 192.328 -650.917419 
L 227.6675 -655.911546 
L 263.007 -665.10005 
L 333.686 -671.38019 
L 404.365 -677.671429 
L 439.7045 -677.671429 
L 475.044 -677.671429 
L 510.3835 -677.671429 
L 545.723 -677.671429 
L 581.0625 -677.671429 
L 616.402 -677.671429 
L 651.7415 -677.671429 
L 687.081 -677.671429 
L 757.76 -677.671429 
L 757.76 -677.671429 
L 757.76 -677.671429 
L 687.081 -677.671429 
L 651.7415 -677.671429 
L 616.402 -677.671429 
L 581.0625 -677.671429 
L 545.723 -677.671429 
L 510.3835 -677.671429 
L 475.044 -677.671429 
L 439.7045 -677.671429 
L 404.365 -677.671429 
L 333.686 -671.38019 
L 263.007 -665.10005 
L 227.6675 -659.322834 
L 192.328 -659.972622 
L 156.9885 -540.699198 
L 121.649 -495.5624 
L 86.3095 -415.960303 
L 50.97 -412.516143 
z
" id="mb09353e53b" style="stroke:#ffffff;stroke-width:2;"/>
    </defs>
    <g clip-path="url(#p0cf46a68ee)">
     <use style="fill:#e6194b;stroke:#ffffff;stroke-width:2;" x="0" xlink:href="#mb09353e53b" y="720"/>
    </g>
   </g>
   <g id="PolyCollection_36">
    <defs>
     <path d="M 50.97 -412.516143 
L 50.97 -412.516143 
L 86.3095 -415.960303 
L 121.649 -495.5624 
L 156.9885 -540.699198 
L 192.328 -659.972622 
L 227.6675 -659.322834 
L 263.007 -665.10005 
L 333.686 -671.38019 
L 404.365 -677.671429 
L 439.7045 -677.671429 
L 475.044 -677.671429 
L 510.3835 -677.671429 
L 545.723 -677.671429 
L 581.0625 -677.671429 
L 616.402 -677.671429 
L 651.7415 -677.671429 
L 687.081 -677.671429 
L 757.76 -677.671429 
L 757.76 -677.671429 
L 757.76 -677.671429 
L 687.081 -677.671429 
L 651.7415 -677.671429 
L 616.402 -677.671429 
L 581.0625 -677.671429 
L 545.723 -677.671429 
L 510.3835 -677.671429 
L 475.044 -677.671429 
L 439.7045 -677.671429 
L 404.365 -677.671429 
L 333.686 -671.38019 
L 263.007 -665.10005 
L 227.6675 -662.579063 
L 192.328 -668.616225 
L 156.9885 -549.551943 
L 121.649 -498.715257 
L 86.3095 -434.408852 
L 50.97 -440.891857 
z
" id="md483c999df" style="stroke:#ffffff;stroke-width:2;"/>
    </defs>
    <g clip-path="url(#p0cf46a68ee)">
     <use style="fill:#ffd8b1;stroke:#ffffff;stroke-width:2;" x="0" xlink:href="#md483c999df" y="720"/>
    </g>
   </g>
   <g id="PolyCollection_37">
    <defs>
     <path d="M 50.97 -440.891857 
L 50.97 -440.891857 
L 86.3095 -434.408852 
L 121.649 -498.715257 
L 156.9885 -549.551943 
L 192.328 -668.616225 
L 227.6675 -662.579063 
L 263.007 -665.10005 
L 333.686 -671.38019 
L 404.365 -677.671429 
L 439.7045 -677.671429 
L 475.044 -677.671429 
L 510.3835 -677.671429 
L 545.723 -677.671429 
L 581.0625 -677.671429 
L 616.402 -677.671429 
L 651.7415 -677.671429 
L 687.081 -677.671429 
L 757.76 -677.671429 
L 757.76 -677.671429 
L 757.76 -677.671429 
L 687.081 -677.671429 
L 651.7415 -677.671429 
L 616.402 -677.671429 
L 581.0625 -677.671429 
L 545.723 -677.671429 
L 510.3835 -677.671429 
L 475.044 -677.671429 
L 439.7045 -677.671429 
L 404.365 -677.671429 
L 333.686 -677.671429 
L 263.007 -677.671429 
L 227.6675 -677.671429 
L 192.328 -677.671429 
L 156.9885 -589.442625 
L 121.649 -547.269257 
L 86.3095 -522.408434 
L 50.97 -542.729143 
z
" id="m89ef816309" style="stroke:#ffffff;stroke-width:2;"/>
    </defs>
    <g clip-path="url(#p0cf46a68ee)">
     <use style="fill:#e6beff;stroke:#ffffff;stroke-width:2;" x="0" xlink:href="#m89ef816309" y="720"/>
    </g>
   </g>
   <g id="PolyCollection_38">
    <defs>
     <path d="M 50.97 -542.729143 
L 50.97 -542.729143 
L 86.3095 -522.408434 
L 121.649 -547.269257 
L 156.9885 -589.442625 
L 192.328 -677.671429 
L 227.6675 -677.671429 
L 263.007 -677.671429 
L 333.686 -677.671429 
L 404.365 -677.671429 
L 439.7045 -677.671429 
L 475.044 -677.671429 
L 510.3835 -677.671429 
L 545.723 -677.671429 
L 581.0625 -677.671429 
L 616.402 -677.671429 
L 651.7415 -677.671429 
L 687.081 -677.671429 
L 757.76 -677.671429 
L 757.76 -677.671429 
L 757.76 -677.671429 
L 687.081 -677.671429 
L 651.7415 -677.671429 
L 616.402 -677.671429 
L 581.0625 -677.671429 
L 545.723 -677.671429 
L 510.3835 -677.671429 
L 475.044 -677.671429 
L 439.7045 -677.671429 
L 404.365 -677.671429 
L 333.686 -677.671429 
L 263.007 -677.671429 
L 227.6675 -677.671429 
L 192.328 -677.671429 
L 156.9885 -677.671429 
L 121.649 -677.671429 
L 86.3095 -677.671429 
L 50.97 -677.671429 
z
" id="m41f720dd63" style="stroke:#ffffff;stroke-width:2;"/>
    </defs>
    <g clip-path="url(#p0cf46a68ee)">
     <use style="fill:#ffffff;stroke:#ffffff;stroke-width:2;" x="0" xlink:href="#m41f720dd63" y="720"/>
    </g>
   </g>
   <g id="patch_3">
    <path d="M 50.97 672.9 
L 50.97 10.8 
" style="fill:none;stroke:#262626;stroke-linecap:square;stroke-linejoin:miter;stroke-width:1.25;"/>
   </g>
   <g id="patch_4">
    <path d="M 50.97 672.9 
L 757.76 672.9 
" style="fill:none;stroke:#262626;stroke-linecap:square;stroke-linejoin:miter;stroke-width:1.25;"/>
   </g>
   <g id="legend_1">
    <g id="text_15">
     <text style="fill:#262626;font-family:Liberation Sans;font-size:10px;font-style:normal;font-weight:normal;text-anchor:start;" transform="rotate(-0, 796.861312, 194.05625)" x="796.861312" y="194.05625">Identity</text>
    </g>
    <g id="patch_5">
     <path d="M 771.183187 208.378125 
L 791.183187 208.378125 
L 791.183187 201.378125 
L 771.183187 201.378125 
z
" style="fill:#ffffff;stroke:#ffffff;stroke-linejoin:miter;stroke-width:2;"/>
    </g>
    <g id="text_16">
     <text style="fill:#262626;font-family:Liberation Sans;font-size:10px;font-style:normal;font-weight:normal;text-anchor:start;" transform="rotate(-0, 799.183187, 208.378125)" x="799.183187" y="208.378125">genotype-0</text>
    </g>
    <g id="patch_6">
     <path d="M 771.183187 222.7 
L 791.183187 222.7 
L 791.183187 215.7 
L 771.183187 215.7 
z
" style="fill:#bcf60c;stroke:#ffffff;stroke-linejoin:miter;stroke-width:2;"/>
    </g>
    <g id="text_17">
     <text style="fill:#262626;font-family:Liberation Sans;font-size:10px;font-style:normal;font-weight:normal;text-anchor:start;" transform="rotate(-0, 799.183187, 222.7)" x="799.183187" y="222.7">genotype-9</text>
    </g>
    <g id="patch_7">
     <path d="M 771.183187 237.021875 
L 791.183187 237.021875 
L 791.183187 230.021875 
L 771.183187 230.021875 
z
" style="fill:#5c9b52;stroke:#ffffff;stroke-linejoin:miter;stroke-width:2;"/>
    </g>
    <g id="text_18">
     <text style="fill:#262626;font-family:Liberation Sans;font-size:10px;font-style:normal;font-weight:normal;text-anchor:start;" transform="rotate(-0, 799.183187, 237.021875)" x="799.183187" y="237.021875">genotype-19</text>
    </g>
    <g id="patch_8">
     <path d="M 771.183187 251.34375 
L 791.183187 251.34375 
L 791.183187 244.34375 
L 771.183187 244.34375 
z
" style="fill:#911eb4;stroke:#ffffff;stroke-linejoin:miter;stroke-width:2;"/>
    </g>
    <g id="text_19">
     <text style="fill:#262626;font-family:Liberation Sans;font-size:10px;font-style:normal;font-weight:normal;text-anchor:start;" transform="rotate(-0, 799.183187, 251.34375)" x="799.183187" y="251.34375">genotype-29</text>
    </g>
    <g id="patch_9">
     <path d="M 771.183187 265.665625 
L 791.183187 265.665625 
L 791.183187 258.665625 
L 771.183187 258.665625 
z
" style="fill:#aaffc3;stroke:#ffffff;stroke-linejoin:miter;stroke-width:2;"/>
    </g>
    <g id="text_20">
     <text style="fill:#262626;font-family:Liberation Sans;font-size:10px;font-style:normal;font-weight:normal;text-anchor:start;" transform="rotate(-0, 799.183187, 265.665625)" x="799.183187" y="265.665625">genotype-6</text>
    </g>
    <g id="patch_10">
     <path d="M 771.183187 279.9875 
L 791.183187 279.9875 
L 791.183187 272.9875 
L 771.183187 272.9875 
z
" style="fill:#f032e6;stroke:#ffffff;stroke-linejoin:miter;stroke-width:2;"/>
    </g>
    <g id="text_21">
     <text style="fill:#262626;font-family:Liberation Sans;font-size:10px;font-style:normal;font-weight:normal;text-anchor:start;" transform="rotate(-0, 799.183187, 279.9875)" x="799.183187" y="279.9875">genotype-14</text>
    </g>
    <g id="patch_11">
     <path d="M 771.183187 294.309375 
L 791.183187 294.309375 
L 791.183187 287.309375 
L 771.183187 287.309375 
z
" style="fill:#46f0f0;stroke:#ffffff;stroke-linejoin:miter;stroke-width:2;"/>
    </g>
    <g id="text_22">
     <text style="fill:#262626;font-family:Liberation Sans;font-size:10px;font-style:normal;font-weight:normal;text-anchor:start;" transform="rotate(-0, 799.183187, 294.309375)" x="799.183187" y="294.309375">genotype-16</text>
    </g>
    <g id="patch_12">
     <path d="M 771.183187 308.63125 
L 791.183187 308.63125 
L 791.183187 301.63125 
L 771.183187 301.63125 
z
" style="fill:#399b92;stroke:#ffffff;stroke-linejoin:miter;stroke-width:2;"/>
    </g>
    <g id="text_23">
     <text style="fill:#262626;font-family:Liberation Sans;font-size:10px;font-style:normal;font-weight:normal;text-anchor:start;" transform="rotate(-0, 799.183187, 308.63125)" x="799.183187" y="308.63125">genotype-8</text>
    </g>
    <g id="patch_13">
     <path d="M 771.183187 322.953125 
L 791.183187 322.953125 
L 791.183187 315.953125 
L 771.183187 315.953125 
z
" style="fill:#86c26e;stroke:#ffffff;stroke-linejoin:miter;stroke-width:2;"/>
    </g>
    <g id="text_24">
     <text style="fill:#262626;font-family:Liberation Sans;font-size:10px;font-style:normal;font-weight:normal;text-anchor:start;" transform="rotate(-0, 799.183187, 322.953125)" x="799.183187" y="322.953125">genotype-7</text>
    </g>
    <g id="patch_14">
     <path d="M 771.183187 337.275 
L 791.183187 337.275 
L 791.183187 330.275 
L 771.183187 330.275 
z
" style="fill:#ffe119;stroke:#ffffff;stroke-linejoin:miter;stroke-width:2;"/>
    </g>
    <g id="text_25">
     <text style="fill:#262626;font-family:Liberation Sans;font-size:10px;font-style:normal;font-weight:normal;text-anchor:start;" transform="rotate(-0, 799.183187, 337.275)" x="799.183187" y="337.275">genotype-5</text>
    </g>
    <g id="patch_15">
     <path d="M 771.183187 351.596875 
L 791.183187 351.596875 
L 791.183187 344.596875 
L 771.183187 344.596875 
z
" style="fill:#a36334;stroke:#ffffff;stroke-linejoin:miter;stroke-width:2;"/>
    </g>
    <g id="text_26">
     <text style="fill:#262626;font-family:Liberation Sans;font-size:10px;font-style:normal;font-weight:normal;text-anchor:start;" transform="rotate(-0, 799.183187, 351.596875)" x="799.183187" y="351.596875">genotype-23</text>
    </g>
    <g id="patch_16">
     <path d="M 771.183187 365.91875 
L 791.183187 365.91875 
L 791.183187 358.91875 
L 771.183187 358.91875 
z
" style="fill:#808080;stroke:#ffffff;stroke-linejoin:miter;stroke-width:2;"/>
    </g>
    <g id="text_27">
     <text style="fill:#262626;font-family:Liberation Sans;font-size:10px;font-style:normal;font-weight:normal;text-anchor:start;" transform="rotate(-0, 799.183187, 365.91875)" x="799.183187" y="365.91875">genotype-11</text>
    </g>
    <g id="patch_17">
     <path d="M 771.183187 380.240625 
L 791.183187 380.240625 
L 791.183187 373.240625 
L 771.183187 373.240625 
z
" style="fill:#fabebe;stroke:#ffffff;stroke-linejoin:miter;stroke-width:2;"/>
    </g>
    <g id="text_28">
     <text style="fill:#262626;font-family:Liberation Sans;font-size:10px;font-style:normal;font-weight:normal;text-anchor:start;" transform="rotate(-0, 799.183187, 380.240625)" x="799.183187" y="380.240625">genotype-27</text>
    </g>
    <g id="patch_18">
     <path d="M 771.183187 394.5625 
L 791.183187 394.5625 
L 791.183187 387.5625 
L 771.183187 387.5625 
z
" style="fill:#fffac8;stroke:#ffffff;stroke-linejoin:miter;stroke-width:2;"/>
    </g>
    <g id="text_29">
     <text style="fill:#262626;font-family:Liberation Sans;font-size:10px;font-style:normal;font-weight:normal;text-anchor:start;" transform="rotate(-0, 799.183187, 394.5625)" x="799.183187" y="394.5625">genotype-21</text>
    </g>
    <g id="patch_19">
     <path d="M 771.183187 408.884375 
L 791.183187 408.884375 
L 791.183187 401.884375 
L 771.183187 401.884375 
z
" style="fill:#815135;stroke:#ffffff;stroke-linejoin:miter;stroke-width:2;"/>
    </g>
    <g id="text_30">
     <text style="fill:#262626;font-family:Liberation Sans;font-size:10px;font-style:normal;font-weight:normal;text-anchor:start;" transform="rotate(-0, 799.183187, 408.884375)" x="799.183187" y="408.884375">genotype-3</text>
    </g>
    <g id="patch_20">
     <path d="M 771.183187 423.20625 
L 791.183187 423.20625 
L 791.183187 416.20625 
L 771.183187 416.20625 
z
" style="fill:#83d366;stroke:#ffffff;stroke-linejoin:miter;stroke-width:2;"/>
    </g>
    <g id="text_31">
     <text style="fill:#262626;font-family:Liberation Sans;font-size:10px;font-style:normal;font-weight:normal;text-anchor:start;" transform="rotate(-0, 799.183187, 423.20625)" x="799.183187" y="423.20625">genotype-28</text>
    </g>
    <g id="patch_21">
     <path d="M 771.183187 437.528125 
L 791.183187 437.528125 
L 791.183187 430.528125 
L 771.183187 430.528125 
z
" style="fill:#000075;stroke:#ffffff;stroke-linejoin:miter;stroke-width:2;"/>
    </g>
    <g id="text_32">
     <text style="fill:#262626;font-family:Liberation Sans;font-size:10px;font-style:normal;font-weight:normal;text-anchor:start;" transform="rotate(-0, 799.183187, 437.528125)" x="799.183187" y="437.528125">genotype-22</text>
    </g>
    <g id="patch_22">
     <path d="M 771.183187 451.85 
L 791.183187 451.85 
L 791.183187 444.85 
L 771.183187 444.85 
z
" style="fill:#ca6a9d;stroke:#ffffff;stroke-linejoin:miter;stroke-width:2;"/>
    </g>
    <g id="text_33">
     <text style="fill:#262626;font-family:Liberation Sans;font-size:10px;font-style:normal;font-weight:normal;text-anchor:start;" transform="rotate(-0, 799.183187, 451.85)" x="799.183187" y="451.85">genotype-17</text>
    </g>
    <g id="patch_23">
     <path d="M 771.183187 466.171875 
L 791.183187 466.171875 
L 791.183187 459.171875 
L 771.183187 459.171875 
z
" style="fill:#ffd8b1;stroke:#ffffff;stroke-linejoin:miter;stroke-width:2;"/>
    </g>
    <g id="text_34">
     <text style="fill:#262626;font-family:Liberation Sans;font-size:10px;font-style:normal;font-weight:normal;text-anchor:start;" transform="rotate(-0, 799.183187, 466.171875)" x="799.183187" y="466.171875">genotype-20</text>
    </g>
    <g id="patch_24">
     <path d="M 771.183187 480.49375 
L 791.183187 480.49375 
L 791.183187 473.49375 
L 771.183187 473.49375 
z
" style="fill:#e6194b;stroke:#ffffff;stroke-linejoin:miter;stroke-width:2;"/>
    </g>
    <g id="text_35">
     <text style="fill:#262626;font-family:Liberation Sans;font-size:10px;font-style:normal;font-weight:normal;text-anchor:start;" transform="rotate(-0, 799.183187, 480.49375)" x="799.183187" y="480.49375">genotype-4</text>
    </g>
    <g id="patch_25">
     <path d="M 771.183187 494.815625 
L 791.183187 494.815625 
L 791.183187 487.815625 
L 771.183187 487.815625 
z
" style="fill:#e6beff;stroke:#ffffff;stroke-linejoin:miter;stroke-width:2;"/>
    </g>
    <g id="text_36">
     <text style="fill:#262626;font-family:Liberation Sans;font-size:10px;font-style:normal;font-weight:normal;text-anchor:start;" transform="rotate(-0, 799.183187, 494.815625)" x="799.183187" y="494.815625">genotype-10</text>
    </g>
   </g>
  </g>
 </g>
 <defs>
  <clipPath id="p0cf46a68ee">
   <rect height="662.1" width="706.79" x="50.97" y="10.8"/>
  </clipPath>
 </defs>
</svg>
